<?xml version="1.0" encoding="UTF-8" standalone="no"?>
<!DOCTYPE svg PUBLIC "-//W3C//DTD SVG 1.1//EN" "http://www.w3.org/Graphics/SVG/1.1/DTD/svg11.dtd">
<svg version="1.1" xmlns="http://www.w3.org/2000/svg" xmlns:xlink="http://www.w3.org/1999/xlink" preserveAspectRatio="xMidYMid meet" viewBox="0 0 100 100" width="100" height="100"><defs><path d="M-26.3 105.95C-26.3 131.67 -47.33 152.55 -73.23 152.55C-99.14 152.55 -120.17 131.67 -120.17 105.95C-120.17 80.24 -99.14 59.36 -73.23 59.36C-47.33 59.36 -26.3 80.24 -26.3 105.95Z" id="a7aXSdyaBv"></path><path d="M72.55 144.06C74.13 144.06 75.41 145.34 75.41 146.92C75.41 147.49 75.41 146.35 75.41 146.92C75.41 148.5 74.13 149.78 72.55 149.78C68.38 149.78 58.74 149.78 54.57 149.78C52.99 149.78 51.71 148.5 51.71 146.92C51.71 146.35 51.71 147.49 51.71 146.92C51.71 145.34 52.99 144.06 54.57 144.06C58.74 144.06 68.38 144.06 72.55 144.06Z" id="d1qmwunxRj"></path><path d="M188.04 83.56L188.04 83.56L188.04 86.61L188.04 86.61L188.04 83.56Z" id="bnhKfaWw1"></path><path d="M-71.62 59.36C-70.8 59.36 -70.13 60.02 -70.13 60.84C-70.13 62.81 -70.13 67.22 -70.13 69.19C-70.13 70.01 -70.8 70.68 -71.62 70.68C-71.94 70.68 -71.42 70.68 -71.75 70.68C-72.57 70.68 -73.23 70.01 -73.23 69.19C-73.23 67.22 -73.23 62.81 -73.23 60.84C-73.23 60.02 -72.57 59.36 -71.75 59.36C-71.42 59.36 -71.94 59.36 -71.62 59.36Z" id="l93k12hrQ"></path><path d="M-39.09 73.35C-38.58 74 -38.68 74.93 -39.32 75.44C-40.86 76.67 -44.3 79.44 -45.83 80.67C-46.48 81.18 -47.41 81.08 -47.92 80.44C-48.12 80.19 -47.78 80.62 -47.97 80.38C-48.49 79.74 -48.38 78.8 -47.74 78.29C-46.21 77.06 -42.76 74.3 -41.23 73.07C-40.59 72.55 -39.65 72.65 -39.14 73.3C-38.94 73.54 -39.29 73.11 -39.09 73.35Z" id="fA1v0hNGf"></path><path d="M-27.92 93.97C-27.58 94.72 -27.92 95.6 -28.67 95.93C-30.46 96.74 -34.49 98.55 -36.28 99.35C-37.03 99.69 -37.91 99.36 -38.25 98.61C-38.37 98.32 -38.15 98.82 -38.28 98.54C-38.61 97.79 -38.28 96.91 -37.53 96.57C-35.74 95.77 -31.71 93.96 -29.91 93.15C-29.17 92.82 -28.29 93.15 -27.95 93.9C-27.82 94.18 -28.05 93.68 -27.92 93.97Z" id="bDmXlNj13"></path><path d="M-29.04 122.96C-29.37 123.71 -30.24 124.06 -30.99 123.74C-32.8 122.97 -36.87 121.24 -38.68 120.47C-39.43 120.15 -39.78 119.28 -39.46 118.52C-39.34 118.24 -39.55 118.74 -39.43 118.45C-39.11 117.7 -38.24 117.35 -37.48 117.67C-35.67 118.44 -31.61 120.17 -29.8 120.94C-29.04 121.26 -28.69 122.13 -29.01 122.89C-29.14 123.17 -28.92 122.67 -29.04 122.96Z" id="bo9BxbhIK"></path><path d="M-104.86 71.27C-104.34 70.63 -103.41 70.53 -102.77 71.05C-101.23 72.28 -97.79 75.04 -96.26 76.27C-95.62 76.78 -95.51 77.72 -96.03 78.36C-96.22 78.6 -95.88 78.18 -96.07 78.42C-96.59 79.06 -97.52 79.16 -98.16 78.65C-99.7 77.42 -103.14 74.65 -104.67 73.42C-105.31 72.91 -105.42 71.97 -104.9 71.33C-104.71 71.09 -105.05 71.52 -104.86 71.27Z" id="aBlGlpztx"></path><path d="M-108.16 97.45C-108.4 98.23 -109.23 98.67 -110.01 98.43C-111.89 97.85 -116.11 96.55 -117.99 95.97C-118.78 95.73 -119.22 94.9 -118.97 94.11C-118.88 93.81 -119.04 94.34 -118.95 94.04C-118.71 93.25 -117.88 92.81 -117.09 93.06C-115.21 93.64 -111 94.94 -109.12 95.51C-108.33 95.76 -107.89 96.59 -108.13 97.37C-108.22 97.67 -108.06 97.15 -108.16 97.45Z" id="e11WysHRhe"></path><path d="M-117.81 122.31C-118.13 121.55 -117.78 120.68 -117.02 120.36C-115.21 119.59 -111.15 117.87 -109.34 117.1C-108.58 116.78 -107.71 117.14 -107.39 117.89C-107.27 118.18 -107.48 117.67 -107.36 117.96C-107.04 118.72 -107.39 119.59 -108.15 119.91C-109.96 120.68 -114.02 122.4 -115.83 123.17C-116.59 123.49 -117.46 123.14 -117.78 122.38C-117.9 122.09 -117.69 122.6 -117.81 122.31Z" id="b1RMTHBecj"></path><path d="M166.36 125.17C166.36 110.11 166.36 100.57 166.36 96.54C166.36 87.46 170.53 108.62 178.86 160.04L189.36 93.04L189.36 147.54L166.36 147.54L166.36 125.17Z" id="a2bUyqaEua"></path><path d="M215.86 202.04L232.86 202.04L232.86 243.54L215.86 243.54L215.86 202.04Z" id="cUv7Xo0tx"></path><path d="M-43.13 109.96C-42.31 110.12 -42.35 111.31 -43.18 111.41C-50.08 112.23 -66.01 114.12 -72.91 114.94C-75.34 115.23 -77.41 113.18 -77.14 110.74C-76.96 109.14 -76.95 109.07 -76.77 107.46C-76.49 104.93 -74.06 103.21 -71.59 103.79C-68.04 104.62 -62.06 106.03 -58.52 106.86C-58.52 106.86 -49.15 108.83 -49.15 108.83C-47.01 109.23 -45.27 109.56 -43.13 109.96Z" id="cfNqnYgZa"></path><path d="M-63.36 108.77C-63.36 113.03 -66.81 116.48 -71.07 116.48C-75.32 116.48 -78.77 113.03 -78.77 108.77C-78.77 104.52 -75.32 101.07 -71.07 101.07C-66.81 101.07 -63.36 104.52 -63.36 108.77Z" id="c15kEIgt1"></path><path d="M43.28 -63.92C43.28 -38.2 22.25 -17.32 -3.65 -17.32C-29.55 -17.32 -50.58 -38.2 -50.58 -63.92C-50.58 -89.64 -29.55 -110.52 -3.65 -110.52C22.25 -110.52 43.28 -89.64 43.28 -63.92Z" id="a2XYqhFleS"></path><path d="M-2.03 -110.52C-1.21 -110.52 -0.55 -109.85 -0.55 -109.03C-0.55 -107.07 -0.55 -102.65 -0.55 -100.68C-0.55 -99.86 -1.21 -99.2 -2.03 -99.2C-2.36 -99.2 -1.84 -99.2 -2.16 -99.2C-2.98 -99.2 -3.65 -99.86 -3.65 -100.68C-3.65 -102.65 -3.65 -107.07 -3.65 -109.03C-3.65 -109.85 -2.98 -110.52 -2.16 -110.52C-1.84 -110.52 -2.36 -110.52 -2.03 -110.52Z" id="aWKkoPCgL"></path><path d="M29.53 -96.18C30.04 -95.54 29.94 -94.61 29.3 -94.1C27.77 -92.87 24.32 -90.1 22.79 -88.87C22.15 -88.36 21.21 -88.46 20.7 -89.1C20.5 -89.36 20.82 -88.95 20.62 -89.2C20.1 -89.84 20.21 -90.78 20.85 -91.29C22.38 -92.52 25.83 -95.29 27.36 -96.52C28 -97.03 28.94 -96.93 29.45 -96.29C29.65 -96.03 29.33 -96.44 29.53 -96.18Z" id="dPWbZunM"></path><path d="M41.65 -75.97C41.99 -75.21 41.65 -74.3 40.88 -73.96C38.85 -73.05 34.15 -70.94 32.12 -70.02C31.36 -69.68 30.45 -70.02 30.11 -70.79C29.98 -71.07 30.23 -70.51 30.11 -70.79C29.76 -71.56 30.11 -72.46 30.87 -72.81C32.9 -73.72 37.6 -75.83 39.63 -76.74C40.4 -77.09 41.3 -76.74 41.65 -75.97C41.77 -75.7 41.52 -76.25 41.65 -75.97Z" id="aeVuR3f3i"></path><path d="M40.1 -45.88C39.7 -45.16 38.8 -44.9 38.08 -45.3C36.36 -46.26 32.51 -48.41 30.79 -49.36C30.07 -49.76 29.81 -50.67 30.21 -51.39C30.37 -51.66 30.1 -51.18 30.25 -51.45C30.65 -52.17 31.55 -52.43 32.27 -52.03C33.99 -51.07 37.85 -48.92 39.56 -47.96C40.28 -47.56 40.54 -46.66 40.14 -45.94C39.99 -45.67 40.25 -46.15 40.1 -45.88Z" id="b5isQOzqC2"></path><path d="M-35.45 -98.64C-34.94 -99.28 -34 -99.38 -33.36 -98.87C-31.83 -97.64 -28.39 -94.88 -26.85 -93.64C-26.21 -93.13 -26.11 -92.19 -26.62 -91.55C-26.83 -91.3 -26.5 -91.71 -26.71 -91.45C-27.22 -90.81 -28.15 -90.71 -28.79 -91.22C-30.33 -92.46 -33.77 -95.22 -35.31 -96.45C-35.95 -96.96 -36.05 -97.9 -35.53 -98.54C-35.33 -98.79 -35.66 -98.39 -35.45 -98.64Z" id="c1VFrFs43h"></path><path d="M-37.29 -72.07C-37.54 -71.27 -38.39 -70.82 -39.2 -71.07C-41.32 -71.72 -46.25 -73.24 -48.37 -73.89C-49.18 -74.14 -49.63 -74.99 -49.38 -75.8C-49.29 -76.09 -49.47 -75.51 -49.38 -75.8C-49.13 -76.6 -48.28 -77.05 -47.48 -76.81C-45.35 -76.15 -40.43 -74.63 -38.3 -73.98C-37.49 -73.73 -37.04 -72.88 -37.29 -72.07C-37.38 -71.78 -37.2 -72.36 -37.29 -72.07Z" id="cHHr1s29E"></path><path d="M-48.22 -47.53C-48.54 -48.3 -48.18 -49.2 -47.41 -49.53C-45.36 -50.4 -40.61 -52.41 -38.57 -53.27C-37.79 -53.6 -36.9 -53.24 -36.57 -52.46C-36.45 -52.18 -36.69 -52.75 -36.57 -52.46C-36.24 -51.69 -36.6 -50.8 -37.38 -50.47C-39.43 -49.6 -44.17 -47.59 -46.22 -46.72C-46.99 -46.39 -47.89 -46.75 -48.22 -47.53C-48.33 -47.81 -48.1 -47.25 -48.22 -47.53Z" id="a4he7HuFww"></path><path d="M26.45 -59.91C27.28 -59.76 27.24 -58.56 26.4 -58.47C19.51 -57.65 3.57 -55.75 -3.33 -54.94C-5.76 -54.65 -7.82 -56.7 -7.56 -59.13C-7.38 -60.74 -7.37 -60.81 -7.19 -62.42C-6.91 -64.95 -4.48 -66.66 -2 -66.08C1.54 -65.25 7.52 -63.85 11.07 -63.02C11.07 -63.02 20.43 -61.04 20.43 -61.04C22.58 -60.64 24.31 -60.31 26.45 -59.91Z" id="a4obpG9dn7"></path><path d="M6.22 -61.1C6.22 -56.85 2.77 -53.39 -1.48 -53.39C-5.74 -53.39 -9.19 -56.85 -9.19 -61.1C-9.19 -65.35 -5.74 -68.81 -1.48 -68.81C2.77 -68.81 6.22 -65.35 6.22 -61.1Z" id="b1r3jajLhX"></path><path d="M-37.31 107.08C-37.31 126.76 -53.41 142.74 -73.23 142.74C-93.05 142.74 -109.15 126.76 -109.15 107.08C-109.15 87.39 -93.05 71.42 -73.23 71.42C-53.41 71.42 -37.31 87.39 -37.31 107.08Z" id="b24Db3kGOn"></path><path d="M149.23 286.16L158.86 252.87L174.11 262.03L189.36 271.2L164.48 295.33L139.6 319.46L149.23 286.16Z" id="b1yDMYoBt5"></path><path d="M184.41 319.46C184.41 345.18 163.38 366.06 137.48 366.06C111.58 366.06 90.54 345.18 90.54 319.46C90.54 293.74 111.58 272.86 137.48 272.86C163.38 272.86 184.41 293.74 184.41 319.46Z" id="b26yCgbr6p"></path><path d="M-88.02 -78.77L-142.93 -78.77L-142.93 8.79L-57.23 8.79L-57.23 -41.25L-51.97 -41.25L-51.97 13.48L-148.12 13.48L-148.12 -83.81L-88.02 -83.81L-88.02 -78.77ZM-90.38 -27.81L-90.38 -27.81L-104.3 -13.71L-130.1 -39.82L-116.18 -53.91L-104.31 -41.9L-71.91 -74.69L-57.98 -60.6L-90.38 -27.81Z" id="j44fjMDO6s"></path><path d="M-29.73 263.87L-29.73 263.87L-41.22 273.84L-62.52 255.37L-58.76 251.13L-41.23 266.51L-4.17 234.08L-0.51 238.53L-29.73 263.87Z" id="byX1nYQI4"></path><path d="M-87.08 228.84L-87.09 228.84L-87.12 208.71L-26.97 208.12L-26.97 212.83L-81.66 214.44L-81.33 303.92L-86.75 305.77L-87.08 228.84Z" id="b2OThdgJXn"></path><path d="M9.59 285.64L9.59 285.64L9.5 305.77L-85.88 305.77L-84.08 301.07L4.07 300L5.14 261.42L9.59 261.42L9.59 285.64Z" id="aQuqOkTy5"></path><path d="M161.11 -76.22L161.51 -76.18L161.91 -76.12L162.3 -76.05L162.69 -75.96L163.07 -75.86L163.44 -75.74L163.81 -75.6L164.17 -75.46L164.53 -75.3L164.87 -75.12L165.21 -74.93L165.55 -74.73L165.87 -74.52L166.18 -74.29L166.49 -74.05L166.78 -73.8L167.07 -73.54L167.34 -73.27L167.61 -72.99L167.87 -72.7L168.11 -72.4L168.34 -72.08L168.56 -71.76L168.77 -71.43L168.97 -71.09L169.15 -70.75L169.32 -70.39L169.48 -70.03L169.63 -69.66L169.76 -69.29L169.87 -68.9L169.98 -68.51L170.06 -68.12L170.14 -67.72L170.19 -67.31L170.23 -66.9L170.26 -66.48L170.27 -66.06L170.26 -65.64L170.23 -65.23L170.19 -64.81L170.14 -64.4L170.06 -63.99L169.98 -63.58L169.87 -63.18L169.76 -62.77L169.63 -62.37L169.48 -61.96L169.32 -61.55L169.15 -61.15L168.97 -60.74L168.77 -60.32L168.56 -59.91L168.34 -59.49L168.11 -59.07L167.87 -58.65L167.61 -58.22L167.34 -57.78L167.07 -57.34L166.78 -56.89L166.49 -56.44L166.18 -55.98L165.87 -55.51L165.55 -55.04L165.21 -54.55L164.87 -54.06L164.53 -53.56L164.17 -53.05L163.81 -52.53L163.44 -51.99L163.07 -51.45L162.69 -50.89L162.3 -50.32L161.91 -49.74L161.51 -49.15L161.11 -48.54L160.7 -47.92L160.29 -47.28L159.88 -47.92L159.47 -48.54L159.07 -49.15L158.67 -49.74L158.28 -50.32L157.89 -50.89L157.51 -51.45L157.14 -51.99L156.77 -52.53L156.41 -53.05L156.05 -53.56L155.7 -54.06L155.37 -54.55L155.03 -55.04L154.71 -55.51L154.4 -55.98L154.09 -56.44L153.8 -56.89L153.51 -57.34L153.23 -57.78L152.97 -58.22L152.71 -58.65L152.47 -59.07L152.24 -59.49L152.02 -59.91L151.81 -60.32L151.61 -60.74L151.43 -61.15L151.25 -61.55L151.1 -61.96L150.95 -62.37L150.82 -62.77L150.7 -63.18L150.6 -63.58L150.52 -63.99L150.44 -64.4L150.39 -64.81L150.35 -65.23L150.32 -65.64L150.31 -66.06L150.32 -66.48L150.35 -66.9L150.39 -67.31L150.44 -67.72L150.52 -68.12L150.6 -68.51L150.7 -68.9L150.82 -69.29L150.95 -69.66L151.1 -70.03L151.25 -70.39L151.43 -70.75L151.61 -71.09L151.81 -71.43L152.02 -71.76L152.24 -72.08L152.47 -72.4L152.71 -72.7L152.97 -72.99L153.23 -73.27L153.51 -73.54L153.8 -73.8L154.09 -74.05L154.4 -74.29L154.71 -74.52L155.03 -74.73L155.37 -74.93L155.7 -75.12L156.05 -75.3L156.41 -75.46L156.77 -75.6L157.14 -75.74L157.51 -75.86L157.89 -75.96L158.28 -76.05L158.67 -76.12L159.07 -76.18L159.47 -76.22L159.88 -76.25L160.29 -76.26L160.7 -76.25L161.11 -76.22ZM159.9 -71.41L159.71 -71.39L159.52 -71.37L159.34 -71.33L159.15 -71.29L158.97 -71.24L158.8 -71.18L158.62 -71.12L158.45 -71.05L158.28 -70.97L158.12 -70.89L157.96 -70.8L157.8 -70.71L157.65 -70.6L157.5 -70.5L157.35 -70.38L157.21 -70.27L157.08 -70.14L156.95 -70.01L156.82 -69.88L156.7 -69.74L156.59 -69.6L156.48 -69.45L156.37 -69.3L156.27 -69.14L156.18 -68.98L156.09 -68.82L156.01 -68.65L155.93 -68.48L155.87 -68.3L155.8 -68.13L155.75 -67.94L155.7 -67.76L155.66 -67.57L155.63 -67.38L155.6 -67.19L155.58 -67L155.57 -66.8L155.56 -66.6L155.57 -66.4L155.58 -66.2L155.6 -66.01L155.63 -65.82L155.66 -65.63L155.7 -65.44L155.75 -65.25L155.8 -65.07L155.87 -64.9L155.93 -64.72L156.01 -64.55L156.09 -64.38L156.18 -64.22L156.27 -64.06L156.37 -63.9L156.48 -63.75L156.59 -63.6L156.7 -63.46L156.82 -63.32L156.95 -63.19L157.08 -63.06L157.21 -62.93L157.35 -62.81L157.5 -62.7L157.65 -62.6L157.8 -62.49L157.96 -62.4L158.12 -62.31L158.28 -62.23L158.45 -62.15L158.62 -62.08L158.8 -62.02L158.97 -61.96L159.15 -61.91L159.34 -61.87L159.52 -61.83L159.71 -61.81L159.9 -61.79L160.09 -61.77L160.29 -61.77L160.48 -61.77L160.68 -61.79L160.87 -61.81L161.06 -61.83L161.24 -61.87L161.43 -61.91L161.61 -61.96L161.78 -62.02L161.96 -62.08L162.13 -62.15L162.3 -62.23L162.46 -62.31L162.62 -62.4L162.78 -62.49L162.93 -62.6L163.08 -62.7L163.23 -62.81L163.37 -62.93L163.5 -63.06L163.63 -63.19L163.76 -63.32L163.88 -63.46L163.99 -63.6L164.1 -63.75L164.21 -63.9L164.31 -64.06L164.4 -64.22L164.49 -64.38L164.57 -64.55L164.64 -64.72L164.71 -64.9L164.77 -65.07L164.83 -65.25L164.88 -65.44L164.92 -65.63L164.95 -65.82L164.98 -66.01L165 -66.2L165.01 -66.4L165.02 -66.6L165.01 -66.8L165 -67L164.98 -67.19L164.95 -67.38L164.92 -67.57L164.88 -67.76L164.83 -67.94L164.77 -68.13L164.71 -68.3L164.64 -68.48L164.57 -68.65L164.49 -68.82L164.4 -68.98L164.31 -69.14L164.21 -69.3L164.1 -69.45L163.99 -69.6L163.88 -69.74L163.76 -69.88L163.63 -70.01L163.5 -70.14L163.37 -70.27L163.23 -70.38L163.08 -70.5L162.93 -70.6L162.78 -70.71L162.62 -70.8L162.46 -70.89L162.3 -70.97L162.13 -71.05L161.96 -71.12L161.78 -71.18L161.61 -71.24L161.43 -71.29L161.24 -71.33L161.06 -71.37L160.87 -71.39L160.68 -71.41L160.48 -71.42L160.29 -71.43L160.09 -71.42L159.9 -71.41Z" id="c9DrANALk"></path><path d="M165.84 -107.01C165.7 -89.89 151.68 -76.11 134.57 -76.26C117.45 -76.4 103.68 -90.42 103.82 -107.53C103.97 -124.65 117.98 -138.42 135.09 -138.28C152.21 -138.13 165.99 -124.12 165.84 -107.01Z" id="e61DNdM0hz"></path><path d="M114.87 -83.04C115.4 -82.72 117.67 -80.85 118.07 -80.4C120.13 -78.07 122.38 -80.94 120.24 -78.05C102.43 -54.03 94.27 -43.02 95.76 -45.03C94.53 -43.37 92.18 -43.02 90.52 -44.25C88.71 -45.59 86.3 -47.38 84.5 -48.72C82.85 -49.93 82.56 -52.27 83.84 -53.86C89.25 -60.54 104.51 -79.4 110.27 -86.51C110.59 -86.91 111.19 -86.91 111.52 -86.52C113.09 -84.6 114.21 -83.45 114.87 -83.04Z" id="dvvtBWHx3"></path><path d="M153.84 -107.11C153.75 -96.62 145.16 -88.17 134.67 -88.26C124.18 -88.35 115.73 -96.94 115.82 -107.43C115.91 -117.92 124.5 -126.37 134.99 -126.28C145.48 -126.19 153.93 -117.6 153.84 -107.11Z" id="bv0NcCaga"></path><path d="M342.75 61.14L343.26 61.19L343.75 61.26L344.25 61.35L344.73 61.46L345.21 61.59L345.68 61.74L346.14 61.91L346.59 62.1L347.04 62.3L347.47 62.52L347.9 62.75L348.31 63.01L348.71 63.27L349.11 63.56L349.49 63.85L349.86 64.17L350.22 64.49L350.56 64.83L350.9 65.19L351.22 65.55L351.52 65.93L351.81 66.32L352.09 66.72L352.35 67.14L352.6 67.56L352.83 68L353.05 68.44L353.24 68.89L353.42 69.36L353.59 69.83L353.73 70.31L353.86 70.8L353.97 71.29L354.06 71.79L354.13 72.3L354.18 72.82L354.22 73.34L354.23 73.87L354.22 74.39L354.18 74.91L354.13 75.43L354.06 75.95L353.97 76.46L353.86 76.97L353.73 77.48L353.59 77.99L353.42 78.5L353.24 79.01L353.05 79.51L352.83 80.03L352.6 80.54L352.35 81.05L352.09 81.57L351.81 82.1L351.52 82.62L351.22 83.16L350.9 83.7L350.56 84.24L350.22 84.79L349.86 85.35L349.49 85.92L349.11 86.5L348.71 87.08L348.31 87.68L347.9 88.28L347.47 88.9L347.04 89.53L346.59 90.17L346.14 90.83L345.68 91.49L345.21 92.18L344.73 92.87L344.25 93.58L343.75 94.31L343.26 95.06L342.75 95.82L342.24 96.6L341.73 97.39L341.21 96.6L340.7 95.82L340.2 95.06L339.7 94.31L339.21 93.58L338.72 92.87L338.24 92.18L337.77 91.49L337.31 90.83L336.86 90.17L336.42 89.53L335.98 88.9L335.56 88.28L335.14 87.68L334.74 87.08L334.34 86.5L333.96 85.92L333.59 85.35L333.23 84.79L332.89 84.24L332.55 83.7L332.23 83.16L331.93 82.62L331.64 82.1L331.36 81.57L331.1 81.05L330.85 80.54L330.62 80.03L330.41 79.51L330.21 79.01L330.03 78.5L329.86 77.99L329.72 77.48L329.59 76.97L329.48 76.46L329.39 75.95L329.32 75.43L329.27 74.91L329.24 74.39L329.23 73.87L329.24 73.34L329.27 72.82L329.32 72.3L329.39 71.79L329.48 71.29L329.59 70.8L329.72 70.31L329.86 69.83L330.03 69.36L330.21 68.89L330.41 68.44L330.62 68L330.85 67.56L331.1 67.14L331.36 66.72L331.64 66.32L331.93 65.93L332.23 65.55L332.55 65.19L332.89 64.83L333.23 64.49L333.59 64.17L333.96 63.85L334.34 63.56L334.74 63.27L335.14 63.01L335.56 62.75L335.98 62.52L336.42 62.3L336.86 62.1L337.31 61.91L337.77 61.74L338.24 61.59L338.72 61.46L339.21 61.35L339.7 61.26L340.2 61.19L340.7 61.14L341.21 61.1L341.73 61.09L342.24 61.1L342.75 61.14ZM341.24 67.16L341 67.19L340.77 67.22L340.53 67.27L340.3 67.32L340.08 67.38L339.85 67.45L339.64 67.53L339.42 67.62L339.21 67.71L339 67.82L338.8 67.93L338.61 68.05L338.42 68.18L338.23 68.31L338.05 68.45L337.87 68.6L337.7 68.75L337.54 68.91L337.38 69.08L337.23 69.26L337.09 69.43L336.95 69.62L336.82 69.81L336.69 70.01L336.58 70.21L336.47 70.41L336.36 70.62L336.27 70.84L336.18 71.06L336.11 71.28L336.04 71.51L335.98 71.74L335.93 71.97L335.88 72.21L335.85 72.45L335.82 72.7L335.81 72.94L335.8 73.19L335.81 73.44L335.82 73.69L335.85 73.93L335.88 74.17L335.93 74.41L335.98 74.65L336.04 74.88L336.11 75.11L336.18 75.33L336.27 75.55L336.36 75.76L336.47 75.97L336.58 76.18L336.69 76.38L336.82 76.58L336.95 76.77L337.09 76.95L337.23 77.13L337.38 77.3L337.54 77.47L337.7 77.63L337.87 77.79L338.05 77.93L338.23 78.08L338.42 78.21L338.61 78.34L338.8 78.46L339 78.57L339.21 78.67L339.42 78.77L339.64 78.86L339.85 78.93L340.08 79.01L340.3 79.07L340.53 79.12L340.77 79.16L341 79.2L341.24 79.22L341.48 79.24L341.73 79.24L341.97 79.24L342.21 79.22L342.45 79.2L342.69 79.16L342.92 79.12L343.15 79.07L343.37 79.01L343.6 78.93L343.82 78.86L344.03 78.77L344.24 78.67L344.45 78.57L344.65 78.46L344.84 78.34L345.04 78.21L345.22 78.08L345.4 77.93L345.58 77.79L345.75 77.63L345.91 77.47L346.07 77.3L346.22 77.13L346.37 76.95L346.5 76.77L346.64 76.58L346.76 76.38L346.88 76.18L346.99 75.97L347.09 75.76L347.18 75.55L347.27 75.33L347.35 75.11L347.41 74.88L347.47 74.65L347.53 74.41L347.57 74.17L347.6 73.93L347.63 73.69L347.64 73.44L347.65 73.19L347.64 72.94L347.63 72.7L347.6 72.45L347.57 72.21L347.53 71.97L347.47 71.74L347.41 71.51L347.35 71.28L347.27 71.06L347.18 70.84L347.09 70.62L346.99 70.41L346.88 70.21L346.76 70.01L346.64 69.81L346.5 69.62L346.37 69.43L346.22 69.26L346.07 69.08L345.91 68.91L345.75 68.75L345.58 68.6L345.4 68.45L345.22 68.31L345.04 68.18L344.84 68.05L344.65 67.93L344.45 67.82L344.24 67.71L344.03 67.62L343.82 67.53L343.6 67.45L343.37 67.38L343.15 67.32L342.92 67.27L342.69 67.22L342.45 67.19L342.21 67.16L341.97 67.15L341.73 67.14L341.48 67.15L341.24 67.16Z" id="a132UrFV4H"></path><path d="M311.7 59.38L311.96 59.41L312.22 59.44L312.48 59.49L312.74 59.55L312.99 59.62L313.24 59.7L313.48 59.79L313.72 59.88L313.95 59.99L314.18 60.11L314.41 60.23L314.63 60.36L314.84 60.5L315.05 60.65L315.25 60.81L315.44 60.98L315.63 61.15L315.81 61.33L315.99 61.51L316.16 61.71L316.32 61.9L316.47 62.11L316.62 62.32L316.76 62.54L316.89 62.76L317.01 62.99L317.12 63.23L317.22 63.47L317.32 63.71L317.41 63.96L317.48 64.21L317.55 64.47L317.61 64.73L317.66 64.99L317.69 65.26L317.72 65.53L317.74 65.81L317.74 66.08L317.74 66.36L317.72 66.64L317.69 66.91L317.66 67.18L317.61 67.45L317.55 67.72L317.48 67.99L317.41 68.26L317.32 68.52L317.22 68.79L317.12 69.06L317.01 69.33L316.89 69.6L316.76 69.87L316.62 70.15L316.47 70.42L316.32 70.7L316.16 70.98L315.99 71.26L315.81 71.55L315.63 71.84L315.44 72.14L315.25 72.44L315.05 72.74L314.84 73.05L314.63 73.36L314.41 73.68L314.18 74.01L313.95 74.34L313.72 74.68L313.48 75.02L313.24 75.37L312.99 75.73L312.74 76.1L312.48 76.47L312.22 76.86L311.96 77.25L311.7 77.65L311.43 78.06L311.16 78.48L310.89 78.06L310.62 77.65L310.35 77.25L310.09 76.86L309.83 76.47L309.57 76.1L309.32 75.73L309.08 75.37L308.83 75.02L308.59 74.68L308.36 74.34L308.13 74.01L307.91 73.68L307.69 73.36L307.47 73.05L307.27 72.74L307.07 72.44L306.87 72.14L306.68 71.84L306.5 71.55L306.32 71.26L306.16 70.98L306 70.7L305.84 70.42L305.7 70.15L305.56 69.87L305.43 69.6L305.31 69.33L305.19 69.06L305.09 68.79L304.99 68.52L304.91 68.26L304.83 67.99L304.76 67.72L304.7 67.45L304.66 67.18L304.62 66.91L304.59 66.64L304.58 66.36L304.57 66.08L304.58 65.81L304.59 65.53L304.62 65.26L304.66 64.99L304.7 64.73L304.76 64.47L304.83 64.21L304.91 63.96L304.99 63.71L305.09 63.47L305.19 63.23L305.31 62.99L305.43 62.76L305.56 62.54L305.7 62.32L305.84 62.11L306 61.9L306.16 61.71L306.32 61.51L306.5 61.33L306.68 61.15L306.87 60.98L307.07 60.81L307.27 60.65L307.47 60.5L307.69 60.36L307.91 60.23L308.13 60.11L308.36 59.99L308.59 59.88L308.83 59.79L309.08 59.7L309.32 59.62L309.57 59.55L309.83 59.49L310.09 59.44L310.35 59.41L310.62 59.38L310.89 59.36L311.16 59.36L311.43 59.36L311.7 59.38ZM310.9 62.55L310.78 62.57L310.65 62.58L310.53 62.61L310.41 62.64L310.29 62.67L310.17 62.71L310.06 62.75L309.94 62.79L309.83 62.84L309.72 62.9L309.62 62.96L309.51 63.02L309.41 63.09L309.31 63.16L309.22 63.23L309.13 63.31L309.04 63.39L308.95 63.48L308.87 63.56L308.79 63.66L308.71 63.75L308.64 63.85L308.57 63.95L308.5 64.05L308.44 64.16L308.39 64.27L308.33 64.38L308.28 64.49L308.24 64.61L308.2 64.72L308.16 64.84L308.13 64.96L308.1 65.09L308.08 65.21L308.06 65.34L308.05 65.47L308.04 65.6L308.04 65.73L308.04 65.86L308.05 65.99L308.06 66.12L308.08 66.25L308.1 66.37L308.13 66.5L308.16 66.62L308.2 66.74L308.24 66.86L308.28 66.97L308.33 67.08L308.39 67.2L308.44 67.3L308.5 67.41L308.57 67.51L308.64 67.61L308.71 67.71L308.79 67.8L308.87 67.9L308.95 67.98L309.04 68.07L309.13 68.15L309.22 68.23L309.31 68.3L309.41 68.37L309.51 68.44L309.62 68.5L309.72 68.56L309.83 68.62L309.94 68.67L310.06 68.71L310.17 68.76L310.29 68.79L310.41 68.83L310.53 68.85L310.65 68.88L310.78 68.89L310.9 68.91L311.03 68.92L311.16 68.92L311.29 68.92L311.41 68.91L311.54 68.89L311.66 68.88L311.79 68.85L311.91 68.83L312.03 68.79L312.14 68.76L312.26 68.71L312.37 68.67L312.48 68.62L312.59 68.56L312.7 68.5L312.8 68.44L312.9 68.37L313 68.3L313.09 68.23L313.19 68.15L313.28 68.07L313.36 67.98L313.45 67.9L313.53 67.8L313.6 67.71L313.67 67.61L313.74 67.51L313.81 67.41L313.87 67.3L313.93 67.2L313.98 67.08L314.03 66.97L314.08 66.86L314.12 66.74L314.15 66.62L314.19 66.5L314.21 66.37L314.24 66.25L314.25 66.12L314.27 65.99L314.27 65.86L314.28 65.73L314.27 65.6L314.27 65.47L314.25 65.34L314.24 65.21L314.21 65.09L314.19 64.96L314.15 64.84L314.12 64.72L314.08 64.61L314.03 64.49L313.98 64.38L313.93 64.27L313.87 64.16L313.81 64.05L313.74 63.95L313.67 63.85L313.6 63.75L313.53 63.66L313.45 63.56L313.36 63.48L313.28 63.39L313.19 63.31L313.09 63.23L313 63.16L312.9 63.09L312.8 63.02L312.7 62.96L312.59 62.9L312.48 62.84L312.37 62.79L312.26 62.75L312.14 62.71L312.03 62.67L311.91 62.64L311.79 62.61L311.66 62.58L311.54 62.57L311.41 62.55L311.29 62.55L311.16 62.54L311.03 62.55L310.9 62.55Z" id="joSCoXODC"></path><path d="M331.47 30.1C331.36 43.14 320.68 53.64 307.64 53.53C294.59 53.42 284.09 42.74 284.21 29.7C284.32 16.65 295 6.15 308.04 6.26C321.08 6.38 331.58 17.05 331.47 30.1Z" id="ivlF03QDc"></path><path d="M292.63 48.36C293.03 48.61 294.76 50.03 295.06 50.37C296.63 52.15 298.35 49.96 296.72 52.16C283.15 70.47 276.93 78.86 278.06 77.33C277.12 78.59 275.34 78.86 274.07 77.92C272.69 76.9 270.86 75.54 269.48 74.52C268.23 73.59 268 71.81 268.98 70.6C273.1 65.5 284.73 51.14 289.12 45.72C289.36 45.41 289.82 45.41 290.07 45.71C291.27 47.17 292.12 48.05 292.63 48.36Z" id="a2VIlX2Fy2"></path><path d="M322.32 30.02C322.26 38.01 315.71 44.45 307.71 44.38C299.72 44.32 293.28 37.77 293.35 29.77C293.42 21.78 299.96 15.34 307.96 15.41C315.96 15.48 322.39 22.02 322.32 30.02Z" id="a1GARJQk5F"></path><path d="M315.67 94.27L316.65 91.4L338.38 98.79L337.41 101.65L315.67 94.27Z" id="g1kBb2IE0Q"></path><path d="M319.13 93.57L316.27 92.37L319.59 84.46L322.45 85.66L319.13 93.57Z" id="aGZYkT7xY"></path><path d="M323.06 84.78L321.79 87.55L311.5 82.83L312.77 80.05L323.06 84.78Z" id="croNjqyyx"></path><path d="M192.47 80.01L206.69 80.01L206.69 83.56L171.14 83.56L171.14 80.01L185.36 80.01L185.36 36.27L144.97 -4.07L232.86 -4.07L192.47 36.27L192.47 80.01ZM153.36 -6.98L153.36 -10.53L224.47 -10.53L224.47 -6.98L153.36 -6.98Z" id="b1yqe8amFc"></path><path d="M177.51 19.87L166.23 8L188.8 8L211.36 8L200.08 19.87L188.8 31.75L177.51 19.87Z" id="edgsmxMlt"></path><path d="M-268.82 41.29L-268.67 41.3L-268.52 41.32L-268.38 41.34L-268.23 41.37L-268.09 41.4L-267.95 41.43L-267.82 41.47L-267.68 41.51L-267.55 41.56L-267.42 41.61L-267.3 41.67L-267.17 41.73L-267.06 41.79L-266.94 41.86L-266.83 41.93L-266.72 42L-266.61 42.08L-266.51 42.16L-266.41 42.24L-266.32 42.33L-266.23 42.42L-266.14 42.51L-266.06 42.6L-265.98 42.7L-265.91 42.8L-265.84 42.9L-265.78 43.01L-265.72 43.11L-265.66 43.22L-265.61 43.33L-265.57 43.44L-265.53 43.56L-265.5 43.68L-265.47 43.79L-265.45 43.91L-265.44 44.03L-265.43 44.16L-265.43 44.28L-265.43 49.2L-256.81 49.2L-256.81 44.28L-256.8 44.16L-256.8 44.03L-256.78 43.91L-256.76 43.79L-256.73 43.68L-256.7 43.56L-256.66 43.44L-256.62 43.33L-256.57 43.22L-256.52 43.11L-256.46 43.01L-256.39 42.9L-256.33 42.8L-256.25 42.7L-256.18 42.6L-256.09 42.51L-256.01 42.42L-255.92 42.33L-255.82 42.24L-255.72 42.16L-255.62 42.08L-255.52 42L-255.41 41.93L-255.29 41.86L-255.18 41.79L-255.06 41.73L-254.94 41.67L-254.81 41.61L-254.68 41.56L-254.55 41.51L-254.42 41.47L-254.28 41.43L-254.14 41.4L-254 41.37L-253.86 41.34L-253.71 41.32L-253.57 41.3L-253.42 41.29L-253.27 41.28L-253.11 41.28L-252.96 41.28L-252.81 41.29L-252.66 41.3L-252.51 41.32L-252.37 41.34L-252.23 41.37L-252.09 41.4L-251.95 41.43L-251.81 41.47L-251.68 41.51L-251.55 41.56L-251.42 41.61L-251.29 41.67L-251.17 41.73L-251.05 41.79L-250.93 41.86L-250.82 41.93L-250.71 42L-250.6 42.08L-250.5 42.16L-250.4 42.24L-250.31 42.33L-250.22 42.42L-250.13 42.51L-250.05 42.6L-249.97 42.7L-249.9 42.8L-249.83 42.9L-249.77 43.01L-249.71 43.11L-249.66 43.22L-249.61 43.33L-249.57 43.44L-249.53 43.56L-249.49 43.68L-249.47 43.79L-249.45 43.91L-249.43 44.03L-249.42 44.16L-249.42 44.28L-249.42 49.2L-240.8 49.2L-240.8 44.28L-240.8 44.16L-240.79 44.03L-240.77 43.91L-240.75 43.79L-240.73 43.68L-240.69 43.56L-240.66 43.44L-240.61 43.33L-240.56 43.22L-240.51 43.11L-240.45 43.01L-240.39 42.9L-240.32 42.8L-240.25 42.7L-240.17 42.6L-240.09 42.51L-240 42.42L-239.91 42.33L-239.82 42.24L-239.72 42.16L-239.62 42.08L-239.51 42L-239.4 41.93L-239.29 41.86L-239.17 41.79L-239.05 41.73L-238.93 41.67L-238.8 41.61L-238.68 41.56L-238.54 41.51L-238.41 41.47L-238.27 41.43L-238.14 41.4L-237.99 41.37L-237.85 41.34L-237.71 41.32L-237.56 41.3L-237.41 41.29L-237.26 41.28L-237.11 41.28L-236.96 41.28L-236.8 41.29L-236.66 41.3L-236.51 41.32L-236.36 41.34L-236.22 41.37L-236.08 41.4L-235.94 41.43L-235.8 41.47L-235.67 41.51L-235.54 41.56L-235.41 41.61L-235.28 41.67L-235.16 41.73L-235.04 41.79L-234.93 41.86L-234.81 41.93L-234.7 42L-234.6 42.08L-234.5 42.16L-234.4 42.24L-234.3 42.33L-234.21 42.42L-234.13 42.51L-234.04 42.6L-233.97 42.7L-233.89 42.8L-233.83 42.9L-233.76 43.01L-233.7 43.11L-233.65 43.22L-233.6 43.33L-233.56 43.44L-233.52 43.56L-233.49 43.68L-233.46 43.79L-233.44 43.91L-233.43 44.03L-233.42 44.16L-233.41 44.28L-233.41 49.2L-213.71 49.2L-213.71 136.28C-254.5 136.28 -279.98 136.28 -290.18 136.28C-291.47 136.28 -292.51 135.23 -292.51 133.94C-292.51 122.64 -292.51 94.4 -292.51 49.2L-272.81 49.2L-272.81 44.28L-272.81 44.16L-272.8 44.03L-272.79 43.91L-272.77 43.79L-272.74 43.68L-272.71 43.56L-272.67 43.44L-272.63 43.33L-272.58 43.22L-272.52 43.11L-272.46 43.01L-272.4 42.9L-272.33 42.8L-272.26 42.7L-272.18 42.6L-272.1 42.51L-272.01 42.42L-271.92 42.33L-271.83 42.24L-271.73 42.16L-271.63 42.08L-271.52 42L-271.41 41.93L-271.3 41.86L-271.18 41.79L-271.06 41.73L-270.94 41.67L-270.82 41.61L-270.69 41.56L-270.56 41.51L-270.42 41.47L-270.29 41.43L-270.15 41.4L-270.01 41.37L-269.86 41.34L-269.72 41.32L-269.57 41.3L-269.42 41.29L-269.27 41.28L-269.12 41.28L-268.97 41.28L-268.82 41.29ZM-285.13 127.27L-221.1 127.27L-221.1 58.21L-233.41 58.21L-233.41 62.3L-233.42 62.42L-233.43 62.54L-233.44 62.66L-233.46 62.78L-233.49 62.9L-233.52 63.02L-233.56 63.13L-233.6 63.24L-233.65 63.36L-233.7 63.46L-233.76 63.57L-233.83 63.67L-233.89 63.78L-233.97 63.88L-234.04 63.97L-234.13 64.07L-234.21 64.16L-234.3 64.25L-234.4 64.34L-234.5 64.42L-234.6 64.5L-234.7 64.57L-234.81 64.65L-234.93 64.72L-235.04 64.79L-235.16 64.85L-235.28 64.91L-235.41 64.96L-235.54 65.01L-235.67 65.06L-235.8 65.11L-235.94 65.14L-236.08 65.18L-236.22 65.21L-236.36 65.24L-236.51 65.26L-236.66 65.28L-236.8 65.29L-236.96 65.3L-237.11 65.3L-237.26 65.3L-237.41 65.29L-237.56 65.28L-237.71 65.26L-237.85 65.24L-237.99 65.21L-238.14 65.18L-238.27 65.14L-238.41 65.11L-238.54 65.06L-238.68 65.01L-238.8 64.96L-238.93 64.91L-239.05 64.85L-239.17 64.79L-239.29 64.72L-239.4 64.65L-239.51 64.57L-239.62 64.5L-239.72 64.42L-239.82 64.34L-239.91 64.25L-240 64.16L-240.09 64.07L-240.17 63.97L-240.25 63.88L-240.32 63.78L-240.39 63.67L-240.45 63.57L-240.51 63.46L-240.56 63.36L-240.61 63.24L-240.66 63.13L-240.69 63.02L-240.73 62.9L-240.75 62.78L-240.77 62.66L-240.79 62.54L-240.8 62.42L-240.8 62.3L-240.8 58.21L-249.42 58.21L-249.42 62.3L-249.42 62.42L-249.43 62.54L-249.45 62.66L-249.47 62.78L-249.49 62.9L-249.53 63.02L-249.57 63.13L-249.61 63.24L-249.66 63.36L-249.71 63.46L-249.77 63.57L-249.83 63.67L-249.9 63.78L-249.97 63.88L-250.05 63.97L-250.13 64.07L-250.22 64.16L-250.31 64.25L-250.4 64.34L-250.5 64.42L-250.6 64.5L-250.71 64.57L-250.82 64.65L-250.93 64.72L-251.05 64.79L-251.17 64.85L-251.29 64.91L-251.42 64.96L-251.55 65.01L-251.68 65.06L-251.81 65.11L-251.95 65.14L-252.09 65.18L-252.23 65.21L-252.37 65.24L-252.51 65.26L-252.66 65.28L-252.81 65.29L-252.96 65.3L-253.11 65.3L-253.27 65.3L-253.42 65.29L-253.57 65.28L-253.71 65.26L-253.86 65.24L-254 65.21L-254.14 65.18L-254.28 65.14L-254.42 65.11L-254.55 65.06L-254.68 65.01L-254.81 64.96L-254.94 64.91L-255.06 64.85L-255.18 64.79L-255.29 64.72L-255.41 64.65L-255.52 64.57L-255.62 64.5L-255.72 64.42L-255.82 64.34L-255.92 64.25L-256.01 64.16L-256.09 64.07L-256.18 63.97L-256.25 63.88L-256.33 63.78L-256.39 63.67L-256.46 63.57L-256.52 63.46L-256.57 63.36L-256.62 63.24L-256.66 63.13L-256.7 63.02L-256.73 62.9L-256.76 62.78L-256.78 62.66L-256.8 62.54L-256.8 62.42L-256.81 62.3L-256.81 58.21L-265.43 58.21L-265.43 62.3L-265.43 62.42L-265.44 62.54L-265.45 62.66L-265.47 62.78L-265.5 62.9L-265.53 63.02L-265.57 63.13L-265.61 63.24L-265.66 63.36L-265.72 63.46L-265.78 63.57L-265.84 63.67L-265.91 63.78L-265.98 63.88L-266.06 63.97L-266.14 64.07L-266.23 64.16L-266.32 64.25L-266.41 64.34L-266.51 64.42L-266.61 64.5L-266.72 64.57L-266.83 64.65L-266.94 64.72L-267.06 64.79L-267.17 64.85L-267.3 64.91L-267.42 64.96L-267.55 65.01L-267.68 65.06L-267.82 65.11L-267.95 65.14L-268.09 65.18L-268.23 65.21L-268.38 65.24L-268.52 65.26L-268.67 65.28L-268.82 65.29L-268.97 65.3L-269.12 65.3L-269.27 65.3L-269.42 65.29L-269.57 65.28L-269.72 65.26L-269.86 65.24L-270.01 65.21L-270.15 65.18L-270.29 65.14L-270.42 65.11L-270.56 65.06L-270.69 65.01L-270.82 64.96L-270.94 64.91L-271.06 64.85L-271.18 64.79L-271.3 64.72L-271.41 64.65L-271.52 64.57L-271.63 64.5L-271.73 64.42L-271.83 64.34L-271.92 64.25L-272.01 64.16L-272.1 64.07L-272.18 63.97L-272.26 63.88L-272.33 63.78L-272.4 63.67L-272.46 63.57L-272.52 63.46L-272.58 63.36L-272.63 63.24L-272.67 63.13L-272.71 63.02L-272.74 62.9L-272.77 62.78L-272.79 62.66L-272.8 62.54L-272.81 62.42L-272.81 62.3L-272.81 58.21L-285.13 58.21L-285.13 127.27ZM-240.8 119.34L-240.8 107.77L-231.31 107.77L-231.31 119.34L-240.8 119.34ZM-275.28 119.34L-275.28 107.77L-265.78 107.77L-265.78 119.34L-275.28 119.34ZM-257.68 119.34L-257.68 107.77L-248.19 107.77L-248.19 119.34L-257.68 119.34ZM-257.68 100.89L-257.68 89.32L-248.19 89.32L-248.19 100.89L-257.68 100.89ZM-275.28 100.89L-275.28 89.32L-265.78 89.32L-265.78 100.89L-275.28 100.89ZM-240.8 100.89L-240.8 89.32L-231.31 89.32L-231.31 100.89L-240.8 100.89ZM-257.68 82.88L-257.68 71.3L-248.19 71.3L-248.19 82.88L-257.68 82.88ZM-275.28 82.88L-275.28 71.3L-265.78 71.3L-265.78 82.88L-275.28 82.88ZM-240.8 82.88L-240.8 71.3L-231.31 71.3L-231.31 82.88L-240.8 82.88Z" id="a1rP5TbHTV"></path><path d="M96.93 50C96.93 75.72 75.9 96.6 50 96.6C24.1 96.6 3.07 75.72 3.07 50C3.07 24.28 24.1 3.4 50 3.4C75.9 3.4 96.93 24.28 96.93 50Z" id="cXqxdgwMB"></path><path d="M51.62 3.4C52.44 3.4 53.1 4.07 53.1 4.89C53.1 6.85 53.1 11.27 53.1 13.24C53.1 14.06 52.44 14.72 51.62 14.72C51.29 14.72 51.81 14.72 51.49 14.72C50.67 14.72 50 14.06 50 13.24C50 11.27 50 6.85 50 4.89C50 4.07 50.67 3.4 51.49 3.4C51.81 3.4 51.29 3.4 51.62 3.4Z" id="lb9cZO5Ie"></path><path d="M84.14 17.4C84.65 18.04 84.55 18.98 83.91 19.49C82.38 20.72 78.93 23.48 77.4 24.71C76.76 25.23 75.82 25.12 75.31 24.48C75.11 24.24 75.46 24.67 75.26 24.42C74.75 23.78 74.85 22.85 75.49 22.33C77.02 21.1 80.47 18.34 82 17.11C82.64 16.6 83.58 16.7 84.09 17.34C84.29 17.59 83.95 17.16 84.14 17.4Z" id="cI8iAENLj"></path><path d="M95.31 38.01C95.65 38.76 95.32 39.64 94.57 39.98C92.77 40.79 88.75 42.59 86.95 43.4C86.2 43.74 85.32 43.4 84.99 42.65C84.86 42.37 85.08 42.87 84.95 42.58C84.62 41.84 84.95 40.96 85.7 40.62C87.5 39.81 91.52 38 93.32 37.2C94.07 36.86 94.95 37.2 95.28 37.95C95.41 38.23 95.19 37.73 95.31 38.01Z" id="eaRaOJiDL"></path><path d="M94.19 67C93.87 67.76 92.99 68.11 92.24 67.79C90.43 67.02 86.37 65.29 84.56 64.52C83.8 64.2 83.45 63.32 83.77 62.57C83.89 62.28 83.68 62.79 83.8 62.5C84.12 61.74 85 61.39 85.75 61.71C87.56 62.48 91.62 64.21 93.43 64.98C94.19 65.3 94.54 66.18 94.22 66.93C94.1 67.22 94.31 66.71 94.19 67Z" id="a8VjqKP5U"></path><path d="M18.38 15.32C18.89 14.68 19.83 14.58 20.47 15.09C22 16.32 25.44 19.09 26.98 20.32C27.62 20.83 27.72 21.77 27.2 22.41C27.01 22.65 27.35 22.22 27.16 22.47C26.64 23.11 25.71 23.21 25.07 22.69C23.53 21.46 20.09 18.7 18.56 17.47C17.92 16.96 17.81 16.02 18.33 15.38C18.52 15.14 18.18 15.56 18.38 15.32Z" id="b2aghf0Yo9"></path><path d="M15.08 41.49C14.83 42.28 14 42.72 13.22 42.47C11.34 41.89 7.12 40.59 5.24 40.02C4.46 39.77 4.02 38.94 4.26 38.16C4.35 37.86 4.19 38.38 4.28 38.08C4.52 37.3 5.35 36.86 6.14 37.1C8.02 37.68 12.24 38.98 14.12 39.56C14.9 39.8 15.34 40.63 15.1 41.42C15.01 41.72 15.17 41.19 15.08 41.49Z" id="a3oDCK7rhl"></path><path d="M5.42 66.36C5.1 65.6 5.45 64.73 6.21 64.41C8.02 63.64 12.08 61.92 13.89 61.15C14.65 60.83 15.52 61.18 15.84 61.94C15.96 62.23 15.75 61.72 15.87 62.01C16.19 62.76 15.84 63.64 15.08 63.96C13.27 64.72 9.21 66.45 7.4 67.21C6.64 67.53 5.77 67.18 5.45 66.43C5.33 66.14 5.54 66.64 5.42 66.36Z" id="a8Zem5yLV1"></path><path d="M80.1 54.01C80.93 54.16 80.89 55.36 80.05 55.45C73.16 56.27 57.22 58.17 50.32 58.98C47.89 59.27 45.82 57.22 46.09 54.79C46.27 53.18 46.28 53.11 46.46 51.5C46.74 48.97 49.17 47.26 51.65 47.84C55.19 48.67 61.17 50.07 64.72 50.9C64.72 50.9 74.08 52.88 74.08 52.88C76.23 53.28 77.96 53.61 80.1 54.01Z" id="aiEFiobHQ"></path><path d="M59.87 52.82C59.87 57.07 56.42 60.52 52.17 60.52C47.91 60.52 44.46 57.07 44.46 52.82C44.46 48.57 47.91 45.11 52.17 45.11C56.42 45.11 59.87 48.57 59.87 52.82Z" id="aJlezBEXv"></path><path d="M87 51.07C87 70.75 70.91 86.73 51.08 86.73C31.26 86.73 15.17 70.75 15.17 51.07C15.17 31.39 31.26 15.41 51.08 15.41C70.91 15.41 87 31.39 87 51.07Z" id="b12YT2Zv6s"></path></defs><g><g><g><g><use xlink:href="#a7aXSdyaBv" opacity="1" fill-opacity="0" stroke="#000000" stroke-width="4" stroke-opacity="1"></use></g></g><g><use xlink:href="#d1qmwunxRj" opacity="1" fill="#000000" fill-opacity="1"></use></g><g><use xlink:href="#bnhKfaWw1" opacity="1" fill="#000000" fill-opacity="1"></use></g><g><use xlink:href="#l93k12hrQ" opacity="1" fill="#000000" fill-opacity="1"></use></g><g><use xlink:href="#fA1v0hNGf" opacity="1" fill="#000000" fill-opacity="1"></use><g><use xlink:href="#fA1v0hNGf" opacity="1" fill-opacity="0" stroke="#060304" stroke-width="0" stroke-opacity="1"></use></g></g><g><use xlink:href="#bDmXlNj13" opacity="1" fill="#000000" fill-opacity="1"></use></g><g><use xlink:href="#bo9BxbhIK" opacity="1" fill="#000000" fill-opacity="1"></use><g><use xlink:href="#bo9BxbhIK" opacity="1" fill-opacity="0" stroke="#060304" stroke-width="0" stroke-opacity="1"></use></g></g><g><use xlink:href="#aBlGlpztx" opacity="1" fill="#000000" fill-opacity="1"></use></g><g><use xlink:href="#e11WysHRhe" opacity="1" fill="#000000" fill-opacity="1"></use></g><g><use xlink:href="#b1RMTHBecj" opacity="1" fill="#000000" fill-opacity="1"></use></g><g><use xlink:href="#a2bUyqaEua" opacity="1" fill="#000000" fill-opacity="1"></use></g><g><use xlink:href="#cUv7Xo0tx" opacity="1" fill="#000000" fill-opacity="1"></use></g><g><use xlink:href="#cfNqnYgZa" opacity="1" fill="#fd425a" fill-opacity="1"></use><g><use xlink:href="#cfNqnYgZa" opacity="1" fill-opacity="0" stroke="#060304" stroke-width="1" stroke-opacity="1"></use></g></g><g><use xlink:href="#c15kEIgt1" opacity="1" fill="#000000" fill-opacity="1"></use></g><g><g><use xlink:href="#a2XYqhFleS" opacity="1" fill-opacity="0" stroke="#000000" stroke-width="4" stroke-opacity="1"></use></g></g><g><use xlink:href="#aWKkoPCgL" opacity="1" fill="#000000" fill-opacity="1"></use></g><g><use xlink:href="#dPWbZunM" opacity="1" fill="#000000" fill-opacity="1"></use><g><use xlink:href="#dPWbZunM" opacity="1" fill-opacity="0" stroke="#060304" stroke-width="0" stroke-opacity="1"></use></g></g><g><use xlink:href="#aeVuR3f3i" opacity="1" fill="#000000" fill-opacity="1"></use></g><g><use xlink:href="#b5isQOzqC2" opacity="1" fill="#000000" fill-opacity="1"></use><g><use xlink:href="#b5isQOzqC2" opacity="1" fill-opacity="0" stroke="#060304" stroke-width="0" stroke-opacity="1"></use></g></g><g><use xlink:href="#c1VFrFs43h" opacity="1" fill="#000000" fill-opacity="1"></use></g><g><use xlink:href="#cHHr1s29E" opacity="1" fill="#000000" fill-opacity="1"></use></g><g><use xlink:href="#a4he7HuFww" opacity="1" fill="#000000" fill-opacity="1"></use></g><g><use xlink:href="#a4obpG9dn7" opacity="1" fill="#000000" fill-opacity="1"></use><g><use xlink:href="#a4obpG9dn7" opacity="1" fill-opacity="0" stroke="#060304" stroke-width="1" stroke-opacity="1"></use></g></g><g><use xlink:href="#b1r3jajLhX" opacity="1" fill="#000000" fill-opacity="1"></use></g><g><g><use xlink:href="#b24Db3kGOn" opacity="1" fill-opacity="0" stroke="#000000" stroke-width="4" stroke-opacity="1"></use></g></g><g><g><use xlink:href="#b1yDMYoBt5" opacity="1" fill-opacity="0" stroke="#060304" stroke-width="4" stroke-opacity="1"></use></g></g><g><g><use xlink:href="#b26yCgbr6p" opacity="1" fill-opacity="0" stroke="#000000" stroke-width="4" stroke-opacity="1"></use></g></g><g><use xlink:href="#j44fjMDO6s" opacity="1" fill="#000000" fill-opacity="1"></use><g><use xlink:href="#j44fjMDO6s" opacity="1" fill-opacity="0" stroke="#060304" stroke-width="0" stroke-opacity="1"></use></g></g><g><use xlink:href="#byX1nYQI4" opacity="1" fill="#fd425a" fill-opacity="1"></use><g><use xlink:href="#byX1nYQI4" opacity="1" fill-opacity="0" stroke="#060304" stroke-width="0" stroke-opacity="1"></use></g></g><g><use xlink:href="#b2OThdgJXn" opacity="1" fill="#000000" fill-opacity="1"></use><g><use xlink:href="#b2OThdgJXn" opacity="1" fill-opacity="0" stroke="#060304" stroke-width="0" stroke-opacity="1"></use></g></g><g><use xlink:href="#aQuqOkTy5" opacity="1" fill="#000000" fill-opacity="1"></use><g><use xlink:href="#aQuqOkTy5" opacity="1" fill-opacity="0" stroke="#060304" stroke-width="0" stroke-opacity="1"></use></g></g><g><use xlink:href="#c9DrANALk" opacity="1" fill="#fd425a" fill-opacity="1"></use><g><use xlink:href="#c9DrANALk" opacity="1" fill-opacity="0" stroke="#060304" stroke-width="3" stroke-opacity="1"></use></g></g><g><g><use xlink:href="#e61DNdM0hz" opacity="1" fill-opacity="0" stroke="#060304" stroke-width="4" stroke-opacity="1"></use></g></g><g><g><use xlink:href="#dvvtBWHx3" opacity="1" fill-opacity="0" stroke="#060304" stroke-width="4" stroke-opacity="1"></use></g></g><g><g><use xlink:href="#bv0NcCaga" opacity="1" fill-opacity="0" stroke="#060304" stroke-width="4" stroke-opacity="1"></use></g></g><g><g><use xlink:href="#a132UrFV4H" opacity="1" fill-opacity="0" stroke="#060304" stroke-width="3" stroke-opacity="1"></use></g></g><g><g><use xlink:href="#joSCoXODC" opacity="1" fill-opacity="0" stroke="#060304" stroke-width="2" stroke-opacity="1"></use></g></g><g><g><use xlink:href="#ivlF03QDc" opacity="1" fill-opacity="0" stroke="#060304" stroke-width="4" stroke-opacity="1"></use></g></g><g><g><use xlink:href="#a2VIlX2Fy2" opacity="1" fill-opacity="0" stroke="#060304" stroke-width="4" stroke-opacity="1"></use></g></g><g><g><use xlink:href="#a1GARJQk5F" opacity="1" fill-opacity="0" stroke="#060304" stroke-width="4" stroke-opacity="1"></use></g></g><g><use xlink:href="#g1kBb2IE0Q" opacity="1" fill="#000000" fill-opacity="1"></use></g><g><use xlink:href="#aGZYkT7xY" opacity="1" fill="#000000" fill-opacity="1"></use></g><g><use xlink:href="#croNjqyyx" opacity="1" fill="#000000" fill-opacity="1"></use></g><g><g><use xlink:href="#b1yqe8amFc" opacity="1" fill-opacity="0" stroke="#060304" stroke-width="4" stroke-opacity="1"></use></g></g><g><use xlink:href="#edgsmxMlt" opacity="1" fill="#fd425a" fill-opacity="1"></use></g><g><g><use xlink:href="#a1rP5TbHTV" opacity="1" fill-opacity="0" stroke="#060304" stroke-width="4" stroke-opacity="1"></use></g></g><g><g><use xlink:href="#cXqxdgwMB" opacity="1" fill-opacity="0" stroke="#000000" stroke-width="4" stroke-opacity="1"></use></g></g><g><use xlink:href="#lb9cZO5Ie" opacity="1" fill="#000000" fill-opacity="1"></use></g><g><use xlink:href="#cI8iAENLj" opacity="1" fill="#000000" fill-opacity="1"></use><g><use xlink:href="#cI8iAENLj" opacity="1" fill-opacity="0" stroke="#060304" stroke-width="0" stroke-opacity="1"></use></g></g><g><use xlink:href="#eaRaOJiDL" opacity="1" fill="#000000" fill-opacity="1"></use></g><g><use xlink:href="#a8VjqKP5U" opacity="1" fill="#000000" fill-opacity="1"></use><g><use xlink:href="#a8VjqKP5U" opacity="1" fill-opacity="0" stroke="#060304" stroke-width="0" stroke-opacity="1"></use></g></g><g><use xlink:href="#b2aghf0Yo9" opacity="1" fill="#000000" fill-opacity="1"></use></g><g><use xlink:href="#a3oDCK7rhl" opacity="1" fill="#000000" fill-opacity="1"></use></g><g><use xlink:href="#a8Zem5yLV1" opacity="1" fill="#000000" fill-opacity="1"></use></g><g><use xlink:href="#aiEFiobHQ" opacity="1" fill="#fd425a" fill-opacity="1"></use><g><use xlink:href="#aiEFiobHQ" opacity="1" fill-opacity="0" stroke="#060304" stroke-width="0" stroke-opacity="1"></use></g></g><g><use xlink:href="#aJlezBEXv" opacity="1" fill="#000000" fill-opacity="1"></use></g><g><g><use xlink:href="#b12YT2Zv6s" opacity="1" fill-opacity="0" stroke="#000000" stroke-width="4" stroke-opacity="1"></use></g></g></g></g></svg>