<?xml version="1.0" encoding="UTF-8" standalone="no"?>
<!DOCTYPE svg PUBLIC "-//W3C//DTD SVG 1.1//EN" "http://www.w3.org/Graphics/SVG/1.1/DTD/svg11.dtd">
<svg version="1.1" xmlns="http://www.w3.org/2000/svg" xmlns:xlink="http://www.w3.org/1999/xlink" preserveAspectRatio="xMidYMid meet" viewBox="0 0 100 100" width="100" height="100"><defs><path d="M-28.92 105.19C-28.92 130.91 -49.95 151.79 -75.86 151.79C-101.76 151.79 -122.79 130.91 -122.79 105.19C-122.79 79.47 -101.76 58.59 -75.86 58.59C-49.95 58.59 -28.92 79.47 -28.92 105.19Z" id="d2cPZm7gJD"></path><path d="M69.93 143.29C71.51 143.29 72.79 144.57 72.79 146.15C72.79 146.73 72.79 145.58 72.79 146.15C72.79 147.73 71.51 149.01 69.93 149.01C65.76 149.01 56.11 149.01 51.95 149.01C50.37 149.01 49.09 147.73 49.09 146.15C49.09 145.58 49.09 146.73 49.09 146.15C49.09 144.57 50.37 143.29 51.95 143.29C56.11 143.29 65.76 143.29 69.93 143.29Z" id="a1feJUHAeN"></path><path d="M185.42 82.79L185.42 82.79L185.42 85.84L185.42 85.84L185.42 82.79Z" id="c3moNfBx0A"></path><path d="M-74.24 58.59C-73.42 58.59 -72.76 59.25 -72.76 60.08C-72.76 62.04 -72.76 66.46 -72.76 68.42C-72.76 69.25 -73.42 69.91 -74.24 69.91C-74.57 69.91 -74.05 69.91 -74.37 69.91C-75.19 69.91 -75.86 69.25 -75.86 68.42C-75.86 66.46 -75.86 62.04 -75.86 60.08C-75.86 59.25 -75.19 58.59 -74.37 58.59C-74.05 58.59 -74.57 58.59 -74.24 58.59Z" id="ablEx5kmL"></path><path d="M-41.72 72.59C-41.2 73.23 -41.31 74.16 -41.95 74.68C-43.48 75.91 -46.93 78.67 -48.46 79.9C-49.1 80.41 -50.04 80.31 -50.55 79.67C-50.75 79.43 -50.4 79.85 -50.6 79.61C-51.11 78.97 -51.01 78.03 -50.37 77.52C-48.83 76.29 -45.39 73.53 -43.85 72.3C-43.21 71.79 -42.28 71.89 -41.76 72.53C-41.57 72.77 -41.91 72.35 -41.72 72.59Z" id="aU6irrARe"></path><path d="M-30.54 93.2C-30.21 93.95 -30.54 94.83 -31.29 95.17C-33.09 95.97 -37.11 97.78 -38.91 98.59C-39.66 98.92 -40.54 98.59 -40.87 97.84C-41 97.56 -40.77 98.06 -40.9 97.77C-41.24 97.02 -40.9 96.14 -40.16 95.81C-38.36 95 -34.33 93.19 -32.54 92.39C-31.79 92.05 -30.91 92.38 -30.58 93.13C-30.45 93.42 -30.67 92.92 -30.54 93.2Z" id="a3WiYFd0Et"></path><path d="M-31.67 122.19C-31.99 122.95 -32.86 123.3 -33.62 122.98C-35.43 122.21 -39.49 120.48 -41.3 119.71C-42.06 119.39 -42.41 118.51 -42.09 117.76C-41.96 117.47 -42.18 117.97 -42.06 117.69C-41.74 116.93 -40.86 116.58 -40.11 116.9C-38.3 117.67 -34.24 119.4 -32.43 120.17C-31.67 120.49 -31.32 121.36 -31.64 122.12C-31.76 122.41 -31.55 121.9 -31.67 122.19Z" id="kvgSMAqfE"></path><path d="M-107.48 70.51C-106.97 69.87 -106.03 69.77 -105.39 70.28C-103.86 71.51 -100.42 74.27 -98.88 75.51C-98.24 76.02 -98.14 76.95 -98.65 77.59C-98.85 77.84 -98.51 77.41 -98.7 77.65C-99.21 78.29 -100.15 78.4 -100.79 77.88C-102.32 76.65 -105.77 73.89 -107.3 72.66C-107.94 72.14 -108.04 71.21 -107.53 70.57C-107.33 70.32 -107.68 70.75 -107.48 70.51Z" id="e1nj228dlT"></path><path d="M-110.78 96.68C-111.02 97.46 -111.86 97.9 -112.64 97.66C-114.52 97.08 -118.74 95.78 -120.62 95.2C-121.4 94.96 -121.84 94.13 -121.6 93.35C-121.51 93.05 -121.67 93.57 -121.58 93.27C-121.34 92.49 -120.5 92.05 -119.72 92.29C-117.84 92.87 -113.62 94.17 -111.74 94.75C-110.96 94.99 -110.52 95.82 -110.76 96.61C-110.85 96.91 -110.69 96.38 -110.78 96.68Z" id="gFIvtnIo4"></path><path d="M-120.44 121.54C-120.76 120.79 -120.41 119.92 -119.65 119.6C-117.84 118.83 -113.77 117.11 -111.96 116.34C-111.21 116.02 -110.34 116.37 -110.01 117.13C-109.89 117.41 -110.11 116.91 -109.99 117.2C-109.66 117.95 -110.02 118.82 -110.77 119.15C-112.58 119.91 -116.65 121.64 -118.46 122.4C-119.22 122.72 -120.09 122.37 -120.41 121.61C-120.53 121.33 -120.32 121.83 -120.44 121.54Z" id="c1WVbYNYgX"></path><path d="M163.74 124.4C163.74 109.34 163.74 99.8 163.74 95.78C163.74 86.69 167.9 107.86 176.24 159.28L186.74 92.28L186.74 146.78L163.74 146.78L163.74 124.4Z" id="e2IFMo7xgr"></path><path d="M213.24 201.28L230.24 201.28L230.24 242.78L213.24 242.78L213.24 201.28Z" id="adrihbhka"></path><path d="M-45.76 109.2C-44.93 109.35 -44.97 110.54 -45.8 110.64C-52.7 111.46 -68.64 113.35 -75.54 114.17C-77.97 114.46 -80.03 112.41 -79.76 109.98C-79.59 108.37 -79.58 108.3 -79.4 106.69C-79.12 104.16 -76.69 102.45 -74.21 103.03C-70.67 103.86 -64.69 105.26 -61.14 106.09C-61.14 106.09 -51.78 108.07 -51.78 108.07C-49.63 108.47 -47.9 108.79 -45.76 109.2Z" id="bc4bB0Nl3T"></path><path d="M-65.99 108.01C-65.99 112.26 -69.44 115.71 -73.69 115.71C-77.95 115.71 -81.4 112.26 -81.4 108.01C-81.4 103.75 -77.95 100.3 -73.69 100.3C-69.44 100.3 -65.99 103.75 -65.99 108.01Z" id="b23sEoJGN7"></path><path d="M40.66 -64.69C40.66 -38.97 19.63 -18.09 -6.28 -18.09C-32.18 -18.09 -53.21 -38.97 -53.21 -64.69C-53.21 -90.4 -32.18 -111.28 -6.28 -111.28C19.63 -111.28 40.66 -90.4 40.66 -64.69Z" id="bnsAoKbYj"></path><path d="M-4.66 -111.28C-3.84 -111.28 -3.17 -110.62 -3.17 -109.8C-3.17 -107.83 -3.17 -103.42 -3.17 -101.45C-3.17 -100.63 -3.84 -99.96 -4.66 -99.96C-4.98 -99.96 -4.47 -99.96 -4.79 -99.96C-5.61 -99.96 -6.28 -100.63 -6.28 -101.45C-6.28 -103.42 -6.28 -107.83 -6.28 -109.8C-6.28 -110.62 -5.61 -111.28 -4.79 -111.28C-4.47 -111.28 -4.98 -111.28 -4.66 -111.28Z" id="aaEThpoqR"></path><path d="M26.91 -96.95C27.42 -96.31 27.32 -95.37 26.68 -94.86C25.14 -93.63 21.7 -90.87 20.16 -89.64C19.52 -89.13 18.59 -89.23 18.07 -89.87C17.87 -90.12 18.19 -89.72 17.99 -89.97C17.48 -90.61 17.58 -91.55 18.22 -92.06C19.76 -93.29 23.2 -96.05 24.73 -97.28C25.38 -97.8 26.31 -97.69 26.82 -97.05C27.03 -96.8 26.7 -97.2 26.91 -96.95Z" id="a18rpIXlPg"></path><path d="M39.02 -76.74C39.37 -75.97 39.02 -75.07 38.26 -74.73C36.23 -73.81 31.53 -71.7 29.5 -70.79C28.73 -70.45 27.83 -70.79 27.48 -71.56C27.36 -71.83 27.61 -71.28 27.48 -71.56C27.14 -72.32 27.48 -73.23 28.25 -73.57C30.28 -74.48 34.98 -76.59 37.01 -77.51C37.77 -77.85 38.68 -77.51 39.02 -76.74C39.15 -76.46 38.9 -77.02 39.02 -76.74Z" id="aMWmChchO"></path><path d="M37.48 -46.64C37.08 -45.92 36.17 -45.67 35.45 -46.07C33.74 -47.02 29.88 -49.17 28.16 -50.13C27.44 -50.53 27.19 -51.43 27.59 -52.15C27.74 -52.43 27.47 -51.95 27.62 -52.22C28.02 -52.94 28.93 -53.19 29.65 -52.79C31.36 -51.84 35.22 -49.69 36.94 -48.73C37.66 -48.33 37.91 -47.43 37.51 -46.71C37.36 -46.44 37.63 -46.91 37.48 -46.64Z" id="c2lboOXrZA"></path><path d="M-38.08 -99.41C-37.57 -100.05 -36.63 -100.15 -35.99 -99.64C-34.46 -98.4 -31.01 -95.64 -29.48 -94.41C-28.84 -93.9 -28.74 -92.96 -29.25 -92.32C-29.45 -92.07 -29.13 -92.47 -29.33 -92.22C-29.85 -91.58 -30.78 -91.48 -31.42 -91.99C-32.96 -93.22 -36.4 -95.99 -37.93 -97.22C-38.57 -97.73 -38.67 -98.67 -38.16 -99.31C-37.96 -99.56 -38.28 -99.15 -38.08 -99.41Z" id="a1crre5BO"></path><path d="M-39.92 -72.84C-40.17 -72.03 -41.02 -71.58 -41.82 -71.83C-43.95 -72.49 -48.87 -74 -51 -74.66C-51.8 -74.91 -52.26 -75.76 -52.01 -76.56C-51.92 -76.86 -52.1 -76.27 -52.01 -76.56C-51.76 -77.37 -50.91 -77.82 -50.1 -77.57C-47.98 -76.92 -43.05 -75.4 -40.93 -74.74C-40.12 -74.5 -39.67 -73.64 -39.92 -72.84C-40.01 -72.55 -39.83 -73.13 -39.92 -72.84Z" id="b1xgzRDxg"></path><path d="M-50.84 -48.29C-51.17 -49.07 -50.81 -49.96 -50.03 -50.29C-47.98 -51.16 -43.24 -53.17 -41.19 -54.04C-40.42 -54.37 -39.52 -54.01 -39.19 -53.23C-39.07 -52.95 -39.31 -53.51 -39.19 -53.23C-38.87 -52.46 -39.23 -51.56 -40 -51.23C-42.05 -50.36 -46.79 -48.35 -48.84 -47.49C-49.62 -47.16 -50.51 -47.52 -50.84 -48.29C-50.96 -48.58 -50.72 -48.01 -50.84 -48.29Z" id="a3YFrxAGr"></path><path d="M23.83 -60.68C24.65 -60.52 24.61 -59.33 23.78 -59.23C16.88 -58.41 0.94 -56.52 -5.96 -55.7C-8.39 -55.41 -10.45 -57.46 -10.18 -59.89C-10 -61.5 -10 -61.57 -9.82 -63.18C-9.54 -65.71 -7.11 -67.43 -4.63 -66.85C-1.08 -66.02 4.89 -64.61 8.44 -63.78C8.44 -63.78 17.8 -61.81 17.8 -61.81C19.95 -61.4 21.68 -61.08 23.83 -60.68Z" id="aklrBBfdA"></path><path d="M3.6 -61.87C3.6 -57.61 0.14 -54.16 -4.11 -54.16C-8.36 -54.16 -11.82 -57.61 -11.82 -61.87C-11.82 -66.12 -8.36 -69.57 -4.11 -69.57C0.14 -69.57 3.6 -66.12 3.6 -61.87Z" id="a2uNdINkFb"></path><path d="M-39.94 106.31C-39.94 125.99 -56.03 141.97 -75.86 141.97C-95.68 141.97 -111.77 125.99 -111.77 106.31C-111.77 86.63 -95.68 70.65 -75.86 70.65C-56.03 70.65 -39.94 86.63 -39.94 106.31Z" id="ax9qWW4Do"></path><path d="M146.6 285.4L156.23 252.1L171.49 261.27L186.74 270.43L161.86 294.56L136.97 318.69L146.6 285.4Z" id="g3Zuk9NMu"></path><path d="M181.79 318.69C181.79 344.41 160.76 365.29 134.85 365.29C108.95 365.29 87.92 344.41 87.92 318.69C87.92 292.98 108.95 272.1 134.85 272.1C160.76 272.1 181.79 292.98 181.79 318.69Z" id="asiOaSI22"></path><path d="M-90.65 -79.53L-145.56 -79.53L-145.56 8.03L-59.85 8.03L-59.85 -42.01L-54.6 -42.01L-54.6 12.72L-150.74 12.72L-150.74 -84.58L-90.65 -84.58L-90.65 -79.53ZM-93 -28.58L-93 -28.57L-106.93 -14.48L-132.73 -40.59L-118.8 -54.68L-106.93 -42.67L-74.53 -75.46L-60.6 -61.36L-93 -28.58Z" id="a2Gt6LnXNi"></path><path d="M-32.35 263.1L-32.35 263.11L-43.85 273.08L-65.14 254.61L-61.38 250.36L-43.85 265.74L-6.8 233.31L-3.13 237.76L-32.35 263.1Z" id="a1OqkN9anU"></path><path d="M-89.71 228.08L-89.71 228.08L-89.75 207.95L-29.6 207.35L-29.6 212.06L-84.28 213.68L-83.95 303.15L-89.38 305L-89.71 228.08Z" id="g17Zstf5dt"></path><path d="M6.96 284.87L6.96 284.87L6.87 305L-88.51 305L-86.7 300.3L1.45 299.23L2.51 260.65L6.96 260.65L6.96 284.87Z" id="b5XDtiVdY6"></path><path d="M158.9 -76.99L159.31 -76.95L159.7 -76.89L160.1 -76.82L160.48 -76.73L160.86 -76.62L161.24 -76.5L161.61 -76.37L161.97 -76.22L162.32 -76.06L162.67 -75.89L163.01 -75.7L163.34 -75.5L163.66 -75.28L163.98 -75.06L164.28 -74.82L164.58 -74.57L164.86 -74.31L165.14 -74.04L165.41 -73.76L165.66 -73.46L165.9 -73.16L166.14 -72.85L166.36 -72.53L166.57 -72.2L166.76 -71.86L166.95 -71.51L167.12 -71.16L167.28 -70.8L167.42 -70.43L167.55 -70.05L167.67 -69.67L167.77 -69.28L167.86 -68.88L167.93 -68.48L167.99 -68.08L168.03 -67.67L168.05 -67.25L168.06 -66.83L168.05 -66.41L168.03 -65.99L167.99 -65.58L167.93 -65.17L167.86 -64.76L167.77 -64.35L167.67 -63.94L167.55 -63.54L167.42 -63.13L167.28 -62.73L167.12 -62.32L166.95 -61.91L166.76 -61.5L166.57 -61.09L166.36 -60.68L166.14 -60.26L165.9 -59.84L165.66 -59.41L165.41 -58.98L165.14 -58.55L164.86 -58.11L164.58 -57.66L164.28 -57.21L163.98 -56.75L163.66 -56.28L163.34 -55.8L163.01 -55.32L162.67 -54.83L162.32 -54.33L161.97 -53.81L161.61 -53.29L161.24 -52.76L160.86 -52.21L160.48 -51.66L160.1 -51.09L159.7 -50.51L159.31 -49.92L158.9 -49.31L158.5 -48.69L158.09 -48.05L157.67 -48.69L157.27 -49.31L156.86 -49.92L156.47 -50.51L156.07 -51.09L155.69 -51.66L155.31 -52.21L154.93 -52.76L154.56 -53.29L154.2 -53.81L153.85 -54.33L153.5 -54.83L153.16 -55.32L152.83 -55.8L152.51 -56.28L152.19 -56.75L151.89 -57.21L151.59 -57.66L151.31 -58.11L151.03 -58.55L150.76 -58.98L150.51 -59.41L150.27 -59.84L150.03 -60.26L149.81 -60.68L149.6 -61.09L149.41 -61.5L149.22 -61.91L149.05 -62.32L148.89 -62.73L148.75 -63.13L148.62 -63.54L148.5 -63.94L148.4 -64.35L148.31 -64.76L148.24 -65.17L148.18 -65.58L148.14 -65.99L148.12 -66.41L148.11 -66.83L148.12 -67.25L148.14 -67.67L148.18 -68.08L148.24 -68.48L148.31 -68.88L148.4 -69.28L148.5 -69.67L148.62 -70.05L148.75 -70.43L148.89 -70.8L149.05 -71.16L149.22 -71.51L149.41 -71.86L149.6 -72.2L149.81 -72.53L150.03 -72.85L150.27 -73.16L150.51 -73.46L150.76 -73.76L151.03 -74.04L151.31 -74.31L151.59 -74.57L151.89 -74.82L152.19 -75.06L152.51 -75.28L152.83 -75.5L153.16 -75.7L153.5 -75.89L153.85 -76.06L154.2 -76.22L154.56 -76.37L154.93 -76.5L155.31 -76.62L155.69 -76.73L156.07 -76.82L156.47 -76.89L156.86 -76.95L157.27 -76.99L157.67 -77.02L158.09 -77.02L158.5 -77.02L158.9 -76.99ZM157.7 -72.18L157.51 -72.16L157.32 -72.13L157.13 -72.1L156.95 -72.05L156.77 -72L156.59 -71.95L156.42 -71.89L156.25 -71.82L156.08 -71.74L155.91 -71.66L155.75 -71.57L155.6 -71.47L155.44 -71.37L155.29 -71.26L155.15 -71.15L155.01 -71.03L154.87 -70.91L154.74 -70.78L154.62 -70.65L154.5 -70.51L154.38 -70.37L154.27 -70.22L154.17 -70.07L154.07 -69.91L153.97 -69.75L153.89 -69.58L153.81 -69.42L153.73 -69.25L153.66 -69.07L153.6 -68.89L153.54 -68.71L153.5 -68.53L153.46 -68.34L153.42 -68.15L153.39 -67.96L153.37 -67.76L153.36 -67.56L153.36 -67.37L153.36 -67.17L153.37 -66.97L153.39 -66.77L153.42 -66.58L153.46 -66.39L153.5 -66.21L153.54 -66.02L153.6 -65.84L153.66 -65.66L153.73 -65.49L153.81 -65.31L153.89 -65.15L153.97 -64.98L154.07 -64.82L154.17 -64.67L154.27 -64.51L154.38 -64.37L154.5 -64.22L154.62 -64.08L154.74 -63.95L154.87 -63.82L155.01 -63.7L155.15 -63.58L155.29 -63.47L155.44 -63.36L155.6 -63.26L155.75 -63.16L155.91 -63.08L156.08 -62.99L156.25 -62.92L156.42 -62.85L156.59 -62.78L156.77 -62.73L156.95 -62.68L157.13 -62.63L157.32 -62.6L157.51 -62.57L157.7 -62.55L157.89 -62.54L158.09 -62.54L158.28 -62.54L158.47 -62.55L158.66 -62.57L158.85 -62.6L159.04 -62.63L159.22 -62.68L159.4 -62.73L159.58 -62.78L159.75 -62.85L159.92 -62.92L160.09 -62.99L160.26 -63.08L160.42 -63.16L160.57 -63.26L160.73 -63.36L160.88 -63.47L161.02 -63.58L161.16 -63.7L161.3 -63.82L161.43 -63.95L161.55 -64.08L161.67 -64.22L161.79 -64.37L161.9 -64.51L162 -64.67L162.1 -64.82L162.2 -64.98L162.28 -65.15L162.36 -65.31L162.44 -65.49L162.51 -65.66L162.57 -65.84L162.63 -66.02L162.67 -66.21L162.72 -66.39L162.75 -66.58L162.78 -66.77L162.8 -66.97L162.81 -67.17L162.81 -67.37L162.81 -67.56L162.8 -67.76L162.78 -67.96L162.75 -68.15L162.72 -68.34L162.67 -68.53L162.63 -68.71L162.57 -68.89L162.51 -69.07L162.44 -69.25L162.36 -69.42L162.28 -69.58L162.2 -69.75L162.1 -69.91L162 -70.07L161.9 -70.22L161.79 -70.37L161.67 -70.51L161.55 -70.65L161.43 -70.78L161.3 -70.91L161.16 -71.03L161.02 -71.15L160.88 -71.26L160.73 -71.37L160.57 -71.47L160.42 -71.57L160.26 -71.66L160.09 -71.74L159.92 -71.82L159.75 -71.89L159.58 -71.95L159.4 -72L159.22 -72.05L159.04 -72.1L158.85 -72.13L158.66 -72.16L158.47 -72.18L158.28 -72.19L158.09 -72.19L157.89 -72.19L157.7 -72.18Z" id="adY9r53Mt"></path><path d="M163.22 -107.77C163.07 -90.66 149.06 -76.88 131.94 -77.03C114.83 -77.17 101.05 -91.18 101.19 -108.3C101.34 -125.41 115.35 -139.19 132.47 -139.05C149.58 -138.9 163.36 -124.89 163.22 -107.77Z" id="e2T8Hh1yI0"></path><path d="M112.25 -83.81C112.78 -83.48 115.05 -81.61 115.44 -81.17C117.5 -78.83 119.75 -81.7 117.62 -78.82C99.81 -54.8 91.65 -43.79 93.14 -45.8C91.9 -44.13 89.56 -43.79 87.89 -45.02C86.09 -46.36 83.68 -48.14 81.87 -49.48C80.23 -50.7 79.93 -53.04 81.22 -54.63C86.63 -61.31 101.89 -80.16 107.64 -87.28C107.96 -87.67 108.56 -87.67 108.89 -87.28C110.47 -85.37 111.59 -84.21 112.25 -83.81Z" id="e8v5MsggT"></path><path d="M151.22 -107.87C151.13 -97.38 142.54 -88.94 132.04 -89.03C121.55 -89.11 113.11 -97.7 113.19 -108.2C113.28 -118.69 121.87 -127.13 132.37 -127.05C142.86 -126.96 151.3 -118.37 151.22 -107.87Z" id="l3l8QjFz2n"></path><path d="M340.12 60.37L340.63 60.42L341.13 60.49L341.62 60.59L342.1 60.7L342.58 60.83L343.05 60.98L343.51 61.15L343.97 61.33L344.41 61.53L344.84 61.75L345.27 61.99L345.68 62.24L346.09 62.51L346.48 62.79L346.86 63.09L347.23 63.4L347.59 63.73L347.94 64.07L348.27 64.42L348.59 64.79L348.9 65.17L349.19 65.56L349.46 65.96L349.73 66.37L349.97 66.8L350.2 67.23L350.42 67.67L350.62 68.13L350.8 68.59L350.96 69.06L351.11 69.54L351.24 70.03L351.35 70.53L351.44 71.03L351.51 71.54L351.56 72.05L351.59 72.57L351.6 73.1L351.59 73.63L351.56 74.15L351.51 74.67L351.44 75.18L351.35 75.69L351.24 76.21L351.11 76.71L350.96 77.22L350.8 77.73L350.62 78.24L350.42 78.75L350.2 79.26L349.97 79.77L349.73 80.29L349.46 80.81L349.19 81.33L348.9 81.86L348.59 82.39L348.27 82.93L347.94 83.48L347.59 84.03L347.23 84.59L346.86 85.15L346.48 85.73L346.09 86.32L345.68 86.91L345.27 87.52L344.84 88.14L344.41 88.76L343.97 89.41L343.51 90.06L343.05 90.73L342.58 91.41L342.1 92.11L341.62 92.82L341.13 93.55L340.63 94.29L340.12 95.05L339.61 95.83L339.1 96.63L338.58 95.83L338.07 95.05L337.57 94.29L337.07 93.55L336.58 92.82L336.1 92.11L335.62 91.41L335.15 90.73L334.69 90.06L334.23 89.41L333.79 88.76L333.36 88.14L332.93 87.52L332.52 86.91L332.11 86.32L331.72 85.73L331.34 85.15L330.96 84.59L330.61 84.03L330.26 83.48L329.93 82.93L329.61 82.39L329.3 81.86L329.01 81.33L328.73 80.81L328.47 80.29L328.23 79.77L327.99 79.26L327.78 78.75L327.58 78.24L327.4 77.73L327.24 77.22L327.09 76.71L326.96 76.21L326.85 75.69L326.76 75.18L326.69 74.67L326.64 74.15L326.61 73.63L326.6 73.1L326.61 72.57L326.64 72.05L326.69 71.54L326.76 71.03L326.85 70.53L326.96 70.03L327.09 69.54L327.24 69.06L327.4 68.59L327.58 68.13L327.78 67.67L327.99 67.23L328.23 66.8L328.47 66.37L328.73 65.96L329.01 65.56L329.3 65.17L329.61 64.79L329.93 64.42L330.26 64.07L330.61 63.73L330.96 63.4L331.34 63.09L331.72 62.79L332.11 62.51L332.52 62.24L332.93 61.99L333.36 61.75L333.79 61.53L334.23 61.33L334.69 61.15L335.15 60.98L335.62 60.83L336.1 60.7L336.58 60.59L337.07 60.49L337.57 60.42L338.07 60.37L338.58 60.34L339.1 60.33L339.61 60.34L340.12 60.37ZM338.61 66.4L338.38 66.42L338.14 66.46L337.91 66.5L337.68 66.55L337.45 66.61L337.23 66.69L337.01 66.76L336.79 66.85L336.58 66.95L336.38 67.05L336.18 67.16L335.98 67.28L335.79 67.41L335.6 67.54L335.42 67.69L335.25 67.83L335.08 67.99L334.91 68.15L334.76 68.32L334.6 68.49L334.46 68.67L334.32 68.85L334.19 69.04L334.07 69.24L333.95 69.44L333.84 69.65L333.74 69.86L333.64 70.07L333.56 70.29L333.48 70.51L333.41 70.74L333.35 70.97L333.3 71.21L333.26 71.45L333.22 71.69L333.2 71.93L333.18 72.18L333.18 72.43L333.18 72.68L333.2 72.92L333.22 73.17L333.26 73.41L333.3 73.65L333.35 73.88L333.41 74.11L333.48 74.34L333.56 74.56L333.64 74.78L333.74 75L333.84 75.21L333.95 75.41L334.07 75.61L334.19 75.81L334.32 76L334.46 76.19L334.6 76.36L334.76 76.54L334.91 76.71L335.08 76.87L335.25 77.02L335.42 77.17L335.6 77.31L335.79 77.44L335.98 77.57L336.18 77.69L336.38 77.8L336.58 77.91L336.79 78L337.01 78.09L337.23 78.17L337.45 78.24L337.68 78.3L337.91 78.35L338.14 78.4L338.38 78.43L338.61 78.46L338.86 78.47L339.1 78.48L339.34 78.47L339.59 78.46L339.82 78.43L340.06 78.4L340.29 78.35L340.52 78.3L340.75 78.24L340.97 78.17L341.19 78.09L341.4 78L341.61 77.91L341.82 77.8L342.02 77.69L342.22 77.57L342.41 77.44L342.6 77.31L342.78 77.17L342.95 77.02L343.12 76.87L343.29 76.71L343.44 76.54L343.6 76.36L343.74 76.19L343.88 76L344.01 75.81L344.13 75.61L344.25 75.41L344.36 75.21L344.46 75L344.56 74.78L344.64 74.56L344.72 74.34L344.79 74.11L344.85 73.88L344.9 73.65L344.94 73.41L344.98 73.17L345 72.92L345.02 72.68L345.02 72.43L345.02 72.18L345 71.93L344.98 71.69L344.94 71.45L344.9 71.21L344.85 70.97L344.79 70.74L344.72 70.51L344.64 70.29L344.56 70.07L344.46 69.86L344.36 69.65L344.25 69.44L344.13 69.24L344.01 69.04L343.88 68.85L343.74 68.67L343.6 68.49L343.44 68.32L343.29 68.15L343.12 67.99L342.95 67.83L342.78 67.69L342.6 67.54L342.41 67.41L342.22 67.28L342.02 67.16L341.82 67.05L341.61 66.95L341.4 66.85L341.19 66.76L340.97 66.69L340.75 66.61L340.52 66.55L340.29 66.5L340.06 66.46L339.82 66.42L339.59 66.4L339.34 66.38L339.1 66.38L338.86 66.38L338.61 66.4Z" id="cQ5fbkmMS"></path><path d="M309.07 58.61L309.34 58.64L309.6 58.68L309.86 58.73L310.11 58.78L310.36 58.85L310.61 58.93L310.86 59.02L311.09 59.12L311.33 59.22L311.56 59.34L311.78 59.46L312 59.6L312.21 59.74L312.42 59.89L312.62 60.04L312.82 60.21L313.01 60.38L313.19 60.56L313.36 60.75L313.53 60.94L313.69 61.14L313.85 61.34L313.99 61.56L314.13 61.77L314.26 62L314.38 62.23L314.49 62.46L314.6 62.7L314.69 62.94L314.78 63.19L314.86 63.44L314.92 63.7L314.98 63.96L315.03 64.23L315.07 64.5L315.09 64.77L315.11 65.04L315.12 65.32L315.11 65.6L315.09 65.87L315.07 66.14L315.03 66.42L314.98 66.69L314.92 66.96L314.86 67.22L314.78 67.49L314.69 67.76L314.6 68.03L314.49 68.3L314.38 68.56L314.26 68.83L314.13 69.11L313.99 69.38L313.85 69.66L313.69 69.93L313.53 70.21L313.36 70.5L313.19 70.79L313.01 71.08L312.82 71.37L312.62 71.67L312.42 71.97L312.21 72.28L312 72.6L311.78 72.92L311.56 73.24L311.33 73.57L311.09 73.91L310.86 74.25L310.61 74.61L310.36 74.97L310.11 75.33L309.86 75.71L309.6 76.09L309.34 76.48L309.07 76.88L308.8 77.29L308.53 77.72L308.26 77.29L307.99 76.88L307.72 76.48L307.46 76.09L307.2 75.71L306.95 75.33L306.7 74.97L306.45 74.61L306.21 74.25L305.97 73.91L305.73 73.57L305.5 73.24L305.28 72.92L305.06 72.6L304.85 72.28L304.64 71.97L304.44 71.67L304.24 71.37L304.06 71.08L303.87 70.79L303.7 70.5L303.53 70.21L303.37 69.93L303.22 69.66L303.07 69.38L302.93 69.11L302.8 68.83L302.68 68.56L302.57 68.3L302.46 68.03L302.37 67.76L302.28 67.49L302.2 67.22L302.14 66.96L302.08 66.69L302.03 66.42L301.99 66.14L301.97 65.87L301.95 65.6L301.94 65.32L301.95 65.04L301.97 64.77L301.99 64.5L302.03 64.23L302.08 63.96L302.14 63.7L302.2 63.44L302.28 63.19L302.37 62.94L302.46 62.7L302.57 62.46L302.68 62.23L302.8 62L302.93 61.77L303.07 61.56L303.22 61.34L303.37 61.14L303.53 60.94L303.7 60.75L303.87 60.56L304.06 60.38L304.24 60.21L304.44 60.04L304.64 59.89L304.85 59.74L305.06 59.6L305.28 59.46L305.5 59.34L305.73 59.22L305.97 59.12L306.21 59.02L306.45 58.93L306.7 58.85L306.95 58.78L307.2 58.73L307.46 58.68L307.72 58.64L307.99 58.61L308.26 58.6L308.53 58.59L308.8 58.6L309.07 58.61ZM308.27 61.79L308.15 61.8L308.02 61.82L307.9 61.84L307.78 61.87L307.66 61.9L307.54 61.94L307.43 61.98L307.32 62.03L307.21 62.08L307.1 62.13L306.99 62.19L306.89 62.25L306.79 62.32L306.69 62.39L306.59 62.47L306.5 62.54L306.41 62.63L306.32 62.71L306.24 62.8L306.16 62.89L306.09 62.98L306.01 63.08L305.94 63.18L305.88 63.29L305.82 63.39L305.76 63.5L305.71 63.61L305.66 63.72L305.61 63.84L305.57 63.96L305.53 64.08L305.5 64.2L305.47 64.32L305.45 64.45L305.43 64.57L305.42 64.7L305.41 64.83L305.41 64.96L305.41 65.1L305.42 65.23L305.43 65.35L305.45 65.48L305.47 65.61L305.5 65.73L305.53 65.85L305.57 65.97L305.61 66.09L305.66 66.21L305.71 66.32L305.76 66.43L305.82 66.54L305.88 66.64L305.94 66.75L306.01 66.85L306.09 66.94L306.16 67.04L306.24 67.13L306.32 67.22L306.41 67.3L306.5 67.38L306.59 67.46L306.69 67.54L306.79 67.61L306.89 67.67L306.99 67.74L307.1 67.8L307.21 67.85L307.32 67.9L307.43 67.95L307.54 67.99L307.66 68.03L307.78 68.06L307.9 68.09L308.02 68.11L308.15 68.13L308.27 68.14L308.4 68.15L308.53 68.15L308.66 68.15L308.79 68.14L308.91 68.13L309.04 68.11L309.16 68.09L309.28 68.06L309.4 68.03L309.52 67.99L309.63 67.95L309.74 67.9L309.86 67.85L309.96 67.8L310.07 67.74L310.17 67.67L310.27 67.61L310.37 67.54L310.47 67.46L310.56 67.38L310.65 67.3L310.74 67.22L310.82 67.13L310.9 67.04L310.98 66.94L311.05 66.85L311.12 66.75L311.18 66.64L311.24 66.54L311.3 66.43L311.36 66.32L311.4 66.21L311.45 66.09L311.49 65.97L311.53 65.85L311.56 65.73L311.59 65.61L311.61 65.48L311.63 65.35L311.64 65.23L311.65 65.1L311.65 64.96L311.65 64.83L311.64 64.7L311.63 64.57L311.61 64.45L311.59 64.32L311.56 64.2L311.53 64.08L311.49 63.96L311.45 63.84L311.4 63.72L311.36 63.61L311.3 63.5L311.24 63.39L311.18 63.29L311.12 63.18L311.05 63.08L310.98 62.98L310.9 62.89L310.82 62.8L310.74 62.71L310.65 62.63L310.56 62.54L310.47 62.47L310.37 62.39L310.27 62.32L310.17 62.25L310.07 62.19L309.96 62.13L309.86 62.08L309.74 62.03L309.63 61.98L309.52 61.94L309.4 61.9L309.28 61.87L309.16 61.84L309.04 61.82L308.91 61.8L308.79 61.79L308.66 61.78L308.53 61.78L308.4 61.78L308.27 61.79Z" id="cAjfpW9SN"></path><path d="M328.84 29.33C328.73 42.37 318.05 52.87 305.01 52.76C291.97 52.65 281.47 41.97 281.58 28.93C281.69 15.89 292.37 5.39 305.41 5.5C318.45 5.61 328.95 16.29 328.84 29.33Z" id="c2RfU856XO"></path><path d="M290 47.59C290.41 47.84 292.14 49.26 292.44 49.6C294.01 51.38 295.72 49.2 294.09 51.39C280.52 69.7 274.3 78.09 275.44 76.56C274.5 77.83 272.71 78.09 271.44 77.15C270.07 76.13 268.23 74.77 266.85 73.75C265.6 72.82 265.38 71.04 266.35 69.83C270.48 64.74 282.11 50.37 286.49 44.95C286.74 44.65 287.2 44.65 287.44 44.95C288.65 46.4 289.5 47.28 290 47.59Z" id="a2OQfco2yh"></path><path d="M319.7 29.25C319.63 37.25 313.08 43.69 305.09 43.62C297.09 43.55 290.66 37 290.72 29.01C290.79 21.01 297.34 14.58 305.33 14.64C313.33 14.71 319.77 21.26 319.7 29.25Z" id="l22NzP7Rgl"></path><path d="M313.05 93.5L314.02 90.64L335.76 98.02L334.78 100.89L313.05 93.5Z" id="a1FytbzjgW"></path><path d="M316.5 92.8L313.64 91.6L316.97 83.69L319.83 84.89L316.5 92.8Z" id="b3p2hMOweM"></path><path d="M320.43 84.01L319.16 86.78L308.87 82.06L310.14 79.29L320.43 84.01Z" id="awPlRYWEk"></path><path d="M241.19 -65.42L255.41 -65.42L255.41 -61.87L219.85 -61.87L219.85 -65.42L234.08 -65.42L234.08 -109.16L193.68 -149.5L281.58 -149.5L241.19 -109.16L241.19 -65.42ZM202.07 -152.41L202.07 -155.96L273.19 -155.96L273.19 -152.41L202.07 -152.41Z" id="a21PNzo0Xd"></path><path d="M33.97 2.43L34.12 2.45L34.27 2.46L34.42 2.48L34.56 2.51L34.7 2.54L34.84 2.58L34.97 2.62L35.11 2.66L35.24 2.71L35.37 2.76L35.49 2.81L35.62 2.87L35.74 2.94L35.85 3L35.97 3.07L36.07 3.15L36.18 3.22L36.28 3.3L36.38 3.39L36.48 3.47L36.57 3.56L36.65 3.65L36.73 3.75L36.81 3.84L36.88 3.94L36.95 4.05L37.02 4.15L37.07 4.26L37.13 4.37L37.18 4.48L37.22 4.59L37.26 4.7L37.29 4.82L37.32 4.94L37.34 5.06L37.35 5.18L37.36 5.3L37.37 5.43L37.37 10.35L45.98 10.35L45.98 5.43L45.99 5.3L46 5.18L46.01 5.06L46.03 4.94L46.06 4.82L46.09 4.7L46.13 4.59L46.17 4.48L46.22 4.37L46.27 4.26L46.33 4.15L46.4 4.05L46.46 3.94L46.54 3.84L46.62 3.75L46.7 3.65L46.78 3.56L46.87 3.47L46.97 3.39L47.07 3.3L47.17 3.22L47.27 3.15L47.38 3.07L47.5 3L47.61 2.94L47.73 2.87L47.86 2.81L47.98 2.76L48.11 2.71L48.24 2.66L48.37 2.62L48.51 2.58L48.65 2.54L48.79 2.51L48.93 2.48L49.08 2.46L49.23 2.45L49.38 2.43L49.53 2.43L49.68 2.42L49.83 2.43L49.98 2.43L50.13 2.45L50.28 2.46L50.42 2.48L50.57 2.51L50.71 2.54L50.84 2.58L50.98 2.62L51.12 2.66L51.25 2.71L51.37 2.76L51.5 2.81L51.62 2.87L51.74 2.94L51.86 3L51.97 3.07L52.08 3.15L52.19 3.22L52.29 3.3L52.39 3.39L52.48 3.47L52.57 3.56L52.66 3.65L52.74 3.75L52.82 3.84L52.89 3.94L52.96 4.05L53.02 4.15L53.08 4.26L53.13 4.37L53.18 4.48L53.23 4.59L53.26 4.7L53.3 4.82L53.32 4.94L53.34 5.06L53.36 5.18L53.37 5.3L53.37 5.43L53.37 10.35L61.99 10.35L61.99 5.43L61.99 5.3L62 5.18L62.02 5.06L62.04 4.94L62.07 4.82L62.1 4.7L62.14 4.59L62.18 4.48L62.23 4.37L62.28 4.26L62.34 4.15L62.4 4.05L62.47 3.94L62.54 3.84L62.62 3.75L62.7 3.65L62.79 3.56L62.88 3.47L62.97 3.39L63.07 3.3L63.17 3.22L63.28 3.15L63.39 3.07L63.5 3L63.62 2.94L63.74 2.87L63.86 2.81L63.99 2.76L64.12 2.71L64.25 2.66L64.38 2.62L64.52 2.58L64.66 2.54L64.8 2.51L64.94 2.48L65.09 2.46L65.23 2.45L65.38 2.43L65.53 2.43L65.68 2.42L65.84 2.43L65.99 2.43L66.14 2.45L66.28 2.46L66.43 2.48L66.57 2.51L66.71 2.54L66.85 2.58L66.99 2.62L67.12 2.66L67.25 2.71L67.38 2.76L67.51 2.81L67.63 2.87L67.75 2.94L67.87 3L67.98 3.07L68.09 3.15L68.19 3.22L68.3 3.3L68.39 3.39L68.49 3.47L68.58 3.56L68.66 3.65L68.75 3.75L68.82 3.84L68.9 3.94L68.97 4.05L69.03 4.15L69.09 4.26L69.14 4.37L69.19 4.48L69.23 4.59L69.27 4.7L69.3 4.82L69.33 4.94L69.35 5.06L69.37 5.18L69.37 5.3L69.38 5.43L69.38 10.35L89.08 10.35L89.08 97.42C48.3 97.42 22.81 97.42 12.61 97.42C11.32 97.42 10.28 96.38 10.28 95.09C10.28 83.79 10.28 55.54 10.28 10.35L29.98 10.35L29.98 5.43L29.98 5.3L29.99 5.18L30.01 5.06L30.03 4.94L30.05 4.82L30.09 4.7L30.12 4.59L30.17 4.48L30.21 4.37L30.27 4.26L30.33 4.15L30.39 4.05L30.46 3.94L30.53 3.84L30.61 3.75L30.69 3.65L30.78 3.56L30.87 3.47L30.96 3.39L31.06 3.3L31.16 3.22L31.27 3.15L31.38 3.07L31.49 3L31.61 2.94L31.73 2.87L31.85 2.81L31.97 2.76L32.1 2.71L32.23 2.66L32.37 2.62L32.5 2.58L32.64 2.54L32.78 2.51L32.93 2.48L33.07 2.46L33.22 2.45L33.37 2.43L33.52 2.43L33.67 2.42L33.82 2.43L33.97 2.43ZM17.67 88.42L81.69 88.42L81.69 19.36L69.38 19.36L69.38 23.44L69.37 23.56L69.37 23.69L69.35 23.81L69.33 23.93L69.3 24.05L69.27 24.16L69.23 24.28L69.19 24.39L69.14 24.5L69.09 24.61L69.03 24.72L68.97 24.82L68.9 24.92L68.82 25.02L68.75 25.12L68.66 25.21L68.58 25.31L68.49 25.39L68.39 25.48L68.3 25.56L68.19 25.64L68.09 25.72L67.98 25.79L67.87 25.86L67.75 25.93L67.63 25.99L67.51 26.05L67.38 26.11L67.25 26.16L67.12 26.21L66.99 26.25L66.85 26.29L66.71 26.33L66.57 26.36L66.43 26.38L66.28 26.4L66.14 26.42L65.99 26.43L65.84 26.44L65.68 26.44L65.53 26.44L65.38 26.43L65.23 26.42L65.09 26.4L64.94 26.38L64.8 26.36L64.66 26.33L64.52 26.29L64.38 26.25L64.25 26.21L64.12 26.16L63.99 26.11L63.86 26.05L63.74 25.99L63.62 25.93L63.5 25.86L63.39 25.79L63.28 25.72L63.17 25.64L63.07 25.56L62.97 25.48L62.88 25.39L62.79 25.31L62.7 25.21L62.62 25.12L62.54 25.02L62.47 24.92L62.4 24.82L62.34 24.72L62.28 24.61L62.23 24.5L62.18 24.39L62.14 24.28L62.1 24.16L62.07 24.05L62.04 23.93L62.02 23.81L62 23.69L61.99 23.56L61.99 23.44L61.99 19.36L53.37 19.36L53.37 23.44L53.37 23.56L53.36 23.69L53.34 23.81L53.32 23.93L53.3 24.05L53.26 24.16L53.23 24.28L53.18 24.39L53.13 24.5L53.08 24.61L53.02 24.72L52.96 24.82L52.89 24.92L52.82 25.02L52.74 25.12L52.66 25.21L52.57 25.31L52.48 25.39L52.39 25.48L52.29 25.56L52.19 25.64L52.08 25.72L51.97 25.79L51.86 25.86L51.74 25.93L51.62 25.99L51.5 26.05L51.37 26.11L51.25 26.16L51.12 26.21L50.98 26.25L50.84 26.29L50.71 26.33L50.57 26.36L50.42 26.38L50.28 26.4L50.13 26.42L49.98 26.43L49.83 26.44L49.68 26.44L49.53 26.44L49.38 26.43L49.23 26.42L49.08 26.4L48.93 26.38L48.79 26.36L48.65 26.33L48.51 26.29L48.37 26.25L48.24 26.21L48.11 26.16L47.98 26.11L47.86 26.05L47.73 25.99L47.61 25.93L47.5 25.86L47.38 25.79L47.27 25.72L47.17 25.64L47.07 25.56L46.97 25.48L46.87 25.39L46.78 25.31L46.7 25.21L46.62 25.12L46.54 25.02L46.46 24.92L46.4 24.82L46.33 24.72L46.27 24.61L46.22 24.5L46.17 24.39L46.13 24.28L46.09 24.16L46.06 24.05L46.03 23.93L46.01 23.81L46 23.69L45.99 23.56L45.98 23.44L45.98 19.36L37.37 19.36L37.37 23.44L37.36 23.56L37.35 23.69L37.34 23.81L37.32 23.93L37.29 24.05L37.26 24.16L37.22 24.28L37.18 24.39L37.13 24.5L37.07 24.61L37.02 24.72L36.95 24.82L36.88 24.92L36.81 25.02L36.73 25.12L36.65 25.21L36.57 25.31L36.48 25.39L36.38 25.48L36.28 25.56L36.18 25.64L36.07 25.72L35.97 25.79L35.85 25.86L35.74 25.93L35.62 25.99L35.49 26.05L35.37 26.11L35.24 26.16L35.11 26.21L34.97 26.25L34.84 26.29L34.7 26.33L34.56 26.36L34.42 26.38L34.27 26.4L34.12 26.42L33.97 26.43L33.82 26.44L33.67 26.44L33.52 26.44L33.37 26.43L33.22 26.42L33.07 26.4L32.93 26.38L32.78 26.36L32.64 26.33L32.5 26.29L32.37 26.25L32.23 26.21L32.1 26.16L31.97 26.11L31.85 26.05L31.73 25.99L31.61 25.93L31.49 25.86L31.38 25.79L31.27 25.72L31.16 25.64L31.06 25.56L30.96 25.48L30.87 25.39L30.78 25.31L30.69 25.21L30.61 25.12L30.53 25.02L30.46 24.92L30.39 24.82L30.33 24.72L30.27 24.61L30.21 24.5L30.17 24.39L30.12 24.28L30.09 24.16L30.05 24.05L30.03 23.93L30.01 23.81L29.99 23.69L29.98 23.56L29.98 23.44L29.98 19.36L17.67 19.36L17.67 88.42ZM61.99 80.49L61.99 68.91L71.48 68.91L71.48 80.49L61.99 80.49ZM27.52 80.49L27.52 68.91L37.01 68.91L37.01 80.49L27.52 80.49ZM45.11 80.49L45.11 68.91L54.6 68.91L54.6 80.49L45.11 80.49ZM45.11 62.04L45.11 50.46L54.6 50.46L54.6 62.04L45.11 62.04ZM27.52 62.04L27.52 50.46L37.01 50.46L37.01 62.04L27.52 62.04ZM61.99 62.04L61.99 50.46L71.48 50.46L71.48 62.04L61.99 62.04ZM45.11 44.02L45.11 32.45L54.6 32.45L54.6 44.02L45.11 44.02ZM27.52 44.02L27.52 32.45L37.01 32.45L37.01 44.02L27.52 44.02ZM61.99 44.02L61.99 32.45L71.48 32.45L71.48 44.02L61.99 44.02Z" id="cB8KNpmB5"></path></defs><g><g><g><g><use xlink:href="#d2cPZm7gJD" opacity="1" fill-opacity="0" stroke="#000000" stroke-width="4" stroke-opacity="1"></use></g></g><g><use xlink:href="#a1feJUHAeN" opacity="1" fill="#000000" fill-opacity="1"></use></g><g><use xlink:href="#c3moNfBx0A" opacity="1" fill="#000000" fill-opacity="1"></use></g><g><use xlink:href="#ablEx5kmL" opacity="1" fill="#000000" fill-opacity="1"></use></g><g><use xlink:href="#aU6irrARe" opacity="1" fill="#000000" fill-opacity="1"></use><g><use xlink:href="#aU6irrARe" opacity="1" fill-opacity="0" stroke="#060304" stroke-width="0" stroke-opacity="1"></use></g></g><g><use xlink:href="#a3WiYFd0Et" opacity="1" fill="#000000" fill-opacity="1"></use></g><g><use xlink:href="#kvgSMAqfE" opacity="1" fill="#000000" fill-opacity="1"></use><g><use xlink:href="#kvgSMAqfE" opacity="1" fill-opacity="0" stroke="#060304" stroke-width="0" stroke-opacity="1"></use></g></g><g><use xlink:href="#e1nj228dlT" opacity="1" fill="#000000" fill-opacity="1"></use></g><g><use xlink:href="#gFIvtnIo4" opacity="1" fill="#000000" fill-opacity="1"></use></g><g><use xlink:href="#c1WVbYNYgX" opacity="1" fill="#000000" fill-opacity="1"></use></g><g><use xlink:href="#e2IFMo7xgr" opacity="1" fill="#000000" fill-opacity="1"></use></g><g><use xlink:href="#adrihbhka" opacity="1" fill="#000000" fill-opacity="1"></use></g><g><use xlink:href="#bc4bB0Nl3T" opacity="1" fill="#fd425a" fill-opacity="1"></use><g><use xlink:href="#bc4bB0Nl3T" opacity="1" fill-opacity="0" stroke="#060304" stroke-width="1" stroke-opacity="1"></use></g></g><g><use xlink:href="#b23sEoJGN7" opacity="1" fill="#000000" fill-opacity="1"></use></g><g><g><use xlink:href="#bnsAoKbYj" opacity="1" fill-opacity="0" stroke="#000000" stroke-width="4" stroke-opacity="1"></use></g></g><g><use xlink:href="#aaEThpoqR" opacity="1" fill="#000000" fill-opacity="1"></use></g><g><use xlink:href="#a18rpIXlPg" opacity="1" fill="#000000" fill-opacity="1"></use><g><use xlink:href="#a18rpIXlPg" opacity="1" fill-opacity="0" stroke="#060304" stroke-width="0" stroke-opacity="1"></use></g></g><g><use xlink:href="#aMWmChchO" opacity="1" fill="#000000" fill-opacity="1"></use></g><g><use xlink:href="#c2lboOXrZA" opacity="1" fill="#000000" fill-opacity="1"></use><g><use xlink:href="#c2lboOXrZA" opacity="1" fill-opacity="0" stroke="#060304" stroke-width="0" stroke-opacity="1"></use></g></g><g><use xlink:href="#a1crre5BO" opacity="1" fill="#000000" fill-opacity="1"></use></g><g><use xlink:href="#b1xgzRDxg" opacity="1" fill="#000000" fill-opacity="1"></use></g><g><use xlink:href="#a3YFrxAGr" opacity="1" fill="#000000" fill-opacity="1"></use></g><g><use xlink:href="#aklrBBfdA" opacity="1" fill="#000000" fill-opacity="1"></use><g><use xlink:href="#aklrBBfdA" opacity="1" fill-opacity="0" stroke="#060304" stroke-width="1" stroke-opacity="1"></use></g></g><g><use xlink:href="#a2uNdINkFb" opacity="1" fill="#000000" fill-opacity="1"></use></g><g><g><use xlink:href="#ax9qWW4Do" opacity="1" fill-opacity="0" stroke="#000000" stroke-width="4" stroke-opacity="1"></use></g></g><g><g><use xlink:href="#g3Zuk9NMu" opacity="1" fill-opacity="0" stroke="#060304" stroke-width="4" stroke-opacity="1"></use></g></g><g><g><use xlink:href="#asiOaSI22" opacity="1" fill-opacity="0" stroke="#000000" stroke-width="4" stroke-opacity="1"></use></g></g><g><use xlink:href="#a2Gt6LnXNi" opacity="1" fill="#000000" fill-opacity="1"></use><g><use xlink:href="#a2Gt6LnXNi" opacity="1" fill-opacity="0" stroke="#060304" stroke-width="0" stroke-opacity="1"></use></g></g><g><use xlink:href="#a1OqkN9anU" opacity="1" fill="#fd425a" fill-opacity="1"></use><g><use xlink:href="#a1OqkN9anU" opacity="1" fill-opacity="0" stroke="#060304" stroke-width="0" stroke-opacity="1"></use></g></g><g><use xlink:href="#g17Zstf5dt" opacity="1" fill="#000000" fill-opacity="1"></use><g><use xlink:href="#g17Zstf5dt" opacity="1" fill-opacity="0" stroke="#060304" stroke-width="0" stroke-opacity="1"></use></g></g><g><use xlink:href="#b5XDtiVdY6" opacity="1" fill="#000000" fill-opacity="1"></use><g><use xlink:href="#b5XDtiVdY6" opacity="1" fill-opacity="0" stroke="#060304" stroke-width="0" stroke-opacity="1"></use></g></g><g><use xlink:href="#adY9r53Mt" opacity="1" fill="#fd425a" fill-opacity="1"></use><g><use xlink:href="#adY9r53Mt" opacity="1" fill-opacity="0" stroke="#060304" stroke-width="3" stroke-opacity="1"></use></g></g><g><g><use xlink:href="#e2T8Hh1yI0" opacity="1" fill-opacity="0" stroke="#060304" stroke-width="4" stroke-opacity="1"></use></g></g><g><g><use xlink:href="#e8v5MsggT" opacity="1" fill-opacity="0" stroke="#060304" stroke-width="4" stroke-opacity="1"></use></g></g><g><g><use xlink:href="#l3l8QjFz2n" opacity="1" fill-opacity="0" stroke="#060304" stroke-width="4" stroke-opacity="1"></use></g></g><g><g><use xlink:href="#cQ5fbkmMS" opacity="1" fill-opacity="0" stroke="#060304" stroke-width="3" stroke-opacity="1"></use></g></g><g><g><use xlink:href="#cAjfpW9SN" opacity="1" fill-opacity="0" stroke="#060304" stroke-width="2" stroke-opacity="1"></use></g></g><g><g><use xlink:href="#c2RfU856XO" opacity="1" fill-opacity="0" stroke="#060304" stroke-width="4" stroke-opacity="1"></use></g></g><g><g><use xlink:href="#a2OQfco2yh" opacity="1" fill-opacity="0" stroke="#060304" stroke-width="4" stroke-opacity="1"></use></g></g><g><g><use xlink:href="#l22NzP7Rgl" opacity="1" fill-opacity="0" stroke="#060304" stroke-width="4" stroke-opacity="1"></use></g></g><g><use xlink:href="#a1FytbzjgW" opacity="1" fill="#000000" fill-opacity="1"></use></g><g><use xlink:href="#b3p2hMOweM" opacity="1" fill="#000000" fill-opacity="1"></use></g><g><use xlink:href="#awPlRYWEk" opacity="1" fill="#000000" fill-opacity="1"></use></g><g><g><use xlink:href="#a21PNzo0Xd" opacity="1" fill-opacity="0" stroke="#060304" stroke-width="4" stroke-opacity="1"></use></g></g><g><g><use xlink:href="#cB8KNpmB5" opacity="1" fill-opacity="0" stroke="#060304" stroke-width="4" stroke-opacity="1"></use></g></g></g></g></svg>