<?xml version="1.0" encoding="UTF-8" standalone="no"?>
<!DOCTYPE svg PUBLIC "-//W3C//DTD SVG 1.1//EN" "http://www.w3.org/Graphics/SVG/1.1/DTD/svg11.dtd">
<svg version="1.1" xmlns="http://www.w3.org/2000/svg" xmlns:xlink="http://www.w3.org/1999/xlink" preserveAspectRatio="xMidYMid meet" viewBox="0 0 100 100" width="100" height="100"><defs><path d="M-25.47 62.9C-25.47 88.62 -46.5 109.5 -72.4 109.5C-98.3 109.5 -119.34 88.62 -119.34 62.9C-119.34 37.18 -98.3 16.3 -72.4 16.3C-46.5 16.3 -25.47 37.18 -25.47 62.9Z" id="eko9FyKUL"></path><path d="M69.93 143.29C71.51 143.29 72.79 144.57 72.79 146.15C72.79 146.73 72.79 145.58 72.79 146.15C72.79 147.73 71.51 149.01 69.93 149.01C65.76 149.01 56.11 149.01 51.95 149.01C50.37 149.01 49.09 147.73 49.09 146.15C49.09 145.58 49.09 146.73 49.09 146.15C49.09 144.57 50.37 143.29 51.95 143.29C56.11 143.29 65.76 143.29 69.93 143.29Z" id="a1feJUHAeN"></path><path d="M185.42 82.79L185.42 82.79L185.42 85.84L185.42 85.84L185.42 82.79Z" id="c3moNfBx0A"></path><path d="M-70.78 16.3C-69.96 16.3 -69.3 16.97 -69.3 17.79C-69.3 19.76 -69.3 24.17 -69.3 26.14C-69.3 26.96 -69.96 27.62 -70.78 27.62C-71.11 27.62 -70.59 27.62 -70.91 27.62C-71.74 27.62 -72.4 26.96 -72.4 26.14C-72.4 24.17 -72.4 19.76 -72.4 17.79C-72.4 16.97 -71.74 16.3 -70.91 16.3C-70.59 16.3 -71.11 16.3 -70.78 16.3Z" id="dXSsGWxtx"></path><path d="M-38.26 30.3C-37.75 30.94 -37.85 31.88 -38.49 32.39C-40.02 33.62 -43.47 36.38 -45 37.61C-45.64 38.13 -46.58 38.02 -47.09 37.38C-47.29 37.14 -46.95 37.57 -47.14 37.32C-47.65 36.68 -47.55 35.75 -46.91 35.23C-45.38 34 -41.93 31.24 -40.4 30.01C-39.76 29.5 -38.82 29.6 -38.31 30.24C-38.11 30.49 -38.46 30.06 -38.26 30.3Z" id="a2wv6sV1CS"></path><path d="M-27.09 50.92C-26.75 51.66 -27.09 52.54 -27.83 52.88C-29.63 53.69 -33.66 55.5 -35.45 56.3C-36.2 56.64 -37.08 56.3 -37.41 55.55C-37.54 55.27 -37.32 55.77 -37.45 55.48C-37.78 54.74 -37.45 53.86 -36.7 53.52C-34.9 52.71 -30.88 50.91 -29.08 50.1C-28.33 49.76 -27.45 50.1 -27.12 50.85C-26.99 51.13 -27.22 50.63 -27.09 50.92Z" id="g1xHAcezRI"></path><path d="M-28.21 79.9C-28.53 80.66 -29.41 81.01 -30.16 80.69C-31.97 79.92 -36.03 78.19 -37.84 77.42C-38.6 77.1 -38.95 76.22 -38.63 75.47C-38.51 75.18 -38.72 75.69 -38.6 75.4C-38.28 74.64 -37.41 74.29 -36.65 74.61C-34.84 75.38 -30.78 77.11 -28.97 77.88C-28.21 78.2 -27.86 79.08 -28.18 79.83C-28.31 80.12 -28.09 79.62 -28.21 79.9Z" id="cywRiOb1H"></path><path d="M-104.02 28.22C-103.51 27.58 -102.58 27.48 -101.94 27.99C-100.4 29.22 -96.96 31.99 -95.42 33.22C-94.78 33.73 -94.68 34.67 -95.2 35.31C-95.39 35.55 -95.05 35.12 -95.24 35.37C-95.76 36.01 -96.69 36.11 -97.33 35.6C-98.87 34.36 -102.31 31.6 -103.84 30.37C-104.48 29.86 -104.59 28.92 -104.07 28.28C-103.88 28.04 -104.22 28.46 -104.02 28.22Z" id="de7wkxWWz"></path><path d="M-107.32 54.39C-107.57 55.18 -108.4 55.62 -109.18 55.37C-111.06 54.8 -115.28 53.5 -117.16 52.92C-117.95 52.67 -118.39 51.84 -118.14 51.06C-118.05 50.76 -118.21 51.28 -118.12 50.99C-117.88 50.2 -117.05 49.76 -116.26 50C-114.38 50.58 -110.16 51.88 -108.28 52.46C-107.5 52.7 -107.06 53.53 -107.3 54.32C-107.39 54.62 -107.23 54.09 -107.32 54.39Z" id="b1tcsOU5m8"></path><path d="M-116.98 79.26C-117.3 78.5 -116.95 77.63 -116.19 77.31C-114.38 76.54 -110.32 74.82 -108.51 74.05C-107.75 73.73 -106.88 74.08 -106.56 74.84C-106.44 75.13 -106.65 74.62 -106.53 74.91C-106.21 75.66 -106.56 76.54 -107.32 76.86C-109.13 77.63 -113.19 79.35 -115 80.11C-115.76 80.44 -116.63 80.08 -116.95 79.33C-117.07 79.04 -116.86 79.54 -116.98 79.26Z" id="e12M53gQDJ"></path><path d="M163.74 124.4C163.74 109.34 163.74 99.8 163.74 95.78C163.74 86.69 167.9 107.86 176.24 159.28L186.74 92.28L186.74 146.78L163.74 146.78L163.74 124.4Z" id="e2IFMo7xgr"></path><path d="M213.24 201.28L230.24 201.28L230.24 242.78L213.24 242.78L213.24 201.28Z" id="adrihbhka"></path><path d="M-42.3 66.91C-41.47 67.06 -41.51 68.26 -42.35 68.35C-49.24 69.17 -65.18 71.07 -72.08 71.88C-74.51 72.17 -76.58 70.12 -76.31 67.69C-76.13 66.08 -76.12 66.01 -75.94 64.4C-75.66 61.87 -73.23 60.16 -70.76 60.74C-67.21 61.57 -61.23 62.97 -57.68 63.8C-57.68 63.8 -48.32 65.78 -48.32 65.78C-46.17 66.18 -44.44 66.51 -42.3 66.91Z" id="b1qb0aB6hs"></path><path d="M-62.53 65.72C-62.53 69.97 -65.98 73.43 -70.23 73.43C-74.49 73.43 -77.94 69.97 -77.94 65.72C-77.94 61.47 -74.49 58.01 -70.23 58.01C-65.98 58.01 -62.53 61.47 -62.53 65.72Z" id="cNhSHTctf"></path><path d="M40.66 -64.69C40.66 -38.97 19.63 -18.09 -6.28 -18.09C-32.18 -18.09 -53.21 -38.97 -53.21 -64.69C-53.21 -90.4 -32.18 -111.28 -6.28 -111.28C19.63 -111.28 40.66 -90.4 40.66 -64.69Z" id="bnsAoKbYj"></path><path d="M-4.66 -111.28C-3.84 -111.28 -3.17 -110.62 -3.17 -109.8C-3.17 -107.83 -3.17 -103.42 -3.17 -101.45C-3.17 -100.63 -3.84 -99.96 -4.66 -99.96C-4.98 -99.96 -4.47 -99.96 -4.79 -99.96C-5.61 -99.96 -6.28 -100.63 -6.28 -101.45C-6.28 -103.42 -6.28 -107.83 -6.28 -109.8C-6.28 -110.62 -5.61 -111.28 -4.79 -111.28C-4.47 -111.28 -4.98 -111.28 -4.66 -111.28Z" id="aaEThpoqR"></path><path d="M26.91 -96.95C27.42 -96.31 27.32 -95.37 26.68 -94.86C25.14 -93.63 21.7 -90.87 20.16 -89.64C19.52 -89.13 18.59 -89.23 18.07 -89.87C17.87 -90.12 18.19 -89.72 17.99 -89.97C17.48 -90.61 17.58 -91.55 18.22 -92.06C19.76 -93.29 23.2 -96.05 24.73 -97.28C25.38 -97.8 26.31 -97.69 26.82 -97.05C27.03 -96.8 26.7 -97.2 26.91 -96.95Z" id="a18rpIXlPg"></path><path d="M39.02 -76.74C39.37 -75.97 39.02 -75.07 38.26 -74.73C36.23 -73.81 31.53 -71.7 29.5 -70.79C28.73 -70.45 27.83 -70.79 27.48 -71.56C27.36 -71.83 27.61 -71.28 27.48 -71.56C27.14 -72.32 27.48 -73.23 28.25 -73.57C30.28 -74.48 34.98 -76.59 37.01 -77.51C37.77 -77.85 38.68 -77.51 39.02 -76.74C39.15 -76.46 38.9 -77.02 39.02 -76.74Z" id="aMWmChchO"></path><path d="M37.48 -46.64C37.08 -45.92 36.17 -45.67 35.45 -46.07C33.74 -47.02 29.88 -49.17 28.16 -50.13C27.44 -50.53 27.19 -51.43 27.59 -52.15C27.74 -52.43 27.47 -51.95 27.62 -52.22C28.02 -52.94 28.93 -53.19 29.65 -52.79C31.36 -51.84 35.22 -49.69 36.94 -48.73C37.66 -48.33 37.91 -47.43 37.51 -46.71C37.36 -46.44 37.63 -46.91 37.48 -46.64Z" id="c2lboOXrZA"></path><path d="M-38.08 -99.41C-37.57 -100.05 -36.63 -100.15 -35.99 -99.64C-34.46 -98.4 -31.01 -95.64 -29.48 -94.41C-28.84 -93.9 -28.74 -92.96 -29.25 -92.32C-29.45 -92.07 -29.13 -92.47 -29.33 -92.22C-29.85 -91.58 -30.78 -91.48 -31.42 -91.99C-32.96 -93.22 -36.4 -95.99 -37.93 -97.22C-38.57 -97.73 -38.67 -98.67 -38.16 -99.31C-37.96 -99.56 -38.28 -99.15 -38.08 -99.41Z" id="a1crre5BO"></path><path d="M-39.92 -72.84C-40.17 -72.03 -41.02 -71.58 -41.82 -71.83C-43.95 -72.49 -48.87 -74 -51 -74.66C-51.8 -74.91 -52.26 -75.76 -52.01 -76.56C-51.92 -76.86 -52.1 -76.27 -52.01 -76.56C-51.76 -77.37 -50.91 -77.82 -50.1 -77.57C-47.98 -76.92 -43.05 -75.4 -40.93 -74.74C-40.12 -74.5 -39.67 -73.64 -39.92 -72.84C-40.01 -72.55 -39.83 -73.13 -39.92 -72.84Z" id="b1xgzRDxg"></path><path d="M-50.84 -48.29C-51.17 -49.07 -50.81 -49.96 -50.03 -50.29C-47.98 -51.16 -43.24 -53.17 -41.19 -54.04C-40.42 -54.37 -39.52 -54.01 -39.19 -53.23C-39.07 -52.95 -39.31 -53.51 -39.19 -53.23C-38.87 -52.46 -39.23 -51.56 -40 -51.23C-42.05 -50.36 -46.79 -48.35 -48.84 -47.49C-49.62 -47.16 -50.51 -47.52 -50.84 -48.29C-50.96 -48.58 -50.72 -48.01 -50.84 -48.29Z" id="a3YFrxAGr"></path><path d="M23.83 -60.68C24.65 -60.52 24.61 -59.33 23.78 -59.23C16.88 -58.41 0.94 -56.52 -5.96 -55.7C-8.39 -55.41 -10.45 -57.46 -10.18 -59.89C-10 -61.5 -10 -61.57 -9.82 -63.18C-9.54 -65.71 -7.11 -67.43 -4.63 -66.85C-1.08 -66.02 4.89 -64.61 8.44 -63.78C8.44 -63.78 17.8 -61.81 17.8 -61.81C19.95 -61.4 21.68 -61.08 23.83 -60.68Z" id="aklrBBfdA"></path><path d="M3.6 -61.87C3.6 -57.61 0.14 -54.16 -4.11 -54.16C-8.36 -54.16 -11.82 -57.61 -11.82 -61.87C-11.82 -66.12 -8.36 -69.57 -4.11 -69.57C0.14 -69.57 3.6 -66.12 3.6 -61.87Z" id="a2uNdINkFb"></path><path d="M-36.8 63.18C-36.8 82.86 -52.9 98.84 -72.72 98.84C-92.54 98.84 -108.64 82.86 -108.64 63.18C-108.64 43.5 -92.54 27.52 -72.72 27.52C-52.9 27.52 -36.8 43.5 -36.8 63.18Z" id="cwouXOVyt"></path><path d="M-22.99 148.31L-13.36 115.02L1.89 124.18L17.14 133.35L-7.74 157.48L-32.62 181.61L-22.99 148.31Z" id="a4runG5pq"></path><path d="M12.19 181.61C12.19 207.33 -8.84 228.21 -34.74 228.21C-60.64 228.21 -81.68 207.33 -81.68 181.61C-81.68 155.89 -60.64 135.01 -34.74 135.01C-8.84 135.01 12.19 155.89 12.19 181.61Z" id="c3YdYWzDV6"></path><path d="M-90.65 -79.53L-145.56 -79.53L-145.56 8.03L-59.85 8.03L-59.85 -42.01L-54.6 -42.01L-54.6 12.72L-150.74 12.72L-150.74 -84.58L-90.65 -84.58L-90.65 -79.53ZM-93 -28.58L-93 -28.57L-106.93 -14.48L-132.73 -40.59L-118.8 -54.68L-106.93 -42.67L-74.53 -75.46L-60.6 -61.36L-93 -28.58Z" id="a2Gt6LnXNi"></path><path d="M-126.37 133.81L-126.37 133.81L-137.86 143.78L-159.16 125.31L-155.4 121.07L-137.87 136.44L-100.81 104.02L-97.15 108.47L-126.37 133.81Z" id="c2kQrGyuwX"></path><path d="M-183.73 98.78L-183.73 98.78L-183.76 78.65L-123.61 78.05L-123.61 82.76L-178.3 84.38L-177.97 173.85L-183.39 175.71L-183.73 98.78Z" id="b1si2Nbc4"></path><path d="M-87.05 155.58L-87.05 155.58L-87.15 175.71L-182.53 175.71L-180.72 171.01L-92.57 169.94L-91.5 131.36L-87.05 131.36L-87.05 155.58Z" id="f1XctyhkB"></path><path d="M82.08 64.61L82.48 64.65L82.88 64.71L83.27 64.78L83.66 64.87L84.04 64.98L84.42 65.1L84.79 65.23L85.15 65.38L85.5 65.54L85.85 65.71L86.19 65.9L86.52 66.1L86.84 66.32L87.16 66.54L87.46 66.78L87.76 67.03L88.04 67.29L88.32 67.56L88.58 67.84L88.84 68.14L89.08 68.44L89.32 68.75L89.54 69.07L89.75 69.4L89.94 69.74L90.13 70.09L90.3 70.44L90.46 70.8L90.6 71.17L90.73 71.55L90.85 71.93L90.95 72.32L91.04 72.72L91.11 73.12L91.17 73.52L91.21 73.93L91.23 74.35L91.24 74.77L91.23 75.19L91.21 75.61L91.17 76.02L91.11 76.43L91.04 76.84L90.95 77.25L90.85 77.66L90.73 78.06L90.6 78.47L90.46 78.87L90.3 79.28L90.13 79.69L89.94 80.1L89.75 80.51L89.54 80.92L89.32 81.34L89.08 81.76L88.84 82.19L88.58 82.62L88.32 83.05L88.04 83.49L87.76 83.94L87.46 84.39L87.16 84.85L86.84 85.32L86.52 85.8L86.19 86.28L85.85 86.77L85.5 87.27L85.15 87.79L84.79 88.31L84.42 88.84L84.04 89.39L83.66 89.94L83.27 90.51L82.88 91.09L82.48 91.68L82.08 92.29L81.68 92.91L81.26 93.55L80.85 92.91L80.45 92.29L80.04 91.68L79.65 91.09L79.25 90.51L78.87 89.94L78.49 89.39L78.11 88.84L77.74 88.31L77.38 87.79L77.03 87.27L76.68 86.77L76.34 86.28L76.01 85.8L75.69 85.32L75.37 84.85L75.07 84.39L74.77 83.94L74.49 83.49L74.21 83.05L73.94 82.62L73.69 82.19L73.44 81.76L73.21 81.34L72.99 80.92L72.78 80.51L72.58 80.1L72.4 79.69L72.23 79.28L72.07 78.87L71.93 78.47L71.8 78.06L71.68 77.66L71.58 77.25L71.49 76.84L71.42 76.43L71.36 76.02L71.32 75.61L71.3 75.19L71.29 74.77L71.3 74.35L71.32 73.93L71.36 73.52L71.42 73.12L71.49 72.72L71.58 72.32L71.68 71.93L71.8 71.55L71.93 71.17L72.07 70.8L72.23 70.44L72.4 70.09L72.58 69.74L72.78 69.4L72.99 69.07L73.21 68.75L73.44 68.44L73.69 68.14L73.94 67.84L74.21 67.56L74.49 67.29L74.77 67.03L75.07 66.78L75.37 66.54L75.69 66.32L76.01 66.1L76.34 65.9L76.68 65.71L77.03 65.54L77.38 65.38L77.74 65.23L78.11 65.1L78.49 64.98L78.87 64.87L79.25 64.78L79.65 64.71L80.04 64.65L80.45 64.61L80.85 64.58L81.26 64.58L81.68 64.58L82.08 64.61ZM80.88 69.42L80.69 69.44L80.5 69.47L80.31 69.5L80.13 69.55L79.95 69.59L79.77 69.65L79.6 69.71L79.42 69.78L79.26 69.86L79.09 69.94L78.93 70.03L78.77 70.13L78.62 70.23L78.47 70.34L78.33 70.45L78.19 70.57L78.05 70.69L77.92 70.82L77.8 70.95L77.68 71.09L77.56 71.23L77.45 71.38L77.35 71.53L77.25 71.69L77.15 71.85L77.07 72.01L76.98 72.18L76.91 72.35L76.84 72.53L76.78 72.71L76.72 72.89L76.68 73.07L76.63 73.26L76.6 73.45L76.57 73.64L76.55 73.84L76.54 74.04L76.54 74.23L76.54 74.43L76.55 74.63L76.57 74.83L76.6 75.02L76.63 75.21L76.68 75.39L76.72 75.58L76.78 75.76L76.84 75.94L76.91 76.11L76.98 76.29L77.07 76.45L77.15 76.62L77.25 76.78L77.35 76.93L77.45 77.09L77.56 77.23L77.68 77.38L77.8 77.52L77.92 77.65L78.05 77.78L78.19 77.9L78.33 78.02L78.47 78.13L78.62 78.24L78.77 78.34L78.93 78.44L79.09 78.52L79.26 78.61L79.42 78.68L79.6 78.75L79.77 78.82L79.95 78.87L80.13 78.92L80.31 78.97L80.5 79L80.69 79.03L80.88 79.05L81.07 79.06L81.26 79.06L81.46 79.06L81.65 79.05L81.84 79.03L82.03 79L82.22 78.97L82.4 78.92L82.58 78.87L82.76 78.82L82.93 78.75L83.1 78.68L83.27 78.61L83.44 78.52L83.6 78.44L83.75 78.34L83.91 78.24L84.06 78.13L84.2 78.02L84.34 77.9L84.48 77.78L84.61 77.65L84.73 77.52L84.85 77.38L84.97 77.23L85.08 77.09L85.18 76.93L85.28 76.78L85.38 76.62L85.46 76.45L85.54 76.29L85.62 76.11L85.69 75.94L85.75 75.76L85.8 75.58L85.85 75.39L85.89 75.21L85.93 75.02L85.96 74.83L85.97 74.63L85.99 74.43L85.99 74.23L85.99 74.04L85.97 73.84L85.96 73.64L85.93 73.45L85.89 73.26L85.85 73.07L85.8 72.89L85.75 72.71L85.69 72.53L85.62 72.35L85.54 72.18L85.46 72.01L85.38 71.85L85.28 71.69L85.18 71.53L85.08 71.38L84.97 71.23L84.85 71.09L84.73 70.95L84.61 70.82L84.48 70.69L84.34 70.57L84.2 70.45L84.06 70.34L83.91 70.23L83.75 70.13L83.6 70.03L83.44 69.94L83.27 69.86L83.1 69.78L82.93 69.71L82.76 69.65L82.58 69.59L82.4 69.55L82.22 69.5L82.03 69.47L81.84 69.44L81.65 69.42L81.46 69.41L81.26 69.41L81.07 69.41L80.88 69.42Z" id="ePRjMArxe"></path><path d="M86.39 33.83C86.25 50.94 72.24 64.72 55.12 64.57C38.01 64.43 24.23 50.42 24.37 33.3C24.52 16.19 38.53 2.41 55.65 2.55C72.76 2.7 86.54 16.71 86.39 33.83Z" id="a8r2EAel3"></path><path d="M35.42 57.79C35.96 58.12 38.23 59.99 38.62 60.43C40.68 62.77 42.93 59.9 40.79 62.78C22.99 86.8 14.83 97.81 16.31 95.8C15.08 97.47 12.73 97.81 11.07 96.58C9.26 95.24 6.86 93.46 5.05 92.12C3.41 90.9 3.11 88.56 4.4 86.97C9.8 80.29 25.06 61.44 30.82 54.32C31.14 53.93 31.74 53.93 32.07 54.32C33.65 56.23 34.77 57.39 35.42 57.79Z" id="avC8Y0fMq"></path><path d="M74.39 33.73C74.31 44.22 65.71 52.66 55.22 52.57C44.73 52.49 36.28 43.9 36.37 33.4C36.46 22.91 45.05 14.47 55.55 14.55C66.04 14.64 74.48 23.23 74.39 33.73Z" id="j7lopsv4Hn"></path><path d="M340.12 60.37L340.63 60.42L341.13 60.49L341.62 60.59L342.1 60.7L342.58 60.83L343.05 60.98L343.51 61.15L343.97 61.33L344.41 61.53L344.84 61.75L345.27 61.99L345.68 62.24L346.09 62.51L346.48 62.79L346.86 63.09L347.23 63.4L347.59 63.73L347.94 64.07L348.27 64.42L348.59 64.79L348.9 65.17L349.19 65.56L349.46 65.96L349.73 66.37L349.97 66.8L350.2 67.23L350.42 67.67L350.62 68.13L350.8 68.59L350.96 69.06L351.11 69.54L351.24 70.03L351.35 70.53L351.44 71.03L351.51 71.54L351.56 72.05L351.59 72.57L351.6 73.1L351.59 73.63L351.56 74.15L351.51 74.67L351.44 75.18L351.35 75.69L351.24 76.21L351.11 76.71L350.96 77.22L350.8 77.73L350.62 78.24L350.42 78.75L350.2 79.26L349.97 79.77L349.73 80.29L349.46 80.81L349.19 81.33L348.9 81.86L348.59 82.39L348.27 82.93L347.94 83.48L347.59 84.03L347.23 84.59L346.86 85.15L346.48 85.73L346.09 86.32L345.68 86.91L345.27 87.52L344.84 88.14L344.41 88.76L343.97 89.41L343.51 90.06L343.05 90.73L342.58 91.41L342.1 92.11L341.62 92.82L341.13 93.55L340.63 94.29L340.12 95.05L339.61 95.83L339.1 96.63L338.58 95.83L338.07 95.05L337.57 94.29L337.07 93.55L336.58 92.82L336.1 92.11L335.62 91.41L335.15 90.73L334.69 90.06L334.23 89.41L333.79 88.76L333.36 88.14L332.93 87.52L332.52 86.91L332.11 86.32L331.72 85.73L331.34 85.15L330.96 84.59L330.61 84.03L330.26 83.48L329.93 82.93L329.61 82.39L329.3 81.86L329.01 81.33L328.73 80.81L328.47 80.29L328.23 79.77L327.99 79.26L327.78 78.75L327.58 78.24L327.4 77.73L327.24 77.22L327.09 76.71L326.96 76.21L326.85 75.69L326.76 75.18L326.69 74.67L326.64 74.15L326.61 73.63L326.6 73.1L326.61 72.57L326.64 72.05L326.69 71.54L326.76 71.03L326.85 70.53L326.96 70.03L327.09 69.54L327.24 69.06L327.4 68.59L327.58 68.13L327.78 67.67L327.99 67.23L328.23 66.8L328.47 66.37L328.73 65.96L329.01 65.56L329.3 65.17L329.61 64.79L329.93 64.42L330.26 64.07L330.61 63.73L330.96 63.4L331.34 63.09L331.72 62.79L332.11 62.51L332.52 62.24L332.93 61.99L333.36 61.75L333.79 61.53L334.23 61.33L334.69 61.15L335.15 60.98L335.62 60.83L336.1 60.7L336.58 60.59L337.07 60.49L337.57 60.42L338.07 60.37L338.58 60.34L339.1 60.33L339.61 60.34L340.12 60.37ZM338.61 66.4L338.38 66.42L338.14 66.46L337.91 66.5L337.68 66.55L337.45 66.61L337.23 66.69L337.01 66.76L336.79 66.85L336.58 66.95L336.38 67.05L336.18 67.16L335.98 67.28L335.79 67.41L335.6 67.54L335.42 67.69L335.25 67.83L335.08 67.99L334.91 68.15L334.76 68.32L334.6 68.49L334.46 68.67L334.32 68.85L334.19 69.04L334.07 69.24L333.95 69.44L333.84 69.65L333.74 69.86L333.64 70.07L333.56 70.29L333.48 70.51L333.41 70.74L333.35 70.97L333.3 71.21L333.26 71.45L333.22 71.69L333.2 71.93L333.18 72.18L333.18 72.43L333.18 72.68L333.2 72.92L333.22 73.17L333.26 73.41L333.3 73.65L333.35 73.88L333.41 74.11L333.48 74.34L333.56 74.56L333.64 74.78L333.74 75L333.84 75.21L333.95 75.41L334.07 75.61L334.19 75.81L334.32 76L334.46 76.19L334.6 76.36L334.76 76.54L334.91 76.71L335.08 76.87L335.25 77.02L335.42 77.17L335.6 77.31L335.79 77.44L335.98 77.57L336.18 77.69L336.38 77.8L336.58 77.91L336.79 78L337.01 78.09L337.23 78.17L337.45 78.24L337.68 78.3L337.91 78.35L338.14 78.4L338.38 78.43L338.61 78.46L338.86 78.47L339.1 78.48L339.34 78.47L339.59 78.46L339.82 78.43L340.06 78.4L340.29 78.35L340.52 78.3L340.75 78.24L340.97 78.17L341.19 78.09L341.4 78L341.61 77.91L341.82 77.8L342.02 77.69L342.22 77.57L342.41 77.44L342.6 77.31L342.78 77.17L342.95 77.02L343.12 76.87L343.29 76.71L343.44 76.54L343.6 76.36L343.74 76.19L343.88 76L344.01 75.81L344.13 75.61L344.25 75.41L344.36 75.21L344.46 75L344.56 74.78L344.64 74.56L344.72 74.34L344.79 74.11L344.85 73.88L344.9 73.65L344.94 73.41L344.98 73.17L345 72.92L345.02 72.68L345.02 72.43L345.02 72.18L345 71.93L344.98 71.69L344.94 71.45L344.9 71.21L344.85 70.97L344.79 70.74L344.72 70.51L344.64 70.29L344.56 70.07L344.46 69.86L344.36 69.65L344.25 69.44L344.13 69.24L344.01 69.04L343.88 68.85L343.74 68.67L343.6 68.49L343.44 68.32L343.29 68.15L343.12 67.99L342.95 67.83L342.78 67.69L342.6 67.54L342.41 67.41L342.22 67.28L342.02 67.16L341.82 67.05L341.61 66.95L341.4 66.85L341.19 66.76L340.97 66.69L340.75 66.61L340.52 66.55L340.29 66.5L340.06 66.46L339.82 66.42L339.59 66.4L339.34 66.38L339.1 66.38L338.86 66.38L338.61 66.4Z" id="cQ5fbkmMS"></path><path d="M309.07 58.61L309.34 58.64L309.6 58.68L309.86 58.73L310.11 58.78L310.36 58.85L310.61 58.93L310.86 59.02L311.09 59.12L311.33 59.22L311.56 59.34L311.78 59.46L312 59.6L312.21 59.74L312.42 59.89L312.62 60.04L312.82 60.21L313.01 60.38L313.19 60.56L313.36 60.75L313.53 60.94L313.69 61.14L313.85 61.34L313.99 61.56L314.13 61.77L314.26 62L314.38 62.23L314.49 62.46L314.6 62.7L314.69 62.94L314.78 63.19L314.86 63.44L314.92 63.7L314.98 63.96L315.03 64.23L315.07 64.5L315.09 64.77L315.11 65.04L315.12 65.32L315.11 65.6L315.09 65.87L315.07 66.14L315.03 66.42L314.98 66.69L314.92 66.96L314.86 67.22L314.78 67.49L314.69 67.76L314.6 68.03L314.49 68.3L314.38 68.56L314.26 68.83L314.13 69.11L313.99 69.38L313.85 69.66L313.69 69.93L313.53 70.21L313.36 70.5L313.19 70.79L313.01 71.08L312.82 71.37L312.62 71.67L312.42 71.97L312.21 72.28L312 72.6L311.78 72.92L311.56 73.24L311.33 73.57L311.09 73.91L310.86 74.25L310.61 74.61L310.36 74.97L310.11 75.33L309.86 75.71L309.6 76.09L309.34 76.48L309.07 76.88L308.8 77.29L308.53 77.72L308.26 77.29L307.99 76.88L307.72 76.48L307.46 76.09L307.2 75.71L306.95 75.33L306.7 74.97L306.45 74.61L306.21 74.25L305.97 73.91L305.73 73.57L305.5 73.24L305.28 72.92L305.06 72.6L304.85 72.28L304.64 71.97L304.44 71.67L304.24 71.37L304.06 71.08L303.87 70.79L303.7 70.5L303.53 70.21L303.37 69.93L303.22 69.66L303.07 69.38L302.93 69.11L302.8 68.83L302.68 68.56L302.57 68.3L302.46 68.03L302.37 67.76L302.28 67.49L302.2 67.22L302.14 66.96L302.08 66.69L302.03 66.42L301.99 66.14L301.97 65.87L301.95 65.6L301.94 65.32L301.95 65.04L301.97 64.77L301.99 64.5L302.03 64.23L302.08 63.96L302.14 63.7L302.2 63.44L302.28 63.19L302.37 62.94L302.46 62.7L302.57 62.46L302.68 62.23L302.8 62L302.93 61.77L303.07 61.56L303.22 61.34L303.37 61.14L303.53 60.94L303.7 60.75L303.87 60.56L304.06 60.38L304.24 60.21L304.44 60.04L304.64 59.89L304.85 59.74L305.06 59.6L305.28 59.46L305.5 59.34L305.73 59.22L305.97 59.12L306.21 59.02L306.45 58.93L306.7 58.85L306.95 58.78L307.2 58.73L307.46 58.68L307.72 58.64L307.99 58.61L308.26 58.6L308.53 58.59L308.8 58.6L309.07 58.61ZM308.27 61.79L308.15 61.8L308.02 61.82L307.9 61.84L307.78 61.87L307.66 61.9L307.54 61.94L307.43 61.98L307.32 62.03L307.21 62.08L307.1 62.13L306.99 62.19L306.89 62.25L306.79 62.32L306.69 62.39L306.59 62.47L306.5 62.54L306.41 62.63L306.32 62.71L306.24 62.8L306.16 62.89L306.09 62.98L306.01 63.08L305.94 63.18L305.88 63.29L305.82 63.39L305.76 63.5L305.71 63.61L305.66 63.72L305.61 63.84L305.57 63.96L305.53 64.08L305.5 64.2L305.47 64.32L305.45 64.45L305.43 64.57L305.42 64.7L305.41 64.83L305.41 64.96L305.41 65.1L305.42 65.23L305.43 65.35L305.45 65.48L305.47 65.61L305.5 65.73L305.53 65.85L305.57 65.97L305.61 66.09L305.66 66.21L305.71 66.32L305.76 66.43L305.82 66.54L305.88 66.64L305.94 66.75L306.01 66.85L306.09 66.94L306.16 67.04L306.24 67.13L306.32 67.22L306.41 67.3L306.5 67.38L306.59 67.46L306.69 67.54L306.79 67.61L306.89 67.67L306.99 67.74L307.1 67.8L307.21 67.85L307.32 67.9L307.43 67.95L307.54 67.99L307.66 68.03L307.78 68.06L307.9 68.09L308.02 68.11L308.15 68.13L308.27 68.14L308.4 68.15L308.53 68.15L308.66 68.15L308.79 68.14L308.91 68.13L309.04 68.11L309.16 68.09L309.28 68.06L309.4 68.03L309.52 67.99L309.63 67.95L309.74 67.9L309.86 67.85L309.96 67.8L310.07 67.74L310.17 67.67L310.27 67.61L310.37 67.54L310.47 67.46L310.56 67.38L310.65 67.3L310.74 67.22L310.82 67.13L310.9 67.04L310.98 66.94L311.05 66.85L311.12 66.75L311.18 66.64L311.24 66.54L311.3 66.43L311.36 66.32L311.4 66.21L311.45 66.09L311.49 65.97L311.53 65.85L311.56 65.73L311.59 65.61L311.61 65.48L311.63 65.35L311.64 65.23L311.65 65.1L311.65 64.96L311.65 64.83L311.64 64.7L311.63 64.57L311.61 64.45L311.59 64.32L311.56 64.2L311.53 64.08L311.49 63.96L311.45 63.84L311.4 63.72L311.36 63.61L311.3 63.5L311.24 63.39L311.18 63.29L311.12 63.18L311.05 63.08L310.98 62.98L310.9 62.89L310.82 62.8L310.74 62.71L310.65 62.63L310.56 62.54L310.47 62.47L310.37 62.39L310.27 62.32L310.17 62.25L310.07 62.19L309.96 62.13L309.86 62.08L309.74 62.03L309.63 61.98L309.52 61.94L309.4 61.9L309.28 61.87L309.16 61.84L309.04 61.82L308.91 61.8L308.79 61.79L308.66 61.78L308.53 61.78L308.4 61.78L308.27 61.79Z" id="cAjfpW9SN"></path><path d="M328.84 29.33C328.73 42.37 318.05 52.87 305.01 52.76C291.97 52.65 281.47 41.97 281.58 28.93C281.69 15.89 292.37 5.39 305.41 5.5C318.45 5.61 328.95 16.29 328.84 29.33Z" id="c2RfU856XO"></path><path d="M290 47.59C290.41 47.84 292.14 49.26 292.44 49.6C294.01 51.38 295.72 49.2 294.09 51.39C280.52 69.7 274.3 78.09 275.44 76.56C274.5 77.83 272.71 78.09 271.44 77.15C270.07 76.13 268.23 74.77 266.85 73.75C265.6 72.82 265.38 71.04 266.35 69.83C270.48 64.74 282.11 50.37 286.49 44.95C286.74 44.65 287.2 44.65 287.44 44.95C288.65 46.4 289.5 47.28 290 47.59Z" id="a2OQfco2yh"></path><path d="M319.7 29.25C319.63 37.25 313.08 43.69 305.09 43.62C297.09 43.55 290.66 37 290.72 29.01C290.79 21.01 297.34 14.58 305.33 14.64C313.33 14.71 319.77 21.26 319.7 29.25Z" id="l22NzP7Rgl"></path><path d="M313.05 93.5L314.02 90.64L335.76 98.02L334.78 100.89L313.05 93.5Z" id="a1FytbzjgW"></path><path d="M316.5 92.8L313.64 91.6L316.97 83.69L319.83 84.89L316.5 92.8Z" id="b3p2hMOweM"></path><path d="M320.43 84.01L319.16 86.78L308.87 82.06L310.14 79.29L320.43 84.01Z" id="awPlRYWEk"></path><path d="M241.19 -65.42L255.41 -65.42L255.41 -61.87L219.85 -61.87L219.85 -65.42L234.08 -65.42L234.08 -109.16L193.68 -149.5L281.58 -149.5L241.19 -109.16L241.19 -65.42ZM202.07 -152.41L202.07 -155.96L273.19 -155.96L273.19 -152.41L202.07 -152.41Z" id="a21PNzo0Xd"></path></defs><g><g><g><g><use xlink:href="#eko9FyKUL" opacity="1" fill-opacity="0" stroke="#000000" stroke-width="4" stroke-opacity="1"></use></g></g><g><use xlink:href="#a1feJUHAeN" opacity="1" fill="#000000" fill-opacity="1"></use></g><g><use xlink:href="#c3moNfBx0A" opacity="1" fill="#000000" fill-opacity="1"></use></g><g><use xlink:href="#dXSsGWxtx" opacity="1" fill="#000000" fill-opacity="1"></use></g><g><use xlink:href="#a2wv6sV1CS" opacity="1" fill="#000000" fill-opacity="1"></use><g><use xlink:href="#a2wv6sV1CS" opacity="1" fill-opacity="0" stroke="#060304" stroke-width="0" stroke-opacity="1"></use></g></g><g><use xlink:href="#g1xHAcezRI" opacity="1" fill="#000000" fill-opacity="1"></use></g><g><use xlink:href="#cywRiOb1H" opacity="1" fill="#000000" fill-opacity="1"></use><g><use xlink:href="#cywRiOb1H" opacity="1" fill-opacity="0" stroke="#060304" stroke-width="0" stroke-opacity="1"></use></g></g><g><use xlink:href="#de7wkxWWz" opacity="1" fill="#000000" fill-opacity="1"></use></g><g><use xlink:href="#b1tcsOU5m8" opacity="1" fill="#000000" fill-opacity="1"></use></g><g><use xlink:href="#e12M53gQDJ" opacity="1" fill="#000000" fill-opacity="1"></use></g><g><use xlink:href="#e2IFMo7xgr" opacity="1" fill="#000000" fill-opacity="1"></use></g><g><use xlink:href="#adrihbhka" opacity="1" fill="#000000" fill-opacity="1"></use></g><g><use xlink:href="#b1qb0aB6hs" opacity="1" fill="#000000" fill-opacity="1"></use><g><use xlink:href="#b1qb0aB6hs" opacity="1" fill-opacity="0" stroke="#060304" stroke-width="1" stroke-opacity="1"></use></g></g><g><use xlink:href="#cNhSHTctf" opacity="1" fill="#000000" fill-opacity="1"></use></g><g><g><use xlink:href="#bnsAoKbYj" opacity="1" fill-opacity="0" stroke="#000000" stroke-width="4" stroke-opacity="1"></use></g></g><g><use xlink:href="#aaEThpoqR" opacity="1" fill="#000000" fill-opacity="1"></use></g><g><use xlink:href="#a18rpIXlPg" opacity="1" fill="#000000" fill-opacity="1"></use><g><use xlink:href="#a18rpIXlPg" opacity="1" fill-opacity="0" stroke="#060304" stroke-width="0" stroke-opacity="1"></use></g></g><g><use xlink:href="#aMWmChchO" opacity="1" fill="#000000" fill-opacity="1"></use></g><g><use xlink:href="#c2lboOXrZA" opacity="1" fill="#000000" fill-opacity="1"></use><g><use xlink:href="#c2lboOXrZA" opacity="1" fill-opacity="0" stroke="#060304" stroke-width="0" stroke-opacity="1"></use></g></g><g><use xlink:href="#a1crre5BO" opacity="1" fill="#000000" fill-opacity="1"></use></g><g><use xlink:href="#b1xgzRDxg" opacity="1" fill="#000000" fill-opacity="1"></use></g><g><use xlink:href="#a3YFrxAGr" opacity="1" fill="#000000" fill-opacity="1"></use></g><g><use xlink:href="#aklrBBfdA" opacity="1" fill="#000000" fill-opacity="1"></use><g><use xlink:href="#aklrBBfdA" opacity="1" fill-opacity="0" stroke="#060304" stroke-width="1" stroke-opacity="1"></use></g></g><g><use xlink:href="#a2uNdINkFb" opacity="1" fill="#000000" fill-opacity="1"></use></g><g><g><use xlink:href="#cwouXOVyt" opacity="1" fill-opacity="0" stroke="#000000" stroke-width="4" stroke-opacity="1"></use></g></g><g><g><use xlink:href="#a4runG5pq" opacity="1" fill-opacity="0" stroke="#060304" stroke-width="4" stroke-opacity="1"></use></g></g><g><g><use xlink:href="#c3YdYWzDV6" opacity="1" fill-opacity="0" stroke="#000000" stroke-width="4" stroke-opacity="1"></use></g></g><g><use xlink:href="#a2Gt6LnXNi" opacity="1" fill="#000000" fill-opacity="1"></use><g><use xlink:href="#a2Gt6LnXNi" opacity="1" fill-opacity="0" stroke="#060304" stroke-width="0" stroke-opacity="1"></use></g></g><g><use xlink:href="#c2kQrGyuwX" opacity="1" fill="#000000" fill-opacity="1"></use><g><use xlink:href="#c2kQrGyuwX" opacity="1" fill-opacity="0" stroke="#060304" stroke-width="0" stroke-opacity="1"></use></g></g><g><use xlink:href="#b1si2Nbc4" opacity="1" fill="#000000" fill-opacity="1"></use><g><use xlink:href="#b1si2Nbc4" opacity="1" fill-opacity="0" stroke="#060304" stroke-width="0" stroke-opacity="1"></use></g></g><g><use xlink:href="#f1XctyhkB" opacity="1" fill="#000000" fill-opacity="1"></use><g><use xlink:href="#f1XctyhkB" opacity="1" fill-opacity="0" stroke="#060304" stroke-width="0" stroke-opacity="1"></use></g></g><g><use xlink:href="#ePRjMArxe" opacity="1" fill="#fd425a" fill-opacity="1"></use><g><use xlink:href="#ePRjMArxe" opacity="1" fill-opacity="0" stroke="#060304" stroke-width="3" stroke-opacity="1"></use></g></g><g><g><use xlink:href="#a8r2EAel3" opacity="1" fill-opacity="0" stroke="#060304" stroke-width="4" stroke-opacity="1"></use></g></g><g><g><use xlink:href="#avC8Y0fMq" opacity="1" fill-opacity="0" stroke="#060304" stroke-width="4" stroke-opacity="1"></use></g></g><g><g><use xlink:href="#j7lopsv4Hn" opacity="1" fill-opacity="0" stroke="#060304" stroke-width="4" stroke-opacity="1"></use></g></g><g><g><use xlink:href="#cQ5fbkmMS" opacity="1" fill-opacity="0" stroke="#060304" stroke-width="3" stroke-opacity="1"></use></g></g><g><g><use xlink:href="#cAjfpW9SN" opacity="1" fill-opacity="0" stroke="#060304" stroke-width="2" stroke-opacity="1"></use></g></g><g><g><use xlink:href="#c2RfU856XO" opacity="1" fill-opacity="0" stroke="#060304" stroke-width="4" stroke-opacity="1"></use></g></g><g><g><use xlink:href="#a2OQfco2yh" opacity="1" fill-opacity="0" stroke="#060304" stroke-width="4" stroke-opacity="1"></use></g></g><g><g><use xlink:href="#l22NzP7Rgl" opacity="1" fill-opacity="0" stroke="#060304" stroke-width="4" stroke-opacity="1"></use></g></g><g><use xlink:href="#a1FytbzjgW" opacity="1" fill="#000000" fill-opacity="1"></use></g><g><use xlink:href="#b3p2hMOweM" opacity="1" fill="#000000" fill-opacity="1"></use></g><g><use xlink:href="#awPlRYWEk" opacity="1" fill="#000000" fill-opacity="1"></use></g><g><g><use xlink:href="#a21PNzo0Xd" opacity="1" fill-opacity="0" stroke="#060304" stroke-width="4" stroke-opacity="1"></use></g></g></g></g></svg>