<?xml version="1.0" encoding="UTF-8" standalone="no"?>
<!DOCTYPE svg PUBLIC "-//W3C//DTD SVG 1.1//EN" "http://www.w3.org/Graphics/SVG/1.1/DTD/svg11.dtd">
<svg version="1.1" xmlns="http://www.w3.org/2000/svg" xmlns:xlink="http://www.w3.org/1999/xlink" preserveAspectRatio="xMidYMid meet" viewBox="0 0 100 100" width="100" height="100"><defs><path d="M60.68 -51.35C60.68 -43.08 53.97 -36.38 45.71 -36.38C37.44 -36.38 30.74 -43.08 30.74 -51.35C30.74 -59.61 37.44 -66.32 45.71 -66.32C53.97 -66.32 60.68 -59.61 60.68 -51.35Z" id="jF4qyqjGr"></path><path d="M155.18 -84.45L166.32 -79.69L152.84 -48.18L141.7 -52.94L155.18 -84.45Z" id="bmpX9HGqA"></path><path d="M147.67 -42.95L152.52 -46.58L146.95 -48.96L141.38 -51.35L142.1 -45.33L142.82 -39.32L147.67 -42.95Z" id="a7VKSPeD5d"></path><path d="M161.95 -82.34L161.94 -82.35L161.92 -82.35L161.9 -82.36L161.89 -82.36L161.88 -82.37L161.86 -82.38L161.85 -82.39L161.84 -82.4L161.82 -82.41L161.81 -82.42L161.8 -82.43L161.79 -82.44L161.78 -82.45L161.77 -82.46L161.76 -82.48L161.75 -82.49L161.74 -82.5L161.73 -82.52L161.73 -82.53L161.72 -82.55L161.71 -82.57L161.7 -82.58L161.7 -82.6L161.69 -82.62L161.68 -82.63L161.68 -82.65L161.67 -82.67L161.66 -82.69L161.66 -82.71L161.65 -82.73L161.65 -82.75L161.64 -82.77L161.64 -82.79L161.63 -82.81L161.63 -82.83L161.62 -82.85L161.62 -82.88L161.61 -82.9L161.39 -84.26L161.28 -84.31L161.03 -84.42L160.78 -84.55L160.55 -84.69L160.31 -84.83L160.29 -84.84L158.95 -84.31L158.92 -84.3L158.9 -84.29L158.88 -84.28L158.86 -84.28L158.84 -84.27L158.82 -84.26L158.79 -84.26L158.77 -84.25L158.75 -84.24L158.73 -84.24L158.71 -84.23L158.69 -84.23L158.67 -84.22L158.65 -84.22L158.63 -84.22L158.61 -84.21L158.6 -84.21L158.58 -84.21L158.56 -84.21L158.54 -84.21L158.52 -84.2L158.51 -84.2L158.49 -84.2L158.47 -84.21L158.46 -84.21L158.44 -84.21L158.42 -84.21L158.41 -84.22L158.39 -84.22L158.38 -84.22L158.36 -84.23L158.35 -84.24L158.33 -84.24L158.32 -84.25L158.31 -84.26L158.29 -84.27L158.28 -84.28L158.27 -84.29L158.26 -84.3L158.25 -84.32L156.61 -86.26L156.6 -86.27L156.59 -86.28L156.58 -86.3L156.57 -86.31L156.56 -86.33L156.56 -86.34L156.55 -86.36L156.55 -86.37L156.54 -86.39L156.54 -86.4L156.54 -86.42L156.54 -86.43L156.54 -86.45L156.54 -86.46L156.54 -86.48L156.54 -86.49L156.54 -86.51L156.55 -86.53L156.55 -86.54L156.55 -86.56L156.56 -86.57L156.57 -86.59L156.57 -86.61L156.58 -86.62L156.59 -86.64L156.6 -86.66L156.6 -86.67L156.61 -86.69L156.62 -86.71L156.63 -86.73L156.64 -86.74L156.66 -86.76L156.67 -86.78L156.68 -86.79L156.69 -86.81L156.71 -86.83L156.72 -86.84L156.73 -86.86L156.75 -86.88L156.76 -86.89L157.63 -87.99L157.62 -88.02L157.53 -88.26L157.44 -88.51L157.37 -88.76L157.3 -89.01L157.28 -89.13L155.91 -89.65L155.89 -89.66L155.87 -89.66L155.85 -89.67L155.83 -89.68L155.81 -89.69L155.79 -89.7L155.77 -89.7L155.75 -89.71L155.73 -89.72L155.71 -89.73L155.69 -89.74L155.67 -89.75L155.65 -89.76L155.64 -89.77L155.62 -89.78L155.6 -89.79L155.59 -89.8L155.57 -89.81L155.56 -89.83L155.55 -89.84L155.53 -89.85L155.52 -89.86L155.51 -89.87L155.5 -89.88L155.49 -89.9L155.48 -89.91L155.47 -89.92L155.46 -89.94L155.45 -89.95L155.44 -89.96L155.44 -89.98L155.43 -89.99L155.43 -90.01L155.42 -90.02L155.42 -90.04L155.42 -90.05L155.42 -90.07L155.42 -90.09L155.42 -90.1L155.42 -90.12L155.71 -92.56L155.71 -92.57L155.71 -92.59L155.72 -92.6L155.72 -92.62L155.73 -92.63L155.73 -92.65L155.74 -92.66L155.75 -92.67L155.76 -92.68L155.77 -92.7L155.78 -92.71L155.79 -92.72L155.8 -92.73L155.81 -92.74L155.82 -92.75L155.84 -92.76L155.85 -92.77L155.87 -92.77L155.88 -92.78L155.9 -92.79L155.91 -92.8L155.93 -92.8L155.95 -92.81L155.96 -92.82L155.98 -92.82L156 -92.83L156.02 -92.84L156.04 -92.84L156.06 -92.85L156.08 -92.85L156.1 -92.86L156.12 -92.86L156.14 -92.87L156.16 -92.87L156.18 -92.88L156.21 -92.88L156.23 -92.88L156.25 -92.89L156.28 -92.89L156.3 -92.9L157.75 -93.08L157.8 -93.19L157.92 -93.42L158.05 -93.65L158.19 -93.87L158.34 -94.08L158.36 -94.1L157.77 -95.37L157.76 -95.39L157.75 -95.41L157.74 -95.43L157.73 -95.45L157.72 -95.47L157.71 -95.49L157.7 -95.51L157.7 -95.53L157.69 -95.55L157.68 -95.57L157.68 -95.58L157.67 -95.6L157.67 -95.62L157.66 -95.64L157.66 -95.66L157.65 -95.68L157.65 -95.69L157.65 -95.71L157.65 -95.73L157.64 -95.75L157.64 -95.76L157.64 -95.78L157.64 -95.8L157.65 -95.81L157.65 -95.83L157.65 -95.84L157.65 -95.86L157.66 -95.87L157.66 -95.89L157.67 -95.9L157.67 -95.92L157.68 -95.93L157.69 -95.94L157.7 -95.96L157.71 -95.97L157.72 -95.98L157.73 -95.99L157.74 -96L157.75 -96.02L157.77 -96.03L159.81 -97.53L159.83 -97.54L159.84 -97.55L159.86 -97.56L159.87 -97.56L159.89 -97.57L159.9 -97.58L159.92 -97.58L159.93 -97.58L159.95 -97.59L159.96 -97.59L159.98 -97.59L159.99 -97.59L160.01 -97.59L160.03 -97.59L160.04 -97.59L160.06 -97.58L160.08 -97.58L160.09 -97.58L160.11 -97.57L160.13 -97.57L160.14 -97.56L160.16 -97.56L160.18 -97.55L160.2 -97.54L160.21 -97.54L160.23 -97.53L160.25 -97.52L160.27 -97.51L160.29 -97.5L160.3 -97.49L160.32 -97.48L160.34 -97.47L160.36 -97.46L160.38 -97.45L160.4 -97.44L160.42 -97.43L160.44 -97.41L160.46 -97.4L160.48 -97.39L160.5 -97.38L161.68 -96.54L161.7 -96.55L161.96 -96.64L162.23 -96.71L162.49 -96.78L162.76 -96.83L162.89 -96.85L163.42 -98.13L163.43 -98.15L163.44 -98.17L163.45 -98.19L163.46 -98.21L163.47 -98.22L163.48 -98.24L163.49 -98.26L163.5 -98.28L163.51 -98.3L163.52 -98.32L163.53 -98.33L163.54 -98.35L163.55 -98.37L163.56 -98.38L163.57 -98.4L163.58 -98.41L163.59 -98.43L163.6 -98.44L163.61 -98.45L163.63 -98.47L163.64 -98.48L163.65 -98.49L163.66 -98.5L163.67 -98.51L163.69 -98.52L163.7 -98.53L163.71 -98.54L163.73 -98.55L163.74 -98.56L163.75 -98.56L163.77 -98.57L163.78 -98.57L163.8 -98.58L163.81 -98.58L163.83 -98.58L163.85 -98.58L163.86 -98.59L163.88 -98.59L163.9 -98.58L163.91 -98.58L166.52 -98.27L166.54 -98.27L166.56 -98.27L166.57 -98.26L166.59 -98.26L166.6 -98.25L166.62 -98.25L166.63 -98.24L166.65 -98.23L166.66 -98.22L166.68 -98.22L166.69 -98.21L166.7 -98.2L166.71 -98.18L166.72 -98.17L166.74 -98.16L166.75 -98.15L166.76 -98.13L166.77 -98.12L166.78 -98.11L166.78 -98.09L166.79 -98.08L166.8 -98.06L166.81 -98.04L166.82 -98.03L166.82 -98.01L166.83 -97.99L166.84 -97.98L166.84 -97.96L166.85 -97.94L166.86 -97.92L166.86 -97.9L166.87 -97.88L166.87 -97.86L166.88 -97.84L166.88 -97.82L166.88 -97.8L166.89 -97.78L166.89 -97.76L166.89 -97.74L166.9 -97.71L167.12 -96.35L167.23 -96.3L167.48 -96.19L167.72 -96.06L167.96 -95.93L168.2 -95.78L168.22 -95.77L169.56 -96.3L169.58 -96.31L169.6 -96.31L169.62 -96.32L169.64 -96.33L169.67 -96.34L169.69 -96.35L169.71 -96.35L169.73 -96.36L169.75 -96.37L169.77 -96.37L169.79 -96.38L169.81 -96.38L169.83 -96.39L169.85 -96.39L169.87 -96.39L169.88 -96.4L169.9 -96.4L169.92 -96.4L169.94 -96.4L169.96 -96.4L169.98 -96.4L170 -96.4L170.01 -96.4L170.03 -96.4L170.05 -96.4L170.06 -96.4L170.08 -96.39L170.1 -96.39L170.11 -96.39L170.13 -96.38L170.14 -96.37L170.16 -96.37L170.17 -96.36L170.19 -96.35L170.2 -96.34L170.21 -96.33L170.23 -96.32L170.24 -96.31L170.25 -96.3L170.26 -96.29L171.9 -94.34L171.91 -94.33L171.92 -94.32L171.93 -94.3L171.94 -94.29L171.94 -94.28L171.95 -94.26L171.96 -94.25L171.96 -94.23L171.96 -94.22L171.96 -94.2L171.97 -94.19L171.97 -94.17L171.97 -94.16L171.97 -94.14L171.96 -94.13L171.96 -94.11L171.96 -94.1L171.96 -94.08L171.95 -94.07L171.95 -94.05L171.94 -94.04L171.93 -94.02L171.93 -94L171.92 -93.99L171.91 -93.97L171.9 -93.95L171.89 -93.94L171.89 -93.92L171.88 -93.9L171.87 -93.89L171.86 -93.87L171.84 -93.85L171.83 -93.83L171.82 -93.82L171.81 -93.8L171.8 -93.78L171.79 -93.76L171.77 -93.74L171.76 -93.73L171.75 -93.71L170.88 -92.62L170.89 -92.59L170.98 -92.35L171.07 -92.1L171.14 -91.85L171.2 -91.6L171.23 -91.48L172.6 -90.96L172.62 -90.95L172.64 -90.94L172.66 -90.94L172.68 -90.93L172.7 -90.92L172.72 -90.91L172.74 -90.9L172.76 -90.89L172.78 -90.88L172.8 -90.87L172.82 -90.86L172.83 -90.85L172.85 -90.84L172.87 -90.83L172.89 -90.82L172.9 -90.81L172.92 -90.8L172.93 -90.79L172.95 -90.78L172.96 -90.77L172.97 -90.75L172.99 -90.74L173 -90.73L173.01 -90.72L173.02 -90.71L173.03 -90.69L173.04 -90.68L173.05 -90.67L173.06 -90.66L173.06 -90.64L173.07 -90.63L173.08 -90.62L173.08 -90.6L173.09 -90.59L173.09 -90.57L173.09 -90.56L173.09 -90.54L173.09 -90.53L173.09 -90.51L173.09 -90.49L172.8 -88.06L172.8 -88.04L172.8 -88.02L172.79 -88.01L172.79 -87.99L172.78 -87.98L172.77 -87.96L172.77 -87.95L172.76 -87.94L172.75 -87.92L172.74 -87.91L172.73 -87.9L172.72 -87.89L172.71 -87.88L172.7 -87.87L172.68 -87.86L172.67 -87.85L172.66 -87.84L172.64 -87.83L172.63 -87.82L172.61 -87.81L172.59 -87.8L172.58 -87.8L172.56 -87.79L172.54 -87.78L172.53 -87.78L172.51 -87.77L172.49 -87.76L172.47 -87.76L172.45 -87.75L172.43 -87.75L172.41 -87.74L172.39 -87.74L172.37 -87.74L172.34 -87.73L172.32 -87.73L172.3 -87.73L172.28 -87.72L172.26 -87.72L172.23 -87.72L172.21 -87.71L170.76 -87.53L170.71 -87.42L170.59 -87.19L170.46 -86.96L170.32 -86.74L170.17 -86.53L170.15 -86.51L170.74 -85.24L170.75 -85.22L170.76 -85.2L170.77 -85.18L170.78 -85.16L170.78 -85.14L170.79 -85.12L170.8 -85.1L170.8 -85.08L170.81 -85.06L170.82 -85.04L170.82 -85.02L170.83 -85L170.83 -84.98L170.84 -84.97L170.84 -84.95L170.85 -84.93L170.85 -84.91L170.85 -84.89L170.85 -84.88L170.86 -84.86L170.86 -84.84L170.86 -84.83L170.86 -84.81L170.86 -84.8L170.86 -84.78L170.85 -84.76L170.85 -84.75L170.85 -84.74L170.84 -84.72L170.84 -84.71L170.83 -84.69L170.83 -84.68L170.82 -84.67L170.81 -84.65L170.8 -84.64L170.79 -84.63L170.78 -84.62L170.77 -84.61L170.76 -84.6L170.74 -84.59L168.69 -83.08L168.68 -83.07L168.67 -83.06L168.65 -83.05L168.64 -83.05L168.62 -83.04L168.61 -83.03L168.59 -83.03L168.57 -83.03L168.56 -83.02L168.54 -83.02L168.53 -83.02L168.51 -83.02L168.49 -83.02L168.48 -83.02L168.46 -83.02L168.44 -83.02L168.43 -83.03L168.41 -83.03L168.39 -83.03L168.37 -83.04L168.36 -83.04L168.34 -83.05L168.32 -83.05L168.3 -83.06L168.29 -83.07L168.27 -83.08L168.25 -83.09L168.23 -83.09L168.21 -83.1L168.19 -83.11L168.18 -83.12L168.16 -83.14L168.14 -83.15L168.12 -83.16L168.1 -83.17L168.08 -83.18L168.07 -83.19L168.05 -83.21L168.03 -83.22L168.01 -83.23L166.83 -84.07L166.8 -84.06L166.55 -83.97L166.28 -83.9L166.01 -83.83L165.74 -83.78L165.62 -83.76L165.09 -82.48L165.08 -82.46L165.07 -82.44L165.07 -82.42L165.06 -82.4L165.05 -82.39L165.04 -82.37L165.03 -82.35L165.02 -82.33L165.01 -82.31L165 -82.29L164.99 -82.28L164.98 -82.26L164.97 -82.24L164.96 -82.23L164.95 -82.21L164.94 -82.2L164.93 -82.18L164.92 -82.17L164.91 -82.16L164.89 -82.14L164.88 -82.13L164.87 -82.12L164.86 -82.11L164.84 -82.1L164.83 -82.09L164.82 -82.08L164.8 -82.07L164.79 -82.06L164.77 -82.06L164.76 -82.05L164.74 -82.04L164.73 -82.04L164.71 -82.03L164.7 -82.03L164.68 -82.03L164.66 -82.03L164.65 -82.03L164.63 -82.03L164.61 -82.03L164.59 -82.03L161.99 -82.34L161.97 -82.34L161.95 -82.34ZM164.15 -86.73L164.3 -86.72L164.45 -86.73L164.61 -86.73L164.76 -86.75L164.91 -86.77L165.06 -86.79L165.2 -86.82L165.35 -86.86L165.49 -86.9L165.63 -86.94L165.76 -86.99L165.9 -87.05L166.03 -87.11L166.16 -87.17L166.29 -87.24L166.41 -87.31L166.53 -87.39L166.64 -87.47L166.76 -87.56L166.87 -87.65L166.97 -87.74L167.07 -87.84L167.17 -87.94L167.27 -88.05L167.35 -88.16L167.44 -88.27L167.52 -88.39L167.59 -88.51L167.66 -88.63L167.73 -88.75L167.79 -88.88L167.84 -89.01L167.89 -89.15L167.94 -89.28L167.98 -89.42L168.01 -89.56L168.04 -89.71L168.06 -89.85L168.07 -90L168.08 -90.15L168.08 -90.29L168.08 -90.44L168.06 -90.58L168.05 -90.72L168.02 -90.86L168 -91L167.96 -91.14L167.92 -91.27L167.88 -91.41L167.83 -91.54L167.77 -91.67L167.71 -91.79L167.64 -91.92L167.57 -92.04L167.5 -92.16L167.42 -92.28L167.33 -92.39L167.24 -92.5L167.15 -92.61L167.05 -92.71L166.95 -92.81L166.84 -92.91L166.73 -93L166.62 -93.09L166.5 -93.17L166.38 -93.26L166.25 -93.33L166.12 -93.4L165.99 -93.47L165.86 -93.54L165.72 -93.59L165.58 -93.65L165.43 -93.7L165.29 -93.74L165.14 -93.78L164.99 -93.81L164.83 -93.84L164.68 -93.86L164.52 -93.88L164.36 -93.88L164.21 -93.89L164.05 -93.89L163.9 -93.88L163.75 -93.86L163.6 -93.85L163.45 -93.82L163.31 -93.79L163.16 -93.76L163.02 -93.72L162.88 -93.67L162.74 -93.62L162.61 -93.56L162.48 -93.5L162.35 -93.44L162.22 -93.37L162.1 -93.3L161.98 -93.22L161.86 -93.14L161.75 -93.05L161.64 -92.96L161.54 -92.87L161.43 -92.77L161.34 -92.67L161.24 -92.56L161.15 -92.45L161.07 -92.34L160.99 -92.22L160.91 -92.1L160.84 -91.98L160.78 -91.86L160.72 -91.73L160.66 -91.6L160.61 -91.46L160.57 -91.33L160.53 -91.19L160.5 -91.05L160.47 -90.9L160.45 -90.76L160.44 -90.61L160.43 -90.46L160.43 -90.32L160.43 -90.17L160.44 -90.03L160.46 -89.89L160.48 -89.75L160.51 -89.61L160.55 -89.47L160.59 -89.34L160.63 -89.2L160.68 -89.07L160.74 -88.94L160.8 -88.82L160.87 -88.69L160.94 -88.57L161.01 -88.45L161.09 -88.34L161.18 -88.22L161.27 -88.11L161.36 -88L161.46 -87.9L161.56 -87.8L161.67 -87.7L161.78 -87.61L161.89 -87.52L162.01 -87.44L162.13 -87.36L162.26 -87.28L162.39 -87.21L162.52 -87.14L162.65 -87.08L162.79 -87.02L162.93 -86.96L163.07 -86.92L163.22 -86.87L163.37 -86.83L163.52 -86.8L163.68 -86.77L163.83 -86.75L163.99 -86.74L164.15 -86.73Z" id="abI5fPMs"></path><path d="M183.22 -7.33L194.36 -2.57L170.16 54.02L159.02 49.25L183.22 -7.33Z" id="cvuDmj9B6"></path><path d="M164.19 60.3L169.03 56.66L163.46 54.28L157.89 51.9L158.61 57.91L159.34 63.93L164.19 60.3Z" id="c8VYZnvAil"></path><path d="M198.98 -18.11L198.99 -18.09L199 -18.08L199.01 -18.07L199.02 -18.05L199.03 -18.04L199.03 -18.02L199.04 -18.01L199.04 -17.99L199.05 -17.98L199.05 -17.96L199.05 -17.95L199.05 -17.93L199.05 -17.92L199.06 -17.9L199.05 -17.88L199.05 -17.87L199.05 -17.85L199.05 -17.83L199.05 -17.82L199.04 -17.8L199.04 -17.78L199.04 -17.77L199.03 -17.75L199.03 -17.73L199.02 -17.71L199.02 -17.69L199.01 -17.67L199 -17.66L199 -17.64L198.99 -17.62L198.98 -17.6L198.97 -17.58L198.96 -17.56L198.96 -17.54L198.95 -17.52L198.94 -17.5L198.93 -17.48L198.92 -17.46L198.28 -16.24L198.34 -16.13L198.47 -15.89L198.59 -15.64L198.7 -15.39L198.8 -15.14L198.81 -15.11L200.21 -14.73L200.23 -14.72L200.25 -14.72L200.27 -14.71L200.3 -14.7L200.32 -14.7L200.34 -14.69L200.36 -14.68L200.38 -14.67L200.4 -14.66L200.42 -14.66L200.44 -14.65L200.46 -14.64L200.47 -14.63L200.49 -14.62L200.51 -14.62L200.53 -14.61L200.54 -14.6L200.56 -14.59L200.58 -14.58L200.59 -14.57L200.61 -14.56L200.62 -14.55L200.63 -14.54L200.65 -14.53L200.66 -14.52L200.67 -14.5L200.68 -14.49L200.69 -14.48L200.7 -14.47L200.71 -14.46L200.72 -14.44L200.73 -14.43L200.73 -14.41L200.74 -14.4L200.75 -14.39L200.75 -14.37L200.75 -14.35L200.76 -14.34L200.76 -14.32L200.76 -14.3L200.91 -11.77L200.91 -11.75L200.91 -11.73L200.91 -11.72L200.9 -11.7L200.9 -11.68L200.9 -11.67L200.89 -11.65L200.89 -11.64L200.88 -11.63L200.87 -11.61L200.87 -11.6L200.86 -11.59L200.85 -11.57L200.84 -11.56L200.83 -11.55L200.82 -11.54L200.81 -11.53L200.79 -11.52L200.78 -11.51L200.77 -11.49L200.75 -11.48L200.74 -11.48L200.72 -11.47L200.71 -11.46L200.69 -11.45L200.67 -11.44L200.66 -11.43L200.64 -11.42L200.62 -11.42L200.6 -11.41L200.59 -11.4L200.57 -11.4L200.55 -11.39L200.53 -11.38L200.51 -11.38L200.49 -11.37L200.47 -11.36L200.44 -11.36L200.42 -11.35L200.4 -11.35L199.05 -11L199.04 -10.97L198.97 -10.72L198.89 -10.47L198.79 -10.22L198.69 -9.98L198.64 -9.87L199.43 -8.64L199.44 -8.62L199.45 -8.6L199.46 -8.58L199.48 -8.56L199.49 -8.54L199.5 -8.52L199.51 -8.51L199.52 -8.49L199.53 -8.47L199.54 -8.45L199.55 -8.43L199.56 -8.41L199.56 -8.39L199.57 -8.37L199.58 -8.36L199.59 -8.34L199.59 -8.32L199.6 -8.3L199.6 -8.28L199.61 -8.27L199.61 -8.25L199.61 -8.23L199.61 -8.22L199.62 -8.2L199.62 -8.18L199.62 -8.17L199.62 -8.15L199.62 -8.13L199.61 -8.12L199.61 -8.1L199.61 -8.09L199.6 -8.07L199.6 -8.06L199.59 -8.04L199.59 -8.03L199.58 -8.02L199.57 -8L199.56 -7.99L199.55 -7.98L199.54 -7.97L197.85 -6.19L197.83 -6.18L197.82 -6.17L197.81 -6.16L197.8 -6.15L197.78 -6.14L197.77 -6.13L197.76 -6.13L197.74 -6.12L197.73 -6.12L197.71 -6.11L197.7 -6.11L197.68 -6.11L197.67 -6.11L197.65 -6.11L197.64 -6.11L197.62 -6.11L197.6 -6.11L197.59 -6.11L197.57 -6.11L197.55 -6.12L197.54 -6.12L197.52 -6.12L197.5 -6.13L197.48 -6.13L197.46 -6.14L197.45 -6.15L197.43 -6.15L197.41 -6.16L197.39 -6.17L197.37 -6.18L197.35 -6.18L197.33 -6.19L197.31 -6.2L197.29 -6.21L197.27 -6.22L197.25 -6.23L197.23 -6.24L197.21 -6.25L197.19 -6.26L197.17 -6.27L195.9 -7L195.79 -6.94L195.56 -6.83L195.31 -6.72L195.07 -6.63L194.82 -6.55L194.8 -6.54L194.51 -5.17L194.5 -5.15L194.5 -5.13L194.5 -5.11L194.49 -5.09L194.49 -5.07L194.48 -5.05L194.48 -5.03L194.47 -5.01L194.46 -4.99L194.46 -4.97L194.45 -4.95L194.45 -4.93L194.44 -4.91L194.43 -4.9L194.42 -4.88L194.42 -4.86L194.41 -4.85L194.4 -4.83L194.39 -4.82L194.38 -4.8L194.37 -4.79L194.36 -4.77L194.35 -4.76L194.34 -4.75L194.33 -4.74L194.32 -4.73L194.31 -4.72L194.29 -4.71L194.28 -4.7L194.27 -4.69L194.25 -4.68L194.24 -4.68L194.23 -4.67L194.21 -4.66L194.2 -4.66L194.18 -4.66L194.17 -4.65L194.15 -4.65L194.13 -4.65L194.12 -4.65L191.57 -4.68L191.56 -4.68L191.54 -4.68L191.52 -4.68L191.51 -4.68L191.49 -4.69L191.48 -4.69L191.46 -4.7L191.45 -4.7L191.43 -4.71L191.42 -4.72L191.41 -4.73L191.39 -4.74L191.38 -4.75L191.37 -4.76L191.36 -4.77L191.35 -4.78L191.33 -4.79L191.32 -4.81L191.31 -4.82L191.3 -4.83L191.29 -4.85L191.28 -4.86L191.27 -4.88L191.26 -4.9L191.25 -4.91L191.24 -4.93L191.23 -4.95L191.22 -4.97L191.21 -4.98L191.21 -5L191.2 -5.02L191.19 -5.04L191.18 -5.06L191.17 -5.08L191.16 -5.1L191.15 -5.12L191.15 -5.14L191.14 -5.17L191.13 -5.19L191.12 -5.21L190.68 -6.58L190.65 -6.59L190.39 -6.68L190.13 -6.78L189.88 -6.89L189.63 -7.01L189.52 -7.06L188.33 -6.36L188.31 -6.35L188.29 -6.34L188.27 -6.33L188.25 -6.32L188.23 -6.31L188.22 -6.31L188.2 -6.3L188.18 -6.29L188.16 -6.28L188.14 -6.27L188.12 -6.26L188.1 -6.26L188.09 -6.25L188.07 -6.24L188.05 -6.24L188.03 -6.23L188.01 -6.23L188 -6.22L187.98 -6.22L187.96 -6.22L187.95 -6.21L187.93 -6.21L187.91 -6.21L187.9 -6.21L187.88 -6.21L187.87 -6.21L187.85 -6.21L187.83 -6.21L187.82 -6.21L187.8 -6.22L187.79 -6.22L187.77 -6.23L187.76 -6.23L187.75 -6.24L187.73 -6.25L187.72 -6.25L187.7 -6.26L187.69 -6.27L187.68 -6.28L187.66 -6.3L185.76 -8.11L185.75 -8.12L185.74 -8.13L185.73 -8.15L185.72 -8.16L185.71 -8.18L185.7 -8.19L185.69 -8.2L185.69 -8.22L185.68 -8.23L185.67 -8.25L185.67 -8.26L185.67 -8.28L185.66 -8.3L185.66 -8.31L185.66 -8.33L185.66 -8.34L185.66 -8.36L185.66 -8.38L185.66 -8.4L185.66 -8.41L185.66 -8.43L185.67 -8.45L185.67 -8.47L185.67 -8.48L185.68 -8.5L185.68 -8.52L185.69 -8.54L185.7 -8.56L185.7 -8.57L185.71 -8.59L185.72 -8.61L185.72 -8.63L185.73 -8.65L185.74 -8.67L185.75 -8.69L185.76 -8.71L185.77 -8.72L185.78 -8.74L185.79 -8.76L185.8 -8.78L186.44 -10L186.38 -10.11L186.25 -10.35L186.13 -10.6L186.02 -10.85L185.92 -11.11L185.91 -11.14L184.52 -11.52L184.5 -11.52L184.48 -11.53L184.45 -11.53L184.43 -11.54L184.41 -11.54L184.39 -11.55L184.37 -11.56L184.35 -11.56L184.33 -11.57L184.31 -11.58L184.29 -11.59L184.27 -11.59L184.25 -11.6L184.23 -11.61L184.22 -11.62L184.2 -11.63L184.18 -11.64L184.17 -11.65L184.15 -11.66L184.14 -11.67L184.12 -11.68L184.11 -11.69L184.09 -11.7L184.08 -11.71L184.07 -11.72L184.06 -11.74L184.05 -11.75L184.03 -11.76L184.03 -11.77L184.02 -11.79L184.01 -11.8L184 -11.82L183.99 -11.83L183.99 -11.85L183.98 -11.86L183.98 -11.88L183.97 -11.89L183.97 -11.91L183.97 -11.93L183.97 -11.94L183.82 -14.48L183.82 -14.5L183.82 -14.51L183.82 -14.53L183.82 -14.55L183.83 -14.56L183.83 -14.58L183.83 -14.59L183.84 -14.6L183.85 -14.62L183.85 -14.63L183.86 -14.64L183.87 -14.66L183.88 -14.67L183.89 -14.68L183.9 -14.69L183.91 -14.7L183.92 -14.71L183.93 -14.72L183.95 -14.73L183.96 -14.74L183.97 -14.75L183.99 -14.76L184 -14.77L184.02 -14.78L184.04 -14.79L184.05 -14.8L184.07 -14.8L184.09 -14.81L184.11 -14.82L184.12 -14.83L184.14 -14.83L184.16 -14.84L184.18 -14.85L184.2 -14.86L184.22 -14.86L184.24 -14.87L184.26 -14.88L184.28 -14.88L184.3 -14.89L184.33 -14.9L185.68 -15.25L185.68 -15.27L185.75 -15.52L185.83 -15.77L185.93 -16.02L186.03 -16.26L186.08 -16.37L185.29 -17.6L185.28 -17.62L185.27 -17.64L185.26 -17.66L185.25 -17.68L185.24 -17.7L185.23 -17.72L185.22 -17.74L185.21 -17.76L185.2 -17.78L185.19 -17.8L185.18 -17.82L185.17 -17.84L185.16 -17.86L185.16 -17.87L185.15 -17.89L185.14 -17.91L185.14 -17.93L185.13 -17.95L185.13 -17.96L185.12 -17.98L185.12 -18L185.11 -18.01L185.11 -18.03L185.11 -18.05L185.11 -18.06L185.11 -18.08L185.11 -18.09L185.11 -18.11L185.11 -18.12L185.11 -18.14L185.11 -18.15L185.12 -18.17L185.12 -18.18L185.13 -18.2L185.13 -18.21L185.14 -18.22L185.15 -18.24L185.16 -18.25L185.17 -18.26L185.18 -18.28L186.87 -20.05L186.89 -20.06L186.9 -20.07L186.91 -20.08L186.92 -20.09L186.94 -20.1L186.95 -20.11L186.97 -20.11L186.98 -20.12L186.99 -20.13L187.01 -20.13L187.02 -20.13L187.04 -20.14L187.06 -20.14L187.07 -20.14L187.09 -20.14L187.1 -20.14L187.12 -20.14L187.14 -20.14L187.16 -20.13L187.17 -20.13L187.19 -20.13L187.21 -20.12L187.23 -20.12L187.25 -20.11L187.26 -20.11L187.28 -20.1L187.3 -20.1L187.32 -20.09L187.34 -20.08L187.36 -20.07L187.38 -20.06L187.4 -20.05L187.42 -20.05L187.43 -20.04L187.45 -20.03L187.47 -20.01L187.49 -20L187.51 -19.99L187.53 -19.98L187.55 -19.97L188.82 -19.24L188.93 -19.3L189.16 -19.41L189.41 -19.52L189.65 -19.61L189.9 -19.69L189.92 -19.7L190.21 -21.07L190.22 -21.09L190.22 -21.11L190.23 -21.13L190.24 -21.15L190.24 -21.17L190.25 -21.19L190.25 -21.21L190.26 -21.23L190.27 -21.25L190.27 -21.27L190.28 -21.29L190.29 -21.31L190.29 -21.33L190.3 -21.34L190.31 -21.36L190.32 -21.38L190.32 -21.39L190.33 -21.41L190.34 -21.42L190.35 -21.44L190.36 -21.45L190.37 -21.47L190.38 -21.48L190.39 -21.49L190.4 -21.5L190.41 -21.51L190.42 -21.52L190.43 -21.53L190.44 -21.54L190.46 -21.55L190.47 -21.56L190.48 -21.56L190.5 -21.57L190.51 -21.58L190.52 -21.58L190.54 -21.58L190.55 -21.59L190.57 -21.59L190.59 -21.59L190.6 -21.59L193.15 -21.56L193.16 -21.56L193.18 -21.56L193.2 -21.56L193.21 -21.56L193.23 -21.55L193.24 -21.55L193.26 -21.54L193.27 -21.54L193.29 -21.53L193.3 -21.52L193.32 -21.51L193.33 -21.5L193.34 -21.49L193.36 -21.48L193.37 -21.47L193.38 -21.46L193.39 -21.45L193.41 -21.43L193.42 -21.42L193.43 -21.41L193.44 -21.39L193.45 -21.38L193.46 -21.36L193.47 -21.34L193.48 -21.33L193.49 -21.31L193.5 -21.29L193.51 -21.27L193.52 -21.26L193.53 -21.24L193.53 -21.22L193.54 -21.2L193.55 -21.18L193.56 -21.16L193.57 -21.14L193.57 -21.12L193.58 -21.1L193.59 -21.07L193.59 -21.05L193.6 -21.03L194.04 -19.66L194.07 -19.65L194.33 -19.56L194.58 -19.46L194.84 -19.35L195.09 -19.23L195.2 -19.18L196.39 -19.88L196.41 -19.89L196.42 -19.9L196.44 -19.91L196.46 -19.92L196.48 -19.93L196.5 -19.94L196.52 -19.95L196.53 -19.96L196.55 -19.97L196.57 -19.98L196.59 -19.98L196.61 -19.99L196.63 -20L196.64 -20L196.66 -20.01L196.68 -20.02L196.7 -20.02L196.71 -20.02L196.73 -20.03L196.75 -20.03L196.77 -20.03L196.78 -20.04L196.8 -20.04L196.82 -20.04L196.83 -20.04L196.85 -20.04L196.87 -20.03L196.88 -20.03L196.9 -20.03L196.91 -20.03L196.93 -20.02L196.94 -20.02L196.96 -20.01L196.97 -20L196.99 -20L197 -19.99L197.02 -19.98L197.03 -19.97L197.04 -19.96L197.06 -19.94L198.96 -18.13L198.97 -18.12L198.98 -18.11ZM194.6 -15.92L194.47 -16.01L194.35 -16.1L194.22 -16.19L194.09 -16.27L193.96 -16.34L193.83 -16.41L193.69 -16.48L193.56 -16.53L193.42 -16.59L193.28 -16.64L193.14 -16.68L193 -16.71L192.86 -16.75L192.72 -16.77L192.58 -16.79L192.43 -16.81L192.29 -16.82L192.15 -16.82L192.01 -16.82L191.86 -16.81L191.72 -16.8L191.58 -16.78L191.44 -16.76L191.31 -16.73L191.17 -16.7L191.03 -16.66L190.9 -16.61L190.77 -16.56L190.64 -16.51L190.51 -16.45L190.39 -16.38L190.26 -16.31L190.14 -16.23L190.03 -16.15L189.91 -16.06L189.8 -15.97L189.69 -15.87L189.59 -15.76L189.49 -15.65L189.4 -15.54L189.31 -15.43L189.23 -15.31L189.15 -15.19L189.08 -15.06L189.01 -14.94L188.95 -14.81L188.9 -14.68L188.85 -14.55L188.8 -14.41L188.76 -14.28L188.73 -14.14L188.7 -14L188.68 -13.86L188.67 -13.72L188.65 -13.58L188.65 -13.44L188.65 -13.3L188.65 -13.16L188.66 -13.02L188.68 -12.87L188.7 -12.73L188.73 -12.59L188.76 -12.45L188.8 -12.31L188.84 -12.17L188.89 -12.04L188.95 -11.9L189.01 -11.76L189.07 -11.63L189.14 -11.5L189.21 -11.37L189.3 -11.24L189.38 -11.12L189.47 -10.99L189.57 -10.87L189.67 -10.76L189.78 -10.64L189.89 -10.53L190.01 -10.42L190.12 -10.32L190.25 -10.23L190.37 -10.14L190.5 -10.05L190.63 -9.97L190.76 -9.9L190.89 -9.83L191.03 -9.76L191.16 -9.71L191.3 -9.65L191.44 -9.61L191.58 -9.56L191.72 -9.53L191.86 -9.5L192 -9.47L192.14 -9.45L192.29 -9.43L192.43 -9.42L192.57 -9.42L192.71 -9.42L192.86 -9.43L193 -9.44L193.14 -9.46L193.28 -9.48L193.41 -9.51L193.55 -9.54L193.69 -9.58L193.82 -9.63L193.95 -9.68L194.08 -9.73L194.21 -9.79L194.33 -9.86L194.46 -9.93L194.58 -10.01L194.69 -10.09L194.81 -10.18L194.92 -10.27L195.03 -10.37L195.13 -10.48L195.23 -10.59L195.32 -10.7L195.41 -10.81L195.49 -10.93L195.57 -11.05L195.64 -11.18L195.71 -11.3L195.77 -11.43L195.82 -11.56L195.87 -11.69L195.92 -11.83L195.96 -11.96L195.99 -12.1L196.02 -12.24L196.04 -12.38L196.05 -12.52L196.07 -12.66L196.07 -12.8L196.07 -12.94L196.07 -13.08L196.05 -13.22L196.04 -13.37L196.02 -13.51L195.99 -13.65L195.96 -13.79L195.92 -13.93L195.88 -14.07L195.83 -14.21L195.77 -14.34L195.71 -14.48L195.65 -14.61L195.58 -14.74L195.5 -14.87L195.42 -15L195.34 -15.12L195.25 -15.25L195.15 -15.37L195.05 -15.48L194.94 -15.6L194.83 -15.71L194.71 -15.82L194.6 -15.92Z" id="f2Gg2q8jh"></path><path d="M98.39 51.61C98.39 78.32 76.71 100 50 100C23.29 100 1.61 78.32 1.61 51.61C1.61 24.9 23.29 3.22 50 3.22C76.71 3.22 98.39 24.9 98.39 51.61Z" id="ab6quEst3"></path><path d="M-49.98 -168.97C-36.62 -168.97 -25.79 -158.14 -25.79 -144.78C-25.79 -130.26 -25.79 -110.9 -25.79 -96.39C-25.79 -83.02 -36.62 -72.19 -49.98 -72.19C-64.5 -72.19 -83.86 -72.19 -98.37 -72.19C-111.74 -72.19 -122.57 -83.02 -122.57 -96.39C-122.57 -110.9 -122.57 -130.26 -122.57 -144.78C-122.57 -158.14 -111.74 -168.97 -98.37 -168.97C-83.86 -168.97 -64.5 -168.97 -49.98 -168.97Z" id="d2VHYv0BXw"></path><path d="M-51.4 -23.84L-51.33 -23.83L-51.27 -23.82L-51.21 -23.8L-51.16 -23.79L-51.1 -23.77L-51.05 -23.74L-50.99 -23.72L-50.94 -23.69L-50.89 -23.66L-50.85 -23.63L-50.8 -23.59L-50.76 -23.55L-50.71 -23.51L-50.67 -23.47L-50.63 -23.43L-50.59 -23.38L-50.55 -23.33L-50.51 -23.28L-50.48 -23.23L-50.44 -23.17L-50.4 -23.12L-50.37 -23.06L-50.34 -23L-50.31 -22.94L-50.27 -22.87L-50.24 -22.81L-50.21 -22.74L-50.18 -22.67L-50.15 -22.6L-50.12 -22.53L-50.09 -22.46L-50.07 -22.39L-50.04 -22.32L-50.01 -22.24L-49.98 -22.16L-49.96 -22.09L-49.93 -22.01L-49.9 -21.93L-48.51 -16.98L-48.07 -16.85L-47.09 -16.52L-46.13 -16.16L-45.19 -15.76L-44.27 -15.33L-44.19 -15.3L-39.43 -17.85L-39.35 -17.89L-39.27 -17.92L-39.19 -17.96L-39.12 -17.99L-39.04 -18.03L-38.96 -18.06L-38.89 -18.09L-38.81 -18.13L-38.74 -18.16L-38.67 -18.19L-38.59 -18.21L-38.52 -18.24L-38.45 -18.26L-38.38 -18.29L-38.31 -18.31L-38.24 -18.33L-38.17 -18.35L-38.1 -18.36L-38.04 -18.38L-37.97 -18.39L-37.91 -18.4L-37.84 -18.41L-37.78 -18.42L-37.72 -18.42L-37.65 -18.42L-37.59 -18.42L-37.53 -18.42L-37.47 -18.41L-37.41 -18.4L-37.36 -18.39L-37.3 -18.38L-37.24 -18.36L-37.19 -18.34L-37.13 -18.32L-37.08 -18.29L-37.03 -18.26L-36.98 -18.23L-36.93 -18.19L-36.88 -18.15L-36.83 -18.11L-29.93 -11.62L-29.89 -11.57L-29.85 -11.52L-29.81 -11.48L-29.77 -11.43L-29.74 -11.38L-29.71 -11.33L-29.68 -11.28L-29.66 -11.22L-29.64 -11.17L-29.63 -11.11L-29.61 -11.06L-29.6 -11L-29.59 -10.95L-29.59 -10.89L-29.59 -10.83L-29.59 -10.77L-29.59 -10.71L-29.6 -10.65L-29.6 -10.59L-29.61 -10.52L-29.63 -10.46L-29.64 -10.4L-29.66 -10.33L-29.68 -10.27L-29.7 -10.2L-29.72 -10.14L-29.75 -10.07L-29.78 -10.01L-29.81 -9.94L-29.84 -9.87L-29.87 -9.81L-29.9 -9.74L-29.94 -9.67L-29.98 -9.6L-30.02 -9.53L-30.06 -9.47L-30.1 -9.4L-30.14 -9.33L-30.19 -9.26L-30.23 -9.19L-33 -4.77L-32.94 -4.67L-32.49 -3.81L-32.07 -2.92L-31.69 -2.02L-31.35 -1.11L-31.21 -0.69L-25.92 0.64L-25.84 0.66L-25.76 0.68L-25.67 0.7L-25.59 0.72L-25.51 0.75L-25.43 0.77L-25.36 0.79L-25.28 0.82L-25.2 0.84L-25.13 0.87L-25.06 0.9L-24.99 0.93L-24.92 0.95L-24.85 0.98L-24.78 1.02L-24.72 1.05L-24.66 1.08L-24.6 1.12L-24.54 1.15L-24.48 1.19L-24.43 1.23L-24.38 1.26L-24.33 1.3L-24.28 1.34L-24.23 1.39L-24.19 1.43L-24.15 1.48L-24.11 1.52L-24.08 1.57L-24.05 1.62L-24.02 1.67L-23.99 1.72L-23.97 1.77L-23.95 1.82L-23.93 1.88L-23.91 1.94L-23.9 1.99L-23.89 2.05L-23.89 2.11L-23.89 2.18L-23.92 11.32L-23.92 11.39L-23.93 11.45L-23.94 11.5L-23.95 11.56L-23.96 11.62L-23.98 11.67L-24 11.72L-24.03 11.77L-24.05 11.82L-24.08 11.87L-24.12 11.91L-24.15 11.96L-24.19 12L-24.23 12.04L-24.27 12.08L-24.32 12.12L-24.37 12.16L-24.42 12.2L-24.47 12.24L-24.52 12.27L-24.58 12.31L-24.64 12.34L-24.7 12.37L-24.76 12.4L-24.83 12.43L-24.89 12.46L-24.96 12.49L-25.03 12.52L-25.1 12.55L-25.17 12.58L-25.25 12.61L-25.32 12.63L-25.4 12.66L-25.48 12.69L-25.56 12.71L-25.64 12.74L-25.72 12.76L-25.8 12.79L-25.88 12.81L-25.97 12.84L-31.26 14.14L-31.4 14.55L-31.75 15.47L-32.14 16.36L-32.56 17.24L-33.02 18.1L-33.07 18.19L-30.35 22.63L-30.3 22.7L-30.26 22.76L-30.22 22.83L-30.17 22.9L-30.13 22.97L-30.1 23.04L-30.06 23.11L-30.02 23.17L-29.99 23.24L-29.96 23.31L-29.93 23.38L-29.9 23.44L-29.87 23.51L-29.85 23.58L-29.82 23.64L-29.8 23.71L-29.78 23.77L-29.77 23.84L-29.75 23.9L-29.74 23.96L-29.73 24.02L-29.72 24.09L-29.72 24.15L-29.72 24.21L-29.72 24.27L-29.72 24.33L-29.72 24.38L-29.73 24.44L-29.74 24.5L-29.76 24.55L-29.77 24.61L-29.79 24.66L-29.82 24.71L-29.84 24.77L-29.87 24.82L-29.9 24.87L-29.94 24.91L-29.98 24.96L-30.02 25.01L-30.07 25.05L-37.01 31.5L-37.06 31.54L-37.11 31.58L-37.16 31.61L-37.21 31.65L-37.26 31.68L-37.32 31.7L-37.37 31.72L-37.43 31.74L-37.48 31.76L-37.54 31.77L-37.6 31.78L-37.66 31.79L-37.72 31.8L-37.78 31.8L-37.84 31.8L-37.9 31.8L-37.96 31.8L-38.03 31.79L-38.09 31.78L-38.15 31.77L-38.22 31.76L-38.29 31.74L-38.36 31.72L-38.42 31.7L-38.49 31.68L-38.56 31.66L-38.63 31.64L-38.7 31.61L-38.78 31.59L-38.85 31.56L-38.92 31.53L-38.99 31.5L-39.07 31.47L-39.14 31.43L-39.22 31.4L-39.3 31.36L-39.37 31.33L-39.45 31.29L-39.53 31.25L-39.61 31.22L-44.34 28.64L-44.43 28.68L-45.35 29.11L-46.3 29.49L-47.26 29.85L-48.24 30.17L-48.68 30.3L-50.11 35.24L-50.14 35.32L-50.17 35.4L-50.19 35.47L-50.22 35.55L-50.25 35.62L-50.28 35.7L-50.31 35.77L-50.34 35.84L-50.37 35.91L-50.4 35.98L-50.43 36.05L-50.46 36.11L-50.49 36.18L-50.52 36.24L-50.55 36.3L-50.59 36.36L-50.62 36.42L-50.66 36.48L-50.69 36.53L-50.73 36.58L-50.77 36.63L-50.81 36.68L-50.85 36.73L-50.89 36.77L-50.93 36.82L-50.98 36.86L-51.02 36.89L-51.07 36.93L-51.12 36.96L-51.17 36.99L-51.22 37.02L-51.27 37.04L-51.32 37.07L-51.38 37.08L-51.44 37.1L-51.49 37.11L-51.56 37.13L-51.62 37.13L-51.68 37.14L-51.75 37.14L-61.54 37.1L-61.6 37.1L-61.67 37.1L-61.73 37.09L-61.79 37.08L-61.86 37.06L-61.91 37.05L-61.97 37.03L-62.03 37L-62.08 36.98L-62.14 36.95L-62.19 36.92L-62.24 36.89L-62.29 36.85L-62.33 36.81L-62.38 36.77L-62.42 36.73L-62.47 36.69L-62.51 36.64L-62.55 36.59L-62.59 36.54L-62.63 36.49L-62.67 36.43L-62.7 36.38L-62.74 36.32L-62.77 36.26L-62.81 36.2L-62.84 36.13L-62.87 36.07L-62.9 36L-62.93 35.93L-62.95 35.86L-62.98 35.79L-63.01 35.72L-63.03 35.65L-63.06 35.58L-63.08 35.5L-63.1 35.42L-63.12 35.35L-63.14 35.27L-63.16 35.19L-64.55 30.24L-65 30.11L-65.97 29.78L-66.93 29.42L-67.87 29.02L-68.8 28.59L-68.91 28.54L-73.64 31.07L-73.71 31.12L-73.78 31.16L-73.86 31.2L-73.93 31.24L-74 31.27L-74.08 31.31L-74.15 31.34L-74.22 31.38L-74.3 31.41L-74.37 31.44L-74.44 31.47L-74.51 31.49L-74.58 31.52L-74.65 31.54L-74.72 31.56L-74.79 31.58L-74.86 31.6L-74.93 31.62L-75 31.63L-75.06 31.64L-75.13 31.65L-75.2 31.66L-75.26 31.66L-75.33 31.66L-75.39 31.66L-75.45 31.66L-75.52 31.66L-75.58 31.65L-75.64 31.64L-75.7 31.63L-75.76 31.61L-75.81 31.59L-75.87 31.57L-75.93 31.55L-75.98 31.52L-76.03 31.49L-76.08 31.45L-76.13 31.42L-76.18 31.38L-76.23 31.33L-83.13 24.84L-83.18 24.8L-83.22 24.75L-83.26 24.7L-83.29 24.65L-83.32 24.61L-83.35 24.56L-83.37 24.51L-83.39 24.45L-83.41 24.4L-83.43 24.35L-83.44 24.29L-83.45 24.24L-83.45 24.18L-83.46 24.13L-83.46 24.07L-83.46 24.01L-83.45 23.95L-83.44 23.89L-83.43 23.83L-83.42 23.77L-83.41 23.71L-83.39 23.65L-83.37 23.59L-83.35 23.52L-83.33 23.46L-83.31 23.39L-83.28 23.33L-83.26 23.26L-83.23 23.19L-83.2 23.13L-83.17 23.06L-83.13 22.99L-83.1 22.92L-83.06 22.85L-83.03 22.78L-82.99 22.71L-82.95 22.64L-82.91 22.56L-82.87 22.49L-82.83 22.42L-80.08 18.01L-80.12 17.93L-80.58 17.07L-80.99 16.18L-81.37 15.28L-81.72 14.37L-81.85 13.95L-87.14 12.62L-87.23 12.59L-87.31 12.56L-87.39 12.54L-87.47 12.51L-87.55 12.49L-87.63 12.46L-87.71 12.43L-87.79 12.41L-87.86 12.38L-87.93 12.35L-88.01 12.32L-88.08 12.29L-88.15 12.26L-88.21 12.23L-88.28 12.2L-88.34 12.17L-88.41 12.14L-88.47 12.1L-88.53 12.07L-88.58 12.04L-88.64 12L-88.69 11.96L-88.74 11.93L-88.78 11.89L-88.83 11.85L-88.87 11.81L-88.91 11.76L-88.95 11.72L-88.98 11.68L-89.02 11.63L-89.05 11.58L-89.07 11.53L-89.1 11.48L-89.12 11.43L-89.14 11.38L-89.15 11.32L-89.16 11.27L-89.17 11.21L-89.17 11.15L-89.18 11.08L-89.14 1.94L-89.14 1.87L-89.13 1.81L-89.13 1.75L-89.11 1.7L-89.1 1.64L-89.08 1.59L-89.06 1.53L-89.04 1.48L-89.01 1.43L-88.98 1.38L-88.95 1.33L-88.91 1.28L-88.87 1.24L-88.83 1.19L-88.79 1.15L-88.75 1.11L-88.7 1.07L-88.65 1.03L-88.6 0.99L-88.54 0.95L-88.48 0.92L-88.43 0.88L-88.37 0.85L-88.3 0.82L-88.24 0.78L-88.17 0.75L-88.1 0.72L-88.04 0.69L-87.96 0.67L-87.89 0.64L-87.82 0.61L-87.74 0.59L-87.67 0.57L-87.59 0.54L-87.51 0.52L-87.43 0.5L-87.35 0.48L-87.26 0.46L-87.18 0.44L-87.1 0.42L-81.8 -0.88L-81.66 -1.29L-81.31 -2.21L-80.92 -3.1L-80.5 -3.98L-80.04 -4.84L-79.99 -4.93L-82.72 -9.37L-82.76 -9.44L-82.8 -9.51L-82.83 -9.59L-82.87 -9.66L-82.91 -9.73L-82.94 -9.8L-82.98 -9.87L-83.01 -9.94L-83.04 -10.01L-83.08 -10.08L-83.1 -10.15L-83.13 -10.21L-83.16 -10.28L-83.18 -10.35L-83.21 -10.41L-83.23 -10.48L-83.25 -10.54L-83.27 -10.6L-83.28 -10.67L-83.3 -10.73L-83.31 -10.79L-83.32 -10.85L-83.32 -10.91L-83.33 -10.97L-83.33 -11.03L-83.33 -11.08L-83.32 -11.14L-83.32 -11.19L-83.31 -11.25L-83.3 -11.3L-83.28 -11.36L-83.26 -11.41L-83.24 -11.46L-83.22 -11.51L-83.19 -11.56L-83.16 -11.61L-83.12 -11.66L-83.08 -11.7L-83.04 -11.75L-83 -11.79L-76.05 -18.24L-76 -18.28L-75.95 -18.32L-75.9 -18.35L-75.85 -18.39L-75.8 -18.42L-75.74 -18.44L-75.69 -18.47L-75.63 -18.49L-75.57 -18.51L-75.51 -18.52L-75.45 -18.54L-75.39 -18.55L-75.33 -18.55L-75.27 -18.56L-75.21 -18.56L-75.14 -18.56L-75.08 -18.56L-75.01 -18.55L-74.95 -18.54L-74.88 -18.53L-74.81 -18.52L-74.75 -18.51L-74.68 -18.49L-74.61 -18.47L-74.54 -18.45L-74.47 -18.43L-74.4 -18.41L-74.33 -18.38L-74.26 -18.36L-74.19 -18.33L-74.11 -18.3L-74.04 -18.26L-73.97 -18.23L-73.9 -18.19L-73.82 -18.16L-73.75 -18.12L-73.68 -18.08L-73.6 -18.04L-73.53 -18L-73.46 -17.96L-68.73 -15.38L-68.63 -15.42L-67.71 -15.84L-66.77 -16.23L-65.8 -16.59L-64.82 -16.91L-64.38 -17.04L-62.95 -21.98L-62.93 -22.06L-62.91 -22.13L-62.89 -22.21L-62.87 -22.29L-62.84 -22.36L-62.82 -22.44L-62.79 -22.51L-62.77 -22.58L-62.74 -22.65L-62.71 -22.72L-62.68 -22.79L-62.65 -22.85L-62.62 -22.92L-62.59 -22.98L-62.56 -23.04L-62.52 -23.1L-62.49 -23.16L-62.45 -23.22L-62.41 -23.27L-62.37 -23.32L-62.33 -23.37L-62.29 -23.42L-62.25 -23.47L-62.2 -23.51L-62.16 -23.56L-62.11 -23.6L-62.06 -23.63L-62.02 -23.67L-61.96 -23.7L-61.91 -23.73L-61.86 -23.76L-61.81 -23.78L-61.75 -23.8L-61.69 -23.82L-61.63 -23.84L-61.57 -23.85L-61.51 -23.86L-61.45 -23.87L-61.38 -23.88L-61.31 -23.88L-51.53 -23.84L-51.46 -23.84L-51.4 -23.84ZM-57.65 -6.67L-58.23 -6.62L-58.8 -6.54L-59.36 -6.45L-59.91 -6.33L-60.46 -6.2L-61 -6.05L-61.53 -5.87L-62.04 -5.68L-62.55 -5.47L-63.05 -5.24L-63.53 -5L-64.01 -4.74L-64.47 -4.46L-64.92 -4.17L-65.36 -3.86L-65.78 -3.53L-66.19 -3.19L-66.59 -2.84L-66.97 -2.47L-67.34 -2.09L-67.69 -1.7L-68.02 -1.29L-68.34 -0.87L-68.64 -0.44L-68.93 0L-69.19 0.45L-69.44 0.92L-69.67 1.39L-69.87 1.87L-70.06 2.36L-70.23 2.86L-70.38 3.37L-70.51 3.89L-70.61 4.41L-70.69 4.95L-70.75 5.48L-70.79 6.03L-70.81 6.58L-70.8 7.13L-70.76 7.67L-70.71 8.21L-70.63 8.74L-70.53 9.27L-70.4 9.79L-70.26 10.3L-70.09 10.8L-69.91 11.29L-69.7 11.77L-69.48 12.25L-69.24 12.71L-68.97 13.17L-68.69 13.61L-68.4 14.05L-68.08 14.47L-67.75 14.88L-67.4 15.27L-67.04 15.66L-66.66 16.03L-66.27 16.38L-65.86 16.72L-65.44 17.05L-65 17.37L-64.55 17.66L-64.09 17.94L-63.62 18.21L-63.14 18.46L-62.64 18.69L-62.13 18.9L-61.62 19.1L-61.09 19.27L-60.55 19.43L-60.01 19.57L-59.46 19.69L-58.9 19.79L-58.33 19.86L-57.75 19.92L-57.17 19.96L-56.58 19.97L-55.99 19.96L-55.41 19.93L-54.83 19.88L-54.26 19.8L-53.7 19.71L-53.15 19.59L-52.6 19.46L-52.07 19.31L-51.54 19.13L-51.02 18.94L-50.51 18.73L-50.02 18.5L-49.53 18.26L-49.05 18L-48.59 17.72L-48.14 17.43L-47.7 17.12L-47.28 16.79L-46.87 16.45L-46.47 16.1L-46.09 15.73L-45.73 15.35L-45.38 14.96L-45.04 14.55L-44.72 14.13L-44.42 13.7L-44.14 13.26L-43.87 12.81L-43.63 12.34L-43.4 11.87L-43.19 11.39L-43 10.9L-42.83 10.4L-42.68 9.89L-42.56 9.37L-42.45 8.85L-42.37 8.31L-42.31 7.78L-42.27 7.23L-42.26 6.68L-42.27 6.13L-42.3 5.59L-42.36 5.05L-42.44 4.52L-42.54 3.99L-42.66 3.48L-42.81 2.97L-42.97 2.46L-43.16 1.97L-43.36 1.49L-43.59 1.01L-43.83 0.55L-44.09 0.09L-44.37 -0.35L-44.67 -0.78L-44.98 -1.21L-45.31 -1.61L-45.66 -2.01L-46.03 -2.4L-46.4 -2.77L-46.8 -3.12L-47.21 -3.46L-47.63 -3.79L-48.06 -4.1L-48.51 -4.4L-48.97 -4.68L-49.44 -4.95L-49.93 -5.2L-50.42 -5.43L-50.93 -5.64L-51.45 -5.84L-51.97 -6.01L-52.51 -6.17L-53.05 -6.31L-53.61 -6.43L-54.17 -6.53L-54.74 -6.6L-55.31 -6.66L-55.89 -6.7L-56.48 -6.71L-57.07 -6.7L-57.65 -6.67Z" id="eFNwLTXj8"></path><path d="M195.72 5.17L206.86 9.93L182.66 66.52L171.52 61.75L195.72 5.17Z" id="d1WY8tCYKI"></path><path d="M176.69 72.8L181.53 69.16L175.96 66.78L170.39 64.4L171.11 70.41L171.84 76.43L176.69 72.8Z" id="disR0y7dc"></path><path d="M211.48 -5.61L211.49 -5.59L211.5 -5.58L211.51 -5.57L211.52 -5.55L211.53 -5.54L211.53 -5.52L211.54 -5.51L211.54 -5.49L211.55 -5.48L211.55 -5.46L211.55 -5.45L211.55 -5.43L211.55 -5.42L211.56 -5.4L211.55 -5.38L211.55 -5.37L211.55 -5.35L211.55 -5.33L211.55 -5.32L211.54 -5.3L211.54 -5.28L211.54 -5.27L211.53 -5.25L211.53 -5.23L211.52 -5.21L211.52 -5.19L211.51 -5.17L211.5 -5.16L211.5 -5.14L211.49 -5.12L211.48 -5.1L211.47 -5.08L211.46 -5.06L211.46 -5.04L211.45 -5.02L211.44 -5L211.43 -4.98L211.42 -4.96L210.78 -3.74L210.84 -3.63L210.97 -3.39L211.09 -3.14L211.2 -2.89L211.3 -2.64L211.31 -2.61L212.71 -2.23L212.73 -2.22L212.75 -2.22L212.77 -2.21L212.8 -2.2L212.82 -2.2L212.84 -2.19L212.86 -2.18L212.88 -2.17L212.9 -2.16L212.92 -2.16L212.94 -2.15L212.96 -2.14L212.97 -2.13L212.99 -2.12L213.01 -2.12L213.03 -2.11L213.04 -2.1L213.06 -2.09L213.08 -2.08L213.09 -2.07L213.11 -2.06L213.12 -2.05L213.13 -2.04L213.15 -2.03L213.16 -2.02L213.17 -2L213.18 -1.99L213.19 -1.98L213.2 -1.97L213.21 -1.96L213.22 -1.94L213.23 -1.93L213.23 -1.91L213.24 -1.9L213.25 -1.89L213.25 -1.87L213.25 -1.85L213.26 -1.84L213.26 -1.82L213.26 -1.8L213.41 0.73L213.41 0.75L213.41 0.77L213.41 0.78L213.4 0.8L213.4 0.82L213.4 0.83L213.39 0.85L213.39 0.86L213.38 0.87L213.37 0.89L213.37 0.9L213.36 0.91L213.35 0.93L213.34 0.94L213.33 0.95L213.32 0.96L213.31 0.97L213.29 0.98L213.28 0.99L213.27 1.01L213.25 1.02L213.24 1.02L213.22 1.03L213.21 1.04L213.19 1.05L213.17 1.06L213.16 1.07L213.14 1.08L213.12 1.08L213.1 1.09L213.09 1.1L213.07 1.1L213.05 1.11L213.03 1.12L213.01 1.12L212.99 1.13L212.97 1.14L212.94 1.14L212.92 1.15L212.9 1.15L211.55 1.5L211.54 1.53L211.47 1.78L211.39 2.03L211.29 2.28L211.19 2.52L211.14 2.63L211.93 3.86L211.94 3.88L211.95 3.9L211.96 3.92L211.98 3.94L211.99 3.96L212 3.98L212.01 3.99L212.02 4.01L212.03 4.03L212.04 4.05L212.05 4.07L212.06 4.09L212.06 4.11L212.07 4.13L212.08 4.14L212.09 4.16L212.09 4.18L212.1 4.2L212.1 4.22L212.11 4.23L212.11 4.25L212.11 4.27L212.11 4.28L212.12 4.3L212.12 4.32L212.12 4.33L212.12 4.35L212.12 4.37L212.11 4.38L212.11 4.4L212.11 4.41L212.1 4.43L212.1 4.44L212.09 4.46L212.09 4.47L212.08 4.48L212.07 4.5L212.06 4.51L212.05 4.52L212.04 4.53L210.35 6.31L210.33 6.32L210.32 6.33L210.31 6.34L210.3 6.35L210.28 6.36L210.27 6.37L210.26 6.37L210.24 6.38L210.23 6.38L210.21 6.39L210.2 6.39L210.18 6.39L210.17 6.39L210.15 6.39L210.14 6.39L210.12 6.39L210.1 6.39L210.09 6.39L210.07 6.39L210.05 6.38L210.04 6.38L210.02 6.38L210 6.37L209.98 6.37L209.96 6.36L209.95 6.35L209.93 6.35L209.91 6.34L209.89 6.33L209.87 6.32L209.85 6.32L209.83 6.31L209.81 6.3L209.79 6.29L209.77 6.28L209.75 6.27L209.73 6.26L209.71 6.25L209.69 6.24L209.67 6.23L208.4 5.5L208.29 5.56L208.06 5.67L207.81 5.78L207.57 5.87L207.32 5.95L207.3 5.96L207.01 7.33L207 7.35L207 7.37L207 7.39L206.99 7.41L206.99 7.43L206.98 7.45L206.98 7.47L206.97 7.49L206.96 7.51L206.96 7.53L206.95 7.55L206.95 7.57L206.94 7.59L206.93 7.6L206.92 7.62L206.92 7.64L206.91 7.65L206.9 7.67L206.89 7.68L206.88 7.7L206.87 7.71L206.86 7.73L206.85 7.74L206.84 7.75L206.83 7.76L206.82 7.77L206.81 7.78L206.79 7.79L206.78 7.8L206.77 7.81L206.75 7.82L206.74 7.82L206.73 7.83L206.71 7.84L206.7 7.84L206.68 7.84L206.67 7.85L206.65 7.85L206.63 7.85L206.62 7.85L204.07 7.82L204.06 7.82L204.04 7.82L204.02 7.82L204.01 7.82L203.99 7.81L203.98 7.81L203.96 7.8L203.95 7.8L203.93 7.79L203.92 7.78L203.91 7.77L203.89 7.76L203.88 7.75L203.87 7.74L203.86 7.73L203.85 7.72L203.83 7.71L203.82 7.69L203.81 7.68L203.8 7.67L203.79 7.65L203.78 7.64L203.77 7.62L203.76 7.6L203.75 7.59L203.74 7.57L203.73 7.55L203.72 7.53L203.71 7.52L203.71 7.5L203.7 7.48L203.69 7.46L203.68 7.44L203.67 7.42L203.66 7.4L203.65 7.38L203.65 7.36L203.64 7.33L203.63 7.31L203.62 7.29L203.18 5.92L203.15 5.91L202.89 5.82L202.63 5.72L202.38 5.61L202.13 5.49L202.02 5.44L200.83 6.14L200.81 6.15L200.79 6.16L200.77 6.17L200.75 6.18L200.73 6.19L200.72 6.19L200.7 6.2L200.68 6.21L200.66 6.22L200.64 6.23L200.62 6.24L200.6 6.24L200.59 6.25L200.57 6.26L200.55 6.26L200.53 6.27L200.51 6.27L200.5 6.28L200.48 6.28L200.46 6.28L200.45 6.29L200.43 6.29L200.41 6.29L200.4 6.29L200.38 6.29L200.37 6.29L200.35 6.29L200.33 6.29L200.32 6.29L200.3 6.28L200.29 6.28L200.27 6.27L200.26 6.27L200.25 6.26L200.23 6.25L200.22 6.25L200.2 6.24L200.19 6.23L200.18 6.22L200.16 6.2L198.26 4.39L198.25 4.38L198.24 4.37L198.23 4.35L198.22 4.34L198.21 4.32L198.2 4.31L198.19 4.3L198.19 4.28L198.18 4.27L198.17 4.25L198.17 4.24L198.17 4.22L198.16 4.2L198.16 4.19L198.16 4.17L198.16 4.16L198.16 4.14L198.16 4.12L198.16 4.1L198.16 4.09L198.16 4.07L198.17 4.05L198.17 4.03L198.17 4.02L198.18 4L198.18 3.98L198.19 3.96L198.2 3.94L198.2 3.93L198.21 3.91L198.22 3.89L198.22 3.87L198.23 3.85L198.24 3.83L198.25 3.81L198.26 3.79L198.27 3.78L198.28 3.76L198.29 3.74L198.3 3.72L198.94 2.5L198.88 2.39L198.75 2.15L198.63 1.9L198.52 1.65L198.42 1.39L198.41 1.36L197.02 0.98L197 0.98L196.98 0.97L196.95 0.97L196.93 0.96L196.91 0.96L196.89 0.95L196.87 0.94L196.85 0.94L196.83 0.93L196.81 0.92L196.79 0.91L196.77 0.91L196.75 0.9L196.73 0.89L196.72 0.88L196.7 0.87L196.68 0.86L196.67 0.85L196.65 0.84L196.64 0.83L196.62 0.82L196.61 0.81L196.59 0.8L196.58 0.79L196.57 0.78L196.56 0.76L196.55 0.75L196.53 0.74L196.53 0.73L196.52 0.71L196.51 0.7L196.5 0.68L196.49 0.67L196.49 0.65L196.48 0.64L196.48 0.62L196.47 0.61L196.47 0.59L196.47 0.57L196.47 0.56L196.32 -1.98L196.32 -2L196.32 -2.01L196.32 -2.03L196.32 -2.05L196.33 -2.06L196.33 -2.08L196.33 -2.09L196.34 -2.1L196.35 -2.12L196.35 -2.13L196.36 -2.14L196.37 -2.16L196.38 -2.17L196.39 -2.18L196.4 -2.19L196.41 -2.2L196.42 -2.21L196.43 -2.22L196.45 -2.23L196.46 -2.24L196.47 -2.25L196.49 -2.26L196.5 -2.27L196.52 -2.28L196.54 -2.29L196.55 -2.3L196.57 -2.3L196.59 -2.31L196.61 -2.32L196.62 -2.33L196.64 -2.33L196.66 -2.34L196.68 -2.35L196.7 -2.36L196.72 -2.36L196.74 -2.37L196.76 -2.38L196.78 -2.38L196.8 -2.39L196.83 -2.4L198.18 -2.75L198.18 -2.77L198.25 -3.02L198.33 -3.27L198.43 -3.52L198.53 -3.76L198.58 -3.87L197.79 -5.1L197.78 -5.12L197.77 -5.14L197.76 -5.16L197.75 -5.18L197.74 -5.2L197.73 -5.22L197.72 -5.24L197.71 -5.26L197.7 -5.28L197.69 -5.3L197.68 -5.32L197.67 -5.34L197.66 -5.36L197.66 -5.37L197.65 -5.39L197.64 -5.41L197.64 -5.43L197.63 -5.45L197.63 -5.46L197.62 -5.48L197.62 -5.5L197.61 -5.51L197.61 -5.53L197.61 -5.55L197.61 -5.56L197.61 -5.58L197.61 -5.59L197.61 -5.61L197.61 -5.62L197.61 -5.64L197.61 -5.65L197.62 -5.67L197.62 -5.68L197.63 -5.7L197.63 -5.71L197.64 -5.72L197.65 -5.74L197.66 -5.75L197.67 -5.76L197.68 -5.78L199.37 -7.55L199.39 -7.56L199.4 -7.57L199.41 -7.58L199.42 -7.59L199.44 -7.6L199.45 -7.61L199.47 -7.61L199.48 -7.62L199.49 -7.63L199.51 -7.63L199.52 -7.63L199.54 -7.64L199.56 -7.64L199.57 -7.64L199.59 -7.64L199.6 -7.64L199.62 -7.64L199.64 -7.64L199.66 -7.63L199.67 -7.63L199.69 -7.63L199.71 -7.62L199.73 -7.62L199.75 -7.61L199.76 -7.61L199.78 -7.6L199.8 -7.6L199.82 -7.59L199.84 -7.58L199.86 -7.57L199.88 -7.56L199.9 -7.55L199.92 -7.55L199.93 -7.54L199.95 -7.53L199.97 -7.51L199.99 -7.5L200.01 -7.49L200.03 -7.48L200.05 -7.47L201.32 -6.74L201.43 -6.8L201.66 -6.91L201.91 -7.02L202.15 -7.11L202.4 -7.19L202.42 -7.2L202.71 -8.57L202.72 -8.59L202.72 -8.61L202.73 -8.63L202.74 -8.65L202.74 -8.67L202.75 -8.69L202.75 -8.71L202.76 -8.73L202.77 -8.75L202.77 -8.77L202.78 -8.79L202.79 -8.81L202.79 -8.83L202.8 -8.84L202.81 -8.86L202.82 -8.88L202.82 -8.89L202.83 -8.91L202.84 -8.92L202.85 -8.94L202.86 -8.95L202.87 -8.97L202.88 -8.98L202.89 -8.99L202.9 -9L202.91 -9.01L202.92 -9.02L202.93 -9.03L202.94 -9.04L202.96 -9.05L202.97 -9.06L202.98 -9.06L203 -9.07L203.01 -9.08L203.02 -9.08L203.04 -9.08L203.05 -9.09L203.07 -9.09L203.09 -9.09L203.1 -9.09L205.65 -9.06L205.66 -9.06L205.68 -9.06L205.7 -9.06L205.71 -9.06L205.73 -9.05L205.74 -9.05L205.76 -9.04L205.77 -9.04L205.79 -9.03L205.8 -9.02L205.82 -9.01L205.83 -9L205.84 -8.99L205.86 -8.98L205.87 -8.97L205.88 -8.96L205.89 -8.95L205.91 -8.93L205.92 -8.92L205.93 -8.91L205.94 -8.89L205.95 -8.88L205.96 -8.86L205.97 -8.84L205.98 -8.83L205.99 -8.81L206 -8.79L206.01 -8.77L206.02 -8.76L206.03 -8.74L206.03 -8.72L206.04 -8.7L206.05 -8.68L206.06 -8.66L206.07 -8.64L206.07 -8.62L206.08 -8.6L206.09 -8.57L206.09 -8.55L206.1 -8.53L206.54 -7.16L206.57 -7.15L206.83 -7.06L207.08 -6.96L207.34 -6.85L207.59 -6.73L207.7 -6.68L208.89 -7.38L208.91 -7.39L208.92 -7.4L208.94 -7.41L208.96 -7.42L208.98 -7.43L209 -7.44L209.02 -7.45L209.03 -7.46L209.05 -7.47L209.07 -7.48L209.09 -7.48L209.11 -7.49L209.13 -7.5L209.14 -7.5L209.16 -7.51L209.18 -7.52L209.2 -7.52L209.21 -7.52L209.23 -7.53L209.25 -7.53L209.27 -7.53L209.28 -7.54L209.3 -7.54L209.32 -7.54L209.33 -7.54L209.35 -7.54L209.37 -7.53L209.38 -7.53L209.4 -7.53L209.41 -7.53L209.43 -7.52L209.44 -7.52L209.46 -7.51L209.47 -7.5L209.49 -7.5L209.5 -7.49L209.52 -7.48L209.53 -7.47L209.54 -7.46L209.56 -7.44L211.46 -5.63L211.47 -5.62L211.48 -5.61ZM207.1 -3.42L206.97 -3.51L206.85 -3.6L206.72 -3.69L206.59 -3.77L206.46 -3.84L206.33 -3.91L206.19 -3.98L206.06 -4.03L205.92 -4.09L205.78 -4.14L205.64 -4.18L205.5 -4.21L205.36 -4.25L205.22 -4.27L205.08 -4.29L204.93 -4.31L204.79 -4.32L204.65 -4.32L204.51 -4.32L204.36 -4.31L204.22 -4.3L204.08 -4.28L203.94 -4.26L203.81 -4.23L203.67 -4.2L203.53 -4.16L203.4 -4.11L203.27 -4.06L203.14 -4.01L203.01 -3.95L202.89 -3.88L202.76 -3.81L202.64 -3.73L202.53 -3.65L202.41 -3.56L202.3 -3.47L202.19 -3.37L202.09 -3.26L201.99 -3.15L201.9 -3.04L201.81 -2.93L201.73 -2.81L201.65 -2.69L201.58 -2.56L201.51 -2.44L201.45 -2.31L201.4 -2.18L201.35 -2.05L201.3 -1.91L201.26 -1.78L201.23 -1.64L201.2 -1.5L201.18 -1.36L201.17 -1.22L201.15 -1.08L201.15 -0.94L201.15 -0.8L201.15 -0.66L201.16 -0.52L201.18 -0.37L201.2 -0.23L201.23 -0.09L201.26 0.05L201.3 0.19L201.34 0.33L201.39 0.46L201.45 0.6L201.51 0.74L201.57 0.87L201.64 1L201.71 1.13L201.8 1.26L201.88 1.38L201.97 1.51L202.07 1.63L202.17 1.74L202.28 1.86L202.39 1.97L202.51 2.08L202.62 2.18L202.75 2.27L202.87 2.36L203 2.45L203.13 2.53L203.26 2.6L203.39 2.67L203.53 2.74L203.66 2.79L203.8 2.85L203.94 2.89L204.08 2.94L204.22 2.97L204.36 3L204.5 3.03L204.64 3.05L204.79 3.07L204.93 3.08L205.07 3.08L205.21 3.08L205.36 3.07L205.5 3.06L205.64 3.04L205.78 3.02L205.91 2.99L206.05 2.96L206.19 2.92L206.32 2.87L206.45 2.82L206.58 2.77L206.71 2.71L206.83 2.64L206.96 2.57L207.08 2.49L207.19 2.41L207.31 2.32L207.42 2.23L207.53 2.13L207.63 2.02L207.73 1.91L207.82 1.8L207.91 1.69L207.99 1.57L208.07 1.45L208.14 1.32L208.21 1.2L208.27 1.07L208.32 0.94L208.37 0.81L208.42 0.67L208.46 0.54L208.49 0.4L208.52 0.26L208.54 0.12L208.55 -0.02L208.57 -0.16L208.57 -0.3L208.57 -0.44L208.57 -0.58L208.55 -0.72L208.54 -0.87L208.52 -1.01L208.49 -1.15L208.46 -1.29L208.42 -1.43L208.38 -1.57L208.33 -1.71L208.27 -1.84L208.21 -1.98L208.15 -2.11L208.08 -2.24L208 -2.37L207.92 -2.5L207.84 -2.62L207.75 -2.75L207.65 -2.87L207.55 -2.98L207.44 -3.1L207.33 -3.21L207.21 -3.32L207.1 -3.42Z" id="avfN54Bf"></path><path d="M201.97 11.42L213.11 16.18L188.91 72.77L177.77 68L201.97 11.42Z" id="a437Vz4jn"></path><path d="M182.94 79.05L187.78 75.41L182.21 73.03L176.64 70.65L177.36 76.66L178.09 82.68L182.94 79.05Z" id="a1beMvr96N"></path><path d="M217.73 0.64L217.74 0.66L217.75 0.67L217.76 0.68L217.77 0.7L217.78 0.71L217.78 0.73L217.79 0.74L217.79 0.76L217.8 0.77L217.8 0.79L217.8 0.8L217.8 0.82L217.8 0.83L217.81 0.85L217.8 0.87L217.8 0.88L217.8 0.9L217.8 0.92L217.8 0.93L217.79 0.95L217.79 0.97L217.79 0.98L217.78 1L217.78 1.02L217.77 1.04L217.77 1.06L217.76 1.08L217.75 1.09L217.75 1.11L217.74 1.13L217.73 1.15L217.72 1.17L217.71 1.19L217.71 1.21L217.7 1.23L217.69 1.25L217.68 1.27L217.67 1.29L217.03 2.51L217.09 2.62L217.22 2.86L217.34 3.11L217.45 3.36L217.55 3.61L217.56 3.64L218.96 4.02L218.98 4.03L219 4.03L219.02 4.04L219.05 4.05L219.07 4.05L219.09 4.06L219.11 4.07L219.13 4.08L219.15 4.09L219.17 4.09L219.19 4.1L219.21 4.11L219.22 4.12L219.24 4.13L219.26 4.13L219.28 4.14L219.29 4.15L219.31 4.16L219.33 4.17L219.34 4.18L219.36 4.19L219.37 4.2L219.38 4.21L219.4 4.22L219.41 4.23L219.42 4.25L219.43 4.26L219.44 4.27L219.45 4.28L219.46 4.29L219.47 4.31L219.48 4.32L219.48 4.34L219.49 4.35L219.5 4.36L219.5 4.38L219.5 4.4L219.51 4.41L219.51 4.43L219.51 4.45L219.66 6.98L219.66 7L219.66 7.02L219.66 7.03L219.65 7.05L219.65 7.07L219.65 7.08L219.64 7.1L219.64 7.11L219.63 7.12L219.62 7.14L219.62 7.15L219.61 7.16L219.6 7.18L219.59 7.19L219.58 7.2L219.57 7.21L219.56 7.22L219.54 7.23L219.53 7.24L219.52 7.26L219.5 7.27L219.49 7.27L219.47 7.28L219.46 7.29L219.44 7.3L219.42 7.31L219.41 7.32L219.39 7.33L219.37 7.33L219.35 7.34L219.34 7.35L219.32 7.35L219.3 7.36L219.28 7.37L219.26 7.37L219.24 7.38L219.22 7.39L219.19 7.39L219.17 7.4L219.15 7.4L217.8 7.75L217.79 7.78L217.72 8.03L217.64 8.28L217.54 8.53L217.44 8.77L217.39 8.88L218.18 10.11L218.19 10.13L218.2 10.15L218.21 10.17L218.23 10.19L218.24 10.21L218.25 10.23L218.26 10.24L218.27 10.26L218.28 10.28L218.29 10.3L218.3 10.32L218.31 10.34L218.31 10.36L218.32 10.38L218.33 10.39L218.34 10.41L218.34 10.43L218.35 10.45L218.35 10.47L218.36 10.48L218.36 10.5L218.36 10.52L218.36 10.53L218.37 10.55L218.37 10.57L218.37 10.58L218.37 10.6L218.37 10.62L218.36 10.63L218.36 10.65L218.36 10.66L218.35 10.68L218.35 10.69L218.34 10.71L218.34 10.72L218.33 10.73L218.32 10.75L218.31 10.76L218.3 10.77L218.29 10.78L216.6 12.56L216.58 12.57L216.57 12.58L216.56 12.59L216.55 12.6L216.53 12.61L216.52 12.62L216.51 12.62L216.49 12.63L216.48 12.63L216.46 12.64L216.45 12.64L216.43 12.64L216.42 12.64L216.4 12.64L216.39 12.64L216.37 12.64L216.35 12.64L216.34 12.64L216.32 12.64L216.3 12.63L216.29 12.63L216.27 12.63L216.25 12.62L216.23 12.62L216.21 12.61L216.2 12.6L216.18 12.6L216.16 12.59L216.14 12.58L216.12 12.57L216.1 12.57L216.08 12.56L216.06 12.55L216.04 12.54L216.02 12.53L216 12.52L215.98 12.51L215.96 12.5L215.94 12.49L215.92 12.48L214.65 11.75L214.54 11.81L214.31 11.92L214.06 12.03L213.82 12.12L213.57 12.2L213.55 12.21L213.26 13.58L213.25 13.6L213.25 13.62L213.25 13.64L213.24 13.66L213.24 13.68L213.23 13.7L213.23 13.72L213.22 13.74L213.21 13.76L213.21 13.78L213.2 13.8L213.2 13.82L213.19 13.84L213.18 13.85L213.17 13.87L213.17 13.89L213.16 13.9L213.15 13.92L213.14 13.93L213.13 13.95L213.12 13.96L213.11 13.98L213.1 13.99L213.09 14L213.08 14.01L213.07 14.02L213.06 14.03L213.04 14.04L213.03 14.05L213.02 14.06L213 14.07L212.99 14.07L212.98 14.08L212.96 14.09L212.95 14.09L212.93 14.09L212.92 14.1L212.9 14.1L212.88 14.1L212.87 14.1L210.32 14.07L210.31 14.07L210.29 14.07L210.27 14.07L210.26 14.07L210.24 14.06L210.23 14.06L210.21 14.05L210.2 14.05L210.18 14.04L210.17 14.03L210.16 14.02L210.14 14.01L210.13 14L210.12 13.99L210.11 13.98L210.1 13.97L210.08 13.96L210.07 13.94L210.06 13.93L210.05 13.92L210.04 13.9L210.03 13.89L210.02 13.87L210.01 13.85L210 13.84L209.99 13.82L209.98 13.8L209.97 13.78L209.96 13.77L209.96 13.75L209.95 13.73L209.94 13.71L209.93 13.69L209.92 13.67L209.91 13.65L209.9 13.63L209.9 13.61L209.89 13.58L209.88 13.56L209.87 13.54L209.43 12.17L209.4 12.16L209.14 12.07L208.88 11.97L208.63 11.86L208.38 11.74L208.27 11.69L207.08 12.39L207.06 12.4L207.04 12.41L207.02 12.42L207 12.43L206.98 12.44L206.97 12.44L206.95 12.45L206.93 12.46L206.91 12.47L206.89 12.48L206.87 12.49L206.85 12.49L206.84 12.5L206.82 12.51L206.8 12.51L206.78 12.52L206.76 12.52L206.75 12.53L206.73 12.53L206.71 12.53L206.7 12.54L206.68 12.54L206.66 12.54L206.65 12.54L206.63 12.54L206.62 12.54L206.6 12.54L206.58 12.54L206.57 12.54L206.55 12.53L206.54 12.53L206.52 12.52L206.51 12.52L206.5 12.51L206.48 12.5L206.47 12.5L206.45 12.49L206.44 12.48L206.43 12.47L206.41 12.45L204.51 10.64L204.5 10.63L204.49 10.62L204.48 10.6L204.47 10.59L204.46 10.57L204.45 10.56L204.44 10.55L204.44 10.53L204.43 10.52L204.42 10.5L204.42 10.49L204.42 10.47L204.41 10.45L204.41 10.44L204.41 10.42L204.41 10.41L204.41 10.39L204.41 10.37L204.41 10.35L204.41 10.34L204.41 10.32L204.42 10.3L204.42 10.28L204.42 10.27L204.43 10.25L204.43 10.23L204.44 10.21L204.45 10.19L204.45 10.18L204.46 10.16L204.47 10.14L204.47 10.12L204.48 10.1L204.49 10.08L204.5 10.06L204.51 10.04L204.52 10.03L204.53 10.01L204.54 9.99L204.55 9.97L205.19 8.75L205.13 8.64L205 8.4L204.88 8.15L204.77 7.9L204.67 7.64L204.66 7.61L203.27 7.23L203.25 7.23L203.23 7.22L203.2 7.22L203.18 7.21L203.16 7.21L203.14 7.2L203.12 7.19L203.1 7.19L203.08 7.18L203.06 7.17L203.04 7.16L203.02 7.16L203 7.15L202.98 7.14L202.97 7.13L202.95 7.12L202.93 7.11L202.92 7.1L202.9 7.09L202.89 7.08L202.87 7.07L202.86 7.06L202.84 7.05L202.83 7.04L202.82 7.03L202.81 7.01L202.8 7L202.78 6.99L202.78 6.98L202.77 6.96L202.76 6.95L202.75 6.93L202.74 6.92L202.74 6.9L202.73 6.89L202.73 6.87L202.72 6.86L202.72 6.84L202.72 6.82L202.72 6.81L202.57 4.27L202.57 4.25L202.57 4.24L202.57 4.22L202.57 4.2L202.58 4.19L202.58 4.17L202.58 4.16L202.59 4.15L202.6 4.13L202.6 4.12L202.61 4.11L202.62 4.09L202.63 4.08L202.64 4.07L202.65 4.06L202.66 4.05L202.67 4.04L202.68 4.03L202.7 4.02L202.71 4.01L202.72 4L202.74 3.99L202.75 3.98L202.77 3.97L202.79 3.96L202.8 3.95L202.82 3.95L202.84 3.94L202.86 3.93L202.87 3.92L202.89 3.92L202.91 3.91L202.93 3.9L202.95 3.89L202.97 3.89L202.99 3.88L203.01 3.87L203.03 3.87L203.05 3.86L203.08 3.85L204.43 3.5L204.43 3.48L204.5 3.23L204.58 2.98L204.68 2.73L204.78 2.49L204.83 2.38L204.04 1.15L204.03 1.13L204.02 1.11L204.01 1.09L204 1.07L203.99 1.05L203.98 1.03L203.97 1.01L203.96 0.99L203.95 0.97L203.94 0.95L203.93 0.93L203.92 0.91L203.91 0.89L203.91 0.88L203.9 0.86L203.89 0.84L203.89 0.82L203.88 0.8L203.88 0.79L203.87 0.77L203.87 0.75L203.86 0.74L203.86 0.72L203.86 0.7L203.86 0.69L203.86 0.67L203.86 0.66L203.86 0.64L203.86 0.63L203.86 0.61L203.86 0.6L203.87 0.58L203.87 0.57L203.88 0.55L203.88 0.54L203.89 0.53L203.9 0.51L203.91 0.5L203.92 0.49L203.93 0.47L205.62 -1.3L205.64 -1.31L205.65 -1.32L205.66 -1.33L205.67 -1.34L205.69 -1.35L205.7 -1.36L205.72 -1.36L205.73 -1.37L205.74 -1.38L205.76 -1.38L205.77 -1.38L205.79 -1.39L205.81 -1.39L205.82 -1.39L205.84 -1.39L205.85 -1.39L205.87 -1.39L205.89 -1.39L205.91 -1.38L205.92 -1.38L205.94 -1.38L205.96 -1.37L205.98 -1.37L206 -1.36L206.01 -1.36L206.03 -1.35L206.05 -1.35L206.07 -1.34L206.09 -1.33L206.11 -1.32L206.13 -1.31L206.15 -1.3L206.17 -1.3L206.18 -1.29L206.2 -1.28L206.22 -1.26L206.24 -1.25L206.26 -1.24L206.28 -1.23L206.3 -1.22L207.57 -0.49L207.68 -0.55L207.91 -0.66L208.16 -0.77L208.4 -0.86L208.65 -0.94L208.67 -0.95L208.96 -2.32L208.97 -2.34L208.97 -2.36L208.98 -2.38L208.99 -2.4L208.99 -2.42L209 -2.44L209 -2.46L209.01 -2.48L209.02 -2.5L209.02 -2.52L209.03 -2.54L209.04 -2.56L209.04 -2.58L209.05 -2.59L209.06 -2.61L209.07 -2.63L209.07 -2.64L209.08 -2.66L209.09 -2.67L209.1 -2.69L209.11 -2.7L209.12 -2.72L209.13 -2.73L209.14 -2.74L209.15 -2.75L209.16 -2.76L209.17 -2.77L209.18 -2.78L209.19 -2.79L209.21 -2.8L209.22 -2.81L209.23 -2.81L209.25 -2.82L209.26 -2.83L209.27 -2.83L209.29 -2.83L209.3 -2.84L209.32 -2.84L209.34 -2.84L209.35 -2.84L211.9 -2.81L211.91 -2.81L211.93 -2.81L211.95 -2.81L211.96 -2.81L211.98 -2.8L211.99 -2.8L212.01 -2.79L212.02 -2.79L212.04 -2.78L212.05 -2.77L212.07 -2.76L212.08 -2.75L212.09 -2.74L212.11 -2.73L212.12 -2.72L212.13 -2.71L212.14 -2.7L212.16 -2.68L212.17 -2.67L212.18 -2.66L212.19 -2.64L212.2 -2.63L212.21 -2.61L212.22 -2.59L212.23 -2.58L212.24 -2.56L212.25 -2.54L212.26 -2.52L212.27 -2.51L212.28 -2.49L212.28 -2.47L212.29 -2.45L212.3 -2.43L212.31 -2.41L212.32 -2.39L212.32 -2.37L212.33 -2.35L212.34 -2.32L212.34 -2.3L212.35 -2.28L212.79 -0.91L212.82 -0.9L213.08 -0.81L213.33 -0.71L213.59 -0.6L213.84 -0.48L213.95 -0.43L215.14 -1.13L215.16 -1.14L215.17 -1.15L215.19 -1.16L215.21 -1.17L215.23 -1.18L215.25 -1.19L215.27 -1.2L215.28 -1.21L215.3 -1.22L215.32 -1.23L215.34 -1.23L215.36 -1.24L215.38 -1.25L215.39 -1.25L215.41 -1.26L215.43 -1.27L215.45 -1.27L215.46 -1.27L215.48 -1.28L215.5 -1.28L215.52 -1.28L215.53 -1.29L215.55 -1.29L215.57 -1.29L215.58 -1.29L215.6 -1.29L215.62 -1.28L215.63 -1.28L215.65 -1.28L215.66 -1.28L215.68 -1.27L215.69 -1.27L215.71 -1.26L215.72 -1.25L215.74 -1.25L215.75 -1.24L215.77 -1.23L215.78 -1.22L215.79 -1.21L215.81 -1.19L217.71 0.62L217.72 0.63L217.73 0.64ZM213.35 2.83L213.22 2.74L213.1 2.65L212.97 2.56L212.84 2.48L212.71 2.41L212.58 2.34L212.44 2.27L212.31 2.22L212.17 2.16L212.03 2.11L211.89 2.07L211.75 2.04L211.61 2L211.47 1.98L211.33 1.96L211.18 1.94L211.04 1.93L210.9 1.93L210.76 1.93L210.61 1.94L210.47 1.95L210.33 1.97L210.19 1.99L210.06 2.02L209.92 2.05L209.78 2.09L209.65 2.14L209.52 2.19L209.39 2.24L209.26 2.3L209.14 2.37L209.01 2.44L208.89 2.52L208.78 2.6L208.66 2.69L208.55 2.78L208.44 2.88L208.34 2.99L208.24 3.1L208.15 3.21L208.06 3.32L207.98 3.44L207.9 3.56L207.83 3.69L207.76 3.81L207.7 3.94L207.65 4.07L207.6 4.2L207.55 4.34L207.51 4.47L207.48 4.61L207.45 4.75L207.43 4.89L207.42 5.03L207.4 5.17L207.4 5.31L207.4 5.45L207.4 5.59L207.41 5.73L207.43 5.88L207.45 6.02L207.48 6.16L207.51 6.3L207.55 6.44L207.59 6.58L207.64 6.71L207.7 6.85L207.76 6.99L207.82 7.12L207.89 7.25L207.96 7.38L208.05 7.51L208.13 7.63L208.22 7.76L208.32 7.88L208.42 7.99L208.53 8.11L208.64 8.22L208.76 8.33L208.87 8.43L209 8.52L209.12 8.61L209.25 8.7L209.38 8.78L209.51 8.85L209.64 8.92L209.78 8.99L209.91 9.04L210.05 9.1L210.19 9.14L210.33 9.19L210.47 9.22L210.61 9.25L210.75 9.28L210.89 9.3L211.04 9.32L211.18 9.33L211.32 9.33L211.46 9.33L211.61 9.32L211.75 9.31L211.89 9.29L212.03 9.27L212.16 9.24L212.3 9.21L212.44 9.17L212.57 9.12L212.7 9.07L212.83 9.02L212.96 8.96L213.08 8.89L213.21 8.82L213.33 8.74L213.44 8.66L213.56 8.57L213.67 8.48L213.78 8.38L213.88 8.27L213.98 8.16L214.07 8.05L214.16 7.94L214.24 7.82L214.32 7.7L214.39 7.57L214.46 7.45L214.52 7.32L214.57 7.19L214.62 7.06L214.67 6.92L214.71 6.79L214.74 6.65L214.77 6.51L214.79 6.37L214.8 6.23L214.82 6.09L214.82 5.95L214.82 5.81L214.82 5.67L214.8 5.53L214.79 5.38L214.77 5.24L214.74 5.1L214.71 4.96L214.67 4.82L214.63 4.68L214.58 4.54L214.52 4.41L214.46 4.27L214.4 4.14L214.33 4.01L214.25 3.88L214.17 3.75L214.09 3.63L214 3.5L213.9 3.38L213.8 3.27L213.69 3.15L213.58 3.04L213.46 2.93L213.35 2.83Z" id="e1Vijrl6Uw"></path><path d="M-61.6 -152.74L-47.22 -146.62L-64.53 -105.94L-78.92 -112.06L-61.6 -152.74Z" id="aJYP5EQNY"></path><path d="M-71.24 -99.19L-64.99 -103.88L-72.18 -106.95L-79.36 -110.02L-78.43 -102.26L-77.5 -94.5L-71.24 -99.19Z" id="a4lT3HkfVb"></path><path d="M-93.95 -143.56L-93.97 -143.56L-93.99 -143.57L-94.01 -143.58L-94.03 -143.59L-94.05 -143.6L-94.06 -143.61L-94.08 -143.62L-94.1 -143.64L-94.11 -143.65L-94.12 -143.66L-94.14 -143.68L-94.15 -143.69L-94.16 -143.71L-94.18 -143.73L-94.19 -143.74L-94.2 -143.76L-94.21 -143.78L-94.22 -143.8L-94.23 -143.82L-94.24 -143.84L-94.24 -143.86L-94.25 -143.89L-94.26 -143.91L-94.27 -143.93L-94.27 -143.95L-94.28 -143.98L-94.29 -144L-94.29 -144.03L-94.3 -144.05L-94.3 -144.08L-94.31 -144.11L-94.31 -144.13L-94.32 -144.16L-94.32 -144.19L-94.33 -144.21L-94.33 -144.24L-94.34 -144.27L-94.34 -144.3L-94.52 -146.07L-94.66 -146.14L-94.97 -146.31L-95.28 -146.49L-95.57 -146.69L-95.86 -146.89L-95.88 -146.91L-97.66 -146.33L-97.69 -146.32L-97.72 -146.31L-97.75 -146.3L-97.78 -146.3L-97.81 -146.29L-97.83 -146.28L-97.86 -146.28L-97.89 -146.27L-97.92 -146.26L-97.94 -146.26L-97.97 -146.25L-98 -146.25L-98.02 -146.25L-98.05 -146.24L-98.07 -146.24L-98.1 -146.24L-98.12 -146.23L-98.14 -146.23L-98.17 -146.23L-98.19 -146.23L-98.21 -146.23L-98.24 -146.23L-98.26 -146.23L-98.28 -146.24L-98.3 -146.24L-98.32 -146.24L-98.34 -146.25L-98.36 -146.26L-98.38 -146.26L-98.4 -146.27L-98.42 -146.28L-98.44 -146.29L-98.46 -146.3L-98.47 -146.31L-98.49 -146.32L-98.5 -146.33L-98.52 -146.35L-98.54 -146.36L-98.55 -146.38L-98.56 -146.4L-100.52 -149.03L-100.53 -149.05L-100.54 -149.07L-100.55 -149.08L-100.56 -149.1L-100.57 -149.12L-100.58 -149.14L-100.58 -149.16L-100.59 -149.18L-100.59 -149.2L-100.59 -149.22L-100.59 -149.24L-100.59 -149.26L-100.59 -149.28L-100.59 -149.3L-100.59 -149.32L-100.58 -149.34L-100.58 -149.36L-100.57 -149.38L-100.57 -149.4L-100.56 -149.42L-100.55 -149.44L-100.54 -149.46L-100.53 -149.48L-100.52 -149.5L-100.51 -149.53L-100.5 -149.55L-100.49 -149.57L-100.47 -149.59L-100.46 -149.61L-100.44 -149.63L-100.43 -149.65L-100.41 -149.67L-100.4 -149.69L-100.38 -149.71L-100.36 -149.73L-100.34 -149.75L-100.33 -149.78L-100.31 -149.8L-100.29 -149.82L-100.27 -149.84L-99.06 -151.18L-99.07 -151.21L-99.17 -151.54L-99.26 -151.86L-99.33 -152.19L-99.4 -152.52L-99.42 -152.67L-101.14 -153.45L-101.16 -153.46L-101.19 -153.47L-101.22 -153.49L-101.24 -153.5L-101.27 -153.51L-101.3 -153.52L-101.32 -153.54L-101.35 -153.55L-101.37 -153.56L-101.39 -153.58L-101.42 -153.59L-101.44 -153.6L-101.46 -153.62L-101.48 -153.63L-101.5 -153.65L-101.52 -153.66L-101.54 -153.68L-101.56 -153.69L-101.58 -153.71L-101.59 -153.72L-101.61 -153.74L-101.63 -153.76L-101.64 -153.77L-101.65 -153.79L-101.67 -153.81L-101.68 -153.82L-101.69 -153.84L-101.7 -153.86L-101.71 -153.88L-101.72 -153.9L-101.72 -153.92L-101.73 -153.93L-101.73 -153.95L-101.74 -153.97L-101.74 -153.99L-101.74 -154.01L-101.74 -154.03L-101.74 -154.06L-101.74 -154.08L-101.74 -154.1L-101.17 -157.21L-101.16 -157.23L-101.16 -157.25L-101.15 -157.27L-101.14 -157.29L-101.13 -157.31L-101.13 -157.33L-101.11 -157.34L-101.1 -157.36L-101.09 -157.37L-101.08 -157.39L-101.06 -157.4L-101.05 -157.41L-101.03 -157.43L-101.02 -157.44L-101 -157.45L-100.98 -157.46L-100.96 -157.47L-100.95 -157.48L-100.93 -157.49L-100.9 -157.5L-100.88 -157.51L-100.86 -157.51L-100.84 -157.52L-100.82 -157.53L-100.79 -157.54L-100.77 -157.54L-100.74 -157.55L-100.72 -157.55L-100.69 -157.56L-100.66 -157.56L-100.64 -157.57L-100.61 -157.57L-100.58 -157.58L-100.55 -157.58L-100.53 -157.59L-100.5 -157.59L-100.47 -157.59L-100.44 -157.6L-100.41 -157.6L-100.38 -157.6L-98.49 -157.72L-98.42 -157.86L-98.25 -158.15L-98.06 -158.43L-97.86 -158.7L-97.65 -158.97L-97.63 -158.99L-98.29 -160.67L-98.3 -160.7L-98.31 -160.72L-98.32 -160.75L-98.33 -160.78L-98.34 -160.8L-98.35 -160.83L-98.36 -160.85L-98.37 -160.88L-98.37 -160.9L-98.38 -160.93L-98.39 -160.95L-98.39 -160.98L-98.4 -161L-98.4 -161.03L-98.41 -161.05L-98.41 -161.07L-98.41 -161.1L-98.41 -161.12L-98.41 -161.14L-98.41 -161.16L-98.41 -161.19L-98.41 -161.21L-98.41 -161.23L-98.41 -161.25L-98.4 -161.27L-98.4 -161.29L-98.39 -161.31L-98.39 -161.33L-98.38 -161.35L-98.37 -161.36L-98.36 -161.38L-98.35 -161.4L-98.34 -161.41L-98.33 -161.43L-98.32 -161.45L-98.3 -161.46L-98.29 -161.48L-98.27 -161.49L-98.25 -161.5L-98.24 -161.52L-95.48 -163.29L-95.46 -163.3L-95.44 -163.31L-95.42 -163.32L-95.4 -163.33L-95.38 -163.33L-95.36 -163.34L-95.34 -163.34L-95.32 -163.35L-95.3 -163.35L-95.28 -163.35L-95.26 -163.35L-95.24 -163.35L-95.22 -163.35L-95.2 -163.34L-95.18 -163.34L-95.16 -163.34L-95.14 -163.33L-95.11 -163.32L-95.09 -163.32L-95.07 -163.31L-95.05 -163.3L-95.03 -163.29L-95.01 -163.28L-94.98 -163.27L-94.96 -163.26L-94.94 -163.25L-94.92 -163.24L-94.89 -163.22L-94.87 -163.21L-94.85 -163.2L-94.83 -163.18L-94.8 -163.17L-94.78 -163.15L-94.75 -163.14L-94.73 -163.12L-94.71 -163.1L-94.68 -163.09L-94.66 -163.07L-94.63 -163.05L-94.61 -163.03L-93.16 -161.87L-93.12 -161.88L-92.78 -161.96L-92.44 -162.04L-92.09 -162.1L-91.73 -162.15L-91.57 -162.17L-90.79 -163.76L-90.77 -163.79L-90.76 -163.81L-90.74 -163.84L-90.73 -163.86L-90.72 -163.89L-90.7 -163.91L-90.69 -163.93L-90.67 -163.95L-90.66 -163.98L-90.64 -164L-90.63 -164.02L-90.62 -164.04L-90.6 -164.06L-90.59 -164.08L-90.57 -164.1L-90.56 -164.12L-90.54 -164.13L-90.52 -164.15L-90.51 -164.17L-90.49 -164.18L-90.48 -164.2L-90.46 -164.21L-90.44 -164.23L-90.43 -164.24L-90.41 -164.25L-90.39 -164.26L-90.38 -164.27L-90.36 -164.28L-90.34 -164.29L-90.32 -164.3L-90.3 -164.3L-90.28 -164.31L-90.26 -164.31L-90.24 -164.32L-90.22 -164.32L-90.2 -164.32L-90.18 -164.32L-90.16 -164.32L-90.14 -164.31L-90.11 -164.31L-86.78 -163.7L-86.76 -163.7L-86.74 -163.69L-86.71 -163.69L-86.69 -163.68L-86.67 -163.67L-86.65 -163.66L-86.64 -163.65L-86.62 -163.64L-86.6 -163.63L-86.59 -163.61L-86.57 -163.6L-86.55 -163.59L-86.54 -163.57L-86.53 -163.56L-86.51 -163.54L-86.5 -163.52L-86.49 -163.5L-86.48 -163.49L-86.47 -163.47L-86.46 -163.45L-86.45 -163.43L-86.44 -163.4L-86.43 -163.38L-86.42 -163.36L-86.41 -163.34L-86.4 -163.32L-86.4 -163.29L-86.39 -163.27L-86.38 -163.24L-86.38 -163.22L-86.37 -163.19L-86.37 -163.17L-86.36 -163.14L-86.36 -163.12L-86.36 -163.09L-86.35 -163.06L-86.35 -163.03L-86.35 -163.01L-86.34 -162.98L-86.34 -162.95L-86.17 -161.18L-86.03 -161.11L-85.71 -160.94L-85.41 -160.76L-85.11 -160.56L-84.83 -160.36L-84.79 -160.33L-83.03 -160.91L-83 -160.92L-82.97 -160.93L-82.94 -160.94L-82.92 -160.95L-82.89 -160.96L-82.86 -160.96L-82.83 -160.97L-82.81 -160.98L-82.78 -160.98L-82.75 -160.99L-82.73 -161L-82.7 -161L-82.68 -161L-82.65 -161.01L-82.63 -161.01L-82.6 -161.01L-82.58 -161.02L-82.55 -161.02L-82.53 -161.02L-82.5 -161.02L-82.48 -161.02L-82.46 -161.01L-82.44 -161.01L-82.41 -161.01L-82.39 -161L-82.37 -161L-82.35 -160.99L-82.33 -160.99L-82.31 -160.98L-82.29 -160.97L-82.27 -160.96L-82.25 -160.95L-82.23 -160.94L-82.22 -160.93L-82.2 -160.92L-82.18 -160.91L-82.17 -160.89L-82.15 -160.88L-82.14 -160.86L-82.12 -160.84L-80.17 -158.21L-80.16 -158.19L-80.15 -158.17L-80.14 -158.15L-80.13 -158.13L-80.12 -158.12L-80.11 -158.1L-80.11 -158.08L-80.1 -158.06L-80.1 -158.04L-80.1 -158.02L-80.1 -158L-80.1 -157.98L-80.1 -157.96L-80.1 -157.95L-80.11 -157.93L-80.11 -157.91L-80.12 -157.89L-80.12 -157.87L-80.13 -157.85L-80.14 -157.83L-80.14 -157.81L-80.15 -157.79L-80.16 -157.77L-80.17 -157.75L-80.19 -157.72L-80.2 -157.7L-80.21 -157.68L-80.22 -157.66L-80.24 -157.64L-80.25 -157.62L-80.27 -157.6L-80.28 -157.58L-80.3 -157.56L-80.31 -157.53L-80.33 -157.51L-80.35 -157.49L-80.37 -157.47L-80.38 -157.45L-80.4 -157.42L-80.42 -157.4L-81.63 -156.07L-81.62 -156.04L-81.51 -155.71L-81.43 -155.39L-81.35 -155.06L-81.29 -154.73L-81.27 -154.58L-79.55 -153.8L-79.52 -153.78L-79.5 -153.77L-79.47 -153.76L-79.44 -153.74L-79.42 -153.73L-79.39 -153.72L-79.37 -153.7L-79.34 -153.69L-79.32 -153.67L-79.3 -153.66L-79.27 -153.65L-79.25 -153.63L-79.23 -153.62L-79.21 -153.6L-79.19 -153.59L-79.17 -153.57L-79.15 -153.56L-79.13 -153.54L-79.11 -153.53L-79.09 -153.51L-79.08 -153.5L-79.06 -153.48L-79.05 -153.47L-79.03 -153.45L-79.02 -153.43L-79.01 -153.42L-79 -153.4L-78.99 -153.38L-78.98 -153.37L-78.97 -153.35L-78.96 -153.33L-78.96 -153.31L-78.95 -153.29L-78.95 -153.27L-78.95 -153.25L-78.94 -153.24L-78.94 -153.22L-78.94 -153.19L-78.95 -153.17L-78.95 -153.15L-79.52 -150.04L-79.52 -150.02L-79.53 -150L-79.54 -149.98L-79.54 -149.96L-79.55 -149.94L-79.56 -149.92L-79.57 -149.9L-79.58 -149.89L-79.59 -149.87L-79.61 -149.86L-79.62 -149.84L-79.64 -149.83L-79.65 -149.82L-79.67 -149.8L-79.69 -149.79L-79.7 -149.78L-79.72 -149.77L-79.74 -149.76L-79.76 -149.75L-79.78 -149.74L-79.8 -149.73L-79.83 -149.72L-79.85 -149.71L-79.87 -149.71L-79.9 -149.7L-79.92 -149.69L-79.95 -149.69L-79.97 -149.68L-80 -149.68L-80.02 -149.67L-80.05 -149.67L-80.08 -149.66L-80.11 -149.66L-80.13 -149.66L-80.16 -149.65L-80.19 -149.65L-80.22 -149.65L-80.25 -149.65L-80.28 -149.65L-80.31 -149.65L-82.19 -149.53L-82.26 -149.39L-82.44 -149.1L-82.63 -148.82L-82.82 -148.55L-83.03 -148.28L-83.06 -148.26L-82.4 -146.58L-82.39 -146.55L-82.38 -146.52L-82.37 -146.5L-82.36 -146.47L-82.35 -146.44L-82.35 -146.42L-82.34 -146.39L-82.33 -146.36L-82.32 -146.34L-82.32 -146.31L-82.31 -146.29L-82.31 -146.26L-82.3 -146.24L-82.3 -146.22L-82.29 -146.19L-82.29 -146.17L-82.29 -146.15L-82.28 -146.12L-82.28 -146.1L-82.28 -146.08L-82.28 -146.06L-82.28 -146.04L-82.28 -146.02L-82.29 -146L-82.29 -145.98L-82.29 -145.96L-82.3 -145.94L-82.3 -145.92L-82.31 -145.9L-82.32 -145.88L-82.33 -145.87L-82.33 -145.85L-82.35 -145.83L-82.36 -145.82L-82.37 -145.8L-82.38 -145.79L-82.4 -145.77L-82.41 -145.76L-82.43 -145.75L-82.45 -145.73L-85.21 -143.96L-85.23 -143.95L-85.25 -143.94L-85.27 -143.93L-85.29 -143.92L-85.31 -143.92L-85.33 -143.91L-85.35 -143.91L-85.37 -143.9L-85.39 -143.9L-85.41 -143.9L-85.43 -143.9L-85.45 -143.9L-85.47 -143.9L-85.49 -143.9L-85.52 -143.9L-85.54 -143.91L-85.56 -143.91L-85.58 -143.92L-85.6 -143.93L-85.63 -143.93L-85.65 -143.94L-85.67 -143.95L-85.69 -143.96L-85.71 -143.97L-85.74 -143.98L-85.76 -143.99L-85.78 -144.01L-85.8 -144.02L-85.83 -144.03L-85.85 -144.05L-85.87 -144.06L-85.89 -144.08L-85.92 -144.09L-85.94 -144.11L-85.96 -144.13L-85.99 -144.14L-86.01 -144.16L-86.03 -144.18L-86.05 -144.2L-86.08 -144.22L-87.53 -145.38L-87.56 -145.37L-87.9 -145.29L-88.25 -145.21L-88.6 -145.15L-88.95 -145.1L-89.11 -145.08L-89.9 -143.49L-89.91 -143.46L-89.92 -143.44L-89.93 -143.41L-89.95 -143.39L-89.96 -143.36L-89.97 -143.34L-89.99 -143.32L-90 -143.29L-90.01 -143.27L-90.03 -143.25L-90.04 -143.23L-90.05 -143.21L-90.07 -143.19L-90.08 -143.17L-90.1 -143.15L-90.11 -143.13L-90.13 -143.11L-90.15 -143.1L-90.16 -143.08L-90.18 -143.06L-90.2 -143.05L-90.21 -143.03L-90.23 -143.02L-90.25 -143.01L-90.27 -143L-90.28 -142.99L-90.3 -142.98L-90.32 -142.97L-90.34 -142.96L-90.36 -142.95L-90.38 -142.95L-90.4 -142.94L-90.42 -142.94L-90.44 -142.93L-90.46 -142.93L-90.48 -142.93L-90.51 -142.93L-90.53 -142.93L-90.55 -142.94L-90.57 -142.94L-93.91 -143.55L-93.93 -143.55L-93.95 -143.56ZM-90.77 -149.03L-90.57 -149.01L-90.37 -149L-90.18 -149L-89.98 -149L-89.79 -149.01L-89.59 -149.03L-89.4 -149.06L-89.22 -149.09L-89.03 -149.13L-88.85 -149.18L-88.67 -149.24L-88.49 -149.3L-88.31 -149.36L-88.14 -149.44L-87.97 -149.51L-87.81 -149.6L-87.65 -149.69L-87.49 -149.79L-87.34 -149.89L-87.19 -150L-87.05 -150.11L-86.91 -150.23L-86.78 -150.35L-86.65 -150.48L-86.52 -150.61L-86.41 -150.75L-86.29 -150.89L-86.19 -151.04L-86.09 -151.19L-85.99 -151.35L-85.9 -151.51L-85.82 -151.67L-85.75 -151.84L-85.68 -152.01L-85.62 -152.19L-85.57 -152.37L-85.52 -152.55L-85.48 -152.74L-85.45 -152.93L-85.43 -153.11L-85.42 -153.3L-85.41 -153.49L-85.41 -153.67L-85.42 -153.85L-85.44 -154.04L-85.47 -154.22L-85.5 -154.4L-85.54 -154.57L-85.59 -154.75L-85.64 -154.92L-85.71 -155.09L-85.77 -155.26L-85.85 -155.43L-85.93 -155.59L-86.02 -155.75L-86.11 -155.91L-86.21 -156.06L-86.32 -156.21L-86.43 -156.35L-86.55 -156.5L-86.67 -156.63L-86.8 -156.77L-86.94 -156.89L-87.08 -157.02L-87.22 -157.14L-87.37 -157.25L-87.53 -157.36L-87.69 -157.46L-87.85 -157.56L-88.02 -157.65L-88.19 -157.74L-88.37 -157.82L-88.55 -157.9L-88.74 -157.96L-88.92 -158.02L-89.12 -158.08L-89.31 -158.13L-89.51 -158.17L-89.71 -158.2L-89.91 -158.22L-90.11 -158.24L-90.31 -158.25L-90.51 -158.25L-90.71 -158.25L-90.9 -158.24L-91.09 -158.22L-91.28 -158.19L-91.47 -158.16L-91.66 -158.12L-91.84 -158.07L-92.02 -158.01L-92.2 -157.95L-92.37 -157.89L-92.54 -157.81L-92.71 -157.74L-92.88 -157.65L-93.04 -157.56L-93.19 -157.46L-93.34 -157.36L-93.49 -157.26L-93.64 -157.14L-93.78 -157.02L-93.91 -156.9L-94.04 -156.77L-94.16 -156.64L-94.28 -156.5L-94.39 -156.36L-94.5 -156.21L-94.6 -156.06L-94.69 -155.9L-94.78 -155.74L-94.86 -155.58L-94.94 -155.41L-95 -155.24L-95.07 -155.06L-95.12 -154.88L-95.16 -154.7L-95.2 -154.51L-95.23 -154.33L-95.25 -154.14L-95.27 -153.95L-95.27 -153.76L-95.27 -153.58L-95.26 -153.4L-95.24 -153.21L-95.22 -153.03L-95.18 -152.85L-95.14 -152.68L-95.1 -152.5L-95.04 -152.33L-94.98 -152.16L-94.91 -151.99L-94.84 -151.82L-94.76 -151.66L-94.67 -151.5L-94.57 -151.34L-94.47 -151.19L-94.37 -151.04L-94.25 -150.9L-94.14 -150.75L-94.01 -150.62L-93.88 -150.48L-93.75 -150.36L-93.61 -150.23L-93.46 -150.11L-93.31 -150L-93.16 -149.89L-93 -149.79L-92.84 -149.69L-92.67 -149.6L-92.49 -149.51L-92.32 -149.43L-92.14 -149.35L-91.95 -149.29L-91.76 -149.23L-91.57 -149.17L-91.37 -149.12L-91.17 -149.08L-90.97 -149.05L-90.77 -149.03Z" id="b1j5nAYm1j"></path><path d="M-40.17 -139.85L-25.79 -133.73L-43.11 -93.05L-57.49 -99.17L-40.17 -139.85Z" id="ae2KD6YuU"></path><path d="M-49.82 -86.31L-43.56 -90.99L-50.75 -94.07L-57.93 -97.14L-57 -89.38L-56.07 -81.62L-49.82 -86.31Z" id="bDJw3WMxG"></path><path d="M53.32 15.82L71 23.35L50.26 72.08L32.58 64.56L53.32 15.82Z" id="c3STW3G4w"></path><path d="M41.47 81.64L49.16 75.88L40.33 72.1L31.5 68.32L32.64 77.86L33.79 87.4L41.47 81.64Z" id="cgwUt7UP8"></path><path d="M127.51 -153.8C127.51 -127.09 105.83 -105.41 79.12 -105.41C52.42 -105.41 30.74 -127.09 30.74 -153.8C30.74 -180.5 52.42 -202.19 79.12 -202.19C105.83 -202.19 127.51 -180.5 127.51 -153.8Z" id="c2NtuvV99"></path><path d="M103.25 -177.23L103.32 -169.97L51.32 -169.9L51.25 -177.16L103.25 -177.23Z" id="e19GvA08mT"></path><path d="M103.25 -157.46L103.32 -150.2L51.32 -150.13L51.25 -157.39L103.25 -157.46Z" id="e2iEU8ETLH"></path><path d="M103.25 -136.31L103.32 -129.05L51.32 -128.98L51.25 -136.24L103.25 -136.31Z" id="bz5PkZLrN"></path><path d="M84.1 -191.19L101.77 -183.67L81.03 -134.93L63.35 -142.46L84.1 -191.19Z" id="p8cGP65xlh"></path><path d="M72.25 -125.38L79.93 -131.14L71.1 -134.92L62.27 -138.69L63.41 -129.16L64.56 -119.62L72.25 -125.38Z" id="a3HvkTVUZ"></path><path d="M-37.08 100C-37.08 126.71 -58.76 148.39 -85.47 148.39C-112.17 148.39 -133.86 126.71 -133.86 100C-133.86 73.29 -112.17 51.61 -85.47 51.61C-58.76 51.61 -37.08 73.29 -37.08 100Z" id="cNpFcjdWp"></path><path d="M-82.14 64.21L-64.46 71.74L-85.21 120.47L-102.89 112.95L-82.14 64.21Z" id="acE4h1AWA"></path><path d="M-93.99 130.03L-86.31 124.27L-95.14 120.49L-103.97 116.71L-102.83 126.25L-101.68 135.79L-93.99 130.03Z" id="b4g9gXOYex"></path></defs><g><g><g><g><use xlink:href="#jF4qyqjGr" opacity="1" fill-opacity="0" stroke="#3fcee6" stroke-width="8" stroke-opacity="1"></use></g><g><filter id="shadow3491806" x="21.74" y="-75.32" width="48.94" height="48.94" filterUnits="userSpaceOnUse" primitiveUnits="userSpaceOnUse"><feFlood></feFlood><feComposite in2="SourceAlpha" operator="out"></feComposite><feGaussianBlur stdDeviation="1"></feGaussianBlur><feOffset dx="1" dy="1" result="afterOffset"></feOffset><feFlood flood-color="#ffffff" flood-opacity="0.8"></feFlood><feComposite in2="afterOffset" operator="in"></feComposite><feMorphology operator="dilate" radius="1"></feMorphology><feComposite in2="SourceAlpha" operator="in"></feComposite></filter><path d="M60.68 -51.35C60.68 -43.08 53.97 -36.38 45.71 -36.38C37.44 -36.38 30.74 -43.08 30.74 -51.35C30.74 -59.61 37.44 -66.32 45.71 -66.32C53.97 -66.32 60.68 -59.61 60.68 -51.35Z" id="d4RW7ZDdh" fill="white" fill-opacity="1" filter="url(#shadow3491806)"></path></g></g><g><g><g><use xlink:href="#bmpX9HGqA" opacity="1" fill="#1a2630" fill-opacity="0.3"></use></g><g><use xlink:href="#a7VKSPeD5d" opacity="1" fill="#1a2630" fill-opacity="0.3"></use></g></g><g><use xlink:href="#abI5fPMs" opacity="0.3" fill="#1a2630" fill-opacity="1"></use></g><g><g></g></g></g><g><g><g><use xlink:href="#cvuDmj9B6" opacity="1" fill="#1a2630" fill-opacity="0.3"></use></g><g><use xlink:href="#c8VYZnvAil" opacity="1" fill="#1a2630" fill-opacity="0.3"></use></g></g><g><use xlink:href="#f2Gg2q8jh" opacity="0.3" fill="#1a2630" fill-opacity="1"></use></g></g><g><use xlink:href="#ab6quEst3" opacity="1" fill="#3fcee6" fill-opacity="1"></use></g><g><use xlink:href="#d2VHYv0BXw" opacity="1" fill="#3fcee6" fill-opacity="1"></use></g><g><use xlink:href="#eFNwLTXj8" opacity="0.3" fill="#1a2630" fill-opacity="1"></use></g><g><g><g><use xlink:href="#d1WY8tCYKI" opacity="1" fill="#1a2630" fill-opacity="0.3"></use></g><g><use xlink:href="#disR0y7dc" opacity="1" fill="#1a2630" fill-opacity="0.3"></use></g></g><g><use xlink:href="#avfN54Bf" opacity="0.3" fill="#1a2630" fill-opacity="1"></use></g></g><g><g><g><use xlink:href="#a437Vz4jn" opacity="1" fill="#1a2630" fill-opacity="0.3"></use></g><g><use xlink:href="#a1beMvr96N" opacity="1" fill="#1a2630" fill-opacity="0.3"></use></g></g><g><use xlink:href="#e1Vijrl6Uw" opacity="0.3" fill="#1a2630" fill-opacity="1"></use></g></g><g><g><g><use xlink:href="#aJYP5EQNY" opacity="1" fill="#ffffff" fill-opacity="1"></use></g><g><use xlink:href="#a4lT3HkfVb" opacity="1" fill="#ffffff" fill-opacity="1"></use></g></g><g><use xlink:href="#b1j5nAYm1j" opacity="1" fill="#ffffff" fill-opacity="1"></use></g><g><g></g></g></g><g><g><use xlink:href="#ae2KD6YuU" opacity="1" fill="#ffffff" fill-opacity="1"></use></g><g><use xlink:href="#bDJw3WMxG" opacity="1" fill="#ffffff" fill-opacity="1"></use></g></g><g><g><use xlink:href="#c3STW3G4w" opacity="1" fill="#ffffff" fill-opacity="1"></use></g><g><use xlink:href="#cgwUt7UP8" opacity="1" fill="#ffffff" fill-opacity="1"></use></g></g><g><use xlink:href="#c2NtuvV99" opacity="1" fill="#3fcee6" fill-opacity="1"></use></g><g><g><g><use xlink:href="#e19GvA08mT" opacity="1" fill="#1a2630" fill-opacity="0.3"></use></g></g><g><g></g></g></g><g><g><g><use xlink:href="#e2iEU8ETLH" opacity="1" fill="#1a2630" fill-opacity="0.3"></use></g></g><g><g></g></g></g><g><g><g><use xlink:href="#bz5PkZLrN" opacity="1" fill="#1a2630" fill-opacity="0.3"></use></g></g><g><g></g></g></g><g><g><use xlink:href="#p8cGP65xlh" opacity="1" fill="#ffffff" fill-opacity="1"></use></g><g><use xlink:href="#a3HvkTVUZ" opacity="1" fill="#ffffff" fill-opacity="1"></use></g></g><g><use xlink:href="#cNpFcjdWp" opacity="1" fill="#3fcee6" fill-opacity="1"></use></g><g><g><use xlink:href="#acE4h1AWA" opacity="1" fill="#ffffff" fill-opacity="1"></use></g><g><use xlink:href="#b4g9gXOYex" opacity="1" fill="#ffffff" fill-opacity="1"></use></g></g></g></g></svg>