<svg xmlns="http://www.w3.org/2000/svg" xmlns:xlink="http://www.w3.org/1999/xlink" viewBox="0 0 100 100" width="100" height="100"><defs><path d="M-26.3 105.95c0 25.72-21.03 46.6-46.93 46.6-25.91 0-46.94-20.88-46.94-46.6 0-25.71 21.03-46.59 46.94-46.59 25.9 0 46.93 20.88 46.93 46.59z" id="a"/><path d="M72.55 144.06a2.86 2.86 0 012.86 2.86c0 .57 0-.57 0 0a2.86 2.86 0 01-2.86 2.86H54.57a2.86 2.86 0 01-2.86-2.86c0-.57 0 .57 0 0a2.86 2.86 0 012.86-2.86h17.98z" id="b"/><path d="M188.04 83.56v3.05-3.05z" id="c"/><path d="M-71.62 59.36c.82 0 1.49.66 1.49 1.48v8.35c0 .82-.67 1.49-1.49 1.49h-.13c-.82 0-1.48-.67-1.48-1.49v-8.35c0-.82.66-1.48 1.48-1.48h.13z" id="d"/><path d="M-39.09 73.35c.51.65.41 1.58-.23 2.09-1.54 1.23-4.98 4-6.51 5.23-.65.51-1.58.41-2.09-.23-.2-.25.14.18-.05-.06-.52-.64-.41-1.58.23-2.09 1.53-1.23 4.98-3.99 6.51-5.22.64-.52 1.58-.42 2.09.23.2.24-.15-.19.05.05z" id="e"/><path d="M-27.92 93.97c.34.75 0 1.63-.75 1.96-1.79.81-5.82 2.62-7.61 3.42-.75.34-1.63.01-1.97-.74-.12-.29.1.21-.03-.07-.33-.75 0-1.63.75-1.97 1.79-.8 5.82-2.61 7.62-3.42.74-.33 1.62 0 1.96.75.13.28-.1-.22.03.07z" id="f"/><path d="M-29.04 122.96c-.33.75-1.2 1.1-1.95.78l-7.69-3.27c-.75-.32-1.1-1.19-.78-1.95.12-.28-.09.22.03-.07.32-.75 1.19-1.1 1.95-.78l7.68 3.27c.76.32 1.11 1.19.79 1.95-.13.28.09-.22-.03.07z" id="g"/><path d="M-104.86 71.27c.52-.64 1.45-.74 2.09-.22 1.54 1.23 4.98 3.99 6.51 5.22.64.51.75 1.45.23 2.09-.19.24.15-.18-.04.06-.52.64-1.45.74-2.09.23-1.54-1.23-4.98-4-6.51-5.23-.64-.51-.75-1.45-.23-2.09.19-.24-.15.19.04-.06z" id="h"/><path d="M-108.16 97.45c-.24.78-1.07 1.22-1.85.98l-7.98-2.46a1.473 1.473 0 01-.98-1.86c.09-.3-.07.23.02-.07.24-.79 1.07-1.23 1.86-.98 1.88.58 6.09 1.88 7.97 2.45.79.25 1.23 1.08.99 1.86-.09.3.07-.22-.03.08z" id="i"/><path d="M-117.81 122.31c-.32-.76.03-1.63.79-1.95 1.81-.77 5.87-2.49 7.68-3.26.76-.32 1.63.04 1.95.79.12.29-.09-.22.03.07.32.76-.03 1.63-.79 1.95-1.81.77-5.87 2.49-7.68 3.26-.76.32-1.63-.03-1.95-.79-.12-.29.09.22-.03-.07z" id="j"/><path d="M166.36 125.17V96.54c0-9.08 4.17 12.08 12.5 63.5l10.5-67v54.5h-23v-22.37z" id="k"/><path d="M215.86 202.04h17v41.5h-17v-41.5z" id="l"/><path d="M-43.13 109.96c.82.16.78 1.35-.05 1.45l-29.73 3.53c-2.43.29-4.5-1.76-4.23-4.2.18-1.6.19-1.67.37-3.28.28-2.53 2.71-4.25 5.18-3.67 3.55.83 9.53 2.24 13.07 3.07l9.37 1.97c2.14.4 3.88.73 6.02 1.13z" id="m"/><path d="M-63.36 108.77c0 4.26-3.45 7.71-7.71 7.71-4.25 0-7.7-3.45-7.7-7.71 0-4.25 3.45-7.7 7.7-7.7 4.26 0 7.71 3.45 7.71 7.7z" id="n"/><path d="M43.28-63.92c0 25.72-21.03 46.6-46.93 46.6s-46.93-20.88-46.93-46.6c0-25.72 21.03-46.6 46.93-46.6s46.93 20.88 46.93 46.6z" id="o"/><path d="M-2.03-110.52c.82 0 1.48.67 1.48 1.49v8.35c0 .82-.66 1.48-1.48 1.48h-.13c-.82 0-1.49-.66-1.49-1.48v-8.35c0-.82.67-1.49 1.49-1.49h.13z" id="p"/><path d="M29.53-96.18c.51.64.41 1.57-.23 2.08l-6.51 5.23c-.64.51-1.58.41-2.09-.23-.2-.26.12.15-.08-.1-.52-.64-.41-1.58.23-2.09l6.51-5.23a1.49 1.49 0 012.09.23c.2.26-.12-.15.08.11z" id="q"/><path d="M41.65-75.97c.34.76 0 1.67-.77 2.01-2.03.91-6.73 3.02-8.76 3.94-.76.34-1.67 0-2.01-.77-.13-.28.12.28 0 0-.35-.77 0-1.67.76-2.02l8.76-3.93c.77-.35 1.67 0 2.02.77.12.27-.13-.28 0 0z" id="r"/><path d="M40.1-45.88c-.4.72-1.3.98-2.02.58-1.72-.96-5.57-3.11-7.29-4.06-.72-.4-.98-1.31-.58-2.03.16-.27-.11.21.04-.06.4-.72 1.3-.98 2.02-.58 1.72.96 5.58 3.11 7.29 4.07.72.4.98 1.3.58 2.02-.15.27.11-.21-.04.06z" id="s"/><path d="M-35.45-98.64a1.49 1.49 0 012.09-.23c1.53 1.23 4.97 3.99 6.51 5.23.64.51.74 1.45.23 2.09-.21.25.12-.16-.09.1-.51.64-1.44.74-2.08.23-1.54-1.24-4.98-4-6.52-5.23a1.48 1.48 0 01-.22-2.09c.2-.25-.13.15.08-.1z" id="t"/><path d="M-37.29-72.07c-.25.8-1.1 1.25-1.91 1-2.12-.65-7.05-2.17-9.17-2.82-.81-.25-1.26-1.1-1.01-1.91.09-.29-.09.29 0 0 .25-.8 1.1-1.25 1.9-1.01 2.13.66 7.05 2.18 9.18 2.83.81.25 1.26 1.1 1.01 1.91-.09.29.09-.29 0 0z" id="u"/><path d="M-48.22-47.53c-.32-.77.04-1.67.81-2 2.05-.87 6.8-2.88 8.84-3.74.78-.33 1.67.03 2 .81.12.28-.12-.29 0 0 .33.77-.03 1.66-.81 1.99l-8.84 3.75c-.77.33-1.67-.03-2-.81-.11-.28.12.28 0 0z" id="v"/><path d="M26.45-59.91c.83.15.79 1.35-.05 1.44-6.89.82-22.83 2.72-29.73 3.53-2.43.29-4.49-1.76-4.23-4.19.18-1.61.19-1.68.37-3.29.28-2.53 2.71-4.24 5.19-3.66 3.54.83 9.52 2.23 13.07 3.06l9.36 1.98c2.15.4 3.88.73 6.02 1.13z" id="w"/><path d="M6.22-61.1c0 4.25-3.45 7.71-7.7 7.71-4.26 0-7.71-3.46-7.71-7.71s3.45-7.71 7.71-7.71c4.25 0 7.7 3.46 7.7 7.71z" id="x"/><path d="M-37.31 107.08c0 19.68-16.1 35.66-35.92 35.66s-35.92-15.98-35.92-35.66c0-19.69 16.1-35.66 35.92-35.66s35.92 15.97 35.92 35.66z" id="y"/><path d="M149.23 286.16l9.63-33.29 15.25 9.16 15.25 9.17-24.88 24.13-24.88 24.13 9.63-33.3z" id="z"/><path d="M184.41 319.46c0 25.72-21.03 46.6-46.93 46.6s-46.94-20.88-46.94-46.6c0-25.72 21.04-46.6 46.94-46.6s46.93 20.88 46.93 46.6z" id="A"/><path d="M-88.02-78.77h-54.91V8.79h85.7v-50.04h5.26v54.73h-96.15v-97.29h60.1v5.04zm-2.36 50.96l-13.92 14.1-25.8-26.11 13.92-14.09 11.87 12.01 32.4-32.79 13.93 14.09-32.4 32.79z" id="B"/><path d="M-29.73 263.87l-11.49 9.97-21.3-18.47 3.76-4.24 17.53 15.38 37.06-32.43 3.66 4.45-29.22 25.34z" id="C"/><path d="M-87.08 228.84h-.01l-.03-20.13 60.15-.59v4.71l-54.69 1.61.33 89.48-5.42 1.85-.33-76.93z" id="D"/><path d="M9.59 285.64l-.09 20.13h-95.38l1.8-4.7L4.07 300l1.07-38.58h4.45v24.22z" id="E"/><path d="M161.11-76.22l.4.04.4.06.39.07.39.09.38.1.37.12.37.14.36.14.36.16.34.18.34.19.34.2.32.21.31.23.31.24.29.25.29.26.27.27.27.28.26.29.24.3.23.32.22.32.21.33.2.34.18.34.17.36.16.36.15.37.13.37.11.39.11.39.08.39.08.4.05.41.04.41.03.42.01.42-.01.42-.03.41-.04.42-.05.41-.08.41-.08.41-.11.4-.11.41-.13.4-.15.41-.16.41-.17.4-.18.41-.2.42-.21.41-.22.42-.23.42-.24.42-.26.43-.27.44-.27.44-.29.45-.29.45-.31.46-.31.47-.32.47-.34.49-.34.49-.34.5-.36.51-.36.52-.37.54-.37.54-.38.56-.39.57-.39.58-.4.59-.4.61-.41.62-.41.64-.41-.64-.41-.62-.4-.61-.4-.59-.39-.58-.39-.57-.38-.56-.37-.54-.37-.54-.36-.52-.36-.51-.35-.5-.33-.49-.34-.49-.32-.47-.31-.47-.31-.46-.29-.45-.29-.45-.28-.44-.26-.44-.26-.43-.24-.42-.23-.42-.22-.42-.21-.41-.2-.42-.18-.41-.18-.4-.15-.41-.15-.41-.13-.4-.12-.41-.1-.4-.08-.41-.08-.41-.05-.41-.04-.42-.03-.41-.01-.42.01-.42.03-.42.04-.41.05-.41.08-.4.08-.39.1-.39.12-.39.13-.37.15-.37.15-.36.18-.36.18-.34.2-.34.21-.33.22-.32.23-.32.24-.3.26-.29.26-.28.28-.27.29-.26.29-.25.31-.24.31-.23.32-.21.34-.2.33-.19.35-.18.36-.16.36-.14.37-.14.37-.12.38-.1.39-.09.39-.07.4-.06.4-.04.41-.03.41-.01.41.01.41.03zm-1.21 4.81l-.19.02-.19.02-.18.04-.19.04-.18.05-.17.06-.18.06-.17.07-.17.08-.16.08-.16.09-.16.09-.15.11-.15.1-.15.12-.14.11-.13.13-.13.13-.13.13-.12.14-.11.14-.11.15-.11.15-.1.16-.09.16-.09.16-.08.17-.08.17-.06.18-.07.17-.05.19-.05.18-.04.19-.03.19-.03.19-.02.19-.01.2-.01.2.01.2.01.2.02.19.03.19.03.19.04.19.05.19.05.18.07.17.06.18.08.17.08.17.09.16.09.16.1.16.11.15.11.15.11.14.12.14.13.13.13.13.13.13.14.12.15.11.15.1.15.11.16.09.16.09.16.08.17.08.17.07.18.06.17.06.18.05.19.04.18.04.19.02.19.02.19.02h.39l.2-.02.19-.02.19-.02.18-.04.19-.04.18-.05.17-.06.18-.06.17-.07.17-.08.16-.08.16-.09.16-.09.15-.11.15-.1.15-.11.14-.12.13-.13.13-.13.13-.13.12-.14.11-.14.11-.15.11-.15.1-.16.09-.16.09-.16.08-.17.07-.17.07-.18.06-.17.06-.18.05-.19.04-.19.03-.19.03-.19.02-.19.01-.2.01-.2-.01-.2-.01-.2-.02-.19-.03-.19-.03-.19-.04-.19-.05-.18-.06-.19-.06-.17-.07-.18-.07-.17-.08-.17-.09-.16-.09-.16-.1-.16-.11-.15-.11-.15-.11-.14-.12-.14-.13-.13-.13-.13-.13-.13-.14-.11-.15-.12-.15-.1-.15-.11-.16-.09-.16-.09-.16-.08-.17-.08-.17-.07-.18-.06-.17-.06-.18-.05-.19-.04-.18-.04-.19-.02-.19-.02-.2-.01-.19-.01-.2.01-.19.01z" id="F"/><path d="M165.84-107.01c-.14 17.12-14.16 30.9-31.27 30.75-17.12-.14-30.89-14.16-30.75-31.27.15-17.12 14.16-30.89 31.27-30.75 17.12.15 30.9 14.16 30.75 31.27z" id="G"/><path d="M114.87-83.04c.53.32 2.8 2.19 3.2 2.64 2.06 2.33 4.31-.54 2.17 2.35-17.81 24.02-25.97 35.03-24.48 33.02a3.75 3.75 0 01-5.24.78c-1.81-1.34-4.22-3.13-6.02-4.47-1.65-1.21-1.94-3.55-.66-5.14 5.41-6.68 20.67-25.54 26.43-32.65.32-.4.92-.4 1.25-.01 1.57 1.92 2.69 3.07 3.35 3.48z" id="H"/><path d="M153.84-107.11c-.09 10.49-8.68 18.94-19.17 18.85-10.49-.09-18.94-8.68-18.85-19.17.09-10.49 8.68-18.94 19.17-18.85 10.49.09 18.94 8.68 18.85 19.17z" id="I"/><path d="M342.75 61.14l.51.05.49.07.5.09.48.11.48.13.47.15.46.17.45.19.45.2.43.22.43.23.41.26.4.26.4.29.38.29.37.32.36.32.34.34.34.36.32.36.3.38.29.39.28.4.26.42.25.42.23.44.22.44.19.45.18.47.17.47.14.48.13.49.11.49.09.5.07.51.05.52.04.52.01.53-.01.52-.04.52-.05.52-.07.52-.09.51-.11.51-.13.51-.14.51-.17.51-.18.51-.19.5-.22.52-.23.51-.25.51-.26.52-.28.53-.29.52-.3.54-.32.54-.34.54-.34.55-.36.56-.37.57-.38.58-.4.58-.4.6-.41.6-.43.62-.43.63-.45.64-.45.66-.46.66-.47.69-.48.69-.48.71-.5.73-.49.75-.51.76-.51.78-.51.79-.52-.79-.51-.78-.5-.76-.5-.75-.49-.73-.49-.71-.48-.69-.47-.69-.46-.66-.45-.66-.44-.64-.44-.63-.42-.62-.42-.6-.4-.6-.4-.58-.38-.58-.37-.57-.36-.56-.34-.55-.34-.54-.32-.54-.3-.54-.29-.52-.28-.53-.26-.52-.25-.51-.23-.51-.21-.52-.2-.5-.18-.51-.17-.51-.14-.51-.13-.51-.11-.51-.09-.51-.07-.52-.05-.52-.03-.52-.01-.52.01-.53.03-.52.05-.52.07-.51.09-.5.11-.49.13-.49.14-.48.17-.47.18-.47.2-.45.21-.44.23-.44.25-.42.26-.42.28-.4.29-.39.3-.38.32-.36.34-.36.34-.34.36-.32.37-.32.38-.29.4-.29.4-.26.42-.26.42-.23.44-.22.44-.2.45-.19.46-.17.47-.15.48-.13.49-.11.49-.09.5-.07.5-.05.51-.04.52-.01.51.01.51.04zm-1.51 6.02l-.24.03-.23.03-.24.05-.23.05-.22.06-.23.07-.21.08-.22.09-.21.09-.21.11-.2.11-.19.12-.19.13-.19.13-.18.14-.18.15-.17.15-.16.16-.16.17-.15.18-.14.17-.14.19-.13.19-.13.2-.11.2-.11.2-.11.21-.09.22-.09.22-.07.22-.07.23-.06.23-.05.23-.05.24-.03.24-.03.25-.01.24-.01.25.01.25.01.25.03.24.03.24.05.24.05.24.06.23.07.23.07.22.09.22.09.21.11.21.11.21.11.2.13.2.13.19.14.18.14.18.15.17.16.17.16.16.17.16.18.14.18.15.19.13.19.13.19.12.2.11.21.1.21.1.22.09.21.07.23.08.22.06.23.05.24.04.23.04.24.02.24.02h.49l.24-.02.24-.02.24-.04.23-.04.23-.05.22-.06.23-.08.22-.07.21-.09.21-.1.21-.1.2-.11.19-.12.2-.13.18-.13.18-.15.18-.14.17-.16.16-.16.16-.17.15-.17.15-.18.13-.18.14-.19.12-.2.12-.2.11-.21.1-.21.09-.21.09-.22.08-.22.06-.23.06-.23.06-.24.04-.24.03-.24.03-.24.01-.25.01-.25-.01-.25-.01-.24-.03-.25-.03-.24-.04-.24-.06-.23-.06-.23-.06-.23-.08-.22-.09-.22-.09-.22-.1-.21-.11-.2-.12-.2-.12-.2-.14-.19-.13-.19-.15-.17-.15-.18-.16-.17-.16-.16-.17-.15-.18-.15-.18-.14-.18-.13-.2-.13-.19-.12-.2-.11-.21-.11-.21-.09-.21-.09-.22-.08-.23-.07-.22-.06-.23-.05-.23-.05-.24-.03-.24-.03-.24-.01-.24-.01-.25.01-.24.01z" id="J"/><path d="M311.7 59.38l.26.03.26.03.26.05.26.06.25.07.25.08.24.09.24.09.23.11.23.12.23.12.22.13.21.14.21.15.2.16.19.17.19.17.18.18.18.18.17.2.16.19.15.21.15.21.14.22.13.22.12.23.11.24.1.24.1.24.09.25.07.25.07.26.06.26.05.26.03.27.03.27.02.28v.55l-.02.28-.03.27-.03.27-.05.27-.06.27-.07.27-.07.27-.09.26-.1.27-.1.27-.11.27-.12.27-.13.27-.14.28-.15.27-.15.28-.16.28-.17.28-.18.29-.18.29-.19.3-.19.3-.2.3-.21.31-.21.31-.22.32-.23.33-.23.33-.23.34-.24.34-.24.35-.25.36-.25.37-.26.37-.26.39-.26.39-.26.4-.27.41-.27.42-.27-.42-.27-.41-.27-.4-.26-.39-.26-.39-.26-.37-.25-.37-.24-.36-.25-.35-.24-.34-.23-.34-.23-.33-.22-.33-.22-.32-.22-.31-.2-.31-.2-.3-.2-.3-.19-.3-.18-.29-.18-.29-.16-.28-.16-.28-.16-.28-.14-.27-.14-.28-.13-.27-.12-.27-.12-.27-.1-.27-.1-.27-.08-.26-.08-.27-.07-.27-.06-.27-.04-.27-.04-.27-.03-.27-.01-.28-.01-.28.01-.27.01-.28.03-.27.04-.27.04-.26.06-.26.07-.26.08-.25.08-.25.1-.24.1-.24.12-.24.12-.23.13-.22.14-.22.14-.21.16-.21.16-.19.16-.2.18-.18.18-.18.19-.17.2-.17.2-.16.2-.15.22-.14.22-.13.22-.12.23-.12.23-.11.24-.09.25-.09.24-.08.25-.07.26-.06.26-.05.26-.03.27-.03.27-.02h.54l.27.02zm-.8 3.17l-.12.02-.13.01-.12.03-.12.03-.12.03-.12.04-.11.04-.12.04-.11.05-.11.06-.1.06-.11.06-.1.07-.1.07-.09.07-.09.08-.09.08-.09.09-.08.08-.08.1-.08.09-.07.1-.07.1-.07.1-.06.11-.05.11-.06.11-.05.11-.04.12-.04.11-.04.12-.03.12-.03.13-.02.12-.02.13-.01.13-.01.13v.26l.01.13.01.13.02.13.02.12.03.13.03.12.04.12.04.12.04.11.05.11.06.12.05.1.06.11.07.1.07.1.07.1.08.09.08.1.08.08.09.09.09.08.09.08.09.07.1.07.1.07.11.06.1.06.11.06.11.05.12.04.11.05.12.03.12.04.12.02.12.03.13.01.12.02.13.01h.26l.12-.01.13-.02.12-.01.13-.03.12-.02.12-.04.11-.03.12-.05.11-.04.11-.05.11-.06.11-.06.1-.06.1-.07.1-.07.09-.07.1-.08.09-.08.08-.09.09-.08.08-.1.07-.09.07-.1.07-.1.07-.1.06-.11.06-.1.05-.12.05-.11.05-.11.04-.12.03-.12.04-.12.02-.13.03-.12.01-.13.02-.13v-.13l.01-.13-.01-.13v-.13l-.02-.13-.01-.13-.03-.12-.02-.13-.04-.12-.03-.12-.04-.11-.05-.12-.05-.11-.05-.11-.06-.11-.06-.11-.07-.1-.07-.1-.07-.1-.07-.09-.08-.1-.09-.08-.08-.09-.09-.08-.1-.08-.09-.07-.1-.07-.1-.07-.1-.06-.11-.06-.11-.06-.11-.05-.11-.04-.12-.04-.11-.04-.12-.03-.12-.03-.13-.03-.12-.01-.13-.02h-.12l-.13-.01-.13.01h-.13z" id="K"/><path d="M331.47 30.1c-.11 13.04-10.79 23.54-23.83 23.43-13.05-.11-23.55-10.79-23.43-23.83.11-13.05 10.79-23.55 23.83-23.44 13.04.12 23.54 10.79 23.43 23.84z" id="L"/><path d="M292.63 48.36c.4.25 2.13 1.67 2.43 2.01 1.57 1.78 3.29-.41 1.66 1.79-13.57 18.31-19.79 26.7-18.66 25.17a2.855 2.855 0 01-3.99.59c-1.38-1.02-3.21-2.38-4.59-3.4a2.738 2.738 0 01-.5-3.92c4.12-5.1 15.75-19.46 20.14-24.88.24-.31.7-.31.95-.01 1.2 1.46 2.05 2.34 2.56 2.65z" id="M"/><path d="M322.32 30.02c-.06 7.99-6.61 14.43-14.61 14.36-7.99-.06-14.43-6.61-14.36-14.61.07-7.99 6.61-14.43 14.61-14.36 8 .07 14.43 6.61 14.36 14.61z" id="N"/><path d="M315.67 94.27l.98-2.87 21.73 7.39-.97 2.86-21.74-7.38z" id="O"/><path d="M319.13 93.57l-2.86-1.2 3.32-7.91 2.86 1.2-3.32 7.91z" id="P"/><path d="M323.06 84.78l-1.27 2.77-10.29-4.72 1.27-2.78 10.29 4.73z" id="Q"/><path d="M192.47 80.01h14.22v3.55h-35.55v-3.55h14.22V36.27L144.97-4.07h87.89l-40.39 40.34v43.74zM153.36-6.98v-3.55h71.11v3.55h-71.11z" id="R"/><path d="M177.51 19.87L166.23 8h45.13l-11.28 11.87-11.28 11.88-11.29-11.88z" id="S"/><path d="M-268.82 41.29l.15.01.15.02.14.02.15.03.14.03.14.03.13.04.14.04.13.05.13.05.12.06.13.06.11.06.12.07.11.07.11.07.11.08.1.08.1.08.09.09.09.09.09.09.08.09.08.1.07.1.07.1.06.11.06.1.06.11.05.11.04.11.04.12.03.12.03.11.02.12.01.12.01.13v5.04h8.62v-4.92l.01-.12v-.13l.02-.12.02-.12.03-.11.03-.12.04-.12.04-.11.05-.11.05-.11.06-.1.07-.11.06-.1.08-.1.07-.1.09-.09.08-.09.09-.09.1-.09.1-.08.1-.08.1-.08.11-.07.12-.07.11-.07.12-.06.12-.06.13-.06.13-.05.13-.05.13-.04.14-.04.14-.03.14-.03.14-.03.15-.02.14-.02.15-.01.15-.01h.31l.15.01.15.01.15.02.14.02.14.03.14.03.14.03.14.04.13.04.13.05.13.05.13.06.12.06.12.06.12.07.11.07.11.07.11.08.1.08.1.08.09.09.09.09.09.09.08.09.08.1.07.1.07.1.06.11.06.1.05.11.05.11.04.11.04.12.04.12.02.11.02.12.02.12.01.13v5.04h8.62v-5.04l.01-.13.02-.12.02-.12.02-.11.04-.12.03-.12.05-.11.05-.11.05-.11.06-.1.06-.11.07-.1.07-.1.08-.1.08-.09.09-.09.09-.09.09-.09.1-.08.1-.08.11-.08.11-.07.11-.07.12-.07.12-.06.12-.06.13-.06.12-.05.14-.05.13-.04.14-.04.13-.03.15-.03.14-.03.14-.02.15-.02.15-.01.15-.01h.3l.16.01.14.01.15.02.15.02.14.03.14.03.14.03.14.04.13.04.13.05.13.05.13.06.12.06.12.06.11.07.12.07.11.07.1.08.1.08.1.08.1.09.09.09.08.09.09.09.07.1.08.1.06.1.07.11.06.1.05.11.05.11.04.11.04.12.03.12.03.11.02.12.01.12.01.13.01.12v4.92h19.7v87.08h-76.47c-1.29 0-2.33-1.05-2.33-2.34V49.2h19.7v-5.04l.01-.13.01-.12.02-.12.03-.11.03-.12.04-.12.04-.11.05-.11.06-.11.06-.1.06-.11.07-.1.07-.1.08-.1.08-.09.09-.09.09-.09.09-.09.1-.08.1-.08.11-.08.11-.07.11-.07.12-.07.12-.06.12-.06.12-.06.13-.05.13-.05.14-.04.13-.04.14-.03.14-.03.15-.03.14-.02.15-.02.15-.01.15-.01h.3l.15.01zm-16.31 85.98h64.03V58.21h-12.31v4.09l-.01.12-.01.12-.01.12-.02.12-.03.12-.03.12-.04.11-.04.11-.05.12-.05.1-.06.11-.07.1-.06.11-.08.1-.07.09-.09.1-.08.09-.09.09-.1.09-.1.08-.1.08-.1.07-.11.08-.12.07-.11.07-.12.06-.12.06-.13.05-.13.05-.13.05-.13.05-.14.03-.14.04-.14.03-.14.03-.15.02-.15.02-.14.01-.16.01h-.3l-.15-.01-.15-.01-.15-.02-.14-.02-.14-.03-.15-.03-.13-.04-.14-.03-.13-.05-.14-.05-.12-.05-.13-.05-.12-.06-.12-.06-.12-.07-.11-.07-.11-.08-.11-.07-.1-.08-.1-.08-.09-.09-.09-.09-.09-.09-.08-.1-.08-.09-.07-.1-.07-.11-.06-.1-.06-.11-.05-.1-.05-.12-.05-.11-.03-.11-.04-.12-.02-.12-.02-.12-.02-.12-.01-.12v-4.21h-8.62v4.21l-.01.12-.02.12-.02.12-.02.12-.04.12-.04.11-.04.11-.05.12-.05.1-.06.11-.06.1-.07.11-.07.1-.08.09-.08.1-.09.09-.09.09-.09.09-.1.08-.1.08-.11.07-.11.08-.11.07-.12.07-.12.06-.12.06-.13.05-.13.05-.13.05-.13.05-.14.03-.14.04-.14.03-.14.03-.14.02-.15.02-.15.01-.15.01h-.31l-.15-.01-.15-.01-.14-.02-.15-.02-.14-.03-.14-.03-.14-.04-.14-.03-.13-.05-.13-.05-.13-.05-.13-.05-.12-.06-.12-.06-.11-.07-.12-.07-.11-.08-.1-.07-.1-.08-.1-.08-.1-.09-.09-.09-.08-.09-.09-.1-.07-.09-.08-.1-.06-.11-.07-.1-.06-.11-.05-.1-.05-.12-.04-.11-.04-.11-.03-.12-.03-.12-.02-.12-.02-.12v-.12l-.01-.12v-4.09h-8.62v4.21l-.01.12-.01.12-.02.12-.03.12-.03.12-.04.11-.04.11-.05.12-.06.1-.06.11-.06.1-.07.11-.07.1-.08.09-.08.1-.09.09-.09.09-.09.09-.1.08-.1.08-.11.07-.11.08-.11.07-.12.07-.11.06-.13.06-.12.05-.13.05-.13.05-.14.05-.13.03-.14.04-.14.03-.15.03-.14.02-.15.02-.15.01-.15.01h-.3l-.15-.01-.15-.01-.15-.02-.14-.02-.15-.03-.14-.03-.14-.04-.13-.03-.14-.05-.13-.05-.13-.05-.12-.05-.12-.06-.12-.06-.12-.07-.11-.07-.11-.08-.11-.07-.1-.08-.1-.08-.09-.09-.09-.09-.09-.09-.08-.1-.08-.09-.07-.1-.07-.11-.06-.1-.06-.11-.06-.1-.05-.12-.04-.11-.04-.11-.03-.12-.03-.12-.02-.12-.01-.12-.01-.12v-4.21h-12.32v69.06zm44.33-7.93v-11.57h9.49v11.57h-9.49zm-34.48 0v-11.57h9.5v11.57h-9.5zm17.6 0v-11.57h9.49v11.57h-9.49zm0-18.45V89.32h9.49v11.57h-9.49zm-17.6 0V89.32h9.5v11.57h-9.5zm34.48 0V89.32h9.49v11.57h-9.49zm-16.88-18.01V71.3h9.49v11.58h-9.49zm-17.6 0V71.3h9.5v11.58h-9.5zm34.48 0V71.3h9.49v11.58h-9.49z" id="T"/><path d="M96.93 50c0 25.72-21.03 46.6-46.93 46.6S3.07 75.72 3.07 50C3.07 24.28 24.1 3.4 50 3.4S96.93 24.28 96.93 50z" id="U"/><path d="M51.62 3.4c.82 0 1.48.67 1.48 1.49v8.35c0 .82-.66 1.48-1.48 1.48h-.13c-.82 0-1.49-.66-1.49-1.48V4.89c0-.82.67-1.49 1.49-1.49h.13z" id="V"/><path d="M84.14 17.4c.51.64.41 1.58-.23 2.09-1.53 1.23-4.98 3.99-6.51 5.22-.64.52-1.58.41-2.09-.23-.2-.24.15.19-.05-.06-.51-.64-.41-1.57.23-2.09 1.53-1.23 4.98-3.99 6.51-5.22a1.49 1.49 0 012.09.23c.2.25-.14-.18.05.06z" id="W"/><path d="M95.31 38.01c.34.75.01 1.63-.74 1.97-1.8.81-5.82 2.61-7.62 3.42-.75.34-1.63 0-1.96-.75-.13-.28.09.22-.04-.07-.33-.74 0-1.62.75-1.96 1.8-.81 5.82-2.62 7.62-3.42.75-.34 1.63 0 1.96.75.13.28-.09-.22.03.06z" id="X"/><path d="M94.19 67c-.32.76-1.2 1.11-1.95.79l-7.68-3.27c-.76-.32-1.11-1.2-.79-1.95.12-.29-.09.22.03-.07.32-.76 1.2-1.11 1.95-.79l7.68 3.27c.76.32 1.11 1.2.79 1.95-.12.29.09-.22-.03.07z" id="Y"/><path d="M18.38 15.32a1.49 1.49 0 012.09-.23c1.53 1.23 4.97 4 6.51 5.23.64.51.74 1.45.22 2.09-.19.24.15-.19-.04.06-.52.64-1.45.74-2.09.22-1.54-1.23-4.98-3.99-6.51-5.22-.64-.51-.75-1.45-.23-2.09.19-.24-.15.18.05-.06z" id="Z"/><path d="M15.08 41.49c-.25.79-1.08 1.23-1.86.98-1.88-.58-6.1-1.88-7.98-2.45a1.497 1.497 0 01-.98-1.86c.09-.3-.07.22.02-.08.24-.78 1.07-1.22 1.86-.98l7.98 2.46c.78.24 1.22 1.07.98 1.86-.09.3.07-.23-.02.07z" id="aa"/><path d="M5.42 66.36c-.32-.76.03-1.63.79-1.95 1.81-.77 5.87-2.49 7.68-3.26.76-.32 1.63.03 1.95.79.12.29-.09-.22.03.07.32.75-.03 1.63-.79 1.95-1.81.76-5.87 2.49-7.68 3.25-.76.32-1.63-.03-1.95-.78-.12-.29.09.21-.03-.07z" id="ab"/><path d="M80.1 54.01c.83.15.79 1.35-.05 1.44-6.89.82-22.83 2.72-29.73 3.53-2.43.29-4.5-1.76-4.23-4.19.18-1.61.19-1.68.37-3.29.28-2.53 2.71-4.24 5.19-3.66 3.54.83 9.52 2.23 13.07 3.06l9.36 1.98c2.15.4 3.88.73 6.02 1.13z" id="ac"/><path d="M59.87 52.82c0 4.25-3.45 7.7-7.7 7.7-4.26 0-7.71-3.45-7.71-7.7s3.45-7.71 7.71-7.71c4.25 0 7.7 3.46 7.7 7.71z" id="ad"/><path d="M87 51.07c0 19.68-16.09 35.66-35.92 35.66-19.82 0-35.91-15.98-35.91-35.66 0-19.68 16.09-35.66 35.91-35.66C70.91 15.41 87 31.39 87 51.07z" id="ae"/></defs><use xlink:href="#a" fill-opacity="0" stroke="#000" stroke-width="4"/><use xlink:href="#b"/><use xlink:href="#c"/><use xlink:href="#d"/><use xlink:href="#e"/><use xlink:href="#e" fill-opacity="0" stroke="#060304" stroke-width="0"/><use xlink:href="#f"/><use xlink:href="#g"/><use xlink:href="#g" fill-opacity="0" stroke="#060304" stroke-width="0"/><use xlink:href="#h"/><use xlink:href="#i"/><use xlink:href="#j"/><use xlink:href="#k"/><use xlink:href="#l"/><use xlink:href="#m" fill="#fd425a"/><use xlink:href="#m" fill-opacity="0" stroke="#060304"/><use xlink:href="#n"/><use xlink:href="#o" fill-opacity="0" stroke="#000" stroke-width="4"/><use xlink:href="#p"/><use xlink:href="#q"/><use xlink:href="#q" fill-opacity="0" stroke="#060304" stroke-width="0"/><use xlink:href="#r"/><use xlink:href="#s"/><use xlink:href="#s" fill-opacity="0" stroke="#060304" stroke-width="0"/><use xlink:href="#t"/><use xlink:href="#u"/><use xlink:href="#v"/><use xlink:href="#w"/><use xlink:href="#w" fill-opacity="0" stroke="#060304"/><use xlink:href="#x"/><use xlink:href="#y" fill-opacity="0" stroke="#000" stroke-width="4"/><use xlink:href="#z" fill-opacity="0" stroke="#060304" stroke-width="4"/><use xlink:href="#A" fill-opacity="0" stroke="#000" stroke-width="4"/><use xlink:href="#B"/><use xlink:href="#B" fill-opacity="0" stroke="#060304" stroke-width="0"/><use xlink:href="#C" fill="#fd425a"/><use xlink:href="#C" fill-opacity="0" stroke="#060304" stroke-width="0"/><use xlink:href="#D"/><use xlink:href="#D" fill-opacity="0" stroke="#060304" stroke-width="0"/><use xlink:href="#E"/><use xlink:href="#E" fill-opacity="0" stroke="#060304" stroke-width="0"/><use xlink:href="#F" fill="#fd425a"/><use xlink:href="#F" fill-opacity="0" stroke="#060304" stroke-width="3"/><use xlink:href="#G" fill-opacity="0" stroke="#060304" stroke-width="4"/><use xlink:href="#H" fill-opacity="0" stroke="#060304" stroke-width="4"/><use xlink:href="#I" fill-opacity="0" stroke="#060304" stroke-width="4"/><use xlink:href="#J" fill-opacity="0" stroke="#060304" stroke-width="3"/><use xlink:href="#K" fill-opacity="0" stroke="#060304" stroke-width="2"/><use xlink:href="#L" fill-opacity="0" stroke="#060304" stroke-width="4"/><use xlink:href="#M" fill-opacity="0" stroke="#060304" stroke-width="4"/><use xlink:href="#N" fill-opacity="0" stroke="#060304" stroke-width="4"/><use xlink:href="#O"/><use xlink:href="#P"/><use xlink:href="#Q"/><use xlink:href="#R" fill-opacity="0" stroke="#060304" stroke-width="4"/><use xlink:href="#S" fill="#fd425a"/><use xlink:href="#T" fill-opacity="0" stroke="#060304" stroke-width="4"/><use xlink:href="#U" fill-opacity="0" stroke="#000" stroke-width="4"/><use xlink:href="#V"/><use xlink:href="#W"/><use xlink:href="#W" fill-opacity="0" stroke="#060304" stroke-width="0"/><use xlink:href="#X"/><use xlink:href="#Y"/><use xlink:href="#Y" fill-opacity="0" stroke="#060304" stroke-width="0"/><use xlink:href="#Z"/><use xlink:href="#aa"/><use xlink:href="#ab"/><use xlink:href="#ac" fill="#fd425a"/><use xlink:href="#ac" fill-opacity="0" stroke="#060304" stroke-width="0"/><use xlink:href="#ad"/><use xlink:href="#ae" fill-opacity="0" stroke="#000" stroke-width="4"/></svg>