<svg xmlns="http://www.w3.org/2000/svg" xmlns:xlink="http://www.w3.org/1999/xlink" viewBox="0 0 100 100" width="100" height="100"><defs><path d="M60.68-51.35c0 8.27-6.71 14.97-14.97 14.97-8.27 0-14.97-6.7-14.97-14.97 0-8.26 6.7-14.97 14.97-14.97 8.26 0 14.97 6.71 14.97 14.97z" id="a"/><path d="M155.18-84.45l11.14 4.76-13.48 31.51-11.14-4.76 13.48-31.51z" id="c"/><path d="M147.67-42.95l4.85-3.63-5.57-2.38-5.57-2.39.72 6.02.72 6.01 4.85-3.63z" id="d"/><path d="M161.95-82.34l-.01-.01h-.02l-.02-.01h-.01l-.01-.01-.02-.01-.01-.01-.01-.01-.02-.01-.01-.01-.01-.01-.01-.01-.01-.01-.01-.01-.01-.02-.01-.01-.01-.01-.01-.02v-.01l-.01-.02-.01-.02-.01-.01v-.02l-.01-.02-.01-.01v-.02l-.01-.02-.01-.02v-.02l-.01-.02v-.02l-.01-.02v-.02l-.01-.02v-.02l-.01-.02v-.03l-.01-.02-.22-1.36-.11-.05-.25-.11-.25-.13-.23-.14-.24-.14-.02-.01-1.34.53-.03.01-.02.01-.02.01h-.02l-.02.01-.02.01h-.03l-.02.01-.02.01h-.02l-.02.01h-.02l-.02.01h-.04l-.02.01h-.07l-.02.01h-.03l-.02-.01h-.05l-.01-.01h-.03l-.02-.01-.01-.01h-.02l-.01-.01-.01-.01-.02-.01-.01-.01-.01-.01-.01-.01-.01-.02-1.64-1.94-.01-.01-.01-.01-.01-.02-.01-.01-.01-.02v-.01l-.01-.02v-.01l-.01-.02v-.12l.01-.02v-.03l.01-.01.01-.02v-.02l.01-.01.01-.02.01-.02v-.01l.01-.02.01-.02.01-.02.01-.01.02-.02.01-.02.01-.01.01-.02.02-.02.01-.01.01-.02.02-.02.01-.01.87-1.1-.01-.03-.09-.24-.09-.25-.07-.25-.07-.25-.02-.12-1.37-.52-.02-.01h-.02l-.02-.01-.02-.01-.02-.01-.02-.01h-.02l-.02-.01-.02-.01-.02-.01-.02-.01-.02-.01-.02-.01-.01-.01-.02-.01-.02-.01-.01-.01-.02-.01-.01-.02-.01-.01-.02-.01-.01-.01-.01-.01-.01-.01-.01-.02-.01-.01-.01-.01-.01-.02-.01-.01-.01-.01v-.02l-.01-.01v-.02l-.01-.01v-.1l.29-2.44v-.03l.01-.01v-.02l.01-.01v-.02l.01-.01.01-.01.01-.01.01-.02.01-.01.01-.01.01-.01.01-.01.01-.01.02-.01.01-.01h.02l.01-.01.02-.01.01-.01h.02l.02-.01.01-.01h.02l.02-.01.02-.01h.02l.02-.01h.02l.02-.01h.02l.02-.01h.02l.02-.01h.05l.02-.01h.03l.02-.01 1.45-.18.05-.11.12-.23.13-.23.14-.22.15-.21.02-.02-.59-1.27-.01-.02-.01-.02-.01-.02-.01-.02-.01-.02-.01-.02-.01-.02v-.02l-.01-.02-.01-.02v-.01l-.01-.02v-.02l-.01-.02v-.02l-.01-.02v-.05l-.01-.02v-.05l.01-.01v-.05l.01-.01v-.02l.01-.01v-.02l.01-.01.01-.01.01-.02.01-.01.01-.01.01-.01.01-.01.01-.02.02-.01 2.04-1.5.02-.01.01-.01.02-.01h.01l.02-.01.01-.01h.03l.02-.01h.09l.02.01h.03l.02.01h.02l.01.01h.02l.02.01.02.01h.01l.02.01.02.01.02.01.02.01.01.01.02.01.02.01.02.01.02.01.02.01.02.01.02.02.02.01.02.01.02.01 1.18.84.02-.01.26-.09.27-.07.26-.07.27-.05.13-.02.53-1.28.01-.02.01-.02.01-.02.01-.02.01-.01.01-.02.01-.02.01-.02.01-.02.01-.02.01-.01.01-.02.01-.02.01-.01.01-.02.01-.01.01-.02.01-.01.01-.01.02-.02.01-.01.01-.01.01-.01.01-.01.02-.01.01-.01.01-.01.02-.01.01-.01h.01l.02-.01h.01l.02-.01h.05l.01-.01h.02l.02.01h.01l2.61.31h.04l.01.01h.02l.01.01h.02l.01.01.02.01.01.01h.02l.01.01.01.01.01.02.01.01.02.01.01.01.01.02.01.01.01.01v.02l.01.01.01.02.01.02.01.01v.02l.01.02.01.01v.02l.01.02.01.02v.02l.01.02v.02l.01.02v.04l.01.02v.04l.01.03.22 1.36.11.05.25.11.24.13.24.13.24.15.02.01 1.34-.53.02-.01h.02l.02-.01.02-.01.03-.01.02-.01h.02l.02-.01.02-.01h.02l.02-.01h.02l.02-.01h.04l.01-.01h.18l.02.01h.03l.02.01.01.01h.02l.01.01.02.01.01.01.01.01.02.01.01.01.01.01.01.01 1.64 1.95.01.01.01.01.01.02.01.01v.01l.01.02.01.01v.05l.01.01v.05l-.01.01v.05l-.01.01v.02l-.01.01-.01.02v.02l-.01.01-.01.02-.01.02-.01.01v.02l-.01.02-.01.01-.01.02-.02.02-.01.02-.01.01-.01.02-.01.02-.01.02-.02.02-.01.01-.01.02-.87 1.09.01.03.09.24.09.25.07.25.06.25.03.12 1.37.52.02.01.02.01h.02l.02.01.02.01.02.01.02.01.02.01.02.01.02.01.02.01.01.01.02.01.02.01.02.01.01.01.02.01.01.01.02.01.01.01.01.02.02.01.01.01.01.01.01.01.01.02.01.01.01.01.01.01v.02l.01.01.01.01v.02l.01.01v.1l-.29 2.43v.04l-.01.01v.02l-.01.01-.01.02v.01l-.01.01-.01.02-.01.01-.01.01-.01.01-.01.01-.01.01-.02.01-.01.01-.01.01-.02.01-.01.01-.02.01-.02.01h-.01l-.02.01-.02.01h-.01l-.02.01-.02.01h-.02l-.02.01h-.02l-.02.01h-.04l-.03.01h-.04l-.02.01h-.05l-.02.01-1.45.18-.05.11-.12.23-.13.23-.14.22-.15.21-.02.02.59 1.27.01.02.01.02.01.02.01.02v.02l.01.02.01.02v.02l.01.02.01.02v.02l.01.02v.02l.01.01v.02l.01.02v.05l.01.02v.08l-.01.02v.02l-.01.02v.01l-.01.02v.01l-.01.01-.01.02-.01.01-.01.01-.01.01-.01.01-.01.01-.02.01-2.05 1.51-.01.01-.01.01-.02.01h-.01l-.02.01-.01.01h-.04l-.01.01h-.12l-.01-.01h-.04l-.02-.01h-.01l-.02-.01h-.02l-.02-.01-.01-.01-.02-.01-.02-.01h-.02l-.02-.01-.02-.01-.01-.01-.02-.02-.02-.01-.02-.01-.02-.01-.02-.01-.01-.01-.02-.02-.02-.01-.02-.01-1.18-.84-.03.01-.25.09-.27.07-.27.07-.27.05-.12.02-.53 1.28-.01.02-.01.02v.02l-.01.02-.01.01-.01.02-.01.02-.01.02-.01.02-.01.02-.01.01-.01.02-.01.02-.01.01-.01.02-.01.01-.01.02-.01.01-.01.01-.02.02-.01.01-.01.01-.01.01-.02.01-.01.01-.01.01-.02.01-.01.01h-.02l-.01.01-.02.01h-.01l-.02.01h-.12l-2.6-.31h-.04zm2.2-4.39l.15.01.15-.01h.16l.15-.02.15-.02.15-.02.14-.03.15-.04.14-.04.14-.04.13-.05.14-.06.13-.06.13-.06.13-.07.12-.07.12-.08.11-.08.12-.09.11-.09.1-.09.1-.1.1-.1.1-.11.08-.11.09-.11.08-.12.07-.12.07-.12.07-.12.06-.13.05-.13.05-.14.05-.13.04-.14.03-.14.03-.15.02-.14.01-.15.01-.15v-.29l-.02-.14-.01-.14-.03-.14L168-91l-.04-.14-.04-.13-.04-.14-.05-.13-.06-.13-.06-.12-.07-.13-.07-.12-.07-.12-.08-.12-.09-.11-.09-.11-.09-.11-.1-.1-.1-.1-.11-.1-.11-.09-.11-.09-.12-.08-.12-.09-.13-.07-.13-.07-.13-.07-.13-.07-.14-.05-.14-.06-.15-.05-.14-.04-.15-.04-.15-.03-.16-.03-.15-.02-.16-.02h-.16l-.15-.01h-.16l-.15.01-.15.02-.15.01-.15.03-.14.03-.15.03-.14.04-.14.05-.14.05-.13.06-.13.06-.13.06-.13.07-.12.07-.12.08-.12.08-.11.09-.11.09-.1.09-.11.1-.09.1-.1.11-.09.11-.08.11-.08.12-.08.12-.07.12-.06.12-.06.13-.06.13-.05.14-.04.13-.04.14-.03.14-.03.15-.02.14-.01.15-.01.15v.29l.01.14.02.14.02.14.03.14.04.14.04.13.04.14.05.13.06.13.06.12.07.13.07.12.07.12.08.11.09.12.09.11.09.11.1.1.1.1.11.1.11.09.11.09.12.08.12.08.13.08.13.07.13.07.13.06.14.06.14.06.14.04.15.05.15.04.15.03.16.03.15.02.16.01.16.01z" id="e"/><path d="M183.22-7.33l11.14 4.76-24.2 56.59-11.14-4.77 24.2-56.58z" id="f"/><path d="M164.19 60.3l4.84-3.64-5.57-2.38-5.57-2.38.72 6.01.73 6.02 4.85-3.63z" id="g"/><path d="M198.98-18.11l.01.02.01.01.01.01.01.02.01.01v.02l.01.01v.02l.01.01v.06l.01.02-.01.02v.06l-.01.02v.03l-.01.02v.02l-.01.02v.02l-.01.02-.01.01v.02l-.01.02-.01.02-.01.02-.01.02v.02l-.01.02-.01.02-.01.02-.01.02-.64 1.22.06.11.13.24.12.25.11.25.1.25.01.03 1.4.38.02.01h.02l.02.01.03.01h.02l.02.01.02.01.02.01.02.01h.02l.02.01.02.01.01.01.02.01h.02l.02.01.01.01.02.01.02.01.01.01.02.01.01.01.01.01.02.01.01.01.01.02.01.01.01.01.01.01.01.01.01.02.01.01v.02l.01.01.01.01v.04l.01.01v.04l.15 2.53v.05l-.01.02v.03l-.01.02v.01l-.01.01-.01.02v.01l-.01.01-.01.02-.01.01-.01.01-.01.01-.01.01-.02.01-.01.01-.01.02-.02.01h-.01l-.02.01-.01.01-.02.01-.02.01-.01.01-.02.01h-.02l-.02.01-.01.01h-.02l-.02.01-.02.01h-.02l-.02.01-.02.01h-.03l-.02.01h-.02l-1.35.35-.01.03-.07.25-.08.25-.1.25-.1.24-.05.11.79 1.23.01.02.01.02.01.02.02.02.01.02.01.02.01.01.01.02.01.02.01.02.01.02.01.02v.02l.01.02.01.01.01.02v.02l.01.02v.02l.01.01v.05l.01.02v.07l-.01.01v.03l-.01.02v.01l-.01.02v.01l-.01.01-.01.02-.01.01-.01.01-.01.01-1.69 1.78-.02.01-.01.01-.01.01-.01.01-.02.01-.01.01h-.01l-.02.01h-.01l-.02.01h-.14l-.02-.01h-.03l-.02-.01h-.02l-.02-.01-.01-.01h-.02l-.02-.01-.02-.01-.02-.01h-.02l-.02-.01-.02-.01-.02-.01-.02-.01-.02-.01-.02-.01-.02-.01-.02-.01-.02-.01L195.9-7l-.11.06-.23.11-.25.11-.24.09-.25.08-.02.01-.29 1.37-.01.02v.04l-.01.02v.02l-.01.02v.02l-.01.02-.01.02v.02l-.01.02v.02l-.01.02-.01.01-.01.02v.02l-.01.01-.01.02-.01.01-.01.02-.01.01-.01.02-.01.01-.01.01-.01.01-.01.01-.01.01-.02.01-.01.01-.01.01-.02.01h-.01l-.01.01-.02.01h-.03l-.01.01h-.05l-2.55-.03h-.06l-.02-.01h-.01l-.02-.01h-.01l-.02-.01-.01-.01-.01-.01-.02-.01-.01-.01-.01-.01-.01-.01-.01-.01-.02-.01-.01-.02-.01-.01-.01-.01-.01-.02-.01-.01-.01-.02-.01-.02-.01-.01-.01-.02-.01-.02-.01-.02-.01-.01V-5l-.01-.02-.01-.02-.01-.02-.01-.02-.01-.02-.01-.02v-.02l-.01-.03-.01-.02-.01-.02-.44-1.37-.03-.01-.26-.09-.26-.1-.25-.11-.25-.12-.11-.05-1.19.7-.02.01-.02.01-.02.01-.02.01-.02.01h-.01l-.02.01-.02.01-.02.01-.02.01-.02.01h-.02l-.01.01-.02.01h-.02l-.02.01h-.02l-.01.01h-.04l-.01.01h-.13l-.02-.01h-.01l-.02-.01h-.01l-.01-.01-.02-.01h-.01l-.02-.01-.01-.01-.01-.01-.02-.02-1.9-1.81-.01-.01-.01-.01-.01-.02-.01-.01-.01-.02-.01-.01-.01-.01v-.02l-.01-.01-.01-.02v-.03l-.01-.02v-.13l.01-.02v-.03l.01-.02v-.02l.01-.02.01-.02v-.01l.01-.02.01-.02v-.02l.01-.02.01-.02.01-.02.01-.02.01-.01.01-.02.01-.02.01-.02.64-1.22-.06-.11-.13-.24-.12-.25-.11-.25-.1-.26-.01-.03-1.39-.38h-.02l-.02-.01h-.03l-.02-.01h-.02l-.02-.01-.02-.01h-.02l-.02-.01-.02-.01-.02-.01h-.02l-.02-.01-.02-.01-.01-.01-.02-.01-.02-.01-.01-.01-.02-.01-.01-.01-.02-.01-.01-.01-.02-.01-.01-.01-.01-.01-.01-.02-.01-.01-.02-.01v-.01l-.01-.02-.01-.01-.01-.02-.01-.01v-.02l-.01-.01v-.02l-.01-.01v-.05l-.15-2.54v-.07l.01-.01v-.03l.01-.01.01-.02v-.01l.01-.01.01-.02.01-.01.01-.01.01-.01.01-.01.01-.01.01-.01.02-.01.01-.01.01-.01.02-.01.01-.01.02-.01.02-.01.01-.01h.02l.02-.01.02-.01.01-.01h.02l.02-.01.02-.01.02-.01h.02l.02-.01.02-.01h.02l.02-.01.03-.01 1.35-.35v-.02l.07-.25.08-.25.1-.25.1-.24.05-.11-.79-1.23-.01-.02-.01-.02-.01-.02-.01-.02-.01-.02-.01-.02-.01-.02-.01-.02-.01-.02-.01-.02-.01-.02-.01-.02-.01-.02v-.01l-.01-.02-.01-.02v-.02l-.01-.02v-.01l-.01-.02V-18l-.01-.01v-.14l.01-.02v-.01l.01-.02v-.01l.01-.01.01-.02.01-.01.01-.01.01-.02 1.69-1.77.02-.01.01-.01.01-.01.01-.01.02-.01.01-.01h.02l.01-.01.01-.01h.03l.02-.01h.1l.02.01h.03l.02.01h.02l.02.01h.01l.02.01h.02l.02.01.02.01.02.01.02.01.02.01h.02l.01.01.02.01.02.02.02.01.02.01.02.01.02.01 1.27.73.11-.06.23-.11.25-.11.24-.09.25-.08.02-.01.29-1.37.01-.02v-.02l.01-.02.01-.02v-.02l.01-.02v-.02l.01-.02.01-.02v-.02l.01-.02.01-.02v-.02l.01-.01.01-.02.01-.02v-.01l.01-.02.01-.01.01-.02.01-.01.01-.02.01-.01.01-.01.01-.01.01-.01.01-.01.01-.01.01-.01.02-.01.01-.01h.01l.02-.01.01-.01h.03l.01-.01h.05l2.55.03h.06l.02.01h.01l.02.01h.01l.02.01.01.01.02.01.01.01.01.01.02.01.01.01.01.01.01.01.02.02.01.01.01.01.01.02.01.01.01.02.01.02.01.01.01.02.01.02.01.02.01.01.01.02v.02l.01.02.01.02.01.02.01.02v.02l.01.02.01.03v.02l.01.02.44 1.37.03.01.26.09.25.1.26.11.25.12.11.05 1.19-.7.02-.01.01-.01.02-.01.02-.01.02-.01.02-.01.02-.01.01-.01.02-.01.02-.01h.02l.02-.01.02-.01h.01l.02-.01.02-.01h.03l.02-.01h.04l.01-.01h.07l.02.01h.04l.02.01h.01l.02.01.01.01h.02l.01.01.02.01.01.01.01.01.02.02 1.9 1.81.01.01.01.01zm-4.38 2.19l-.13-.09-.12-.09-.13-.09-.13-.08-.13-.07-.13-.07-.14-.07-.13-.05-.14-.06-.14-.05-.14-.04-.14-.03-.14-.04-.14-.02-.14-.02-.15-.02-.14-.01h-.28l-.15.01-.14.01-.14.02-.14.02-.13.03-.14.03-.14.04-.13.05-.13.05-.13.05-.13.06-.12.07-.13.07-.12.08-.11.08-.12.09-.11.09-.11.1-.1.11-.1.11-.09.11-.09.11-.08.12-.08.12-.07.13-.07.12-.06.13-.05.13-.05.13-.05.14-.04.13-.03.14-.03.14-.02.14-.01.14-.02.14v.42l.01.14.02.15.02.14.03.14.03.14.04.14.04.14.05.13.06.14.06.14.06.13.07.13.07.13.09.13.08.12.09.13.1.12.1.11.11.12.11.11.12.11.11.1.13.09.12.09.13.09.13.08.13.07.13.07.14.07.13.05.14.06.14.04.14.05.14.03.14.03.14.03.14.02.15.02.14.01h.28l.15-.01.14-.01.14-.02.14-.02.13-.03.14-.03.14-.04.13-.05.13-.05.13-.05.13-.06.12-.07.13-.07.12-.08.11-.08.12-.09.11-.09.11-.1.1-.11.1-.11.09-.11.09-.11.08-.12.08-.12.07-.13.07-.12.06-.13.05-.13.05-.13.05-.14.04-.13.03-.14.03-.14.02-.14.01-.14.02-.14v-.42l-.02-.14-.01-.15-.02-.14-.03-.14-.03-.14-.04-.14-.04-.14-.05-.14-.06-.13-.06-.14-.06-.13-.07-.13-.08-.13-.08-.13-.08-.12-.09-.13-.1-.12-.1-.11-.11-.12-.11-.11-.12-.11-.11-.1z" id="h"/><path d="M98.39 51.61C98.39 78.32 76.71 100 50 100S1.61 78.32 1.61 51.61 23.29 3.22 50 3.22 98.39 24.9 98.39 51.61z" id="i"/><path d="M-49.98-168.97c13.36 0 24.19 10.83 24.19 24.19v48.39c0 13.37-10.83 24.2-24.19 24.2h-48.39c-13.37 0-24.2-10.83-24.2-24.2v-48.39c0-13.36 10.83-24.19 24.2-24.19h48.39z" id="j"/><path d="M-51.4-23.84l.07.01.06.01.06.02.05.01.06.02.05.03.06.02.05.03.05.03.04.03.05.04.04.04.05.04.04.04.04.04.04.05.04.05.04.05.03.05.04.06.04.05.03.06.03.06.03.06.04.07.03.06.03.07.03.07.03.07.03.07.03.07.02.07.03.07.03.08.03.08.02.07.03.08.03.08 1.39 4.95.44.13.98.33.96.36.94.4.92.43.08.03 4.76-2.55.08-.04.08-.03.08-.04.07-.03.08-.04.08-.03.07-.03.08-.04.07-.03.07-.03.08-.02.07-.03.07-.02.07-.03.07-.02.07-.02.07-.02.07-.01.06-.02.07-.01.06-.01.07-.01.06-.01h.25l.06.01.06.01.05.01.06.01.06.02.05.02.06.02.05.03.05.03.05.03.05.04.05.04.05.04 6.9 6.49.04.05.04.05.04.04.04.05.03.05.03.05.03.05.02.06.02.05.01.06.02.05.01.06.01.05v.24l-.01.06v.06l-.01.07-.02.06-.01.06-.02.07-.02.06-.02.07-.02.06-.03.07-.03.06-.03.07-.03.07-.03.06-.03.07-.04.07-.04.07-.04.07-.04.06-.04.07-.04.07-.05.07-.04.07L-33-4.77l.06.1.45.86.42.89.38.9.34.91.14.42 5.29 1.33.08.02.08.02.09.02.08.02.08.03.08.02.07.02.08.03.08.02.07.03.07.03.07.03.07.02.07.03.07.04.06.03.06.03.06.04.06.03.06.04.05.04.05.03.05.04.05.04.05.05.04.04.04.05.04.04.03.05.03.05.03.05.03.05.02.05.02.05.02.06.02.06.01.05.01.06v.13l-.03 9.14v.07l-.01.06-.01.05-.01.06-.01.06-.02.05-.02.05-.03.05-.02.05-.03.05-.04.04-.03.05-.04.04-.04.04-.04.04-.05.04-.05.04-.05.04-.05.04-.05.03-.06.04-.06.03-.06.03-.06.03-.07.03-.06.03-.07.03-.07.03-.07.03-.07.03-.08.03-.07.02-.08.03-.08.03-.08.02-.08.03-.08.02-.08.03-.08.02-.09.03-5.29 1.3-.14.41-.35.92-.39.89-.42.88-.46.86-.05.09 2.72 4.44.05.07.04.06.04.07.05.07.04.07.03.07.04.07.04.06.03.07.03.07.03.07.03.06.03.07.02.07.03.06.02.07.02.06.01.07.02.06.01.06.01.06.01.07v.29l-.01.06-.01.06-.02.05-.01.06-.02.05-.03.05-.02.06-.03.05-.03.05-.04.04-.04.05-.04.05-.05.04-6.94 6.45-.05.04-.05.04-.05.03-.05.04-.05.03-.06.02-.05.02-.06.02-.05.02-.06.01-.06.01-.06.01-.06.01h-.24l-.07-.01-.06-.01-.06-.01-.07-.01-.07-.02-.07-.02-.06-.02-.07-.02-.07-.02-.07-.02-.07-.03-.08-.02-.07-.03-.07-.03-.07-.03-.08-.03-.07-.04-.08-.03-.08-.04-.07-.03-.08-.04-.08-.04-.08-.03-4.73-2.58-.09.04-.92.43-.95.38-.96.36-.98.32-.44.13-1.43 4.94-.03.08-.03.08-.02.07-.03.08-.03.07-.03.08-.03.07-.03.07-.03.07-.03.07-.03.07-.03.06-.03.07-.03.06-.03.06-.04.06-.03.06-.04.06-.03.05-.04.05-.04.05-.04.05-.04.05-.04.04-.04.05-.05.04-.04.03-.05.04-.05.03-.05.03-.05.03-.05.02-.05.03-.06.01-.06.02-.05.01-.07.02h-.06l-.06.01h-.07l-9.79-.04h-.13l-.06-.01-.06-.01-.07-.02-.05-.01-.06-.02-.06-.03-.05-.02-.06-.03-.05-.03-.05-.03-.05-.04-.04-.04-.05-.04-.04-.04-.05-.04-.04-.05-.04-.05-.04-.05-.04-.05-.04-.06-.03-.05-.04-.06-.03-.06-.04-.06-.03-.07-.03-.06-.03-.07-.03-.07-.02-.07-.03-.07-.03-.07-.02-.07-.03-.07-.02-.08-.02-.08-.02-.07-.02-.08-.02-.08-1.39-4.95-.45-.13-.97-.33-.96-.36-.94-.4-.93-.43-.11-.05-4.73 2.53-.07.05-.07.04-.08.04-.07.04-.07.03-.08.04-.07.03-.07.04-.08.03-.07.03-.07.03-.07.02-.07.03-.07.02-.07.02-.07.02-.07.02-.07.02-.07.01-.06.01-.07.01-.07.01h-.32l-.06-.01-.06-.01-.06-.01-.06-.02-.05-.02-.06-.02-.06-.02-.05-.03-.05-.03-.05-.04-.05-.03-.05-.04-.05-.05-6.9-6.49-.05-.04-.04-.05-.04-.05-.03-.05-.03-.04-.03-.05-.02-.05-.02-.06-.02-.05-.02-.05-.01-.06-.01-.05v-.06l-.01-.05v-.12l.01-.06.01-.06.01-.06.01-.06.01-.06.02-.06.02-.06.02-.07.02-.06.02-.07.03-.06.02-.07.03-.07.03-.06.03-.07.04-.07.03-.07.04-.07.03-.07.04-.07.04-.07.04-.08.04-.07.04-.07 2.75-4.41-.04-.08-.46-.86-.41-.89-.38-.9-.35-.91-.13-.42-5.29-1.33-.09-.03-.08-.03-.08-.02-.08-.03-.08-.02-.08-.03-.08-.03-.08-.02-.07-.03-.07-.03-.08-.03-.07-.03-.07-.03-.06-.03-.07-.03-.06-.03-.07-.03-.06-.04-.06-.03-.05-.03-.06-.04-.05-.04-.05-.03-.04-.04-.05-.04-.04-.04-.04-.05-.04-.04-.03-.04-.04-.05-.03-.05-.02-.05-.03-.05-.02-.05-.02-.05-.01-.06-.01-.05-.01-.06v-.06l-.01-.07.04-9.14v-.07l.01-.06v-.06l.02-.05.01-.06.02-.05.02-.06.02-.05.03-.05.03-.05.03-.05.04-.05.04-.04.04-.05.04-.04.04-.04.05-.04.05-.04.05-.04.06-.04.06-.03.05-.04.06-.03.07-.03.06-.04.07-.03.07-.03.06-.03.08-.02.07-.03.07-.03.08-.02.07-.02.08-.03.08-.02.08-.02.08-.02.09-.02.08-.02.08-.02 5.3-1.3.14-.41.35-.92.39-.89.42-.88.46-.86.05-.09-2.73-4.44-.04-.07-.04-.07-.03-.08-.04-.07-.04-.07-.03-.07-.04-.07-.03-.07-.03-.07-.04-.07-.02-.07-.03-.06-.03-.07-.02-.07-.03-.06-.02-.07-.02-.06-.02-.06-.01-.07-.02-.06-.01-.06-.01-.06v-.06l-.01-.06v-.11l.01-.06v-.05l.01-.06.01-.05.02-.06.02-.05.02-.05.02-.05.03-.05.03-.05.04-.05.04-.04.04-.05.04-.04 6.95-6.45.05-.04.05-.04.05-.03.05-.04.05-.03.06-.02.05-.03.06-.02.06-.02.06-.01.06-.02.06-.01h.06l.06-.01h.19l.07.01.06.01.07.01.07.01.06.01.07.02.07.02.07.02.07.02.07.02.07.03.07.02.07.03.08.03.07.04.07.03.07.04.08.03.07.04.07.04.08.04.07.04.07.04 4.73 2.58.1-.04.92-.42.94-.39.97-.36.98-.32.44-.13 1.43-4.94.02-.08.02-.07.02-.08.02-.08.03-.07.02-.08.03-.07.02-.07.03-.07.03-.07.03-.07.03-.06.03-.07.03-.06.03-.06.04-.06.03-.06.04-.06.04-.05.04-.05.04-.05.04-.05.04-.05.05-.04.04-.05.05-.04.05-.03.04-.04.06-.03.05-.03.05-.03.05-.02.06-.02.06-.02.06-.02.06-.01.06-.01.06-.01.07-.01h.07l9.78.04h.13zm-6.25 17.17l-.58.05-.57.08-.56.09-.55.12-.55.13-.54.15-.53.18-.51.19-.51.21-.5.23-.48.24-.48.26-.46.28-.45.29-.44.31-.42.33-.41.34-.4.35-.38.37-.37.38-.35.39-.33.41-.32.42-.3.43-.29.44-.26.45-.25.47-.23.47-.2.48-.19.49-.17.5-.15.51-.13.52-.1.52-.08.54-.06.53-.04.55-.02.55.01.55.04.54.05.54.08.53.1.53.13.52.14.51.17.5.18.49.21.48.22.48.24.46.27.46.28.44.29.44.32.42.33.41.35.39.36.39.38.37.39.35.41.34.42.33.44.32.45.29.46.28.47.27.48.25.5.23.51.21.51.2.53.17.54.16.54.14.55.12.56.1.57.07.58.06.58.04.59.01.59-.01.58-.03.58-.05.57-.08.56-.09.55-.12.55-.13.53-.15.53-.18.52-.19.51-.21.49-.23.49-.24.48-.26.46-.28.45-.29.44-.31.42-.33.41-.34.4-.35.38-.37.36-.38.35-.39.34-.41.32-.42.3-.43.28-.44.27-.45.24-.47.23-.47.21-.48.19-.49.17-.5.15-.51.12-.52.11-.52.08-.54.06-.53.04-.55.01-.55-.01-.55-.03-.54-.06-.54-.08-.53-.1-.53-.12-.51-.15-.51-.16-.51-.19-.49-.2-.48-.23-.48-.24-.46-.26-.46-.28-.44-.3-.43-.31-.43-.33-.4-.35-.4-.37-.39-.37-.37-.4-.35-.41-.34-.42-.33-.43-.31-.45-.3-.46-.28-.47-.27-.49-.25-.49-.23-.51-.21-.52-.2-.52-.17-.54-.16-.54-.14-.56-.12-.56-.1-.57-.07-.57-.06-.58-.04-.59-.01-.59.01-.58.03z" id="k"/><path d="M195.72 5.17l11.14 4.76-24.2 56.59-11.14-4.77 24.2-56.58z" id="l"/><path d="M176.69 72.8l4.84-3.64-5.57-2.38-5.57-2.38.72 6.01.73 6.02 4.85-3.63z" id="m"/><path d="M211.48-5.61l.01.02.01.01.01.01.01.02.01.01v.02l.01.01v.02l.01.01v.06l.01.02-.01.02v.06l-.01.02v.03l-.01.02v.02l-.01.02v.02l-.01.02-.01.01v.02l-.01.02-.01.02-.01.02-.01.02v.02l-.01.02-.01.02-.01.02-.01.02-.64 1.22.06.11.13.24.12.25.11.25.1.25.01.03 1.4.38.02.01h.02l.02.01.03.01h.02l.02.01.02.01.02.01.02.01h.02l.02.01.02.01.01.01.02.01h.02l.02.01.01.01.02.01.02.01.01.01.02.01.01.01.01.01.02.01.01.01.01.02.01.01.01.01.01.01.01.01.01.02.01.01v.02l.01.01.01.01v.04l.01.01v.04l.15 2.53v.05l-.01.02v.03l-.01.02v.01l-.01.01-.01.02V.9l-.01.01-.01.02-.01.01-.01.01-.01.01-.01.01-.02.01-.01.01-.01.02-.02.01h-.01l-.02.01-.01.01-.02.01-.02.01-.01.01-.02.01h-.02l-.02.01-.01.01h-.02l-.02.01-.02.01h-.02l-.02.01-.02.01h-.03l-.02.01h-.02l-1.35.35-.01.03-.07.25-.08.25-.1.25-.1.24-.05.11.79 1.23.01.02.01.02.01.02.02.02.01.02.01.02.01.01.01.02.01.02.01.02.01.02.01.02v.02l.01.02.01.01.01.02v.02l.01.02v.02l.01.01v.05l.01.02v.07l-.01.01v.03l-.01.02v.01l-.01.02v.01l-.01.01-.01.02-.01.01-.01.01-.01.01-1.69 1.78-.02.01-.01.01-.01.01-.01.01-.02.01-.01.01h-.01l-.02.01h-.01l-.02.01h-.14l-.02-.01h-.03l-.02-.01h-.02l-.02-.01-.01-.01h-.02l-.02-.01-.02-.01-.02-.01h-.02l-.02-.01-.02-.01-.02-.01-.02-.01-.02-.01-.02-.01-.02-.01-.02-.01-.02-.01-1.27-.73-.11.06-.23.11-.25.11-.24.09-.25.08-.02.01-.29 1.37-.01.02v.04l-.01.02v.02l-.01.02v.02l-.01.02-.01.02v.02l-.01.02v.02l-.01.02-.01.01-.01.02v.02l-.01.01-.01.02-.01.01-.01.02-.01.01-.01.02-.01.01-.01.01-.01.01-.01.01-.01.01-.02.01-.01.01-.01.01-.02.01h-.01l-.01.01-.02.01h-.03l-.01.01h-.05l-2.55-.03h-.06l-.02-.01h-.01l-.02-.01h-.01l-.02-.01-.01-.01-.01-.01-.02-.01-.01-.01-.01-.01-.01-.01-.01-.01-.02-.01-.01-.02-.01-.01-.01-.01-.01-.02-.01-.01-.01-.02-.01-.02-.01-.01-.01-.02-.01-.02-.01-.02-.01-.01V7.5l-.01-.02-.01-.02-.01-.02-.01-.02-.01-.02-.01-.02v-.02l-.01-.03-.01-.02-.01-.02-.44-1.37-.03-.01-.26-.09-.26-.1-.25-.11-.25-.12-.11-.05-1.19.7-.02.01-.02.01-.02.01-.02.01-.02.01h-.01l-.02.01-.02.01-.02.01-.02.01-.02.01h-.02l-.01.01-.02.01h-.02l-.02.01h-.02l-.01.01h-.04l-.01.01h-.13l-.02-.01h-.01l-.02-.01h-.01l-.01-.01-.02-.01h-.01l-.02-.01-.01-.01-.01-.01-.02-.02-1.9-1.81-.01-.01-.01-.01-.01-.02-.01-.01-.01-.02-.01-.01-.01-.01v-.02l-.01-.01-.01-.02v-.03l-.01-.02v-.13l.01-.02v-.03l.01-.02v-.02l.01-.02.01-.02v-.01l.01-.02.01-.02v-.02l.01-.02.01-.02.01-.02.01-.02.01-.01.01-.02.01-.02.01-.02.64-1.22-.06-.11-.13-.24-.12-.25-.11-.25-.1-.26-.01-.03-1.39-.38H197l-.02-.01h-.03l-.02-.01h-.02l-.02-.01-.02-.01h-.02l-.02-.01-.02-.01-.02-.01h-.02l-.02-.01-.02-.01-.01-.01-.02-.01-.02-.01-.01-.01-.02-.01-.01-.01-.02-.01-.01-.01-.02-.01-.01-.01-.01-.01-.01-.02-.01-.01-.02-.01V.73l-.01-.02-.01-.01-.01-.02-.01-.01V.65l-.01-.01V.62l-.01-.01V.56l-.15-2.54v-.07l.01-.01v-.03l.01-.01.01-.02v-.01l.01-.01.01-.02.01-.01.01-.01.01-.01.01-.01.01-.01.01-.01.02-.01.01-.01.01-.01.02-.01.01-.01.02-.01.02-.01.01-.01h.02l.02-.01.02-.01.01-.01h.02l.02-.01.02-.01.02-.01h.02l.02-.01.02-.01h.02l.02-.01.03-.01 1.35-.35v-.02l.07-.25.08-.25.1-.25.1-.24.05-.11-.79-1.23-.01-.02-.01-.02-.01-.02-.01-.02-.01-.02-.01-.02-.01-.02-.01-.02-.01-.02-.01-.02-.01-.02-.01-.02-.01-.02v-.01l-.01-.02-.01-.02v-.02l-.01-.02v-.01l-.01-.02v-.02l-.01-.01v-.14l.01-.02v-.01l.01-.02v-.01l.01-.01.01-.02.01-.01.01-.01.01-.02 1.69-1.77.02-.01.01-.01.01-.01.01-.01.02-.01.01-.01h.02l.01-.01.01-.01h.03l.02-.01h.1l.02.01h.03l.02.01h.02l.02.01h.01l.02.01h.02l.02.01.02.01.02.01.02.01.02.01h.02l.01.01.02.01.02.02.02.01.02.01.02.01.02.01 1.27.73.11-.06.23-.11.25-.11.24-.09.25-.08.02-.01.29-1.37.01-.02v-.02l.01-.02.01-.02v-.02l.01-.02v-.02l.01-.02.01-.02v-.02l.01-.02.01-.02v-.02l.01-.01.01-.02.01-.02v-.01l.01-.02.01-.01.01-.02.01-.01.01-.02.01-.01.01-.01.01-.01.01-.01.01-.01.01-.01.01-.01.02-.01.01-.01h.01l.02-.01.01-.01h.03l.01-.01h.05l2.55.03h.06l.02.01h.01l.02.01h.01l.02.01.01.01.02.01.01.01.01.01.02.01.01.01.01.01.01.01.02.02.01.01.01.01.01.02.01.01.01.02.01.02.01.01.01.02.01.02.01.02.01.01.01.02v.02l.01.02.01.02.01.02.01.02v.02l.01.02.01.03v.02l.01.02.44 1.37.03.01.26.09.25.1.26.11.25.12.11.05 1.19-.7.02-.01.01-.01.02-.01.02-.01.02-.01.02-.01.02-.01.01-.01.02-.01.02-.01h.02l.02-.01.02-.01h.01l.02-.01.02-.01h.03l.02-.01h.04l.01-.01h.07l.02.01h.04l.02.01h.01l.02.01.01.01h.02l.01.01.02.01.01.01.01.01.02.02 1.9 1.81.01.01.01.01zm-4.38 2.19l-.13-.09-.12-.09-.13-.09-.13-.08-.13-.07-.13-.07-.14-.07-.13-.05-.14-.06-.14-.05-.14-.04-.14-.03-.14-.04-.14-.02-.14-.02-.15-.02-.14-.01h-.28l-.15.01-.14.01-.14.02-.14.02-.13.03-.14.03-.14.04-.13.05-.13.05-.13.05-.13.06-.12.07-.13.07-.12.08-.11.08-.12.09-.11.09-.11.1-.1.11-.1.11-.09.11-.09.11-.08.12-.08.12-.07.13-.07.12-.06.13-.05.13-.05.13-.05.14-.04.13-.03.14-.03.14-.02.14-.01.14-.02.14v.42l.01.14.02.15.02.14.03.14.03.14.04.14.04.14.05.13.06.14.06.14.06.13.07.13.07.13.09.13.08.12.09.13.1.12.1.11.11.12.11.11.12.11.11.1.13.09.12.09.13.09.13.08.13.07.13.07.14.07.13.05.14.06.14.04.14.05.14.03.14.03.14.03.14.02.15.02.14.01h.28l.15-.01.14-.01.14-.02.14-.02.13-.03.14-.03.14-.04.13-.05.13-.05.13-.05.13-.06.12-.07.13-.07.12-.08.11-.08.12-.09.11-.09.11-.1.1-.11.1-.11.09-.11.09-.11.08-.12.08-.12.07-.13.07-.12.06-.13.05-.13.05-.13.05-.14.04-.13.03-.14.03-.14.02-.14.01-.14.02-.14v-.42l-.02-.14-.01-.15-.02-.14-.03-.14-.03-.14-.04-.14-.04-.14-.05-.14-.06-.13-.06-.14-.06-.13-.07-.13-.08-.13-.08-.13-.08-.12-.09-.13-.1-.12-.1-.11-.11-.12-.11-.11-.12-.11-.11-.1z" id="n"/><path d="M201.97 11.42l11.14 4.76-24.2 56.59L177.77 68l24.2-56.58z" id="o"/><path d="M182.94 79.05l4.84-3.64-5.57-2.38-5.57-2.38.72 6.01.73 6.02 4.85-3.63z" id="p"/><path d="M217.73.64l.01.02.01.01.01.01.01.02.01.01v.02l.01.01v.02l.01.01v.06l.01.02-.01.02v.06l-.01.02v.03l-.01.02v.02l-.01.02v.02l-.01.02-.01.01v.02l-.01.02-.01.02-.01.02-.01.02v.02l-.01.02-.01.02-.01.02-.01.02-.64 1.22.06.11.13.24.12.25.11.25.1.25.01.03 1.4.38.02.01h.02l.02.01.03.01h.02l.02.01.02.01.02.01.02.01h.02l.02.01.02.01.01.01.02.01h.02l.02.01.01.01.02.01.02.01.01.01.02.01.01.01.01.01.02.01.01.01.01.02.01.01.01.01.01.01.01.01.01.02.01.01v.02l.01.01.01.01v.04l.01.01v.04l.15 2.53v.05l-.01.02v.03l-.01.02v.01l-.01.01-.01.02v.01l-.01.01-.01.02-.01.01-.01.01-.01.01-.01.01-.02.01-.01.01-.01.02-.02.01h-.01l-.02.01-.01.01-.02.01-.02.01-.01.01-.02.01h-.02l-.02.01-.01.01h-.02l-.02.01-.02.01h-.02l-.02.01-.02.01h-.03l-.02.01h-.02l-1.35.35-.01.03-.07.25-.08.25-.1.25-.1.24-.05.11.79 1.23.01.02.01.02.01.02.02.02.01.02.01.02.01.01.01.02.01.02.01.02.01.02.01.02v.02l.01.02.01.01.01.02v.02l.01.02v.02l.01.01v.05l.01.02v.07l-.01.01v.03l-.01.02v.01l-.01.02v.01l-.01.01-.01.02-.01.01-.01.01-.01.01-1.69 1.78-.02.01-.01.01-.01.01-.01.01-.02.01-.01.01h-.01l-.02.01h-.01l-.02.01h-.14l-.02-.01h-.03l-.02-.01h-.02l-.02-.01-.01-.01h-.02l-.02-.01-.02-.01-.02-.01h-.02l-.02-.01-.02-.01-.02-.01-.02-.01-.02-.01-.02-.01-.02-.01-.02-.01-.02-.01-1.27-.73-.11.06-.23.11-.25.11-.24.09-.25.08-.02.01-.29 1.37-.01.02v.04l-.01.02v.02l-.01.02v.02l-.01.02-.01.02v.02l-.01.02v.02l-.01.02-.01.01-.01.02v.02l-.01.01-.01.02-.01.01-.01.02-.01.01-.01.02-.01.01-.01.01-.01.01-.01.01-.01.01-.02.01-.01.01-.01.01-.02.01h-.01l-.01.01-.02.01h-.03l-.01.01h-.05l-2.55-.03h-.06l-.02-.01h-.01l-.02-.01h-.01l-.02-.01-.01-.01-.01-.01-.02-.01-.01-.01-.01-.01-.01-.01-.01-.01-.02-.01-.01-.02-.01-.01-.01-.01-.01-.02-.01-.01-.01-.02-.01-.02-.01-.01-.01-.02-.01-.02-.01-.02-.01-.01v-.02l-.01-.02-.01-.02-.01-.02-.01-.02-.01-.02-.01-.02v-.02l-.01-.03-.01-.02-.01-.02-.44-1.37-.03-.01-.26-.09-.26-.1-.25-.11-.25-.12-.11-.05-1.19.7-.02.01-.02.01-.02.01-.02.01-.02.01h-.01l-.02.01-.02.01-.02.01-.02.01-.02.01h-.02l-.01.01-.02.01h-.02l-.02.01h-.02l-.01.01h-.04l-.01.01h-.13l-.02-.01h-.01l-.02-.01h-.01l-.01-.01-.02-.01h-.01l-.02-.01-.01-.01-.01-.01-.02-.02-1.9-1.81-.01-.01-.01-.01-.01-.02-.01-.01-.01-.02-.01-.01-.01-.01v-.02l-.01-.01-.01-.02v-.03l-.01-.02v-.13l.01-.02v-.03l.01-.02v-.02l.01-.02.01-.02v-.01l.01-.02.01-.02v-.02l.01-.02.01-.02.01-.02.01-.02.01-.01.01-.02.01-.02.01-.02.64-1.22-.06-.11-.13-.24-.12-.25-.11-.25-.1-.26-.01-.03-1.39-.38h-.02l-.02-.01h-.03l-.02-.01h-.02l-.02-.01-.02-.01h-.02l-.02-.01-.02-.01-.02-.01h-.02l-.02-.01-.02-.01-.01-.01-.02-.01-.02-.01-.01-.01-.02-.01-.01-.01-.02-.01-.01-.01-.02-.01-.01-.01-.01-.01-.01-.02-.01-.01-.02-.01v-.01l-.01-.02-.01-.01-.01-.02-.01-.01V6.9l-.01-.01v-.02l-.01-.01v-.05l-.15-2.54V4.2l.01-.01v-.03l.01-.01.01-.02v-.01l.01-.01.01-.02.01-.01.01-.01.01-.01.01-.01.01-.01.01-.01.02-.01.01-.01.01-.01.02-.01.01-.01.02-.01.02-.01.01-.01h.02l.02-.01.02-.01.01-.01h.02l.02-.01.02-.01.02-.01h.02l.02-.01.02-.01h.02l.02-.01.03-.01 1.35-.35v-.02l.07-.25.08-.25.1-.25.1-.24.05-.11-.79-1.23-.01-.02-.01-.02-.01-.02-.01-.02-.01-.02-.01-.02-.01-.02-.01-.02-.01-.02-.01-.02-.01-.02-.01-.02-.01-.02V.88l-.01-.02-.01-.02V.82l-.01-.02V.79l-.01-.02V.75l-.01-.01V.6l.01-.02V.57l.01-.02V.54l.01-.01.01-.02.01-.01.01-.01.01-.02 1.69-1.77.02-.01.01-.01.01-.01.01-.01.02-.01.01-.01h.02l.01-.01.01-.01h.03l.02-.01h.1l.02.01h.03l.02.01h.02l.02.01h.01l.02.01h.02l.02.01.02.01.02.01.02.01.02.01h.02l.01.01.02.01.02.02.02.01.02.01.02.01.02.01 1.27.73.11-.06.23-.11.25-.11.24-.09.25-.08.02-.01.29-1.37.01-.02v-.02l.01-.02.01-.02v-.02l.01-.02v-.02l.01-.02.01-.02v-.02l.01-.02.01-.02v-.02l.01-.01.01-.02.01-.02v-.01l.01-.02.01-.01.01-.02.01-.01.01-.02.01-.01.01-.01.01-.01.01-.01.01-.01.01-.01.01-.01.02-.01.01-.01h.01l.02-.01.01-.01h.03l.01-.01h.05l2.55.03h.06l.02.01h.01l.02.01h.01l.02.01.01.01.02.01.01.01.01.01.02.01.01.01.01.01.01.01.02.02.01.01.01.01.01.02.01.01.01.02.01.02.01.01.01.02.01.02.01.02.01.01.01.02v.02l.01.02.01.02.01.02.01.02v.02l.01.02.01.03v.02l.01.02.44 1.37.03.01.26.09.25.1.26.11.25.12.11.05 1.19-.7.02-.01.01-.01.02-.01.02-.01.02-.01.02-.01.02-.01.01-.01.02-.01.02-.01h.02l.02-.01.02-.01h.01l.02-.01.02-.01h.03l.02-.01h.04l.01-.01h.07l.02.01h.04l.02.01h.01l.02.01.01.01h.02l.01.01.02.01.01.01.01.01.02.02 1.9 1.81.01.01.01.01zm-4.38 2.19l-.13-.09-.12-.09-.13-.09-.13-.08-.13-.07-.13-.07-.14-.07-.13-.05-.14-.06-.14-.05-.14-.04-.14-.03-.14-.04-.14-.02-.14-.02-.15-.02-.14-.01h-.28l-.15.01-.14.01-.14.02-.14.02-.13.03-.14.03-.14.04-.13.05-.13.05-.13.05-.13.06-.12.07-.13.07-.12.08-.11.08-.12.09-.11.09-.11.1-.1.11-.1.11-.09.11-.09.11-.08.12-.08.12-.07.13-.07.12-.06.13-.05.13-.05.13-.05.14-.04.13-.03.14-.03.14-.02.14-.01.14-.02.14v.42l.01.14.02.15.02.14.03.14.03.14.04.14.04.14.05.13.06.14.06.14.06.13.07.13.07.13.09.13.08.12.09.13.1.12.1.11.11.12.11.11.12.11.11.1.13.09.12.09.13.09.13.08.13.07.13.07.14.07.13.05.14.06.14.04.14.05.14.03.14.03.14.03.14.02.15.02.14.01h.28l.15-.01.14-.01.14-.02.14-.02.13-.03.14-.03.14-.04.13-.05.13-.05.13-.05.13-.06.12-.07.13-.07.12-.08.11-.08.12-.09.11-.09.11-.1.1-.11.1-.11.09-.11.09-.11.08-.12.08-.12.07-.13.07-.12.06-.13.05-.13.05-.13.05-.14.04-.13.03-.14.03-.14.02-.14.01-.14.02-.14v-.42l-.02-.14-.01-.15-.02-.14-.03-.14-.03-.14-.04-.14-.04-.14-.05-.14-.06-.13-.06-.14-.06-.13-.07-.13-.08-.13-.08-.13-.08-.12-.09-.13-.1-.12-.1-.11-.11-.12-.11-.11-.12-.11-.11-.1z" id="q"/><path d="M-61.6-152.74l14.38 6.12-17.31 40.68-14.39-6.12 17.32-40.68z" id="r"/><path d="M-71.24-99.19l6.25-4.69-7.19-3.07-7.18-3.07.93 7.76.93 7.76 6.26-4.69z" id="s"/><path d="M-93.95-143.56h-.02l-.02-.01-.02-.01-.02-.01-.02-.01-.01-.01-.02-.01-.02-.02-.01-.01-.01-.01-.02-.02-.01-.01-.01-.02-.02-.02-.01-.01-.01-.02-.01-.02-.01-.02-.01-.02-.01-.02v-.02l-.01-.03-.01-.02-.01-.02v-.02l-.01-.03-.01-.02v-.03l-.01-.02v-.03l-.01-.03v-.02l-.01-.03v-.03l-.01-.02v-.03l-.01-.03v-.03l-.18-1.77-.14-.07-.31-.17-.31-.18-.29-.2-.29-.2-.02-.02-1.78.58-.03.01-.03.01-.03.01h-.03l-.03.01-.02.01h-.03l-.03.01-.03.01h-.02l-.03.01h-.05l-.03.01h-.05l-.02.01h-.14l-.02-.01h-.04l-.02-.01-.02-.01h-.02l-.02-.01-.02-.01-.02-.01-.02-.01-.01-.01-.02-.01-.01-.01-.02-.02-.02-.01-.01-.02-.01-.02-1.96-2.63-.01-.02-.01-.02-.01-.01-.01-.02-.01-.02-.01-.02v-.02l-.01-.02v-.14l.01-.02v-.02l.01-.02v-.02l.01-.02.01-.02.01-.02.01-.02.01-.02.01-.03.01-.02.01-.02.02-.02.01-.02.02-.02.01-.02.02-.02.01-.02.02-.02.02-.02.02-.02.01-.03.02-.02.02-.02.02-.02 1.21-1.34-.01-.03-.1-.33-.09-.32-.07-.33-.07-.33-.02-.15-1.72-.78-.02-.01-.03-.01-.03-.02-.02-.01-.03-.01-.03-.01-.02-.02-.03-.01-.02-.01-.02-.02-.03-.01-.02-.01-.02-.02-.02-.01-.02-.02-.02-.01-.02-.02-.02-.01-.02-.02-.01-.01-.02-.02-.02-.02-.01-.01-.01-.02-.02-.02-.01-.01-.01-.02-.01-.02-.01-.02-.01-.02v-.02l-.01-.01v-.02l-.01-.02v-.13l.57-3.11.01-.02v-.02l.01-.02.01-.02.01-.02v-.02l.02-.01.01-.02.01-.01.01-.02.02-.01.01-.01.02-.02.01-.01.02-.01.02-.01.02-.01.01-.01.02-.01.03-.01.02-.01h.02l.02-.01.02-.01.03-.01h.02l.03-.01h.02l.03-.01h.03l.02-.01h.03l.03-.01h.03l.02-.01h.06l.03-.01h.06l1.89-.12.07-.14.17-.29.19-.28.2-.27.21-.27.02-.02-.66-1.68-.01-.03-.01-.02-.01-.03-.01-.03-.01-.02-.01-.03-.01-.02-.01-.03v-.02l-.01-.03-.01-.02v-.03l-.01-.02v-.03l-.01-.02v-.2l.01-.02v-.02l.01-.02v-.02l.01-.02.01-.01.01-.02.01-.02.01-.01.01-.02.01-.02.02-.01.01-.02.02-.01.02-.01.01-.02 2.76-1.77.02-.01.02-.01.02-.01.02-.01h.02l.02-.01h.02l.02-.01h.1l.02.01h.04l.02.01.03.01h.02l.02.01.02.01.02.01.02.01.03.01.02.01.02.01.02.01.03.02.02.01.02.01.02.02.03.01.02.02.03.01.02.02.02.02.03.01.02.02.03.02.02.02 1.45 1.16.04-.01.34-.08.34-.08.35-.06.36-.05.16-.02.78-1.59.02-.03.01-.02.02-.03.01-.02.01-.03.02-.02.01-.02.02-.02.01-.03.02-.02.01-.02.01-.02.02-.02.01-.02.02-.02.01-.02.02-.01.02-.02.01-.02.02-.01.01-.02.02-.01.02-.02.01-.01.02-.01.02-.01.01-.01.02-.01.02-.01.02-.01h.02l.02-.01h.02l.02-.01h.08l.02.01h.03l3.33.61h.02l.02.01h.03l.02.01.02.01.02.01.01.01.02.01.02.01.01.02.02.01.02.01.01.02.01.01.02.02.01.02.01.02.01.01.01.02.01.02.01.02.01.03.01.02.01.02.01.02.01.02v.03l.01.02.01.03v.02l.01.03v.02l.01.03v.05l.01.03v.05l.01.03v.03l.17 1.77.14.07.32.17.3.18.3.2.28.2.04.03 1.76-.58.03-.01.03-.01.03-.01.02-.01.03-.01h.03l.03-.01.02-.01h.03l.03-.01.02-.01h.05l.03-.01h.05l.02-.01h.1l.02.01h.05l.02.01h.02l.02.01h.02l.02.01.02.01.02.01.02.01.02.01.01.01.02.01.02.01.01.02.02.01.01.02.02.02 1.95 2.63.01.02.01.02.01.02.01.02.01.01.01.02v.02l.01.02v.11l-.01.02v.02l-.01.02v.02l-.01.02-.01.02v.02l-.01.02-.01.02-.01.02-.02.03-.01.02-.01.02-.01.02-.02.02-.01.02-.02.02-.01.02-.02.02-.01.03-.02.02-.02.02-.02.02-.01.02-.02.03-.02.02-1.21 1.33.01.03.11.33.08.32.08.33.06.33.02.15 1.72.78.03.02.02.01.03.01.03.02.02.01.03.01.02.02.03.01.02.02.02.01.03.01.02.02.02.01.02.02.02.01.02.02.02.01.02.02.02.01.02.02.01.01.02.02.01.01.02.02.01.02.01.01.01.02.01.02.01.01.01.02.01.02v.02l.01.02v.04l.01.01v.05l-.01.02v.02l-.57 3.11v.02l-.01.02-.01.02v.02l-.01.02-.01.02-.01.02-.01.01-.01.02-.02.01-.01.02-.02.01-.01.01-.02.02-.02.01-.01.01-.02.01-.02.01-.02.01-.02.01-.02.01-.03.01-.02.01h-.02l-.03.01-.02.01h-.03l-.02.01H-80l-.02.01h-.03l-.03.01h-.05l-.03.01h-.15l-1.88.12-.07.14-.18.29-.19.28-.19.27-.21.27-.03.02.66 1.68.01.03.01.03.01.02.01.03.01.03v.02l.01.03.01.03.01.02v.03l.01.02v.03l.01.02v.02l.01.03v.04l.01.03v.1l-.01.02v.04l-.01.02v.02l-.01.02-.01.02-.01.01v.02l-.02.02-.01.01-.01.02-.01.01-.02.02-.01.01-.02.01-.02.02-2.76 1.77-.02.01-.02.01-.02.01-.02.01h-.02l-.02.01h-.02l-.02.01h-.15l-.02-.01h-.02l-.02-.01-.02-.01h-.03l-.02-.01-.02-.01-.02-.01-.02-.01-.03-.01-.02-.01-.02-.02-.02-.01-.03-.01-.02-.02-.02-.01-.02-.02-.03-.01-.02-.02-.02-.02-.03-.01-.02-.02-.02-.02-.02-.02-.03-.02-1.45-1.16-.03.01-.34.08-.35.08-.35.06-.35.05-.16.02-.79 1.59-.01.03-.01.02-.01.03-.02.02-.01.03-.01.02-.02.02-.01.03-.01.02-.02.02-.01.02-.01.02-.02.02-.01.02-.02.02-.01.02-.02.02-.02.01-.01.02-.02.02-.02.01-.01.02-.02.01-.02.01-.02.01-.01.01-.02.01-.02.01-.02.01-.02.01h-.02l-.02.01h-.02l-.02.01h-.09l-.02-.01h-.02l-3.34-.61h-.02l-.02-.01zm3.18-5.47l.2.02.2.01h.39l.19-.01.2-.02.19-.03.18-.03.19-.04.18-.05.18-.06.18-.06.18-.06.17-.08.17-.07.16-.09.16-.09.16-.1.15-.1.15-.11.14-.11.14-.12.13-.12.13-.13.13-.13.11-.14.12-.14.1-.15.1-.15.1-.16.09-.16.08-.16.07-.17.07-.17.06-.18.05-.18.05-.18.04-.19.03-.19.02-.18.01-.19.01-.19v-.18l-.01-.18-.02-.19-.03-.18-.03-.18-.04-.17-.05-.18-.05-.17-.07-.17-.06-.17-.08-.17-.08-.16-.09-.16-.09-.16-.1-.15-.11-.15-.11-.14-.12-.15-.12-.13-.13-.14-.14-.12-.14-.13-.14-.12-.15-.11-.16-.11-.16-.1-.16-.1-.17-.09-.17-.09-.18-.08-.18-.08-.19-.06-.18-.06-.2-.06-.19-.05-.2-.04-.2-.03-.2-.02-.2-.02-.2-.01h-.4l-.19.01-.19.02-.19.03-.19.03-.19.04-.18.05-.18.06-.18.06-.17.06-.17.08-.17.07-.17.09-.16.09-.15.1-.15.1-.15.1-.15.12-.14.12-.13.12-.13.13-.12.13-.12.14-.11.14-.11.15-.1.15-.09.16-.09.16-.08.16-.08.17-.06.17-.07.18-.05.18-.04.18-.04.19-.03.18-.02.19-.02.19v.37l.01.18.02.19.02.18.04.18.04.17.04.18.06.17.06.17.07.17.07.17.08.16.09.16.1.16.1.15.1.15.12.14.11.15.13.13.13.14.13.12.14.13.15.12.15.11.15.11.16.1.16.1.17.09.18.09.17.08.18.08.19.06.19.06.19.06.2.05.2.04.2.03.2.02z" id="t"/><path d="M-40.17-139.85l14.38 6.12-17.32 40.68-14.38-6.12 17.32-40.68z" id="u"/><path d="M-49.82-86.31l6.26-4.68-7.19-3.08-7.18-3.07.93 7.76.93 7.76 6.25-4.69z" id="v"/><path d="M53.32 15.82L71 23.35 50.26 72.08l-17.68-7.52 20.74-48.74z" id="w"/><path d="M41.47 81.64l7.69-5.76-8.83-3.78-8.83-3.78 1.14 9.54 1.15 9.54 7.68-5.76z" id="x"/><path d="M127.51-153.8c0 26.71-21.68 48.39-48.39 48.39-26.7 0-48.38-21.68-48.38-48.39 0-26.7 21.68-48.39 48.38-48.39 26.71 0 48.39 21.69 48.39 48.39z" id="y"/><path d="M103.25-177.23l.07 7.26-52 .07-.07-7.26 52-.07z" id="z"/><path d="M103.25-157.46l.07 7.26-52 .07-.07-7.26 52-.07z" id="A"/><path d="M103.25-136.31l.07 7.26-52 .07-.07-7.26 52-.07z" id="B"/><path d="M84.1-191.19l17.67 7.52-20.74 48.74-17.68-7.53 20.75-48.73z" id="C"/><path d="M72.25-125.38l7.68-5.76-8.83-3.78-8.83-3.77 1.14 9.53 1.15 9.54 7.69-5.76z" id="D"/><path d="M-37.08 100c0 26.71-21.68 48.39-48.39 48.39-26.7 0-48.39-21.68-48.39-48.39s21.69-48.39 48.39-48.39c26.71 0 48.39 21.68 48.39 48.39z" id="E"/><path d="M-82.14 64.21l17.68 7.53-20.75 48.73-17.68-7.52 20.75-48.74z" id="F"/><path d="M-93.99 130.03l7.68-5.76-8.83-3.78-8.83-3.78 1.14 9.54 1.15 9.54 7.69-5.76z" id="G"/></defs><use xlink:href="#a" fill-opacity="0" stroke="#3fcee6" stroke-width="8"/><filter id="b" x="21.74" y="-75.32" width="48.94" height="48.94" filterUnits="userSpaceOnUse" primitiveUnits="userSpaceOnUse"><feFlood/><feComposite in2="SourceAlpha" operator="out"/><feGaussianBlur stdDeviation="1"/><feOffset dx="1" dy="1" result="afterOffset"/><feFlood flood-color="#fff" flood-opacity=".8"/><feComposite in2="afterOffset" operator="in"/><feMorphology operator="dilate" radius="1"/><feComposite in2="SourceAlpha" operator="in"/></filter><path d="M60.68-51.35c0 8.27-6.71 14.97-14.97 14.97-8.27 0-14.97-6.7-14.97-14.97 0-8.26 6.7-14.97 14.97-14.97 8.26 0 14.97 6.71 14.97 14.97z" fill="#fff" filter="url(#b)"/><use xlink:href="#c" fill="#1a2630" fill-opacity=".3"/><use xlink:href="#d" fill="#1a2630" fill-opacity=".3"/><use xlink:href="#e" opacity=".3" fill="#1a2630"/><use xlink:href="#f" fill="#1a2630" fill-opacity=".3"/><use xlink:href="#g" fill="#1a2630" fill-opacity=".3"/><use xlink:href="#h" opacity=".3" fill="#1a2630"/><use xlink:href="#i" fill="#3fcee6"/><use xlink:href="#j" fill="#3fcee6"/><use xlink:href="#k" opacity=".3" fill="#1a2630"/><use xlink:href="#l" fill="#1a2630" fill-opacity=".3"/><use xlink:href="#m" fill="#1a2630" fill-opacity=".3"/><use xlink:href="#n" opacity=".3" fill="#1a2630"/><use xlink:href="#o" fill="#1a2630" fill-opacity=".3"/><use xlink:href="#p" fill="#1a2630" fill-opacity=".3"/><use xlink:href="#q" opacity=".3" fill="#1a2630"/><g fill="#fff"><use xlink:href="#r"/><use xlink:href="#s"/><use xlink:href="#t"/></g><g fill="#fff"><use xlink:href="#u"/><use xlink:href="#v"/></g><g fill="#fff"><use xlink:href="#w"/><use xlink:href="#x"/></g><use xlink:href="#y" fill="#3fcee6"/><use xlink:href="#z" fill="#1a2630" fill-opacity=".3"/><use xlink:href="#A" fill="#1a2630" fill-opacity=".3"/><use xlink:href="#B" fill="#1a2630" fill-opacity=".3"/><g fill="#fff"><use xlink:href="#C"/><use xlink:href="#D"/></g><use xlink:href="#E" fill="#3fcee6"/><g fill="#fff"><use xlink:href="#F"/><use xlink:href="#G"/></g></svg>