<svg xmlns="http://www.w3.org/2000/svg" xmlns:xlink="http://www.w3.org/1999/xlink" viewBox="0 0 100 100" width="100" height="100"><defs><path d="M-25.47 62.9c0 25.72-21.03 46.6-46.93 46.6s-46.94-20.88-46.94-46.6c0-25.72 21.04-46.6 46.94-46.6s46.93 20.88 46.93 46.6z" id="a"/><path d="M69.93 143.29a2.86 2.86 0 012.86 2.86c0 .58 0-.57 0 0a2.86 2.86 0 01-2.86 2.86H51.95a2.86 2.86 0 01-2.86-2.86c0-.57 0 .58 0 0a2.86 2.86 0 012.86-2.86h17.98z" id="b"/><path d="M185.42 82.79v3.05-3.05z" id="c"/><path d="M-70.78 16.3c.82 0 1.48.67 1.48 1.49v8.35c0 .82-.66 1.48-1.48 1.48h-.13c-.83 0-1.49-.66-1.49-1.48v-8.35c0-.82.66-1.49 1.49-1.49h.13z" id="d"/><path d="M-38.26 30.3c.51.64.41 1.58-.23 2.09-1.53 1.23-4.98 3.99-6.51 5.22-.64.52-1.58.41-2.09-.23-.2-.24.14.19-.05-.06-.51-.64-.41-1.57.23-2.09 1.53-1.23 4.98-3.99 6.51-5.22a1.49 1.49 0 012.09.23c.2.25-.15-.18.05.06z" id="e"/><path d="M-27.09 50.92c.34.74 0 1.62-.74 1.96-1.8.81-5.83 2.62-7.62 3.42-.75.34-1.63 0-1.96-.75-.13-.28.09.22-.04-.07-.33-.74 0-1.62.75-1.96 1.8-.81 5.82-2.61 7.62-3.42.75-.34 1.63 0 1.96.75.13.28-.1-.22.03.07z" id="f"/><path d="M-28.21 79.9c-.32.76-1.2 1.11-1.95.79l-7.68-3.27c-.76-.32-1.11-1.2-.79-1.95.12-.29-.09.22.03-.07.32-.76 1.19-1.11 1.95-.79l7.68 3.27c.76.32 1.11 1.2.79 1.95-.13.29.09-.21-.03.07z" id="g"/><path d="M-104.02 28.22c.51-.64 1.44-.74 2.08-.23 1.54 1.23 4.98 4 6.52 5.23.64.51.74 1.45.22 2.09-.19.24.15-.19-.04.06-.52.64-1.45.74-2.09.23-1.54-1.24-4.98-4-6.51-5.23-.64-.51-.75-1.45-.23-2.09.19-.24-.15.18.05-.06z" id="h"/><path d="M-107.32 54.39c-.25.79-1.08 1.23-1.86.98-1.88-.57-6.1-1.87-7.98-2.45a1.481 1.481 0 01-.98-1.86c.09-.3-.07.22.02-.07.24-.79 1.07-1.23 1.86-.99l7.98 2.46c.78.24 1.22 1.07.98 1.86-.09.3.07-.23-.02.07z" id="i"/><path d="M-116.98 79.26c-.32-.76.03-1.63.79-1.95 1.81-.77 5.87-2.49 7.68-3.26.76-.32 1.63.03 1.95.79.12.29-.09-.22.03.07.32.75-.03 1.63-.79 1.95-1.81.77-5.87 2.49-7.68 3.25a1.48 1.48 0 01-1.95-.78c-.12-.29.09.21-.03-.07z" id="j"/><path d="M163.74 124.4V95.78c0-9.09 4.16 12.08 12.5 63.5l10.5-67v54.5h-23V124.4z" id="k"/><path d="M213.24 201.28h17v41.5h-17v-41.5z" id="l"/><path d="M-42.3 66.91c.83.15.79 1.35-.05 1.44-6.89.82-22.83 2.72-29.73 3.53-2.43.29-4.5-1.76-4.23-4.19.18-1.61.19-1.68.37-3.29a4.239 4.239 0 015.18-3.66l13.08 3.06 9.36 1.98c2.15.4 3.88.73 6.02 1.13z" id="m"/><path d="M-62.53 65.72c0 4.25-3.45 7.71-7.7 7.71-4.26 0-7.71-3.46-7.71-7.71s3.45-7.71 7.71-7.71c4.25 0 7.7 3.46 7.7 7.71z" id="n"/><path d="M40.66-64.69c0 25.72-21.03 46.6-46.94 46.6-25.9 0-46.93-20.88-46.93-46.6 0-25.71 21.03-46.59 46.93-46.59 25.91 0 46.94 20.88 46.94 46.59z" id="o"/><path d="M-4.66-111.28c.82 0 1.49.66 1.49 1.48v8.35c0 .82-.67 1.49-1.49 1.49h-.13c-.82 0-1.49-.67-1.49-1.49v-8.35c0-.82.67-1.48 1.49-1.48h.13z" id="p"/><path d="M26.91-96.95c.51.64.41 1.58-.23 2.09-1.54 1.23-4.98 3.99-6.52 5.22-.64.51-1.57.41-2.09-.23l-.08-.1a1.49 1.49 0 01.23-2.09c1.54-1.23 4.98-3.99 6.51-5.22a1.48 1.48 0 012.09.23c.21.25-.12-.15.09.1z" id="q"/><path d="M39.02-76.74c.35.77 0 1.67-.76 2.01-2.03.92-6.73 3.03-8.76 3.94a1.535 1.535 0 01-2.02-.77c-.34-.76 0-1.67.77-2.01 2.03-.91 6.73-3.02 8.76-3.94.76-.34 1.67 0 2.01.77.13.28-.12-.28 0 0z" id="r"/><path d="M37.48-46.64c-.4.72-1.31.97-2.03.57-1.71-.95-5.57-3.1-7.29-4.06-.72-.4-.97-1.3-.57-2.02.15-.28-.12.2.03-.07.4-.72 1.31-.97 2.03-.57 1.71.95 5.57 3.1 7.29 4.06.72.4.97 1.3.57 2.02-.15.27.12-.2-.03.07z" id="s"/><path d="M-38.08-99.41a1.49 1.49 0 012.09-.23c1.53 1.24 4.98 4 6.51 5.23.64.51.74 1.45.23 2.09l-.08.1c-.52.64-1.45.74-2.09.23-1.54-1.23-4.98-4-6.51-5.23a1.49 1.49 0 01-.23-2.09c.2-.25-.12.16.08-.1z" id="t"/><path d="M-39.92-72.84c-.25.81-1.1 1.26-1.9 1.01-2.13-.66-7.05-2.17-9.18-2.83-.8-.25-1.26-1.1-1.01-1.9.09-.3-.09.29 0 0 .25-.81 1.1-1.26 1.91-1.01 2.12.65 7.05 2.17 9.17 2.83.81.24 1.26 1.1 1.01 1.9-.09.29.09-.29 0 0z" id="u"/><path d="M-50.84-48.29c-.33-.78.03-1.67.81-2l8.84-3.75c.77-.33 1.67.03 2 .81.12.28-.12-.28 0 0 .32.77-.04 1.67-.81 2-2.05.87-6.79 2.88-8.84 3.74a1.524 1.524 0 01-2-.8z" id="v"/><path d="M23.83-60.68c.82.16.78 1.35-.05 1.45L-5.96-55.7c-2.43.29-4.49-1.76-4.22-4.19.18-1.61.18-1.68.36-3.29a4.25 4.25 0 015.19-3.67c3.55.83 9.52 2.24 13.07 3.07l9.36 1.97c2.15.41 3.88.73 6.03 1.13z" id="w"/><path d="M3.6-61.87c0 4.26-3.46 7.71-7.71 7.71s-7.71-3.45-7.71-7.71c0-4.25 3.46-7.7 7.71-7.7s7.71 3.45 7.71 7.7z" id="x"/><path d="M-36.8 63.18c0 19.68-16.1 35.66-35.92 35.66s-35.92-15.98-35.92-35.66c0-19.68 16.1-35.66 35.92-35.66S-36.8 43.5-36.8 63.18z" id="y"/><path d="M-22.99 148.31l9.63-33.29 15.25 9.16 15.25 9.17-24.88 24.13-24.88 24.13 9.63-33.3z" id="z"/><path d="M12.19 181.61c0 25.72-21.03 46.6-46.93 46.6s-46.94-20.88-46.94-46.6c0-25.72 21.04-46.6 46.94-46.6s46.93 20.88 46.93 46.6z" id="A"/><path d="M-90.65-79.53h-54.91V8.03h85.71v-50.04h5.25v54.73h-96.14v-97.3h60.09v5.05zM-93-28.58v.01l-13.93 14.09-25.8-26.11 13.93-14.09 11.87 12.01 32.4-32.79 13.93 14.1L-93-28.58z" id="B"/><path d="M-126.37 133.81l-11.49 9.97-21.3-18.47 3.76-4.24 17.53 15.37 37.06-32.42 3.66 4.45-29.22 25.34z" id="C"/><path d="M-183.73 98.78l-.03-20.13 60.15-.6v4.71l-54.69 1.62.33 89.47-5.42 1.86-.34-76.93z" id="D"/><path d="M-87.05 155.58l-.1 20.13h-95.38l1.81-4.7 88.15-1.07 1.07-38.58h4.45v24.22z" id="E"/><path d="M82.08 64.61l.4.04.4.06.39.07.39.09.38.11.38.12.37.13.36.15.35.16.35.17.34.19.33.2.32.22.32.22.3.24.3.25.28.26.28.27.26.28.26.3.24.3.24.31.22.32.21.33.19.34.19.35.17.35.16.36.14.37.13.38.12.38.1.39.09.4.07.4.06.4.04.41.02.42.01.42-.01.42-.02.42-.04.41-.06.41-.07.41-.09.41-.1.41-.12.4-.13.41-.14.4-.16.41-.17.41-.19.41-.19.41-.21.41-.22.42-.24.42-.24.43-.26.43-.26.43-.28.44-.28.45-.3.45-.3.46-.32.47-.32.48-.33.48-.34.49-.35.5-.35.52-.36.52-.37.53-.38.55-.38.55-.39.57-.39.58-.4.59-.4.61-.4.62-.42.64-.41-.64-.4-.62-.41-.61-.39-.59-.4-.58-.38-.57-.38-.55-.38-.55-.37-.53-.36-.52-.35-.52-.35-.5-.34-.49-.33-.48-.32-.48-.32-.47-.3-.46-.3-.45-.28-.45-.28-.44-.27-.43-.25-.43-.25-.43-.23-.42-.22-.42-.21-.41-.2-.41-.18-.41-.17-.41-.16-.41-.14-.4-.13-.41-.12-.4-.1-.41-.09-.41-.07-.41-.06-.41-.04-.41-.02-.42-.01-.42.01-.42.02-.42.04-.41.06-.4.07-.4.09-.4.1-.39.12-.38.13-.38.14-.37.16-.36.17-.35.18-.35.2-.34.21-.33.22-.32.23-.31.25-.3.25-.3.27-.28.28-.27.28-.26.3-.25.3-.24.32-.22.32-.22.33-.2.34-.19.35-.17.35-.16.36-.15.37-.13.38-.12.38-.11.38-.09.4-.07.39-.06.41-.04.4-.03h.83l.4.03zm-1.2 4.81l-.19.02-.19.03-.19.03-.18.05-.18.04-.18.06-.17.06-.18.07-.16.08-.17.08-.16.09-.16.1-.15.1-.15.11-.14.11-.14.12-.14.12-.13.13-.12.13-.12.14-.12.14-.11.15-.1.15-.1.16-.1.16-.08.16-.09.17-.07.17-.07.18-.06.18-.06.18-.04.18-.05.19-.03.19-.03.19-.02.2-.01.2v.39l.01.2.02.2.03.19.03.19.05.18.04.19.06.18.06.18.07.17.07.18.09.16.08.17.1.16.1.15.1.16.11.14.12.15.12.14.12.13.13.13.14.12.14.12.14.11.15.11.15.1.16.1.16.08.17.09.16.07.18.07.17.07.18.05.18.05.18.05.19.03.19.03.19.02.19.01h.39l.19-.01.19-.02.19-.03.19-.03.18-.05.18-.05.18-.05.17-.07.17-.07.17-.07.17-.09.16-.08.15-.1.16-.1.15-.11.14-.11.14-.12.14-.12.13-.13.12-.13.12-.14.12-.15.11-.14.1-.16.1-.15.1-.16.08-.17.08-.16.08-.18.07-.17.06-.18.05-.18.05-.19.04-.18.04-.19.03-.19.01-.2.02-.2v-.39l-.02-.2-.01-.2-.03-.19-.04-.19-.04-.19-.05-.18-.05-.18-.06-.18-.07-.18-.08-.17-.08-.17-.08-.16-.1-.16-.1-.16-.1-.15-.11-.15-.12-.14-.12-.14-.12-.13-.13-.13-.14-.12-.14-.12-.14-.11-.15-.11-.16-.1-.15-.1-.16-.09-.17-.08-.17-.08-.17-.07-.17-.06-.18-.06-.18-.04-.18-.05-.19-.03-.19-.03-.19-.02-.19-.01h-.39l-.19.01z" id="F"/><path d="M86.39 33.83c-.14 17.11-14.15 30.89-31.27 30.74-17.11-.14-30.89-14.15-30.75-31.27.15-17.11 14.16-30.89 31.28-30.75 17.11.15 30.89 14.16 30.74 31.28z" id="G"/><path d="M35.42 57.79c.54.33 2.81 2.2 3.2 2.64 2.06 2.34 4.31-.53 2.17 2.35C22.99 86.8 14.83 97.81 16.31 95.8a3.74 3.74 0 01-5.24.78l-6.02-4.46a3.595 3.595 0 01-.65-5.15c5.4-6.68 20.66-25.53 26.42-32.65.32-.39.92-.39 1.25 0 1.58 1.91 2.7 3.07 3.35 3.47z" id="H"/><path d="M74.39 33.73c-.08 10.49-8.68 18.93-19.17 18.84-10.49-.08-18.94-8.67-18.85-19.17.09-10.49 8.68-18.93 19.18-18.85 10.49.09 18.93 8.68 18.84 19.18z" id="I"/><path d="M340.12 60.37l.51.05.5.07.49.1.48.11.48.13.47.15.46.17.46.18.44.2.43.22.43.24.41.25.41.27.39.28.38.3.37.31.36.33.35.34.33.35.32.37.31.38.29.39.27.4.27.41.24.43.23.43.22.44.2.46.18.46.16.47.15.48.13.49.11.5.09.5.07.51.05.51.03.52.01.53-.01.53-.03.52-.05.52-.07.51-.09.51-.11.52-.13.5-.15.51-.16.51-.18.51-.2.51-.22.51-.23.51-.24.52-.27.52-.27.52-.29.53-.31.53-.32.54-.33.55-.35.55-.36.56-.37.56-.38.58-.39.59-.41.59-.41.61-.43.62-.43.62-.44.65-.46.65-.46.67-.47.68-.48.7-.48.71-.49.73-.5.74-.51.76-.51.78-.51.8-.52-.8-.51-.78-.5-.76-.5-.74-.49-.73-.48-.71-.48-.7-.47-.68-.46-.67-.46-.65-.44-.65-.43-.62-.43-.62-.41-.61-.41-.59-.39-.59-.38-.58-.38-.56-.35-.56-.35-.55-.33-.55-.32-.54-.31-.53-.29-.53-.28-.52-.26-.52-.24-.52-.24-.51-.21-.51-.2-.51-.18-.51-.16-.51-.15-.51-.13-.5-.11-.52-.09-.51-.07-.51-.05-.52-.03-.52-.01-.53.01-.53.03-.52.05-.51.07-.51.09-.5.11-.5.13-.49.15-.48.16-.47.18-.46.2-.46.21-.44.24-.43.24-.43.26-.41.28-.4.29-.39.31-.38.32-.37.33-.35.35-.34.35-.33.38-.31.38-.3.39-.28.41-.27.41-.25.43-.24.43-.22.44-.2.46-.18.46-.17.47-.15.48-.13.48-.11.49-.1.5-.07.5-.05.51-.03.52-.01.51.01.51.03zm-1.51 6.03l-.23.02-.24.04-.23.04-.23.05-.23.06-.22.08-.22.07-.22.09-.21.1-.2.1-.2.11-.2.12-.19.13-.19.13-.18.15-.17.14-.17.16-.17.16-.15.17-.16.17-.14.18-.14.18-.13.19-.12.2-.12.2-.11.21-.1.21-.1.21-.08.22-.08.22-.07.23-.06.23-.05.24-.04.24-.04.24-.02.24-.02.25v.5l.02.24.02.25.04.24.04.24.05.23.06.23.07.23.08.22.08.22.1.22.1.21.11.2.12.2.12.2.13.19.14.19.14.17.16.18.15.17.17.16.17.15.17.15.18.14.19.13.19.13.2.12.2.11.2.11.21.09.22.09.22.08.22.07.23.06.23.05.23.05.24.03.23.03.25.01.24.01.24-.01.25-.01.23-.03.24-.03.23-.05.23-.05.23-.06.22-.07.22-.08.21-.09.21-.09.21-.11.2-.11.2-.12.19-.13.19-.13.18-.14.17-.15.17-.15.17-.16.15-.17.16-.18.14-.17.14-.19.13-.19.12-.2.12-.2.11-.2.1-.21.1-.22.08-.22.08-.22.07-.23.06-.23.05-.23.04-.24.04-.24.02-.25.02-.24v-.5l-.02-.25-.02-.24-.04-.24-.04-.24-.05-.24-.06-.23-.07-.23-.08-.22-.08-.22-.1-.21-.1-.21-.11-.21-.12-.2-.12-.2-.13-.19-.14-.18-.14-.18-.16-.17-.15-.17-.17-.16-.17-.16-.17-.14-.18-.15-.19-.13-.19-.13-.2-.12-.2-.11-.21-.1-.21-.1-.21-.09-.22-.07-.22-.08-.23-.06-.23-.05-.23-.04-.24-.04-.23-.02-.25-.02h-.48l-.25.02z" id="J"/><path d="M309.07 58.61l.27.03.26.04.26.05.25.05.25.07.25.08.25.09.23.1.24.1.23.12.22.12.22.14.21.14.21.15.2.15.2.17.19.17.18.18.17.19.17.19.16.2.16.2.14.22.14.21.13.23.12.23.11.23.11.24.09.24.09.25.08.25.06.26.06.26.05.27.04.27.02.27.02.27.01.28-.01.28-.02.27-.02.27-.04.28-.05.27-.06.27-.06.26-.08.27-.09.27-.09.27-.11.27-.11.26-.12.27-.13.28-.14.27-.14.28-.16.27-.16.28-.17.29-.17.29-.18.29-.19.29-.2.3-.2.3-.21.31-.21.32-.22.32-.22.32-.23.33-.24.34-.23.34-.25.36-.25.36-.25.36-.25.38-.26.38-.26.39-.27.4-.27.41-.27.43-.27-.43-.27-.41-.27-.4-.26-.39-.26-.38-.25-.38-.25-.36-.25-.36-.24-.36-.24-.34-.24-.34-.23-.33-.22-.32-.22-.32-.21-.32-.21-.31-.2-.3-.2-.3-.18-.29-.19-.29-.17-.29-.17-.29-.16-.28-.15-.27-.15-.28-.14-.27-.13-.28-.12-.27-.11-.26-.11-.27-.09-.27-.09-.27-.08-.27-.06-.26-.06-.27-.05-.27-.04-.28-.02-.27-.02-.27-.01-.28.01-.28.02-.27.02-.27.04-.27.05-.27.06-.26.06-.26.08-.25.09-.25.09-.24.11-.24.11-.23.12-.23.13-.23.14-.21.15-.22.15-.2.16-.2.17-.19.17-.19.19-.18.18-.17.2-.17.2-.15.21-.15.21-.14.22-.14.22-.12.23-.12.24-.1.24-.1.24-.09.25-.08.25-.07.25-.05.26-.05.26-.04.27-.03.27-.01.27-.01.27.01.27.01zm-.8 3.18l-.12.01-.13.02-.12.02-.12.03-.12.03-.12.04-.11.04-.11.05-.11.05-.11.05-.11.06-.1.06-.1.07-.1.07-.1.08-.09.07-.09.09-.09.08-.08.09-.08.09-.07.09-.08.1-.07.1-.06.11-.06.1-.06.11-.05.11-.05.11-.05.12-.04.12-.04.12-.03.12-.03.12-.02.13-.02.12-.01.13-.01.13v.27l.01.13.01.12.02.13.02.13.03.12.03.12.04.12.04.12.05.12.05.11.05.11.06.11.06.1.06.11.07.1.08.09.07.1.08.09.08.09.09.08.09.08.09.08.1.08.1.07.1.06.1.07.11.06.11.05.11.05.11.05.11.04.12.04.12.03.12.03.12.02.13.02.12.01.13.01h.26l.13-.01.12-.01.13-.02.12-.02.12-.03.12-.03.12-.04.11-.04.11-.05.12-.05.1-.05.11-.06.1-.07.1-.06.1-.07.1-.08.09-.08.09-.08.09-.08.08-.09.08-.09.08-.1.07-.09.07-.1.06-.11.06-.1.06-.11.06-.11.04-.11.05-.12.04-.12.04-.12.03-.12.03-.12.02-.13.02-.13.01-.12.01-.13v-.27l-.01-.13-.01-.13-.02-.12-.02-.13-.03-.12-.03-.12-.04-.12-.04-.12-.05-.12-.04-.11-.06-.11-.06-.11-.06-.1-.06-.11-.07-.1-.07-.1-.08-.09-.08-.09-.08-.09-.09-.08-.09-.09-.09-.07-.1-.08-.1-.07-.1-.07-.1-.06-.11-.06-.1-.05-.12-.05-.11-.05-.11-.04-.12-.04-.12-.03-.12-.03-.12-.02-.13-.02-.12-.01-.13-.01h-.26l-.13.01z" id="K"/><path d="M328.84 29.33c-.11 13.04-10.79 23.54-23.83 23.43-13.04-.11-23.54-10.79-23.43-23.83.11-13.04 10.79-23.54 23.83-23.43 13.04.11 23.54 10.79 23.43 23.83z" id="L"/><path d="M290 47.59c.41.25 2.14 1.67 2.44 2.01 1.57 1.78 3.28-.4 1.65 1.79-13.57 18.31-19.79 26.7-18.65 25.17a2.858 2.858 0 01-4 .59c-1.37-1.02-3.21-2.38-4.59-3.4a2.746 2.746 0 01-.5-3.92c4.13-5.09 15.76-19.46 20.14-24.88.25-.3.71-.3.95 0 1.21 1.45 2.06 2.33 2.56 2.64z" id="M"/><path d="M319.7 29.25c-.07 8-6.62 14.44-14.61 14.37-8-.07-14.43-6.62-14.37-14.61.07-8 6.62-14.43 14.61-14.37 8 .07 14.44 6.62 14.37 14.61z" id="N"/><path d="M313.05 93.5l.97-2.86 21.74 7.38-.98 2.87-21.73-7.39z" id="O"/><path d="M316.5 92.8l-2.86-1.2 3.33-7.91 2.86 1.2-3.33 7.91z" id="P"/><path d="M320.43 84.01l-1.27 2.77-10.29-4.72 1.27-2.77 10.29 4.72z" id="Q"/><path d="M241.19-65.42h14.22v3.55h-35.56v-3.55h14.23v-43.74l-40.4-40.34h87.9l-40.39 40.34v43.74zm-39.12-86.99v-3.55h71.12v3.55h-71.12z" id="R"/></defs><use xlink:href="#a" fill-opacity="0" stroke="#000" stroke-width="4"/><use xlink:href="#b"/><use xlink:href="#c"/><use xlink:href="#d"/><use xlink:href="#e"/><use xlink:href="#e" fill-opacity="0" stroke="#060304" stroke-width="0"/><use xlink:href="#f"/><use xlink:href="#g"/><use xlink:href="#g" fill-opacity="0" stroke="#060304" stroke-width="0"/><use xlink:href="#h"/><use xlink:href="#i"/><use xlink:href="#j"/><use xlink:href="#k"/><use xlink:href="#l"/><use xlink:href="#m"/><use xlink:href="#m" fill-opacity="0" stroke="#060304"/><use xlink:href="#n"/><use xlink:href="#o" fill-opacity="0" stroke="#000" stroke-width="4"/><use xlink:href="#p"/><use xlink:href="#q"/><use xlink:href="#q" fill-opacity="0" stroke="#060304" stroke-width="0"/><use xlink:href="#r"/><use xlink:href="#s"/><use xlink:href="#s" fill-opacity="0" stroke="#060304" stroke-width="0"/><use xlink:href="#t"/><use xlink:href="#u"/><use xlink:href="#v"/><use xlink:href="#w"/><use xlink:href="#w" fill-opacity="0" stroke="#060304"/><use xlink:href="#x"/><use xlink:href="#y" fill-opacity="0" stroke="#000" stroke-width="4"/><use xlink:href="#z" fill-opacity="0" stroke="#060304" stroke-width="4"/><use xlink:href="#A" fill-opacity="0" stroke="#000" stroke-width="4"/><use xlink:href="#B"/><use xlink:href="#B" fill-opacity="0" stroke="#060304" stroke-width="0"/><use xlink:href="#C"/><use xlink:href="#C" fill-opacity="0" stroke="#060304" stroke-width="0"/><use xlink:href="#D"/><use xlink:href="#D" fill-opacity="0" stroke="#060304" stroke-width="0"/><use xlink:href="#E"/><use xlink:href="#E" fill-opacity="0" stroke="#060304" stroke-width="0"/><use xlink:href="#F" fill="#fd425a"/><use xlink:href="#F" fill-opacity="0" stroke="#060304" stroke-width="3"/><use xlink:href="#G" fill-opacity="0" stroke="#060304" stroke-width="4"/><use xlink:href="#H" fill-opacity="0" stroke="#060304" stroke-width="4"/><use xlink:href="#I" fill-opacity="0" stroke="#060304" stroke-width="4"/><use xlink:href="#J" fill-opacity="0" stroke="#060304" stroke-width="3"/><use xlink:href="#K" fill-opacity="0" stroke="#060304" stroke-width="2"/><use xlink:href="#L" fill-opacity="0" stroke="#060304" stroke-width="4"/><use xlink:href="#M" fill-opacity="0" stroke="#060304" stroke-width="4"/><use xlink:href="#N" fill-opacity="0" stroke="#060304" stroke-width="4"/><use xlink:href="#O"/><use xlink:href="#P"/><use xlink:href="#Q"/><use xlink:href="#R" fill-opacity="0" stroke="#060304" stroke-width="4"/></svg>